<svg width="26" height="26" viewBox="0 0 26 26" fill="none" xmlns="http://www.w3.org/2000/svg">
<rect x="0.948242" y="0.0961914" width="25.0522" height="25.0522" rx="6.5261" fill="url(#paint0_linear_2562_39747)"/>
<g clip-path="url(#clip0_2562_39747)">
<path d="M18.4199 9.45801C18.1386 9.45801 17.8645 9.57048 17.6676 9.77441L16.2684 11.1736L16.3124 12.624L17.759 12.6643L19.1793 11.2439C19.3691 11.0471 19.4746 10.7799 19.4746 10.5127C19.4746 9.9291 19.0035 9.45801 18.4199 9.45801ZM14.9043 7.3252H13.4746C13.2803 7.3252 13.123 7.48244 13.123 7.67676V8.02832H10.3105V7.67676C10.3105 7.48244 10.1533 7.3252 9.95898 7.3252H8.5293C7.94772 7.3252 7.47461 7.7983 7.47461 8.37988V18.2705C7.47461 18.4648 7.63185 18.6221 7.82617 18.6221H15.6074C15.8017 18.6221 15.959 18.4648 15.959 18.2705V14.3167C15.959 14.1746 15.8735 14.0462 15.742 13.9919C15.6108 13.9374 15.4594 13.9672 15.3588 14.0682L13.5379 15.8891C13.2443 16.1827 12.878 16.3763 12.4801 16.4525C12.5563 16.0546 12.7499 15.6883 13.0435 15.3947L15.856 12.5822C15.9219 12.5163 15.959 12.4271 15.959 12.3337V8.37988C15.959 7.7983 15.4859 7.3252 14.9043 7.3252Z" fill="url(#paint1_linear_2562_39747)"/>
<path d="M9.95898 8.73145H13.4746C13.6689 8.73145 13.8262 8.5742 13.8262 8.37988V6.97363C13.8262 6.77931 13.6689 6.62207 13.4746 6.62207H9.95898C9.76466 6.62207 9.60742 6.77931 9.60742 6.97363V8.37988C9.60742 8.5742 9.76466 8.73145 9.95898 8.73145ZM10.6621 9.45801H9.25586C9.06154 9.45801 8.9043 9.61525 8.9043 9.80957V11.2158C8.9043 11.4101 9.06154 11.5674 9.25586 11.5674H10.6621C10.8564 11.5674 11.0137 11.4101 11.0137 11.2158V9.80957C11.0137 9.61525 10.8564 9.45801 10.6621 9.45801ZM10.6621 12.2705H9.25586C9.06154 12.2705 8.9043 12.4278 8.9043 12.6221V14.0283C8.9043 14.2226 9.06154 14.3799 9.25586 14.3799H10.6621C10.8564 14.3799 11.0137 14.2226 11.0137 14.0283V12.6221C11.0137 12.4278 10.8564 12.2705 10.6621 12.2705ZM10.6621 15.083H9.25586C9.06154 15.083 8.9043 15.2402 8.9043 15.4346V16.8408C8.9043 17.0351 9.06154 17.1924 9.25586 17.1924H10.6621C10.8564 17.1924 11.0137 17.0351 11.0137 16.8408V15.4346C11.0137 15.2402 10.8564 15.083 10.6621 15.083ZM16.2684 11.1736L12.5489 14.9002C12.0285 15.4205 11.7402 16.1095 11.7402 16.8408C11.7402 17.0377 11.8949 17.1924 12.0918 17.1924C12.823 17.1924 13.5121 16.9041 14.0324 16.3838L17.759 12.6643L16.2684 11.1736ZM11.7168 9.80957C11.7168 10.0039 11.874 10.1611 12.0684 10.1611H14.1777C14.3721 10.1611 14.5293 10.0039 14.5293 9.80957C14.5293 9.61525 14.3721 9.45801 14.1777 9.45801H12.0684C11.874 9.45801 11.7168 9.61525 11.7168 9.80957ZM12.0684 10.8643C11.874 10.8643 11.7168 11.0215 11.7168 11.2158C11.7168 11.4101 11.874 11.5674 12.0684 11.5674H13.4746C13.6689 11.5674 13.8262 11.4101 13.8262 11.2158C13.8262 11.0215 13.6689 10.8643 13.4746 10.8643H12.0684ZM12.0684 12.9736H12.7715C12.9658 12.9736 13.123 12.8164 13.123 12.6221C13.123 12.4278 12.9658 12.2705 12.7715 12.2705H12.0684C11.874 12.2705 11.7168 12.4278 11.7168 12.6221C11.7168 12.8164 11.874 12.9736 12.0684 12.9736Z" fill="url(#paint2_linear_2562_39747)"/>
</g>
<defs>
<linearGradient id="paint0_linear_2562_39747" x1="13.4743" y1="0.0961917" x2="13.4743" y2="25.1484" gradientUnits="userSpaceOnUse">
<stop stop-color="#F2F7FF"/>
<stop offset="1" stop-color="#D8E9FF"/>
</linearGradient>
<linearGradient id="paint1_linear_2562_39747" x1="13.4746" y1="18.6221" x2="13.4746" y2="7.3252" gradientUnits="userSpaceOnUse">
<stop stop-color="#5558FF"/>
<stop offset="1" stop-color="#00C0FF"/>
</linearGradient>
<linearGradient id="paint2_linear_2562_39747" x1="13.3316" y1="17.1924" x2="13.3316" y2="6.62207" gradientUnits="userSpaceOnUse">
<stop stop-color="#ADDCFF"/>
<stop offset="0.5028" stop-color="#EAF6FF"/>
<stop offset="1" stop-color="#EAF6FF"/>
</linearGradient>
<clipPath id="clip0_2562_39747">
<rect width="12" height="12" fill="white" transform="translate(7.47461 6.62207)"/>
</clipPath>
</defs>
</svg>
