<svg width="26" height="26" viewBox="0 0 26 26" fill="none" xmlns="http://www.w3.org/2000/svg">
<rect x="0.948242" y="0.148438" width="25.0522" height="25.0522" rx="6.5261" fill="url(#paint0_linear_2562_40394)"/>
<g clip-path="url(#clip0_2562_40394)">
<path d="M19.123 12.3228C18.9287 12.3228 18.7715 12.48 18.7715 12.6743C18.7715 13.2559 18.2984 13.729 17.7168 13.729H9.23242C8.65084 13.729 8.17773 13.2559 8.17773 12.6743C8.17773 12.48 8.02049 12.3228 7.82617 12.3228C7.63185 12.3228 7.47461 12.48 7.47461 12.6743V16.1899C7.47461 17.1592 8.26288 17.9478 9.23242 17.9478H17.7168C18.6863 17.9478 19.4746 17.1592 19.4746 16.1899V12.6743C19.4746 12.48 19.3174 12.3228 19.123 12.3228ZM11.3652 10.2134C11.5596 10.2134 11.7168 10.0561 11.7168 9.86182V8.45557C11.7168 8.2616 11.8747 8.104 12.0684 8.104H14.8809C15.0745 8.104 15.2324 8.2616 15.2324 8.45557V9.86182C15.2324 10.0561 15.3897 10.2134 15.584 10.2134C15.7783 10.2134 15.9355 10.0561 15.9355 9.86182V8.45557C15.9355 7.87399 15.4624 7.40088 14.8809 7.40088H12.0684C11.4868 7.40088 11.0137 7.87399 11.0137 8.45557V9.86182C11.0137 10.0561 11.1709 10.2134 11.3652 10.2134Z" fill="url(#paint1_linear_2562_40394)"/>
<path d="M18.4199 9.51025H8.5293C7.94772 9.51025 7.47461 9.98336 7.47461 10.5649V12.6743C7.47461 13.6435 8.26288 14.4321 9.23242 14.4321H12.4199V14.7837C12.4199 15.3653 12.893 15.8384 13.4746 15.8384C14.0562 15.8384 14.5293 15.3653 14.5293 14.7837V14.4321H17.7168C18.6863 14.4321 19.4746 13.6435 19.4746 12.6743V10.5649C19.4746 9.98336 19.0015 9.51025 18.4199 9.51025Z" fill="url(#paint2_linear_2562_40394)"/>
</g>
<defs>
<linearGradient id="paint0_linear_2562_40394" x1="13.4743" y1="0.148438" x2="13.4743" y2="25.2006" gradientUnits="userSpaceOnUse">
<stop stop-color="#F2F7FF"/>
<stop offset="1" stop-color="#D8E9FF"/>
</linearGradient>
<linearGradient id="paint1_linear_2562_40394" x1="13.4746" y1="17.9478" x2="13.4746" y2="7.40088" gradientUnits="userSpaceOnUse">
<stop stop-color="#5558FF"/>
<stop offset="1" stop-color="#00C0FF"/>
</linearGradient>
<linearGradient id="paint2_linear_2562_40394" x1="13.4746" y1="15.8384" x2="13.4746" y2="9.51025" gradientUnits="userSpaceOnUse">
<stop stop-color="#ADDCFF"/>
<stop offset="0.5028" stop-color="#EAF6FF"/>
<stop offset="1" stop-color="#EAF6FF"/>
</linearGradient>
<clipPath id="clip0_2562_40394">
<rect width="12" height="12" fill="white" transform="translate(7.47461 6.67432)"/>
</clipPath>
</defs>
</svg>
