<svg width="26" height="26" viewBox="0 0 26 26" fill="none" xmlns="http://www.w3.org/2000/svg">
<rect x="0.948242" y="0.200684" width="25.0522" height="25.0522" rx="6.5261" fill="url(#paint0_linear_2562_40418)"/>
<g clip-path="url(#clip0_2562_40418)">
<path d="M15.6777 7.07812V16.6172H9.70117C9.50702 16.6172 9.34961 16.7746 9.34961 16.9688V17.7891C9.34961 18.3068 8.92987 18.7266 8.41211 18.7266C7.89435 18.7266 7.47461 18.3068 7.47461 17.7891V7.07812C7.47461 6.88397 7.63202 6.72656 7.82617 6.72656H15.3262C15.5203 6.72656 15.6777 6.88397 15.6777 7.07812ZM19.4737 12.7254C19.4174 11.9227 19.2555 11.488 19.099 11.0677C18.9306 10.6154 18.7715 10.1881 18.7715 9.23438C18.7715 8.92467 18.4 8.76628 18.1765 8.98069C18.1051 9.0492 16.4277 10.6822 16.4277 12.75C16.4277 14.5268 17.3356 15.9893 17.5996 16.3769H18.3027C18.5667 15.9893 19.4746 14.5268 19.4746 12.75L19.4737 12.7254Z" fill="url(#paint1_linear_2562_40418)"/>
<path d="M12.5137 8.625H10.6387C10.4445 8.625 10.2871 8.46759 10.2871 8.27344C10.2871 8.07928 10.4445 7.92188 10.6387 7.92188H12.5137C12.7078 7.92188 12.8652 8.07928 12.8652 8.27344C12.8652 8.46759 12.7078 8.625 12.5137 8.625ZM14.2715 9.67969C14.2715 9.48553 14.1141 9.32812 13.9199 9.32812H9.23242C9.03827 9.32812 8.88086 9.48553 8.88086 9.67969C8.88086 9.87384 9.03827 10.0312 9.23242 10.0312H13.9199C14.1141 10.0312 14.2715 9.87384 14.2715 9.67969ZM14.2715 11.0859C14.2715 10.8918 14.1141 10.7344 13.9199 10.7344H9.23242C9.03827 10.7344 8.88086 10.8918 8.88086 11.0859C8.88086 11.2801 9.03827 11.4375 9.23242 11.4375H13.9199C14.1141 11.4375 14.2715 11.2801 14.2715 11.0859ZM14.2715 12.4922C14.2715 12.298 14.1141 12.1406 13.9199 12.1406H9.23242C9.03827 12.1406 8.88086 12.298 8.88086 12.4922C8.88086 12.6863 9.03827 12.8438 9.23242 12.8438H13.9199C14.1141 12.8438 14.2715 12.6863 14.2715 12.4922ZM12.8652 13.8984C12.8652 13.7043 12.7078 13.5469 12.5137 13.5469H9.23242C9.03827 13.5469 8.88086 13.7043 8.88086 13.8984C8.88086 14.0926 9.03827 14.25 9.23242 14.25H12.5137C12.7078 14.25 12.8652 14.0926 12.8652 13.8984ZM14.2715 15.3047C14.2715 15.1105 14.1141 14.9531 13.9199 14.9531H12.5137C12.3195 14.9531 12.1621 15.1105 12.1621 15.3047C12.1621 15.4988 12.3195 15.6562 12.5137 15.6562H13.9199C14.1141 15.6562 14.2715 15.4988 14.2715 15.3047ZM16.498 16.6172H9.70117C9.50702 16.6172 9.34961 16.7746 9.34961 16.9688V17.7891C9.34961 18.3068 8.92987 18.7266 8.41211 18.7266H15.7949C16.3774 18.7266 16.8496 18.2544 16.8496 17.6719V16.9688C16.8496 16.7746 16.6922 16.6172 16.498 16.6172ZM18.3027 18.375V12.75C18.3027 12.5558 18.1453 12.3984 17.9512 12.3984C17.757 12.3984 17.5996 12.5558 17.5996 12.75V18.375C17.5996 18.5692 17.757 18.7266 17.9512 18.7266C18.1453 18.7266 18.3027 18.5692 18.3027 18.375Z" fill="url(#paint2_linear_2562_40418)"/>
</g>
<defs>
<linearGradient id="paint0_linear_2562_40418" x1="13.4743" y1="0.200684" x2="13.4743" y2="25.2529" gradientUnits="userSpaceOnUse">
<stop stop-color="#F2F7FF"/>
<stop offset="1" stop-color="#D8E9FF"/>
</linearGradient>
<linearGradient id="paint1_linear_2562_40418" x1="13.4746" y1="18.7266" x2="13.4746" y2="6.72656" gradientUnits="userSpaceOnUse">
<stop stop-color="#ADDCFF"/>
<stop offset="0.5028" stop-color="#EAF6FF"/>
<stop offset="1" stop-color="#EAF6FF"/>
</linearGradient>
<linearGradient id="paint2_linear_2562_40418" x1="13.3574" y1="18.7266" x2="13.3574" y2="7.92188" gradientUnits="userSpaceOnUse">
<stop stop-color="#5558FF"/>
<stop offset="1" stop-color="#00C0FF"/>
</linearGradient>
<clipPath id="clip0_2562_40418">
<rect width="12" height="12" fill="white" transform="translate(7.47461 6.72656)"/>
</clipPath>
</defs>
</svg>
