<svg width="26" height="26" viewBox="0 0 26 26" fill="none" xmlns="http://www.w3.org/2000/svg">
<rect x="0.551758" y="0.0439453" width="25.0522" height="25.0522" rx="6.5261" fill="url(#paint0_linear_2562_40845)"/>
<g clip-path="url(#clip0_2562_40845)">
<path d="M18.0234 18.5698H8.13281C7.55123 18.5698 7.07812 18.0967 7.07812 17.5151V7.62451C7.07812 7.04293 7.55123 6.56982 8.13281 6.56982H18.0234C18.605 6.56982 19.0781 7.04293 19.0781 7.62451V17.5151C19.0781 18.0967 18.605 18.5698 18.0234 18.5698Z" fill="url(#paint1_linear_2562_40845)"/>
<path d="M13.0781 10.1089C13.6597 10.1089 14.1328 9.63578 14.1328 9.0542C14.1328 8.47262 13.6597 7.99951 13.0781 7.99951C12.4965 7.99951 12.0234 8.47262 12.0234 9.0542C12.0234 9.63578 12.4965 10.1089 13.0781 10.1089ZM13.0781 8.70264C13.2718 8.70264 13.4297 8.86023 13.4297 9.0542C13.4297 9.24817 13.2718 9.40576 13.0781 9.40576C12.8845 9.40576 12.7266 9.24817 12.7266 9.0542C12.7266 8.86023 12.8845 8.70264 13.0781 8.70264ZM16.5938 16.437H16.2422V14.6792C16.2422 14.0976 15.7691 13.6245 15.1875 13.6245H13.7812C13.5876 13.6245 13.4297 13.4669 13.4297 13.2729V12.9214H15.1875C15.3818 12.9214 15.5391 12.7641 15.5391 12.5698C15.5391 12.3755 15.3818 12.2183 15.1875 12.2183H13.4297V11.1636C13.4297 10.9693 13.2724 10.812 13.0781 10.812C12.8838 10.812 12.7266 10.9693 12.7266 11.1636V11.6123C12.4981 11.5532 12.2644 11.5151 12.0234 11.5151C10.4723 11.5151 9.21094 12.7768 9.21094 14.3276C9.21094 15.8784 10.4723 17.1401 12.0234 17.1401C13.5746 17.1401 14.8359 15.8784 14.8359 14.3276H15.1875C15.3811 14.3276 15.5391 14.4852 15.5391 14.6792V16.7886C15.5391 16.9829 15.6963 17.1401 15.8906 17.1401H16.5938C16.7881 17.1401 16.9453 16.9829 16.9453 16.7886C16.9453 16.5943 16.7881 16.437 16.5938 16.437ZM12.0234 16.437C10.8603 16.437 9.91406 15.4908 9.91406 14.3276C9.91406 13.1645 10.8603 12.2183 12.0234 12.2183C12.2677 12.2183 12.5011 12.2713 12.7266 12.3518V13.2729C12.7266 13.8545 13.1997 14.3276 13.7812 14.3276H14.1328C14.1328 15.4908 13.1866 16.437 12.0234 16.437Z" fill="url(#paint2_linear_2562_40845)"/>
</g>
<defs>
<linearGradient id="paint0_linear_2562_40845" x1="13.0779" y1="0.0439456" x2="13.0779" y2="25.0961" gradientUnits="userSpaceOnUse">
<stop stop-color="#F2F7FF"/>
<stop offset="1" stop-color="#D8E9FF"/>
</linearGradient>
<linearGradient id="paint1_linear_2562_40845" x1="13.0781" y1="18.5698" x2="13.0781" y2="6.56982" gradientUnits="userSpaceOnUse">
<stop stop-color="#5558FF"/>
<stop offset="1" stop-color="#00C0FF"/>
</linearGradient>
<linearGradient id="paint2_linear_2562_40845" x1="13.0781" y1="17.1401" x2="13.0781" y2="7.99951" gradientUnits="userSpaceOnUse">
<stop stop-color="#ADDCFF"/>
<stop offset="0.5028" stop-color="#EAF6FF"/>
<stop offset="1" stop-color="#EAF6FF"/>
</linearGradient>
<clipPath id="clip0_2562_40845">
<rect width="12" height="12" fill="white" transform="translate(7.07812 6.56982)"/>
</clipPath>
</defs>
</svg>
