<svg width="61" height="61" viewBox="0 0 61 61" fill="none" xmlns="http://www.w3.org/2000/svg">
<g clip-path="url(#clip0_2003_4385)">
<path d="M23 13.3906C24.3261 13.3906 25.5979 13.9174 26.5355 14.8551C27.4732 15.7928 28 17.0645 28 18.3906V33.3906C28 41.2156 23.875 46.3731 16.1075 48.3156C15.7882 48.3981 15.4557 48.4165 15.1292 48.3698C14.8027 48.3232 14.4886 48.2124 14.2051 48.0439C13.9217 47.8754 13.6743 47.6524 13.4774 47.3878C13.2804 47.1233 13.1378 46.8224 13.0576 46.5025C12.9775 46.1826 12.9614 45.8499 13.0104 45.5238C13.0594 45.1976 13.1724 44.8844 13.3429 44.6021C13.5135 44.3198 13.7382 44.0741 14.0042 43.879C14.2701 43.684 14.572 43.5435 14.8925 43.4656C20.46 42.0731 23 38.8981 23 33.3906V30.8906H15.5C14.2386 30.891 13.0236 30.4146 12.0986 29.5569C11.1737 28.6992 10.6071 27.5235 10.5125 26.2656L10.5 25.8906V18.3906C10.5 17.0645 11.0268 15.7928 11.9645 14.8551C12.9021 13.9174 14.1739 13.3906 15.5 13.3906H23Z" fill="#1A1B1F"/>
<path d="M45.5 13.3906C46.8261 13.3906 48.0979 13.9174 49.0355 14.8551C49.9732 15.7928 50.5 17.0645 50.5 18.3906V33.3906C50.5 41.2156 46.375 46.3731 38.6075 48.3156C38.2882 48.3981 37.9557 48.4165 37.6292 48.3698C37.3027 48.3232 36.9886 48.2124 36.7051 48.0439C36.4217 47.8754 36.1743 47.6524 35.9774 47.3878C35.7804 47.1233 35.6378 46.8224 35.5576 46.5025C35.4775 46.1826 35.4614 45.8499 35.5104 45.5238C35.5594 45.1976 35.6724 44.8844 35.8429 44.6021C36.0135 44.3198 36.2382 44.0741 36.5042 43.879C36.7701 43.684 37.072 43.5435 37.3925 43.4656C42.96 42.0731 45.5 38.8981 45.5 33.3906V30.8906H38C36.7386 30.891 35.5236 30.4146 34.5986 29.5569C33.6737 28.6992 33.1071 27.5235 33.0125 26.2656L33 25.8906V18.3906C33 17.0645 33.5268 15.7928 34.4645 14.8551C35.4021 13.9174 36.6739 13.3906 38 13.3906H45.5Z" fill="#1A1B1F"/>
</g>
<defs>
<clipPath id="clip0_2003_4385">
<rect width="60" height="60" fill="white" transform="translate(0.5 0.890625)"/>
</clipPath>
</defs>
</svg>
