<svg width="26" height="26" viewBox="0 0 26 26" fill="none" xmlns="http://www.w3.org/2000/svg">
<rect x="0.551758" y="0.0961914" width="25.0522" height="25.0522" rx="6.5261" fill="url(#paint0_linear_2562_40852)"/>
<g clip-path="url(#clip0_2562_40852)">
<path d="M15.8672 6.62207H14.4609L13.7578 7.3252L13.0547 6.62207H7.42969C7.23279 6.62207 7.07812 6.77673 7.07812 6.97363V18.2705C7.07812 18.4674 7.23279 18.6221 7.42969 18.6221H15.8672C16.0641 18.6221 16.2188 18.4674 16.2188 18.2705V6.97363C16.2188 6.77673 16.0641 6.62207 15.8672 6.62207ZM16.9688 14.0518V15.1697C16.9688 15.8452 17.2242 16.4785 17.6719 16.9823V17.5674C17.6719 17.7617 17.8291 17.9189 18.0234 17.9189C18.2178 17.9189 18.375 17.7617 18.375 17.5674V16.9823C18.8227 16.4785 19.0781 15.8452 19.0781 15.1697V14.0518L18.0234 12.6455L16.9688 14.0518ZM18.0234 7.37207C17.4398 7.37207 16.9688 7.84316 16.9688 8.42676V9.83301L18.0234 11.2393L19.0781 9.83301V8.42676C19.0781 7.84316 18.6071 7.37207 18.0234 7.37207Z" fill="url(#paint1_linear_2562_40852)"/>
<path d="M13.2214 8.86009C13.3251 8.92415 13.4545 8.92996 13.5635 8.87549L13.7578 8.77832L13.9522 8.87549C14.0611 8.92998 14.1906 8.92415 14.2942 8.86009C14.3978 8.79604 14.4609 8.68288 14.4609 8.56103V6.62207H13.0547V8.56103C13.0547 8.68288 13.1178 8.79604 13.2214 8.86009ZM8.83594 8.77832H9.53906C9.73338 8.77832 9.89062 8.62108 9.89062 8.42676C9.89062 8.23244 9.73338 8.0752 9.53906 8.0752H8.83594C8.64162 8.0752 8.48438 8.23244 8.48438 8.42676C8.48438 8.62108 8.64162 8.77832 8.83594 8.77832ZM10.9453 8.77832H11.6484C11.8428 8.77832 12 8.62108 12 8.42676C12 8.23244 11.8428 8.0752 11.6484 8.0752H10.9453C10.751 8.0752 10.5938 8.23244 10.5938 8.42676C10.5938 8.62108 10.751 8.77832 10.9453 8.77832ZM8.83594 10.1846H11.6484C11.8428 10.1846 12 10.0273 12 9.83301C12 9.63869 11.8428 9.48145 11.6484 9.48145H8.83594C8.64162 9.48145 8.48438 9.63869 8.48438 9.83301C8.48438 10.0273 8.64162 10.1846 8.83594 10.1846ZM14.4609 16.5127H13.2003L12.6001 15.9126C12.4628 15.7753 12.2403 15.7753 12.103 15.9126L11.6484 16.3671L11.1939 15.9126C11.0565 15.7752 10.8341 15.7752 10.6967 15.9126L9.99361 16.6157C9.85629 16.753 9.85629 16.9755 9.99361 17.1128C10.1309 17.2501 10.3534 17.2501 10.4907 17.1128L10.9453 16.6583L11.3999 17.1128C11.4686 17.1815 11.5585 17.2158 11.6484 17.2158C11.7384 17.2158 11.8283 17.1815 11.897 17.1128L12.3516 16.6583L12.8061 17.1128C12.872 17.1787 12.9613 17.2158 13.0547 17.2158H14.4609C14.6553 17.2158 14.8125 17.0586 14.8125 16.8643C14.8125 16.6699 14.6553 16.5127 14.4609 16.5127ZM10.5938 14.0518C10.5938 13.8549 10.7484 13.7002 10.9453 13.7002C11.1422 13.7002 11.2969 13.8549 11.2969 14.0518V15.1064H12.3516C12.5485 15.1064 12.7031 14.9518 12.7031 14.7549V13.4963L12.8086 13.5947C12.9351 13.7354 13.1743 13.7353 13.3008 13.5947C13.4414 13.4611 13.4414 13.2361 13.3008 13.1025L11.1914 10.9932C11.0578 10.8525 10.8328 10.8525 10.6992 10.9932L8.58987 13.1025C8.44924 13.2361 8.44924 13.4611 8.58987 13.5947C8.71638 13.7354 8.95556 13.7353 9.08203 13.5947L9.1875 13.4963V14.7549C9.1875 14.9518 9.34216 15.1064 9.53906 15.1064H10.5938V14.0518ZM16.9688 9.83301V14.0518H19.0781V9.83301H16.9688Z" fill="url(#paint2_linear_2562_40852)"/>
</g>
<defs>
<linearGradient id="paint0_linear_2562_40852" x1="13.0779" y1="0.0961917" x2="13.0779" y2="25.1484" gradientUnits="userSpaceOnUse">
<stop stop-color="#F2F7FF"/>
<stop offset="1" stop-color="#D8E9FF"/>
</linearGradient>
<linearGradient id="paint1_linear_2562_40852" x1="13.0781" y1="17.9162" x2="13.0781" y2="7.32796" gradientUnits="userSpaceOnUse">
<stop stop-color="#5558FF"/>
<stop offset="1" stop-color="#00C0FF"/>
</linearGradient>
<linearGradient id="paint2_linear_2562_40852" x1="13.7812" y1="17.2158" x2="13.7812" y2="6.62207" gradientUnits="userSpaceOnUse">
<stop stop-color="#ADDCFF"/>
<stop offset="0.5028" stop-color="#EAF6FF"/>
<stop offset="1" stop-color="#EAF6FF"/>
</linearGradient>
<clipPath id="clip0_2562_40852">
<rect width="12" height="12" fill="white" transform="translate(7.07812 6.62207)"/>
</clipPath>
</defs>
</svg>
