<svg width="26" height="26" viewBox="0 0 26 26" fill="none" xmlns="http://www.w3.org/2000/svg">
<rect x="0.499023" y="0.0439453" width="25.0522" height="25.0522" rx="6.5261" fill="url(#paint0_linear_2562_40744)"/>
<g clip-path="url(#clip0_2562_40744)">
<path d="M13.377 7.27295V6.92139C13.377 6.72449 13.2223 6.56982 13.0254 6.56982C12.8285 6.56982 12.6738 6.72449 12.6738 6.92139V7.27295L11.9707 9.03076L13.0254 10.0854L14.0801 9.03076L13.377 7.27295ZM15.4863 11.8433V10.437C15.4863 10.2427 15.3291 10.0854 15.1348 10.0854H13.0254H10.916C10.7217 10.0854 10.5645 10.2427 10.5645 10.437V11.8433C10.5645 13.2017 11.6677 14.3042 13.0254 14.3042C14.3822 14.3042 15.4863 13.2001 15.4863 11.8433ZM13.0254 14.3042H10.5645L12.4252 16.868C12.5625 17.0054 13.4883 17.0054 13.6256 16.868L15.4864 14.3042H13.0254ZM16.541 15.7104H15.8379C15.2563 15.7104 14.7832 16.1836 14.7832 16.7651C14.7832 17.3467 15.2563 17.8667 15.8379 17.8667H16.541C17.1226 17.8667 17.5957 17.3467 17.5957 16.7651C17.5957 16.1836 17.1226 15.7104 16.541 15.7104Z" fill="url(#paint1_linear_2562_40744)"/>
<path d="M13.377 11.8433C13.377 12.0372 13.2191 12.1948 13.0255 12.1948C12.8318 12.1948 12.6739 12.0372 12.6739 11.8433C12.6739 11.6489 12.5167 11.4917 12.3224 11.4917C12.128 11.4917 11.9708 11.6489 11.9708 11.8433C11.9708 12.4248 12.4439 12.8979 13.0255 12.8979C13.6071 12.8979 14.0802 12.4248 14.0802 11.8433C14.0802 11.6489 13.9229 11.4917 13.7286 11.4917C13.5343 11.4917 13.377 11.6489 13.377 11.8433ZM10.213 10.7886H15.838C16.0349 10.7886 16.1895 10.6339 16.1895 10.437C16.1895 10.2401 16.0349 10.0854 15.838 10.0854H15.4864V9.03076C15.4864 8.06045 14.6989 7.27295 13.7286 7.27295H13.377V9.03076C13.377 9.22761 13.2224 9.38232 13.0255 9.38232C12.8286 9.38232 12.6739 9.22761 12.6739 9.03076V7.27295H12.3224C11.352 7.27295 10.5645 8.06045 10.5645 9.03076V10.0854H10.213C10.0161 10.0854 9.86142 10.2401 9.86142 10.437C9.86142 10.6339 10.0161 10.7886 10.213 10.7886ZM18.2849 18.1269L17.5466 15.3448C17.3849 14.7331 16.8224 14.3042 16.1896 14.3042H15.4864L13.2742 16.5165C13.1368 16.6538 12.9142 16.6538 12.7768 16.5165L10.5646 14.3042H9.86144C9.22863 14.3042 8.66613 14.7331 8.50441 15.3448L7.76613 18.1269C7.738 18.2323 7.7591 18.3448 7.82238 18.4292C7.89269 18.5206 7.99113 18.5698 8.10363 18.5698H17.9474C18.0599 18.5698 18.1583 18.5206 18.2286 18.4292C18.2919 18.3448 18.313 18.2323 18.2849 18.1269ZM16.5411 17.1167H15.838C15.6437 17.1167 15.4864 16.9594 15.4864 16.7651C15.4864 16.5708 15.6437 16.4136 15.838 16.4136H16.5411C16.7354 16.4136 16.8927 16.5708 16.8927 16.7651C16.8927 16.9594 16.7354 17.1167 16.5411 17.1167Z" fill="url(#paint2_linear_2562_40744)"/>
</g>
<defs>
<linearGradient id="paint0_linear_2562_40744" x1="13.0251" y1="0.0439456" x2="13.0251" y2="25.0961" gradientUnits="userSpaceOnUse">
<stop stop-color="#F2F7FF"/>
<stop offset="1" stop-color="#D8E9FF"/>
</linearGradient>
<linearGradient id="paint1_linear_2562_40744" x1="14.0801" y1="17.8667" x2="14.0801" y2="6.56982" gradientUnits="userSpaceOnUse">
<stop stop-color="#ADDCFF"/>
<stop offset="0.5028" stop-color="#EAF6FF"/>
<stop offset="1" stop-color="#EAF6FF"/>
</linearGradient>
<linearGradient id="paint2_linear_2562_40744" x1="13.0255" y1="18.5698" x2="13.0255" y2="7.27295" gradientUnits="userSpaceOnUse">
<stop stop-color="#5558FF"/>
<stop offset="1" stop-color="#00C0FF"/>
</linearGradient>
<clipPath id="clip0_2562_40744">
<rect width="12" height="12" fill="white" transform="translate(7.02539 6.56982)"/>
</clipPath>
</defs>
</svg>
