<svg width="32" height="32" viewBox="0 0 32 32" fill="none" xmlns="http://www.w3.org/2000/svg">
<path d="M4.00008 2.66602C4.73646 2.66602 5.33341 3.26297 5.33341 3.99935V13.252C6.41809 13.1183 7.21351 12.827 7.83342 12.4694C8.698 11.9706 9.32271 11.294 9.95842 10.4993C10.5471 9.76345 11.2598 8.75475 12.1459 8.01628C13.1222 7.20271 14.3379 6.66602 16.0001 6.66602C17.6623 6.66602 18.878 7.20271 19.8542 8.01628C20.7404 8.75475 21.453 9.76345 22.0417 10.4993C22.6775 11.294 23.3022 11.9706 24.1667 12.4694C25.0168 12.9598 26.196 13.3327 28.0001 13.3327C28.7365 13.3327 29.3334 13.9296 29.3334 14.666C29.3334 15.4024 28.7365 15.9993 28.0001 15.9993C25.8043 15.9993 24.15 15.5389 22.8334 14.7793C21.5315 14.0281 20.656 13.038 19.9584 12.166C19.2138 11.2353 18.7597 10.5773 18.1459 10.0658C17.6222 9.62938 17.0045 9.33268 16.0001 9.33268C14.9957 9.33268 14.3779 9.62938 13.8542 10.0658C13.2404 10.5773 12.7863 11.2353 12.0417 12.166C11.3442 13.038 10.4687 14.0281 9.16675 14.7793C8.13105 15.3768 6.88626 15.7881 5.33341 15.9368V26.666H9.33342V21.3327C9.33342 20.5963 9.93037 19.9993 10.6667 19.9993C11.4031 19.9993 12.0001 20.5963 12.0001 21.3327V26.666H14.6667V17.3327C14.6667 16.5963 15.2637 15.9993 16.0001 15.9993C16.7365 15.9993 17.3334 16.5963 17.3334 17.3327V26.666H20.0001V21.3327C20.0001 20.5963 20.597 19.9993 21.3334 19.9993C22.0698 19.9993 22.6667 20.5963 22.6667 21.3327V26.666H25.3334V23.9993C25.3334 23.263 25.9304 22.666 26.6667 22.666C27.4031 22.666 28.0001 23.263 28.0001 23.9993V26.666C28.7365 26.666 29.3334 27.263 29.3334 27.9993C29.3334 28.7357 28.7365 29.3327 28.0001 29.3327H4.00008C3.2637 29.3327 2.66675 28.7357 2.66675 27.9993V3.99935C2.66675 3.26297 3.2637 2.66602 4.00008 2.66602Z" fill="#454545"/>
</svg>
