<svg width="32" height="32" viewBox="0 0 32 32" fill="none" xmlns="http://www.w3.org/2000/svg">
<path d="M15.214 2.92229C15.7148 2.55623 16.4109 2.58202 16.8838 3.00041C19.7387 5.52622 23.4645 6.84133 27.2723 6.66708C27.8859 6.639 28.4397 7.03406 28.613 7.62333C29.2681 9.85194 29.4686 12.1897 29.2025 14.4973C28.9364 16.8051 28.2083 19.0366 27.063 21.0577C25.9177 23.0787 24.3777 24.8487 22.5348 26.2629C20.6918 27.6771 18.5835 28.7067 16.3348 29.29C16.1153 29.3469 15.8846 29.3469 15.665 29.29C13.4164 28.7067 11.308 27.6771 9.46503 26.2629C7.62214 24.8487 6.08219 23.0787 4.93691 21.0577C3.79159 19.0366 3.06452 16.8051 2.79837 14.4973C2.53228 12.1896 2.73179 9.85197 3.38691 7.62333L3.42441 7.515C3.63023 6.98632 4.15241 6.64079 4.72753 6.66708C8.53538 6.84133 12.2612 5.5262 15.1161 3.00041L15.214 2.92229ZM15.9994 5.72646C13.0451 8.01101 9.43128 9.28106 5.69628 9.34521C5.34507 10.9335 5.26044 12.5715 5.44732 14.1921C5.67253 16.1448 6.28758 18.0329 7.2567 19.7431C8.22572 21.4531 9.52873 22.9507 11.0879 24.1473C12.5554 25.2734 14.2224 26.1109 15.9994 26.6171C17.7768 26.111 19.4441 25.2736 20.9119 24.1473C22.4711 22.9507 23.7741 21.4531 24.7432 19.7431C25.7123 18.0329 26.3273 16.1448 26.5525 14.1921C26.7394 12.5714 26.6538 10.9336 26.3025 9.34521C22.5676 9.28082 18.9535 8.01112 15.9994 5.72646ZM18.6671 14.666C18.6671 15.3732 18.3858 16.0514 17.8859 16.5515C17.7202 16.7171 17.5331 16.8559 17.3338 16.9712V19.3327C17.3338 20.0689 16.7366 20.6658 16.0005 20.666C15.2641 20.666 14.6671 20.0691 14.6671 19.3327V16.9712C14.4675 16.8559 14.2798 16.7173 14.114 16.5515C13.6141 16.0514 13.3338 15.3732 13.3338 14.666C13.3338 13.9589 13.6141 13.2807 14.114 12.7806C14.6141 12.2805 15.2932 11.9994 16.0005 11.9994C16.7075 11.9995 17.3859 12.2806 17.8859 12.7806C18.3858 13.2807 18.6671 13.9589 18.6671 14.666Z" fill="white"/>
</svg>
