<svg width="32" height="32" viewBox="0 0 32 32" fill="none" xmlns="http://www.w3.org/2000/svg">
<path d="M7.99357 25.2012C7.96332 24.8959 7.82831 24.6089 7.60946 24.39C7.35941 24.14 7.02037 23.9994 6.66675 23.9994C6.31313 23.9994 5.97409 24.14 5.72404 24.39C5.47399 24.6401 5.33341 24.9791 5.33341 25.3327L5.33993 25.4643C5.37018 25.7696 5.50518 26.0566 5.72404 26.2754C5.97409 26.5255 6.31313 26.6661 6.66675 26.6661C7.02037 26.6661 7.35941 26.5255 7.60946 26.2754C7.85951 26.0254 8.00008 25.6864 8.00008 25.3327L7.99357 25.2012ZM10.6472 25.7286C10.5562 26.6441 10.1511 27.5046 9.49487 28.1609C8.74473 28.911 7.72761 29.3327 6.66675 29.3327C5.60588 29.3327 4.58877 28.911 3.83862 28.1609C3.18236 27.5046 2.77729 26.6441 2.68628 25.7286L2.66675 25.3327C2.66675 24.2719 3.08848 23.2548 3.83862 22.5046C4.58877 21.7545 5.60588 21.3327 6.66675 21.3327C7.72761 21.3327 8.74473 21.7545 9.49487 22.5046C10.245 23.2548 10.6667 24.2719 10.6667 25.3327L10.6472 25.7286Z" fill="white"/>
<path d="M14.6667 22.6661V11.9994C14.6667 10.9385 15.0885 9.92143 15.8386 9.17129C16.5888 8.42114 17.6059 7.99941 18.6667 7.99941H28.0001C28.7365 7.99941 29.3334 8.59636 29.3334 9.33274C29.3334 10.0691 28.7365 10.6661 28.0001 10.6661H18.6667C18.3131 10.6661 17.9741 10.8067 17.724 11.0567C17.474 11.3068 17.3334 11.6458 17.3334 11.9994V22.6661C17.3334 23.7269 16.9117 24.7441 16.1615 25.4942C15.4114 26.2443 14.3943 26.6661 13.3334 26.6661H9.33342C8.59704 26.6661 8.00008 26.0691 8.00008 25.3327C8.00008 24.5964 8.59704 23.9994 9.33342 23.9994H13.3334C13.687 23.9994 14.0261 23.8588 14.2761 23.6088C14.5262 23.3587 14.6667 23.0197 14.6667 22.6661Z" fill="white"/>
<path d="M23.0574 4.39004C23.5781 3.86934 24.4221 3.86934 24.9428 4.39004L28.9428 8.39004C29.4635 8.91073 29.4635 9.75475 28.9428 10.2755L24.9428 14.2755C24.4221 14.7962 23.5781 14.7962 23.0574 14.2755C22.5367 13.7548 22.5367 12.9107 23.0574 12.39L26.1147 9.33274L23.0574 6.27545C22.5367 5.75475 22.5367 4.91074 23.0574 4.39004Z" fill="white"/>
</svg>
