<svg width="384" height="236" viewBox="0 0 384 236" fill="none" xmlns="http://www.w3.org/2000/svg">
<rect x="17" y="21" width="280" height="196" rx="15" fill="white" fill-opacity="0.2"/>
<rect x="17" y="21" width="280" height="196" rx="15" stroke="white" stroke-width="2"/>
<rect x="32" y="36" width="50" height="50" rx="25" fill="white"/>
<path d="M116 58V56H114C113.448 56 113 55.5523 113 55C113 54.4477 113.448 54 114 54H116V52C116 51.4477 116.448 51 117 51C117.552 51 118 51.4477 118 52V54H120C120.552 54 121 54.4477 121 55C121 55.5523 120.552 56 120 56H118V58C118 58.5523 117.552 59 117 59C116.448 59 116 58.5523 116 58ZM103 57V55C103 53.6739 103.527 52.402 104.464 51.4643C105.402 50.5266 106.674 50 108 50H112C112.552 50 113 50.4477 113 51C113 51.5523 112.552 52 112 52H108C107.204 52 106.441 52.3161 105.879 52.8787C105.316 53.4413 105 54.2044 105 55V57C105 57.5523 104.552 58 104 58C103.448 58 103 57.5523 103 57ZM112.996 42.8512C112.959 42.1097 112.649 41.4062 112.121 40.8787C111.594 40.3513 110.89 40.0405 110.149 40.0037L110 40C109.204 40 108.441 40.3161 107.879 40.8787C107.316 41.4413 107 42.2044 107 43L107.004 43.1488C107.041 43.8903 107.351 44.5938 107.879 45.1213C108.441 45.6839 109.204 46 110 46L110.149 45.9963C110.89 45.9595 111.594 45.6487 112.121 45.1213C112.684 44.5587 113 43.7957 113 43L112.996 42.8512ZM114.994 43.2478C114.933 44.4836 114.415 45.6566 113.536 46.5357C112.657 47.4148 111.484 47.9328 110.248 47.994L110 48C108.674 48 107.402 47.4734 106.464 46.5357C105.585 45.6566 105.067 44.4836 105.006 43.2478L105 43C105 41.6739 105.527 40.402 106.464 39.4643C107.402 38.5266 108.674 38 110 38L110.248 38.006C111.484 38.0672 112.657 38.5852 113.536 39.4643C114.473 40.402 115 41.6739 115 43L114.994 43.2478Z" fill="white"/>
<path d="M125.856 53L130.848 41.8H133.408L138.416 53H135.696L131.6 43.112H132.624L128.512 53H125.856ZM128.352 50.6L129.04 48.632H134.8L135.504 50.6H128.352ZM139.402 53V41.128H141.898V53H139.402ZM144.215 53V44.392H146.711V53H144.215ZM145.463 43.192C145.004 43.192 144.631 43.0587 144.343 42.792C144.055 42.5253 143.911 42.1947 143.911 41.8C143.911 41.4053 144.055 41.0747 144.343 40.808C144.631 40.5413 145.004 40.408 145.463 40.408C145.921 40.408 146.295 40.536 146.583 40.792C146.871 41.0373 147.015 41.3573 147.015 41.752C147.015 42.168 146.871 42.5147 146.583 42.792C146.305 43.0587 145.932 43.192 145.463 43.192ZM153.187 53.128C152.259 53.128 151.432 52.9413 150.707 52.568C149.982 52.184 149.411 51.656 148.995 50.984C148.59 50.312 148.387 49.5493 148.387 48.696C148.387 47.832 148.59 47.0693 148.995 46.408C149.411 45.736 149.982 45.2133 150.707 44.84C151.432 44.456 152.259 44.264 153.187 44.264C154.094 44.264 154.883 44.456 155.555 44.84C156.227 45.2133 156.723 45.752 157.043 46.456L155.107 47.496C154.883 47.0907 154.6 46.792 154.259 46.6C153.928 46.408 153.566 46.312 153.171 46.312C152.744 46.312 152.36 46.408 152.019 46.6C151.678 46.792 151.406 47.064 151.203 47.416C151.011 47.768 150.915 48.1947 150.915 48.696C150.915 49.1973 151.011 49.624 151.203 49.976C151.406 50.328 151.678 50.6 152.019 50.792C152.36 50.984 152.744 51.08 153.171 51.08C153.566 51.08 153.928 50.9893 154.259 50.808C154.6 50.616 154.883 50.312 155.107 49.896L157.043 50.952C156.723 51.6453 156.227 52.184 155.555 52.568C154.883 52.9413 154.094 53.128 153.187 53.128ZM158.418 53V44.392H160.914V53H158.418ZM159.666 43.192C159.207 43.192 158.834 43.0587 158.546 42.792C158.258 42.5253 158.114 42.1947 158.114 41.8C158.114 41.4053 158.258 41.0747 158.546 40.808C158.834 40.5413 159.207 40.408 159.666 40.408C160.124 40.408 160.498 40.536 160.786 40.792C161.074 41.0373 161.218 41.3573 161.218 41.752C161.218 42.168 161.074 42.5147 160.786 42.792C160.508 43.0587 160.135 43.192 159.666 43.192ZM168.51 53V51.32L168.35 50.952V47.944C168.35 47.4107 168.185 46.9947 167.854 46.696C167.534 46.3973 167.038 46.248 166.366 46.248C165.907 46.248 165.454 46.3227 165.006 46.472C164.569 46.6107 164.195 46.8027 163.886 47.048L162.99 45.304C163.459 44.9733 164.025 44.7173 164.686 44.536C165.347 44.3547 166.019 44.264 166.702 44.264C168.014 44.264 169.033 44.5733 169.758 45.192C170.483 45.8107 170.846 46.776 170.846 48.088V53H168.51ZM165.886 53.128C165.214 53.128 164.638 53.016 164.158 52.792C163.678 52.5573 163.31 52.2427 163.054 51.848C162.798 51.4533 162.67 51.0107 162.67 50.52C162.67 50.008 162.793 49.56 163.038 49.176C163.294 48.792 163.694 48.4933 164.238 48.28C164.782 48.056 165.491 47.944 166.366 47.944H168.654V49.4H166.638C166.051 49.4 165.646 49.496 165.422 49.688C165.209 49.88 165.102 50.12 165.102 50.408C165.102 50.728 165.225 50.984 165.47 51.176C165.726 51.3573 166.073 51.448 166.51 51.448C166.926 51.448 167.299 51.352 167.63 51.16C167.961 50.9573 168.201 50.664 168.35 50.28L168.734 51.432C168.553 51.9867 168.222 52.408 167.742 52.696C167.262 52.984 166.643 53.128 165.886 53.128ZM183.22 53.192C182.335 53.192 181.519 53.0533 180.772 52.776C180.036 52.488 179.391 52.0827 178.836 51.56C178.292 51.0373 177.866 50.424 177.556 49.72C177.258 49.016 177.108 48.2427 177.108 47.4C177.108 46.5573 177.258 45.784 177.556 45.08C177.866 44.376 178.298 43.7627 178.852 43.24C179.407 42.7173 180.058 42.3173 180.804 42.04C181.551 41.752 182.372 41.608 183.268 41.608C184.26 41.608 185.151 41.7733 185.94 42.104C186.74 42.4347 187.412 42.9147 187.956 43.544L186.292 45.08C185.887 44.6533 185.444 44.3387 184.964 44.136C184.484 43.9227 183.962 43.816 183.396 43.816C182.852 43.816 182.356 43.9013 181.908 44.072C181.46 44.2427 181.071 44.488 180.74 44.808C180.42 45.128 180.17 45.5067 179.988 45.944C179.818 46.3813 179.732 46.8667 179.732 47.4C179.732 47.9227 179.818 48.4027 179.988 48.84C180.17 49.2773 180.42 49.6613 180.74 49.992C181.071 50.312 181.455 50.5573 181.892 50.728C182.34 50.8987 182.831 50.984 183.364 50.984C183.876 50.984 184.372 50.904 184.852 50.744C185.343 50.5733 185.818 50.2907 186.276 49.896L187.748 51.768C187.14 52.2267 186.431 52.5787 185.62 52.824C184.82 53.0693 184.02 53.192 183.22 53.192ZM185.38 51.432V47.224H187.748V51.768L185.38 51.432ZM193.612 53.128C192.897 53.128 192.257 52.9893 191.692 52.712C191.137 52.4347 190.705 52.0133 190.396 51.448C190.087 50.872 189.932 50.1413 189.932 49.256V44.392H192.428V48.888C192.428 49.6027 192.577 50.1307 192.876 50.472C193.185 50.8027 193.617 50.968 194.172 50.968C194.556 50.968 194.897 50.888 195.196 50.728C195.495 50.5573 195.729 50.3013 195.9 49.96C196.071 49.608 196.156 49.1707 196.156 48.648V44.392H198.652V53H196.284V50.632L196.716 51.32C196.428 51.9173 196.001 52.3707 195.436 52.68C194.881 52.9787 194.273 53.128 193.612 53.128ZM204.485 53.128C203.471 53.128 202.682 52.872 202.117 52.36C201.551 51.8373 201.269 51.064 201.269 50.04V42.488H203.765V50.008C203.765 50.3707 203.861 50.6533 204.053 50.856C204.245 51.048 204.506 51.144 204.837 51.144C205.231 51.144 205.567 51.0373 205.845 50.824L206.517 52.584C206.261 52.7653 205.951 52.904 205.589 53C205.237 53.0853 204.869 53.128 204.485 53.128ZM199.941 46.504V44.584H205.909V46.504H199.941ZM207.918 53V44.392H210.414V53H207.918ZM209.166 43.192C208.707 43.192 208.334 43.0587 208.046 42.792C207.758 42.5253 207.614 42.1947 207.614 41.8C207.614 41.4053 207.758 41.0747 208.046 40.808C208.334 40.5413 208.707 40.408 209.166 40.408C209.624 40.408 209.998 40.536 210.286 40.792C210.574 41.0373 210.718 41.3573 210.718 41.752C210.718 42.168 210.574 42.5147 210.286 42.792C210.008 43.0587 209.635 43.192 209.166 43.192ZM217.002 53.128C216.021 53.128 215.157 52.936 214.41 52.552C213.674 52.168 213.103 51.6453 212.698 50.984C212.293 50.312 212.09 49.5493 212.09 48.696C212.09 47.832 212.287 47.0693 212.682 46.408C213.087 45.736 213.637 45.2133 214.33 44.84C215.023 44.456 215.807 44.264 216.682 44.264C217.525 44.264 218.282 44.4453 218.954 44.808C219.637 45.16 220.175 45.672 220.57 46.344C220.965 47.0053 221.162 47.8 221.162 48.728C221.162 48.824 221.157 48.936 221.146 49.064C221.135 49.1813 221.125 49.2933 221.114 49.4H214.122V47.944H219.802L218.842 48.376C218.842 47.928 218.751 47.5387 218.57 47.208C218.389 46.8773 218.138 46.6213 217.818 46.44C217.498 46.248 217.125 46.152 216.698 46.152C216.271 46.152 215.893 46.248 215.562 46.44C215.242 46.6213 214.991 46.8827 214.81 47.224C214.629 47.5547 214.538 47.9493 214.538 48.408V48.792C214.538 49.2613 214.639 49.6773 214.842 50.04C215.055 50.392 215.349 50.664 215.722 50.856C216.106 51.0373 216.554 51.128 217.066 51.128C217.525 51.128 217.925 51.0587 218.266 50.92C218.618 50.7813 218.938 50.5733 219.226 50.296L220.554 51.736C220.159 52.184 219.663 52.5307 219.066 52.776C218.469 53.0107 217.781 53.128 217.002 53.128ZM222.824 53V44.392H225.208V46.824L224.872 46.12C225.128 45.512 225.539 45.0533 226.104 44.744C226.669 44.424 227.357 44.264 228.168 44.264V46.568C228.061 46.5573 227.965 46.552 227.88 46.552C227.795 46.5413 227.704 46.536 227.608 46.536C226.925 46.536 226.371 46.7333 225.944 47.128C225.528 47.512 225.32 48.1147 225.32 48.936V53H222.824ZM229.652 53V44.392H232.036V46.824L231.7 46.12C231.956 45.512 232.367 45.0533 232.932 44.744C233.497 44.424 234.185 44.264 234.996 44.264V46.568C234.889 46.5573 234.793 46.552 234.708 46.552C234.623 46.5413 234.532 46.536 234.436 46.536C233.753 46.536 233.199 46.7333 232.772 47.128C232.356 47.512 232.148 48.1147 232.148 48.936V53H229.652ZM240.674 53.128C239.693 53.128 238.829 52.936 238.082 52.552C237.346 52.168 236.775 51.6453 236.37 50.984C235.965 50.312 235.762 49.5493 235.762 48.696C235.762 47.832 235.959 47.0693 236.354 46.408C236.759 45.736 237.309 45.2133 238.002 44.84C238.695 44.456 239.479 44.264 240.354 44.264C241.197 44.264 241.954 44.4453 242.626 44.808C243.309 45.16 243.847 45.672 244.242 46.344C244.637 47.0053 244.834 47.8 244.834 48.728C244.834 48.824 244.829 48.936 244.818 49.064C244.807 49.1813 244.797 49.2933 244.786 49.4H237.794V47.944H243.474L242.514 48.376C242.514 47.928 242.423 47.5387 242.242 47.208C242.061 46.8773 241.81 46.6213 241.49 46.44C241.17 46.248 240.797 46.152 240.37 46.152C239.943 46.152 239.565 46.248 239.234 46.44C238.914 46.6213 238.663 46.8827 238.482 47.224C238.301 47.5547 238.21 47.9493 238.21 48.408V48.792C238.21 49.2613 238.311 49.6773 238.514 50.04C238.727 50.392 239.021 50.664 239.394 50.856C239.778 51.0373 240.226 51.128 240.738 51.128C241.197 51.128 241.597 51.0587 241.938 50.92C242.29 50.7813 242.61 50.5733 242.898 50.296L244.226 51.736C243.831 52.184 243.335 52.5307 242.738 52.776C242.141 53.0107 241.453 53.128 240.674 53.128ZM245.826 53V51.496L250.914 45.48L251.346 46.312H245.938V44.392H253.362V45.896L248.274 51.912L247.826 51.08H253.506V53H245.826Z" fill="white"/>
<path d="M99.68 81V69.8H104.4C105.595 69.8 106.645 70.0347 107.552 70.504C108.469 70.9733 109.179 71.6293 109.68 72.472C110.192 73.3147 110.448 74.2907 110.448 75.4C110.448 76.5093 110.192 77.4853 109.68 78.328C109.179 79.1707 108.469 79.8267 107.552 80.296C106.645 80.7653 105.595 81 104.4 81H99.68ZM101.28 79.608H104.304C105.232 79.608 106.032 79.432 106.704 79.08C107.387 78.728 107.915 78.2373 108.288 77.608C108.661 76.968 108.848 76.232 108.848 75.4C108.848 74.5573 108.661 73.8213 108.288 73.192C107.915 72.5627 107.387 72.072 106.704 71.72C106.032 71.368 105.232 71.192 104.304 71.192H101.28V79.608ZM116.451 81.096C115.544 81.096 114.744 80.9093 114.051 80.536C113.368 80.1627 112.835 79.6507 112.451 79C112.077 78.3493 111.891 77.6027 111.891 76.76C111.891 75.9173 112.072 75.1707 112.435 74.52C112.808 73.8693 113.315 73.3627 113.955 73C114.605 72.6267 115.336 72.44 116.147 72.44C116.968 72.44 117.693 72.6213 118.323 72.984C118.952 73.3467 119.443 73.8587 119.795 74.52C120.157 75.1707 120.339 75.9333 120.339 76.808C120.339 76.872 120.333 76.9467 120.323 77.032C120.323 77.1173 120.317 77.1973 120.307 77.272H113.091V76.168H119.507L118.883 76.552C118.893 76.008 118.781 75.5227 118.547 75.096C118.312 74.6693 117.987 74.3387 117.571 74.104C117.165 73.8587 116.691 73.736 116.147 73.736C115.613 73.736 115.139 73.8587 114.723 74.104C114.307 74.3387 113.981 74.6747 113.747 75.112C113.512 75.5387 113.395 76.0293 113.395 76.584V76.84C113.395 77.4053 113.523 77.912 113.779 78.36C114.045 78.7973 114.413 79.1387 114.883 79.384C115.352 79.6293 115.891 79.752 116.499 79.752C117 79.752 117.453 79.6667 117.859 79.496C118.275 79.3253 118.637 79.0693 118.947 78.728L119.795 79.72C119.411 80.168 118.931 80.5093 118.355 80.744C117.789 80.9787 117.155 81.096 116.451 81.096ZM124.539 81L120.827 72.52H122.427L125.723 80.2H124.955L128.315 72.52H129.819L126.107 81H124.539ZM134.795 81.096C133.888 81.096 133.088 80.9093 132.395 80.536C131.712 80.1627 131.179 79.6507 130.795 79C130.421 78.3493 130.235 77.6027 130.235 76.76C130.235 75.9173 130.416 75.1707 130.779 74.52C131.152 73.8693 131.659 73.3627 132.299 73C132.949 72.6267 133.68 72.44 134.491 72.44C135.312 72.44 136.037 72.6213 136.667 72.984C137.296 73.3467 137.787 73.8587 138.139 74.52C138.501 75.1707 138.683 75.9333 138.683 76.808C138.683 76.872 138.677 76.9467 138.667 77.032C138.667 77.1173 138.661 77.1973 138.651 77.272H131.435V76.168H137.851L137.227 76.552C137.237 76.008 137.125 75.5227 136.891 75.096C136.656 74.6693 136.331 74.3387 135.915 74.104C135.509 73.8587 135.035 73.736 134.491 73.736C133.957 73.736 133.483 73.8587 133.067 74.104C132.651 74.3387 132.325 74.6747 132.091 75.112C131.856 75.5387 131.739 76.0293 131.739 76.584V76.84C131.739 77.4053 131.867 77.912 132.123 78.36C132.389 78.7973 132.757 79.1387 133.227 79.384C133.696 79.6293 134.235 79.752 134.843 79.752C135.344 79.752 135.797 79.6667 136.203 79.496C136.619 79.3253 136.981 79.0693 137.291 78.728L138.139 79.72C137.755 80.168 137.275 80.5093 136.699 80.744C136.133 80.9787 135.499 81.096 134.795 81.096ZM140.815 81V69.128H142.351V81H140.815ZM148.916 81.096C148.063 81.096 147.305 80.9093 146.644 80.536C145.983 80.1627 145.46 79.6507 145.076 79C144.692 78.3387 144.5 77.592 144.5 76.76C144.5 75.9173 144.692 75.1707 145.076 74.52C145.46 73.8693 145.983 73.3627 146.644 73C147.305 72.6267 148.063 72.44 148.916 72.44C149.759 72.44 150.511 72.6267 151.172 73C151.844 73.3627 152.367 73.8693 152.74 74.52C153.124 75.16 153.316 75.9067 153.316 76.76C153.316 77.6027 153.124 78.3493 152.74 79C152.367 79.6507 151.844 80.1627 151.172 80.536C150.511 80.9093 149.759 81.096 148.916 81.096ZM148.916 79.752C149.46 79.752 149.945 79.6293 150.372 79.384C150.809 79.1387 151.151 78.792 151.396 78.344C151.641 77.8853 151.764 77.3573 151.764 76.76C151.764 76.152 151.641 75.6293 151.396 75.192C151.151 74.744 150.809 74.3973 150.372 74.152C149.945 73.9067 149.46 73.784 148.916 73.784C148.372 73.784 147.887 73.9067 147.46 74.152C147.033 74.3973 146.692 74.744 146.436 75.192C146.18 75.6293 146.052 76.152 146.052 76.76C146.052 77.3573 146.18 77.8853 146.436 78.344C146.692 78.792 147.033 79.1387 147.46 79.384C147.887 79.6293 148.372 79.752 148.916 79.752ZM159.936 81.096C159.232 81.096 158.587 80.936 158 80.616C157.424 80.2853 156.96 79.8 156.608 79.16C156.267 78.52 156.096 77.72 156.096 76.76C156.096 75.8 156.262 75 156.592 74.36C156.934 73.72 157.392 73.24 157.968 72.92C158.555 72.6 159.211 72.44 159.936 72.44C160.768 72.44 161.504 72.6213 162.144 72.984C162.784 73.3467 163.291 73.8533 163.664 74.504C164.038 75.144 164.224 75.896 164.224 76.76C164.224 77.624 164.038 78.3813 163.664 79.032C163.291 79.6827 162.784 80.1893 162.144 80.552C161.504 80.9147 160.768 81.096 159.936 81.096ZM155.44 84.104V72.52H156.912V74.808L156.816 76.776L156.976 78.744V84.104H155.44ZM159.808 79.752C160.352 79.752 160.838 79.6293 161.264 79.384C161.702 79.1387 162.043 78.792 162.288 78.344C162.544 77.8853 162.672 77.3573 162.672 76.76C162.672 76.152 162.544 75.6293 162.288 75.192C162.043 74.744 161.702 74.3973 161.264 74.152C160.838 73.9067 160.352 73.784 159.808 73.784C159.275 73.784 158.79 73.9067 158.352 74.152C157.926 74.3973 157.584 74.744 157.328 75.192C157.083 75.6293 156.96 76.152 156.96 76.76C156.96 77.3573 157.083 77.8853 157.328 78.344C157.584 78.792 157.926 79.1387 158.352 79.384C158.79 79.6293 159.275 79.752 159.808 79.752ZM170.123 81.096C169.216 81.096 168.416 80.9093 167.723 80.536C167.04 80.1627 166.507 79.6507 166.123 79C165.749 78.3493 165.563 77.6027 165.563 76.76C165.563 75.9173 165.744 75.1707 166.107 74.52C166.48 73.8693 166.987 73.3627 167.627 73C168.277 72.6267 169.008 72.44 169.819 72.44C170.64 72.44 171.365 72.6213 171.995 72.984C172.624 73.3467 173.115 73.8587 173.467 74.52C173.829 75.1707 174.011 75.9333 174.011 76.808C174.011 76.872 174.005 76.9467 173.995 77.032C173.995 77.1173 173.989 77.1973 173.979 77.272H166.763V76.168H173.179L172.555 76.552C172.565 76.008 172.453 75.5227 172.219 75.096C171.984 74.6693 171.659 74.3387 171.243 74.104C170.837 73.8587 170.363 73.736 169.819 73.736C169.285 73.736 168.811 73.8587 168.395 74.104C167.979 74.3387 167.653 74.6747 167.419 75.112C167.184 75.5387 167.067 76.0293 167.067 76.584V76.84C167.067 77.4053 167.195 77.912 167.451 78.36C167.717 78.7973 168.085 79.1387 168.555 79.384C169.024 79.6293 169.563 79.752 170.171 79.752C170.672 79.752 171.125 79.6667 171.531 79.496C171.947 79.3253 172.309 79.0693 172.619 78.728L173.467 79.72C173.083 80.168 172.603 80.5093 172.027 80.744C171.461 80.9787 170.827 81.096 170.123 81.096ZM176.144 81V72.52H177.616V74.824L177.472 74.248C177.706 73.6613 178.101 73.2133 178.656 72.904C179.21 72.5947 179.893 72.44 180.704 72.44V73.928C180.64 73.9173 180.576 73.912 180.512 73.912C180.458 73.912 180.405 73.912 180.352 73.912C179.53 73.912 178.88 74.1573 178.4 74.648C177.92 75.1387 177.68 75.848 177.68 76.776V81H176.144Z" fill="white"/>
<path d="M118 106C118 103.878 117.158 101.843 115.657 100.343C114.157 98.8425 112.122 98 110 98C107.878 98 105.843 98.8425 104.343 100.343C102.842 101.843 102 103.878 102 106C102 107.051 102.207 108.091 102.609 109.062C103.011 110.032 103.6 110.914 104.343 111.657C105.086 112.4 105.968 112.989 106.938 113.391C107.909 113.793 108.949 114 110 114L110.394 113.99C111.31 113.945 112.212 113.742 113.062 113.391C114.032 112.989 114.914 112.4 115.657 111.657C116.4 110.914 116.989 110.032 117.391 109.062C117.793 108.091 118 107.051 118 106ZM109 101C109 100.448 109.448 100 110 100C110.552 100 111 100.448 111 101V105.586L113.707 108.293L113.775 108.369C114.096 108.762 114.073 109.341 113.707 109.707C113.341 110.073 112.762 110.096 112.369 109.775L112.293 109.707L109.293 106.707C109.105 106.519 109 106.265 109 106V101ZM120 106C120 107.313 119.742 108.614 119.239 109.827C118.737 111.04 118 112.143 117.071 113.071C116.143 114 115.04 114.737 113.827 115.239C112.766 115.679 111.637 115.932 110.492 115.988L110 116C108.687 116 107.386 115.742 106.173 115.239C104.96 114.737 103.857 114 102.929 113.071C102 112.143 101.263 111.04 100.761 109.827C100.258 108.614 100 107.313 100 106C100 103.348 101.053 100.804 102.929 98.9287C104.804 97.0533 107.348 96 110 96C112.652 96 115.196 97.0533 117.071 98.9287C118.947 100.804 120 103.348 120 106Z" fill="white"/>
<path d="M130.016 111L126.352 99.8H129.04L132.224 109.72H130.88L134.208 99.8H136.608L139.808 109.72H138.512L141.776 99.8H144.256L140.592 111H137.808L134.976 102.296H135.712L132.8 111H130.016ZM148.982 111.128C148.065 111.128 147.249 110.936 146.534 110.552C145.83 110.168 145.27 109.645 144.854 108.984C144.449 108.312 144.246 107.549 144.246 106.696C144.246 105.832 144.449 105.069 144.854 104.408C145.27 103.736 145.83 103.213 146.534 102.84C147.249 102.456 148.065 102.264 148.982 102.264C149.889 102.264 150.7 102.456 151.414 102.84C152.129 103.213 152.689 103.731 153.094 104.392C153.5 105.053 153.702 105.821 153.702 106.696C153.702 107.549 153.5 108.312 153.094 108.984C152.689 109.645 152.129 110.168 151.414 110.552C150.7 110.936 149.889 111.128 148.982 111.128ZM148.982 109.08C149.398 109.08 149.772 108.984 150.102 108.792C150.433 108.6 150.694 108.328 150.886 107.976C151.078 107.613 151.174 107.187 151.174 106.696C151.174 106.195 151.078 105.768 150.886 105.416C150.694 105.064 150.433 104.792 150.102 104.6C149.772 104.408 149.398 104.312 148.982 104.312C148.566 104.312 148.193 104.408 147.862 104.6C147.532 104.792 147.265 105.064 147.062 105.416C146.87 105.768 146.774 106.195 146.774 106.696C146.774 107.187 146.87 107.613 147.062 107.976C147.265 108.328 147.532 108.6 147.862 108.792C148.193 108.984 148.566 109.08 148.982 109.08ZM155.371 111V102.392H157.755V104.824L157.419 104.12C157.675 103.512 158.085 103.053 158.651 102.744C159.216 102.424 159.904 102.264 160.715 102.264V104.568C160.608 104.557 160.512 104.552 160.427 104.552C160.341 104.541 160.251 104.536 160.155 104.536C159.472 104.536 158.917 104.733 158.491 105.128C158.075 105.512 157.867 106.115 157.867 106.936V111H155.371ZM164.263 109.24L164.327 106.2L168.343 102.392H171.319L167.463 106.312L166.167 107.368L164.263 109.24ZM162.199 111V99.128H164.695V111H162.199ZM168.615 111L165.703 107.384L167.271 105.448L171.639 111H168.615ZM176.658 111.128C175.677 111.128 174.813 110.936 174.066 110.552C173.33 110.168 172.76 109.645 172.354 108.984C171.949 108.312 171.746 107.549 171.746 106.696C171.746 105.832 171.944 105.069 172.338 104.408C172.744 103.736 173.293 103.213 173.986 102.84C174.68 102.456 175.464 102.264 176.338 102.264C177.181 102.264 177.938 102.445 178.61 102.808C179.293 103.16 179.832 103.672 180.226 104.344C180.621 105.005 180.818 105.8 180.818 106.728C180.818 106.824 180.813 106.936 180.802 107.064C180.792 107.181 180.781 107.293 180.77 107.4H173.778V105.944H179.458L178.498 106.376C178.498 105.928 178.408 105.539 178.226 105.208C178.045 104.877 177.794 104.621 177.474 104.44C177.154 104.248 176.781 104.152 176.354 104.152C175.928 104.152 175.549 104.248 175.218 104.44C174.898 104.621 174.648 104.883 174.466 105.224C174.285 105.555 174.194 105.949 174.194 106.408V106.792C174.194 107.261 174.296 107.677 174.498 108.04C174.712 108.392 175.005 108.664 175.378 108.856C175.762 109.037 176.21 109.128 176.722 109.128C177.181 109.128 177.581 109.059 177.922 108.92C178.274 108.781 178.594 108.573 178.882 108.296L180.21 109.736C179.816 110.184 179.32 110.531 178.722 110.776C178.125 111.011 177.437 111.128 176.658 111.128ZM186.176 111.128C185.365 111.128 184.635 110.947 183.984 110.584C183.333 110.211 182.816 109.693 182.432 109.032C182.059 108.371 181.872 107.592 181.872 106.696C181.872 105.789 182.059 105.005 182.432 104.344C182.816 103.683 183.333 103.171 183.984 102.808C184.635 102.445 185.365 102.264 186.176 102.264C186.901 102.264 187.536 102.424 188.08 102.744C188.624 103.064 189.045 103.549 189.344 104.2C189.643 104.851 189.792 105.683 189.792 106.696C189.792 107.699 189.648 108.531 189.36 109.192C189.072 109.843 188.656 110.328 188.112 110.648C187.579 110.968 186.933 111.128 186.176 111.128ZM186.608 109.08C187.013 109.08 187.381 108.984 187.712 108.792C188.043 108.6 188.304 108.328 188.496 107.976C188.699 107.613 188.8 107.187 188.8 106.696C188.8 106.195 188.699 105.768 188.496 105.416C188.304 105.064 188.043 104.792 187.712 104.6C187.381 104.408 187.013 104.312 186.608 104.312C186.192 104.312 185.819 104.408 185.488 104.6C185.157 104.792 184.891 105.064 184.688 105.416C184.496 105.768 184.4 106.195 184.4 106.696C184.4 107.187 184.496 107.613 184.688 107.976C184.891 108.328 185.157 108.6 185.488 108.792C185.819 108.984 186.192 109.08 186.608 109.08ZM188.864 111V109.24L188.912 106.68L188.752 104.136V99.128H191.248V111H188.864ZM205.946 99.8H208.538V111H205.946V99.8ZM200.858 111H198.266V99.8H200.858V111ZM206.138 106.408H200.666V104.216H206.138V106.408ZM215.107 111.128C214.19 111.128 213.374 110.936 212.659 110.552C211.955 110.168 211.395 109.645 210.979 108.984C210.574 108.312 210.371 107.549 210.371 106.696C210.371 105.832 210.574 105.069 210.979 104.408C211.395 103.736 211.955 103.213 212.659 102.84C213.374 102.456 214.19 102.264 215.107 102.264C216.014 102.264 216.825 102.456 217.539 102.84C218.254 103.213 218.814 103.731 219.219 104.392C219.625 105.053 219.827 105.821 219.827 106.696C219.827 107.549 219.625 108.312 219.219 108.984C218.814 109.645 218.254 110.168 217.539 110.552C216.825 110.936 216.014 111.128 215.107 111.128ZM215.107 109.08C215.523 109.08 215.897 108.984 216.227 108.792C216.558 108.6 216.819 108.328 217.011 107.976C217.203 107.613 217.299 107.187 217.299 106.696C217.299 106.195 217.203 105.768 217.011 105.416C216.819 105.064 216.558 104.792 216.227 104.6C215.897 104.408 215.523 104.312 215.107 104.312C214.691 104.312 214.318 104.408 213.987 104.6C213.657 104.792 213.39 105.064 213.187 105.416C212.995 105.768 212.899 106.195 212.899 106.696C212.899 107.187 212.995 107.613 213.187 107.976C213.39 108.328 213.657 108.6 213.987 108.792C214.318 108.984 214.691 109.08 215.107 109.08ZM225.128 111.128C224.413 111.128 223.773 110.989 223.208 110.712C222.653 110.435 222.221 110.013 221.912 109.448C221.602 108.872 221.448 108.141 221.448 107.256V102.392H223.944V106.888C223.944 107.603 224.093 108.131 224.392 108.472C224.701 108.803 225.133 108.968 225.688 108.968C226.072 108.968 226.413 108.888 226.712 108.728C227.01 108.557 227.245 108.301 227.416 107.96C227.586 107.608 227.672 107.171 227.672 106.648V102.392H230.168V111H227.8V108.632L228.232 109.32C227.944 109.917 227.517 110.371 226.952 110.68C226.397 110.979 225.789 111.128 225.128 111.128ZM232.48 111V102.392H234.864V104.824L234.528 104.12C234.784 103.512 235.195 103.053 235.76 102.744C236.325 102.424 237.013 102.264 237.824 102.264V104.568C237.717 104.557 237.621 104.552 237.536 104.552C237.451 104.541 237.36 104.536 237.264 104.536C236.581 104.536 236.027 104.733 235.6 105.128C235.184 105.512 234.976 106.115 234.976 106.936V111H232.48ZM242.267 111.128C241.531 111.128 240.821 111.043 240.139 110.872C239.467 110.691 238.933 110.467 238.539 110.2L239.371 108.408C239.765 108.653 240.229 108.856 240.763 109.016C241.307 109.165 241.84 109.24 242.363 109.24C242.939 109.24 243.344 109.171 243.579 109.032C243.824 108.893 243.947 108.701 243.947 108.456C243.947 108.253 243.851 108.104 243.659 108.008C243.477 107.901 243.232 107.821 242.923 107.768C242.613 107.715 242.272 107.661 241.899 107.608C241.536 107.555 241.168 107.485 240.795 107.4C240.421 107.304 240.08 107.165 239.771 106.984C239.461 106.803 239.211 106.557 239.019 106.248C238.837 105.939 238.747 105.539 238.747 105.048C238.747 104.504 238.901 104.024 239.211 103.608C239.531 103.192 239.989 102.867 240.587 102.632C241.184 102.387 241.899 102.264 242.731 102.264C243.317 102.264 243.915 102.328 244.523 102.456C245.131 102.584 245.637 102.771 246.043 103.016L245.211 104.792C244.795 104.547 244.373 104.381 243.947 104.296C243.531 104.2 243.125 104.152 242.731 104.152C242.176 104.152 241.771 104.227 241.515 104.376C241.259 104.525 241.131 104.717 241.131 104.952C241.131 105.165 241.221 105.325 241.403 105.432C241.595 105.539 241.845 105.624 242.155 105.688C242.464 105.752 242.8 105.811 243.163 105.864C243.536 105.907 243.909 105.976 244.283 106.072C244.656 106.168 244.992 106.307 245.291 106.488C245.6 106.659 245.851 106.899 246.043 107.208C246.235 107.507 246.331 107.901 246.331 108.392C246.331 108.925 246.171 109.4 245.851 109.816C245.531 110.221 245.067 110.541 244.459 110.776C243.861 111.011 243.131 111.128 242.267 111.128ZM254.898 111V101.912H251.314V99.8H261.074V101.912H257.49V111H254.898ZM265.514 111.128C264.596 111.128 263.78 110.936 263.066 110.552C262.362 110.168 261.802 109.645 261.386 108.984C260.98 108.312 260.778 107.549 260.778 106.696C260.778 105.832 260.98 105.069 261.386 104.408C261.802 103.736 262.362 103.213 263.066 102.84C263.78 102.456 264.596 102.264 265.514 102.264C266.42 102.264 267.231 102.456 267.946 102.84C268.66 103.213 269.22 103.731 269.626 104.392C270.031 105.053 270.234 105.821 270.234 106.696C270.234 107.549 270.031 108.312 269.626 108.984C269.22 109.645 268.66 110.168 267.946 110.552C267.231 110.936 266.42 111.128 265.514 111.128ZM265.514 109.08C265.93 109.08 266.303 108.984 266.634 108.792C266.964 108.6 267.226 108.328 267.418 107.976C267.61 107.613 267.706 107.187 267.706 106.696C267.706 106.195 267.61 105.768 267.418 105.416C267.226 105.064 266.964 104.792 266.634 104.6C266.303 104.408 265.93 104.312 265.514 104.312C265.098 104.312 264.724 104.408 264.394 104.6C264.063 104.792 263.796 105.064 263.594 105.416C263.402 105.768 263.306 106.195 263.306 106.696C263.306 107.187 263.402 107.613 263.594 107.976C263.796 108.328 264.063 108.6 264.394 108.792C264.724 108.984 265.098 109.08 265.514 109.08ZM275.598 111.128C274.787 111.128 274.057 110.947 273.406 110.584C272.755 110.211 272.238 109.693 271.854 109.032C271.481 108.371 271.294 107.592 271.294 106.696C271.294 105.789 271.481 105.005 271.854 104.344C272.238 103.683 272.755 103.171 273.406 102.808C274.057 102.445 274.787 102.264 275.598 102.264C276.323 102.264 276.958 102.424 277.502 102.744C278.046 103.064 278.467 103.549 278.766 104.2C279.065 104.851 279.214 105.683 279.214 106.696C279.214 107.699 279.07 108.531 278.782 109.192C278.494 109.843 278.078 110.328 277.534 110.648C277.001 110.968 276.355 111.128 275.598 111.128ZM276.03 109.08C276.435 109.08 276.803 108.984 277.134 108.792C277.465 108.6 277.726 108.328 277.918 107.976C278.121 107.613 278.222 107.187 278.222 106.696C278.222 106.195 278.121 105.768 277.918 105.416C277.726 105.064 277.465 104.792 277.134 104.6C276.803 104.408 276.435 104.312 276.03 104.312C275.614 104.312 275.241 104.408 274.91 104.6C274.579 104.792 274.313 105.064 274.11 105.416C273.918 105.768 273.822 106.195 273.822 106.696C273.822 107.187 273.918 107.613 274.11 107.976C274.313 108.328 274.579 108.6 274.91 108.792C275.241 108.984 275.614 109.08 276.03 109.08ZM278.286 111V109.24L278.334 106.68L278.174 104.136V99.128H280.67V111H278.286ZM288.26 111V109.32L288.1 108.952V105.944C288.1 105.411 287.935 104.995 287.604 104.696C287.284 104.397 286.788 104.248 286.116 104.248C285.657 104.248 285.204 104.323 284.756 104.472C284.319 104.611 283.945 104.803 283.636 105.048L282.74 103.304C283.209 102.973 283.775 102.717 284.436 102.536C285.097 102.355 285.769 102.264 286.452 102.264C287.764 102.264 288.783 102.573 289.508 103.192C290.233 103.811 290.596 104.776 290.596 106.088V111H288.26ZM285.636 111.128C284.964 111.128 284.388 111.016 283.908 110.792C283.428 110.557 283.06 110.243 282.804 109.848C282.548 109.453 282.42 109.011 282.42 108.52C282.42 108.008 282.543 107.56 282.788 107.176C283.044 106.792 283.444 106.493 283.988 106.28C284.532 106.056 285.241 105.944 286.116 105.944H288.404V107.4H286.388C285.801 107.4 285.396 107.496 285.172 107.688C284.959 107.88 284.852 108.12 284.852 108.408C284.852 108.728 284.975 108.984 285.22 109.176C285.476 109.357 285.823 109.448 286.26 109.448C286.676 109.448 287.049 109.352 287.38 109.16C287.711 108.957 287.951 108.664 288.1 108.28L288.484 109.432C288.303 109.987 287.972 110.408 287.492 110.696C287.012 110.984 286.393 111.128 285.636 111.128ZM293.787 114.232C293.339 114.232 292.896 114.163 292.459 114.024C292.022 113.885 291.664 113.693 291.387 113.448L292.299 111.672C292.491 111.843 292.71 111.976 292.955 112.072C293.211 112.168 293.462 112.216 293.707 112.216C294.059 112.216 294.336 112.131 294.539 111.96C294.752 111.8 294.944 111.528 295.115 111.144L295.563 110.088L295.755 109.816L298.843 102.392H301.243L297.355 111.528C297.078 112.221 296.758 112.765 296.395 113.16C296.043 113.555 295.648 113.832 295.211 113.992C294.784 114.152 294.31 114.232 293.787 114.232ZM295.259 111.336L291.419 102.392H293.995L296.971 109.592L295.259 111.336Z" fill="white"/>
<path d="M103.344 139.128C102.469 139.128 101.685 138.904 100.992 138.456C100.309 138.008 99.7653 137.357 99.36 136.504C98.9653 135.651 98.768 134.616 98.768 133.4C98.768 132.184 98.9653 131.149 99.36 130.296C99.7653 129.443 100.309 128.792 100.992 128.344C101.685 127.896 102.469 127.672 103.344 127.672C104.208 127.672 104.987 127.896 105.68 128.344C106.373 128.792 106.917 129.443 107.312 130.296C107.707 131.149 107.904 132.184 107.904 133.4C107.904 134.616 107.707 135.651 107.312 136.504C106.917 137.357 106.373 138.008 105.68 138.456C104.987 138.904 104.208 139.128 103.344 139.128ZM103.344 137.704C103.931 137.704 104.443 137.544 104.88 137.224C105.328 136.904 105.675 136.424 105.92 135.784C106.176 135.144 106.304 134.349 106.304 133.4C106.304 132.451 106.176 131.656 105.92 131.016C105.675 130.376 105.328 129.896 104.88 129.576C104.443 129.256 103.931 129.096 103.344 129.096C102.757 129.096 102.24 129.256 101.792 129.576C101.344 129.896 100.992 130.376 100.736 131.016C100.491 131.656 100.368 132.451 100.368 133.4C100.368 134.349 100.491 135.144 100.736 135.784C100.992 136.424 101.344 136.904 101.792 137.224C102.24 137.544 102.757 137.704 103.344 137.704ZM112.708 139.128C111.918 139.128 111.15 139.005 110.404 138.76C109.668 138.515 109.065 138.184 108.596 137.768L109.332 136.504C109.705 136.856 110.19 137.144 110.788 137.368C111.385 137.592 112.025 137.704 112.708 137.704C113.54 137.704 114.185 137.528 114.644 137.176C115.113 136.813 115.348 136.328 115.348 135.72C115.348 135.133 115.124 134.664 114.676 134.312C114.238 133.949 113.54 133.768 112.58 133.768H111.684V132.648L115.012 128.552L115.236 129.192H109.108V127.8H116.5V128.888L113.188 132.968L112.356 132.472H112.884C114.238 132.472 115.252 132.776 115.924 133.384C116.606 133.992 116.948 134.765 116.948 135.704C116.948 136.333 116.793 136.909 116.484 137.432C116.174 137.955 115.705 138.371 115.076 138.68C114.457 138.979 113.668 139.128 112.708 139.128ZM119.496 132.632C119.197 132.632 118.941 132.531 118.728 132.328C118.515 132.115 118.408 131.848 118.408 131.528C118.408 131.208 118.515 130.947 118.728 130.744C118.941 130.541 119.197 130.44 119.496 130.44C119.784 130.44 120.029 130.541 120.232 130.744C120.445 130.947 120.552 131.208 120.552 131.528C120.552 131.848 120.445 132.115 120.232 132.328C120.029 132.531 119.784 132.632 119.496 132.632ZM119.496 139.096C119.197 139.096 118.941 138.995 118.728 138.792C118.515 138.579 118.408 138.312 118.408 137.992C118.408 137.672 118.515 137.411 118.728 137.208C118.941 137.005 119.197 136.904 119.496 136.904C119.784 136.904 120.029 137.005 120.232 137.208C120.445 137.411 120.552 137.672 120.552 137.992C120.552 138.312 120.445 138.579 120.232 138.792C120.029 138.995 119.784 139.096 119.496 139.096ZM125.489 139.128C124.7 139.128 123.932 139.005 123.185 138.76C122.449 138.515 121.846 138.184 121.377 137.768L122.113 136.504C122.486 136.856 122.972 137.144 123.569 137.368C124.166 137.592 124.806 137.704 125.489 137.704C126.321 137.704 126.966 137.528 127.425 137.176C127.894 136.813 128.129 136.328 128.129 135.72C128.129 135.133 127.905 134.664 127.457 134.312C127.02 133.949 126.321 133.768 125.361 133.768H124.465V132.648L127.793 128.552L128.017 129.192H121.889V127.8H129.281V128.888L125.969 132.968L125.137 132.472H125.665C127.02 132.472 128.033 132.776 128.705 133.384C129.388 133.992 129.729 134.765 129.729 135.704C129.729 136.333 129.574 136.909 129.265 137.432C128.956 137.955 128.486 138.371 127.857 138.68C127.238 138.979 126.449 139.128 125.489 139.128ZM135.797 139.128C134.922 139.128 134.138 138.904 133.445 138.456C132.762 138.008 132.218 137.357 131.813 136.504C131.418 135.651 131.221 134.616 131.221 133.4C131.221 132.184 131.418 131.149 131.813 130.296C132.218 129.443 132.762 128.792 133.445 128.344C134.138 127.896 134.922 127.672 135.797 127.672C136.661 127.672 137.44 127.896 138.133 128.344C138.826 128.792 139.37 129.443 139.765 130.296C140.16 131.149 140.357 132.184 140.357 133.4C140.357 134.616 140.16 135.651 139.765 136.504C139.37 137.357 138.826 138.008 138.133 138.456C137.44 138.904 136.661 139.128 135.797 139.128ZM135.797 137.704C136.384 137.704 136.896 137.544 137.333 137.224C137.781 136.904 138.128 136.424 138.373 135.784C138.629 135.144 138.757 134.349 138.757 133.4C138.757 132.451 138.629 131.656 138.373 131.016C138.128 130.376 137.781 129.896 137.333 129.576C136.896 129.256 136.384 129.096 135.797 129.096C135.21 129.096 134.693 129.256 134.245 129.576C133.797 129.896 133.445 130.376 133.189 131.016C132.944 131.656 132.821 132.451 132.821 133.4C132.821 134.349 132.944 135.144 133.189 135.784C133.445 136.424 133.797 136.904 134.245 137.224C134.693 137.544 135.21 137.704 135.797 137.704ZM142.949 132.632C142.65 132.632 142.394 132.531 142.181 132.328C141.968 132.115 141.861 131.848 141.861 131.528C141.861 131.208 141.968 130.947 142.181 130.744C142.394 130.541 142.65 130.44 142.949 130.44C143.237 130.44 143.482 130.541 143.685 130.744C143.898 130.947 144.005 131.208 144.005 131.528C144.005 131.848 143.898 132.115 143.685 132.328C143.482 132.531 143.237 132.632 142.949 132.632ZM142.949 139.096C142.65 139.096 142.394 138.995 142.181 138.792C141.968 138.579 141.861 138.312 141.861 137.992C141.861 137.672 141.968 137.411 142.181 137.208C142.394 137.005 142.65 136.904 142.949 136.904C143.237 136.904 143.482 137.005 143.685 137.208C143.898 137.411 144.005 137.672 144.005 137.992C144.005 138.312 143.898 138.579 143.685 138.792C143.482 138.995 143.237 139.096 142.949 139.096ZM150.094 139.128C149.219 139.128 148.435 138.904 147.742 138.456C147.059 138.008 146.515 137.357 146.11 136.504C145.715 135.651 145.518 134.616 145.518 133.4C145.518 132.184 145.715 131.149 146.11 130.296C146.515 129.443 147.059 128.792 147.742 128.344C148.435 127.896 149.219 127.672 150.094 127.672C150.958 127.672 151.737 127.896 152.43 128.344C153.123 128.792 153.667 129.443 154.062 130.296C154.457 131.149 154.654 132.184 154.654 133.4C154.654 134.616 154.457 135.651 154.062 136.504C153.667 137.357 153.123 138.008 152.43 138.456C151.737 138.904 150.958 139.128 150.094 139.128ZM150.094 137.704C150.681 137.704 151.193 137.544 151.63 137.224C152.078 136.904 152.425 136.424 152.67 135.784C152.926 135.144 153.054 134.349 153.054 133.4C153.054 132.451 152.926 131.656 152.67 131.016C152.425 130.376 152.078 129.896 151.63 129.576C151.193 129.256 150.681 129.096 150.094 129.096C149.507 129.096 148.99 129.256 148.542 129.576C148.094 129.896 147.742 130.376 147.486 131.016C147.241 131.656 147.118 132.451 147.118 133.4C147.118 134.349 147.241 135.144 147.486 135.784C147.742 136.424 148.094 136.904 148.542 137.224C148.99 137.544 149.507 137.704 150.094 137.704ZM160.766 139.128C159.891 139.128 159.107 138.904 158.414 138.456C157.731 138.008 157.187 137.357 156.782 136.504C156.387 135.651 156.19 134.616 156.19 133.4C156.19 132.184 156.387 131.149 156.782 130.296C157.187 129.443 157.731 128.792 158.414 128.344C159.107 127.896 159.891 127.672 160.766 127.672C161.63 127.672 162.409 127.896 163.102 128.344C163.795 128.792 164.339 129.443 164.734 130.296C165.129 131.149 165.326 132.184 165.326 133.4C165.326 134.616 165.129 135.651 164.734 136.504C164.339 137.357 163.795 138.008 163.102 138.456C162.409 138.904 161.63 139.128 160.766 139.128ZM160.766 137.704C161.353 137.704 161.865 137.544 162.302 137.224C162.75 136.904 163.097 136.424 163.342 135.784C163.598 135.144 163.726 134.349 163.726 133.4C163.726 132.451 163.598 131.656 163.342 131.016C163.097 130.376 162.75 129.896 162.302 129.576C161.865 129.256 161.353 129.096 160.766 129.096C160.179 129.096 159.662 129.256 159.214 129.576C158.766 129.896 158.414 130.376 158.158 131.016C157.913 131.656 157.79 132.451 157.79 133.4C157.79 134.349 157.913 135.144 158.158 135.784C158.414 136.424 158.766 136.904 159.214 137.224C159.662 137.544 160.179 137.704 160.766 137.704Z" fill="white"/>
<g clip-path="url(#clip0_6567_954)">
<path d="M112.293 164.293C112.683 163.902 113.317 163.902 113.707 164.293C114.098 164.683 114.098 165.317 113.707 165.707L109.707 169.707C109.317 170.098 108.683 170.098 108.293 169.707L106.293 167.707C105.902 167.317 105.902 166.683 106.293 166.293C106.683 165.902 107.317 165.902 107.707 166.293L109 167.586L112.293 164.293ZM118 171C118 171.796 117.684 172.558 117.121 173.121C116.558 173.684 115.796 174 115 174H105C104.204 174 103.442 173.684 102.879 173.121C102.316 172.558 102 171.796 102 171V157C102 156.204 102.316 155.442 102.879 154.879C103.442 154.316 104.204 154 105 154H112L112.099 154.005C112.328 154.028 112.543 154.129 112.707 154.293L117.707 159.293C117.895 159.481 118 159.735 118 160V171ZM114.586 159L113 157.414V159H114.586ZM104 171L104.005 171.099C104.028 171.328 104.129 171.543 104.293 171.707C104.481 171.895 104.735 172 105 172H115C115.265 172 115.519 171.895 115.707 171.707C115.895 171.519 116 171.265 116 171V161H113C112.47 161 111.961 160.789 111.586 160.414C111.211 160.039 111 159.53 111 159V156H105C104.735 156 104.481 156.105 104.293 156.293C104.105 156.481 104 156.735 104 157V171Z" fill="white"/>
</g>
<path d="M132.688 169.192C131.824 169.192 131.019 169.053 130.272 168.776C129.536 168.488 128.896 168.083 128.352 167.56C127.808 167.037 127.381 166.424 127.072 165.72C126.773 165.016 126.624 164.243 126.624 163.4C126.624 162.557 126.773 161.784 127.072 161.08C127.381 160.376 127.808 159.763 128.352 159.24C128.907 158.717 129.552 158.317 130.288 158.04C131.024 157.752 131.829 157.608 132.704 157.608C133.675 157.608 134.549 157.779 135.328 158.12C136.117 158.451 136.779 158.941 137.312 159.592L135.648 161.128C135.264 160.691 134.837 160.365 134.368 160.152C133.899 159.928 133.387 159.816 132.832 159.816C132.309 159.816 131.829 159.901 131.392 160.072C130.955 160.243 130.576 160.488 130.256 160.808C129.936 161.128 129.685 161.507 129.504 161.944C129.333 162.381 129.248 162.867 129.248 163.4C129.248 163.933 129.333 164.419 129.504 164.856C129.685 165.293 129.936 165.672 130.256 165.992C130.576 166.312 130.955 166.557 131.392 166.728C131.829 166.899 132.309 166.984 132.832 166.984C133.387 166.984 133.899 166.877 134.368 166.664C134.837 166.44 135.264 166.104 135.648 165.656L137.312 167.192C136.779 167.843 136.117 168.339 135.328 168.68C134.549 169.021 133.669 169.192 132.688 169.192ZM142.686 169.128C141.768 169.128 140.952 168.936 140.238 168.552C139.534 168.168 138.974 167.645 138.558 166.984C138.152 166.312 137.95 165.549 137.95 164.696C137.95 163.832 138.152 163.069 138.558 162.408C138.974 161.736 139.534 161.213 140.238 160.84C140.952 160.456 141.768 160.264 142.686 160.264C143.592 160.264 144.403 160.456 145.118 160.84C145.832 161.213 146.392 161.731 146.798 162.392C147.203 163.053 147.406 163.821 147.406 164.696C147.406 165.549 147.203 166.312 146.798 166.984C146.392 167.645 145.832 168.168 145.118 168.552C144.403 168.936 143.592 169.128 142.686 169.128ZM142.686 167.08C143.102 167.08 143.475 166.984 143.806 166.792C144.136 166.6 144.398 166.328 144.59 165.976C144.782 165.613 144.878 165.187 144.878 164.696C144.878 164.195 144.782 163.768 144.59 163.416C144.398 163.064 144.136 162.792 143.806 162.6C143.475 162.408 143.102 162.312 142.686 162.312C142.27 162.312 141.896 162.408 141.566 162.6C141.235 162.792 140.968 163.064 140.766 163.416C140.574 163.768 140.478 164.195 140.478 164.696C140.478 165.187 140.574 165.613 140.766 165.976C140.968 166.328 141.235 166.6 141.566 166.792C141.896 166.984 142.27 167.08 142.686 167.08ZM160.098 160.264C160.781 160.264 161.383 160.403 161.906 160.68C162.439 160.947 162.855 161.363 163.154 161.928C163.463 162.483 163.618 163.197 163.618 164.072V169H161.122V164.456C161.122 163.763 160.978 163.251 160.69 162.92C160.402 162.589 159.997 162.424 159.474 162.424C159.111 162.424 158.786 162.509 158.498 162.68C158.21 162.84 157.986 163.085 157.826 163.416C157.666 163.747 157.586 164.168 157.586 164.68V169H155.09V164.456C155.09 163.763 154.946 163.251 154.658 162.92C154.381 162.589 153.981 162.424 153.458 162.424C153.095 162.424 152.77 162.509 152.482 162.68C152.194 162.84 151.97 163.085 151.81 163.416C151.65 163.747 151.57 164.168 151.57 164.68V169H149.074V160.392H151.458V162.744L151.01 162.056C151.309 161.469 151.73 161.027 152.274 160.728C152.829 160.419 153.458 160.264 154.162 160.264C154.951 160.264 155.639 160.467 156.226 160.872C156.823 161.267 157.218 161.875 157.41 162.696L156.53 162.456C156.818 161.784 157.277 161.251 157.906 160.856C158.546 160.461 159.277 160.264 160.098 160.264ZM170.943 169.128C170.218 169.128 169.583 168.968 169.039 168.648C168.495 168.328 168.068 167.843 167.759 167.192C167.46 166.531 167.311 165.699 167.311 164.696C167.311 163.683 167.455 162.851 167.743 162.2C168.031 161.549 168.447 161.064 168.991 160.744C169.535 160.424 170.186 160.264 170.943 160.264C171.754 160.264 172.479 160.451 173.119 160.824C173.77 161.187 174.282 161.699 174.655 162.36C175.039 163.021 175.231 163.8 175.231 164.696C175.231 165.603 175.039 166.387 174.655 167.048C174.282 167.709 173.77 168.221 173.119 168.584C172.479 168.947 171.754 169.128 170.943 169.128ZM165.855 172.104V160.392H168.239V162.152L168.191 164.712L168.351 167.256V172.104H165.855ZM170.511 167.08C170.927 167.08 171.295 166.984 171.615 166.792C171.946 166.6 172.207 166.328 172.399 165.976C172.602 165.613 172.703 165.187 172.703 164.696C172.703 164.195 172.602 163.768 172.399 163.416C172.207 163.064 171.946 162.792 171.615 162.6C171.295 162.408 170.927 162.312 170.511 162.312C170.095 162.312 169.722 162.408 169.391 162.6C169.06 162.792 168.799 163.064 168.607 163.416C168.415 163.768 168.319 164.195 168.319 164.696C168.319 165.187 168.415 165.613 168.607 165.976C168.799 166.328 169.06 166.6 169.391 166.792C169.722 166.984 170.095 167.08 170.511 167.08ZM176.902 169V157.128H179.398V169H176.902ZM185.987 169.128C185.005 169.128 184.141 168.936 183.395 168.552C182.659 168.168 182.088 167.645 181.683 166.984C181.277 166.312 181.075 165.549 181.075 164.696C181.075 163.832 181.272 163.069 181.667 162.408C182.072 161.736 182.621 161.213 183.315 160.84C184.008 160.456 184.792 160.264 185.667 160.264C186.509 160.264 187.267 160.445 187.939 160.808C188.621 161.16 189.16 161.672 189.555 162.344C189.949 163.005 190.147 163.8 190.147 164.728C190.147 164.824 190.141 164.936 190.131 165.064C190.12 165.181 190.109 165.293 190.099 165.4H183.107V163.944H188.786L187.827 164.376C187.827 163.928 187.736 163.539 187.555 163.208C187.373 162.877 187.123 162.621 186.803 162.44C186.483 162.248 186.109 162.152 185.683 162.152C185.256 162.152 184.877 162.248 184.547 162.44C184.227 162.621 183.976 162.883 183.795 163.224C183.613 163.555 183.523 163.949 183.523 164.408V164.792C183.523 165.261 183.624 165.677 183.827 166.04C184.04 166.392 184.333 166.664 184.707 166.856C185.091 167.037 185.539 167.128 186.051 167.128C186.509 167.128 186.909 167.059 187.251 166.92C187.603 166.781 187.923 166.573 188.211 166.296L189.539 167.736C189.144 168.184 188.648 168.531 188.051 168.776C187.453 169.011 186.765 169.128 185.987 169.128ZM195.328 169.128C194.315 169.128 193.526 168.872 192.96 168.36C192.395 167.837 192.112 167.064 192.112 166.04V158.488H194.608V166.008C194.608 166.371 194.704 166.653 194.896 166.856C195.088 167.048 195.35 167.144 195.68 167.144C196.075 167.144 196.411 167.037 196.688 166.824L197.36 168.584C197.104 168.765 196.795 168.904 196.432 169C196.08 169.085 195.712 169.128 195.328 169.128ZM190.784 162.504V160.584H196.752V162.504H190.784ZM202.768 169.128C201.786 169.128 200.922 168.936 200.176 168.552C199.44 168.168 198.869 167.645 198.464 166.984C198.058 166.312 197.856 165.549 197.856 164.696C197.856 163.832 198.053 163.069 198.448 162.408C198.853 161.736 199.402 161.213 200.096 160.84C200.789 160.456 201.573 160.264 202.448 160.264C203.29 160.264 204.048 160.445 204.72 160.808C205.402 161.16 205.941 161.672 206.336 162.344C206.73 163.005 206.928 163.8 206.928 164.728C206.928 164.824 206.922 164.936 206.912 165.064C206.901 165.181 206.89 165.293 206.88 165.4H199.888V163.944H205.568L204.608 164.376C204.608 163.928 204.517 163.539 204.336 163.208C204.154 162.877 203.904 162.621 203.584 162.44C203.264 162.248 202.89 162.152 202.464 162.152C202.037 162.152 201.658 162.248 201.328 162.44C201.008 162.621 200.757 162.883 200.576 163.224C200.394 163.555 200.304 163.949 200.304 164.408V164.792C200.304 165.261 200.405 165.677 200.608 166.04C200.821 166.392 201.114 166.664 201.488 166.856C201.872 167.037 202.32 167.128 202.832 167.128C203.29 167.128 203.69 167.059 204.032 166.92C204.384 166.781 204.704 166.573 204.992 166.296L206.32 167.736C205.925 168.184 205.429 168.531 204.832 168.776C204.234 169.011 203.546 169.128 202.768 169.128ZM212.286 169.128C211.475 169.128 210.744 168.947 210.094 168.584C209.443 168.211 208.926 167.693 208.542 167.032C208.168 166.371 207.982 165.592 207.982 164.696C207.982 163.789 208.168 163.005 208.542 162.344C208.926 161.683 209.443 161.171 210.094 160.808C210.744 160.445 211.475 160.264 212.286 160.264C213.011 160.264 213.646 160.424 214.19 160.744C214.734 161.064 215.155 161.549 215.454 162.2C215.752 162.851 215.902 163.683 215.902 164.696C215.902 165.699 215.758 166.531 215.47 167.192C215.182 167.843 214.766 168.328 214.222 168.648C213.688 168.968 213.043 169.128 212.286 169.128ZM212.718 167.08C213.123 167.08 213.491 166.984 213.822 166.792C214.152 166.6 214.414 166.328 214.606 165.976C214.808 165.613 214.91 165.187 214.91 164.696C214.91 164.195 214.808 163.768 214.606 163.416C214.414 163.064 214.152 162.792 213.822 162.6C213.491 162.408 213.123 162.312 212.718 162.312C212.302 162.312 211.928 162.408 211.598 162.6C211.267 162.792 211 163.064 210.798 163.416C210.606 163.768 210.51 164.195 210.51 164.696C210.51 165.187 210.606 165.613 210.798 165.976C211 166.328 211.267 166.6 211.598 166.792C211.928 166.984 212.302 167.08 212.718 167.08ZM214.974 169V167.24L215.022 164.68L214.862 162.136V157.128H217.358V169H214.974Z" fill="white"/>
<path d="M98.608 194.248V193.128L104.336 185.8H106.064L100.384 193.128L99.568 192.872H108.512V194.248H98.608ZM104.832 197V194.248L104.88 192.872V190.44H106.384V197H104.832ZM108.693 198.6L113.973 183.528H115.365L110.085 198.6H108.693ZM117.906 197V186.44L118.594 187.192H115.378V185.8H119.49V197H117.906ZM123.828 197V186.44L124.516 187.192H121.3V185.8H125.412V197H123.828ZM135.759 197.096C134.905 197.096 134.244 196.867 133.775 196.408C133.305 195.949 133.071 195.293 133.071 194.44V186.664H134.607V194.376C134.607 194.835 134.719 195.187 134.943 195.432C135.177 195.677 135.508 195.8 135.935 195.8C136.415 195.8 136.815 195.667 137.135 195.4L137.615 196.504C137.38 196.707 137.097 196.856 136.767 196.952C136.447 197.048 136.111 197.096 135.759 197.096ZM131.631 189.784V188.52H137.039V189.784H131.631ZM144.736 197V195.208L144.656 194.872V191.816C144.656 191.165 144.464 190.664 144.08 190.312C143.706 189.949 143.141 189.768 142.384 189.768C141.882 189.768 141.392 189.853 140.912 190.024C140.432 190.184 140.026 190.403 139.696 190.68L139.056 189.528C139.493 189.176 140.016 188.909 140.624 188.728C141.242 188.536 141.888 188.44 142.56 188.44C143.722 188.44 144.618 188.723 145.248 189.288C145.877 189.853 146.192 190.717 146.192 191.88V197H144.736ZM141.952 197.096C141.322 197.096 140.768 196.989 140.288 196.776C139.818 196.563 139.456 196.269 139.2 195.896C138.944 195.512 138.816 195.08 138.816 194.6C138.816 194.141 138.922 193.725 139.136 193.352C139.36 192.979 139.717 192.68 140.208 192.456C140.709 192.232 141.381 192.12 142.224 192.12H144.912V193.224H142.288C141.52 193.224 141.002 193.352 140.736 193.608C140.469 193.864 140.336 194.173 140.336 194.536C140.336 194.952 140.501 195.288 140.832 195.544C141.162 195.789 141.621 195.912 142.208 195.912C142.784 195.912 143.285 195.784 143.712 195.528C144.149 195.272 144.464 194.899 144.656 194.408L144.96 195.464C144.757 195.965 144.4 196.365 143.888 196.664C143.376 196.952 142.73 197.096 141.952 197.096ZM151.466 197.096C150.762 197.096 150.09 197 149.45 196.808C148.821 196.616 148.325 196.381 147.962 196.104L148.602 194.888C148.965 195.133 149.413 195.341 149.946 195.512C150.479 195.683 151.023 195.768 151.578 195.768C152.293 195.768 152.805 195.667 153.114 195.464C153.434 195.261 153.594 194.979 153.594 194.616C153.594 194.349 153.498 194.141 153.306 193.992C153.114 193.843 152.858 193.731 152.538 193.656C152.229 193.581 151.882 193.517 151.498 193.464C151.114 193.4 150.73 193.325 150.346 193.24C149.962 193.144 149.61 193.016 149.29 192.856C148.97 192.685 148.714 192.456 148.522 192.168C148.33 191.869 148.234 191.475 148.234 190.984C148.234 190.472 148.378 190.024 148.666 189.64C148.954 189.256 149.359 188.963 149.882 188.76C150.415 188.547 151.045 188.44 151.77 188.44C152.325 188.44 152.885 188.509 153.45 188.648C154.026 188.776 154.495 188.963 154.858 189.208L154.202 190.424C153.818 190.168 153.418 189.992 153.002 189.896C152.586 189.8 152.17 189.752 151.754 189.752C151.082 189.752 150.581 189.864 150.25 190.088C149.919 190.301 149.754 190.579 149.754 190.92C149.754 191.208 149.85 191.432 150.042 191.592C150.245 191.741 150.501 191.859 150.81 191.944C151.13 192.029 151.482 192.104 151.866 192.168C152.25 192.221 152.634 192.296 153.018 192.392C153.402 192.477 153.749 192.6 154.058 192.76C154.378 192.92 154.634 193.144 154.826 193.432C155.029 193.72 155.13 194.104 155.13 194.584C155.13 195.096 154.981 195.539 154.682 195.912C154.383 196.285 153.962 196.579 153.418 196.792C152.874 196.995 152.223 197.096 151.466 197.096ZM158.298 194.952L158.33 192.984L163.21 188.52H165.066L161.322 192.2L160.49 192.904L158.298 194.952ZM157.05 197V185.128H158.586V197H157.05ZM163.53 197L160.202 192.872L161.194 191.64L165.418 197H163.53ZM169.076 197.096C168.372 197.096 167.7 197 167.06 196.808C166.43 196.616 165.934 196.381 165.572 196.104L166.212 194.888C166.574 195.133 167.022 195.341 167.556 195.512C168.089 195.683 168.633 195.768 169.188 195.768C169.902 195.768 170.414 195.667 170.724 195.464C171.044 195.261 171.204 194.979 171.204 194.616C171.204 194.349 171.108 194.141 170.916 193.992C170.724 193.843 170.468 193.731 170.148 193.656C169.838 193.581 169.492 193.517 169.108 193.464C168.724 193.4 168.34 193.325 167.956 193.24C167.572 193.144 167.22 193.016 166.9 192.856C166.58 192.685 166.324 192.456 166.132 192.168C165.94 191.869 165.844 191.475 165.844 190.984C165.844 190.472 165.988 190.024 166.276 189.64C166.564 189.256 166.969 188.963 167.492 188.76C168.025 188.547 168.654 188.44 169.38 188.44C169.934 188.44 170.494 188.509 171.06 188.648C171.636 188.776 172.105 188.963 172.468 189.208L171.812 190.424C171.428 190.168 171.028 189.992 170.612 189.896C170.196 189.8 169.78 189.752 169.364 189.752C168.692 189.752 168.19 189.864 167.86 190.088C167.529 190.301 167.364 190.579 167.364 190.92C167.364 191.208 167.46 191.432 167.652 191.592C167.854 191.741 168.11 191.859 168.42 191.944C168.74 192.029 169.092 192.104 169.476 192.168C169.86 192.221 170.244 192.296 170.628 192.392C171.012 192.477 171.358 192.6 171.668 192.76C171.988 192.92 172.244 193.144 172.436 193.432C172.638 193.72 172.74 194.104 172.74 194.584C172.74 195.096 172.59 195.539 172.292 195.912C171.993 196.285 171.572 196.579 171.028 196.792C170.484 196.995 169.833 197.096 169.076 197.096Z" fill="white"/>
<rect x="28" y="3" width="291" height="200" rx="16" fill="white"/>
<rect x="44" y="19" width="36" height="36" rx="18" fill="#D7E2C0"/>
<path d="M61.5085 28.827C61.8215 28.5981 62.2562 28.6144 62.5518 28.8758C64.3362 30.4545 66.6653 31.2764 69.0452 31.1675C69.4286 31.1499 69.7742 31.3966 69.8826 31.7648C70.2921 33.1578 70.4176 34.6193 70.2512 36.0617C70.0849 37.504 69.6299 38.8985 68.9141 40.1616C68.1983 41.4247 67.2363 42.5314 66.0846 43.4152C64.9327 44.2991 63.6146 44.9419 62.2092 45.3065C62.0721 45.3421 61.9281 45.342 61.7909 45.3065C60.3856 44.942 59.0675 44.299 57.9156 43.4152C56.7638 42.5313 55.801 41.4248 55.0852 40.1616C54.3694 38.8985 53.9153 37.504 53.7489 36.0617C53.5826 34.6193 53.7073 33.1578 54.1168 31.7648L54.1681 31.633C54.312 31.3391 54.6194 31.1521 54.955 31.1675C57.3348 31.2763 59.6633 30.4543 61.4475 28.8758L61.5085 28.827ZM61.9993 30.5799C60.1534 32.0072 57.8956 32.801 55.5621 32.8415C55.3426 33.8342 55.2874 34.8576 55.4042 35.8705C55.545 37.0909 55.9297 38.2708 56.5354 39.3397C57.1411 40.4086 57.9558 41.3449 58.9304 42.0928C59.8473 42.7963 60.8891 43.317 61.9993 43.6333C63.11 43.317 64.1525 42.7966 65.0697 42.0928C66.0444 41.3449 66.8591 40.4086 67.4648 39.3397C68.0704 38.2708 68.4544 37.0909 68.5951 35.8705C68.712 34.8572 68.6562 33.8337 68.4364 32.8407C66.1031 32.7999 63.8449 32.0073 61.9993 30.5799Z" fill="#1A1B1F"/>
<path d="M61.7786 35.3635C61.9475 35.3169 62.1277 35.3243 62.2929 35.3862L68.9596 37.8862C69.3903 38.0479 69.6086 38.5288 69.447 38.9596C69.2854 39.3904 68.8045 39.6087 68.3736 39.4471L61.9999 37.057L55.6262 39.4471C55.1954 39.6087 54.7145 39.3904 54.5528 38.9596C54.3913 38.5288 54.6096 38.0479 55.0403 37.8862L61.707 35.3862L61.7786 35.3635Z" fill="#1A1B1F"/>
<path d="M87.648 43V33.912H84.064V31.8H93.824V33.912H90.24V43H87.648ZM95.0426 43V34.392H97.5386V43H95.0426ZM96.2906 33.192C95.832 33.192 95.4586 33.0587 95.1706 32.792C94.8826 32.5253 94.7386 32.1947 94.7386 31.8C94.7386 31.4053 94.8826 31.0747 95.1706 30.808C95.4586 30.5413 95.832 30.408 96.2906 30.408C96.7493 30.408 97.1226 30.536 97.4106 30.792C97.6986 31.0373 97.8426 31.3573 97.8426 31.752C97.8426 32.168 97.6986 32.5147 97.4106 32.792C97.1333 33.0587 96.76 33.192 96.2906 33.192ZM110.879 34.264C111.562 34.264 112.164 34.4027 112.687 34.68C113.22 34.9467 113.636 35.3627 113.935 35.928C114.244 36.4827 114.399 37.1973 114.399 38.072V43H111.903V38.456C111.903 37.7627 111.759 37.2507 111.471 36.92C111.183 36.5893 110.778 36.424 110.255 36.424C109.892 36.424 109.567 36.5093 109.279 36.68C108.991 36.84 108.767 37.0853 108.607 37.416C108.447 37.7467 108.367 38.168 108.367 38.68V43H105.871V38.456C105.871 37.7627 105.727 37.2507 105.439 36.92C105.162 36.5893 104.762 36.424 104.239 36.424C103.876 36.424 103.551 36.5093 103.263 36.68C102.975 36.84 102.751 37.0853 102.591 37.416C102.431 37.7467 102.351 38.168 102.351 38.68V43H99.8551V34.392H102.239V36.744L101.791 36.056C102.09 35.4693 102.511 35.0267 103.055 34.728C103.61 34.4187 104.239 34.264 104.943 34.264C105.732 34.264 106.42 34.4667 107.007 34.872C107.604 35.2667 107.999 35.8747 108.191 36.696L107.311 36.456C107.599 35.784 108.058 35.2507 108.687 34.856C109.327 34.4613 110.058 34.264 110.879 34.264ZM120.971 43.128C119.99 43.128 119.126 42.936 118.379 42.552C117.643 42.168 117.072 41.6453 116.667 40.984C116.262 40.312 116.059 39.5493 116.059 38.696C116.059 37.832 116.256 37.0693 116.651 36.408C117.056 35.736 117.606 35.2133 118.299 34.84C118.992 34.456 119.776 34.264 120.651 34.264C121.494 34.264 122.251 34.4453 122.923 34.808C123.606 35.16 124.144 35.672 124.539 36.344C124.934 37.0053 125.131 37.8 125.131 38.728C125.131 38.824 125.126 38.936 125.115 39.064C125.104 39.1813 125.094 39.2933 125.083 39.4H118.091V37.944H123.771L122.811 38.376C122.811 37.928 122.72 37.5387 122.539 37.208C122.358 36.8773 122.107 36.6213 121.787 36.44C121.467 36.248 121.094 36.152 120.667 36.152C120.24 36.152 119.862 36.248 119.531 36.44C119.211 36.6213 118.96 36.8827 118.779 37.224C118.598 37.5547 118.507 37.9493 118.507 38.408V38.792C118.507 39.2613 118.608 39.6773 118.811 40.04C119.024 40.392 119.318 40.664 119.691 40.856C120.075 41.0373 120.523 41.128 121.035 41.128C121.494 41.128 121.894 41.0587 122.235 40.92C122.587 40.7813 122.907 40.5733 123.195 40.296L124.523 41.736C124.128 42.184 123.632 42.5307 123.035 42.776C122.438 43.0107 121.75 43.128 120.971 43.128ZM133.82 43V33.912H130.236V31.8H139.996V33.912H136.412V43H133.82ZM141.027 43V34.392H143.411V36.824L143.075 36.12C143.331 35.512 143.742 35.0533 144.307 34.744C144.872 34.424 145.56 34.264 146.371 34.264V36.568C146.264 36.5573 146.168 36.552 146.083 36.552C145.998 36.5413 145.907 36.536 145.811 36.536C145.128 36.536 144.574 36.7333 144.147 37.128C143.731 37.512 143.523 38.1147 143.523 38.936V43H141.027ZM152.573 43V41.32L152.413 40.952V37.944C152.413 37.4107 152.247 36.9947 151.917 36.696C151.597 36.3973 151.101 36.248 150.429 36.248C149.97 36.248 149.517 36.3227 149.069 36.472C148.631 36.6107 148.258 36.8027 147.949 37.048L147.053 35.304C147.522 34.9733 148.087 34.7173 148.749 34.536C149.41 34.3547 150.082 34.264 150.765 34.264C152.077 34.264 153.095 34.5733 153.821 35.192C154.546 35.8107 154.909 36.776 154.909 38.088V43H152.573ZM149.949 43.128C149.277 43.128 148.701 43.016 148.221 42.792C147.741 42.5573 147.373 42.2427 147.117 41.848C146.861 41.4533 146.733 41.0107 146.733 40.52C146.733 40.008 146.855 39.56 147.101 39.176C147.357 38.792 147.757 38.4933 148.301 38.28C148.845 38.056 149.554 37.944 150.429 37.944H152.717V39.4H150.701C150.114 39.4 149.709 39.496 149.485 39.688C149.271 39.88 149.165 40.12 149.165 40.408C149.165 40.728 149.287 40.984 149.533 41.176C149.789 41.3573 150.135 41.448 150.573 41.448C150.989 41.448 151.362 41.352 151.693 41.16C152.023 40.9573 152.263 40.664 152.413 40.28L152.797 41.432C152.615 41.9867 152.285 42.408 151.805 42.696C151.325 42.984 150.706 43.128 149.949 43.128ZM161.39 43.128C160.462 43.128 159.635 42.9413 158.91 42.568C158.185 42.184 157.614 41.656 157.198 40.984C156.793 40.312 156.59 39.5493 156.59 38.696C156.59 37.832 156.793 37.0693 157.198 36.408C157.614 35.736 158.185 35.2133 158.91 34.84C159.635 34.456 160.462 34.264 161.39 34.264C162.297 34.264 163.086 34.456 163.758 34.84C164.43 35.2133 164.926 35.752 165.246 36.456L163.31 37.496C163.086 37.0907 162.803 36.792 162.462 36.6C162.131 36.408 161.769 36.312 161.374 36.312C160.947 36.312 160.563 36.408 160.222 36.6C159.881 36.792 159.609 37.064 159.406 37.416C159.214 37.768 159.118 38.1947 159.118 38.696C159.118 39.1973 159.214 39.624 159.406 39.976C159.609 40.328 159.881 40.6 160.222 40.792C160.563 40.984 160.947 41.08 161.374 41.08C161.769 41.08 162.131 40.9893 162.462 40.808C162.803 40.616 163.086 40.312 163.31 39.896L165.246 40.952C164.926 41.6453 164.43 42.184 163.758 42.568C163.086 42.9413 162.297 43.128 161.39 43.128ZM168.685 41.24L168.749 38.2L172.765 34.392H175.741L171.885 38.312L170.589 39.368L168.685 41.24ZM166.621 43V31.128H169.117V43H166.621ZM173.037 43L170.125 39.384L171.693 37.448L176.061 43H173.037ZM181.08 43.128C180.099 43.128 179.235 42.936 178.488 42.552C177.752 42.168 177.182 41.6453 176.776 40.984C176.371 40.312 176.168 39.5493 176.168 38.696C176.168 37.832 176.366 37.0693 176.76 36.408C177.166 35.736 177.715 35.2133 178.408 34.84C179.102 34.456 179.886 34.264 180.76 34.264C181.603 34.264 182.36 34.4453 183.032 34.808C183.715 35.16 184.254 35.672 184.648 36.344C185.043 37.0053 185.24 37.8 185.24 38.728C185.24 38.824 185.235 38.936 185.224 39.064C185.214 39.1813 185.203 39.2933 185.192 39.4H178.2V37.944H183.88L182.92 38.376C182.92 37.928 182.83 37.5387 182.648 37.208C182.467 36.8773 182.216 36.6213 181.896 36.44C181.576 36.248 181.203 36.152 180.776 36.152C180.35 36.152 179.971 36.248 179.64 36.44C179.32 36.6213 179.07 36.8827 178.888 37.224C178.707 37.5547 178.616 37.9493 178.616 38.408V38.792C178.616 39.2613 178.718 39.6773 178.92 40.04C179.134 40.392 179.427 40.664 179.8 40.856C180.184 41.0373 180.632 41.128 181.144 41.128C181.603 41.128 182.003 41.0587 182.344 40.92C182.696 40.7813 183.016 40.5733 183.304 40.296L184.632 41.736C184.238 42.184 183.742 42.5307 183.144 42.776C182.547 43.0107 181.859 43.128 181.08 43.128ZM186.902 43V34.392H189.286V36.824L188.95 36.12C189.206 35.512 189.617 35.0533 190.182 34.744C190.747 34.424 191.435 34.264 192.246 34.264V36.568C192.139 36.5573 192.043 36.552 191.958 36.552C191.873 36.5413 191.782 36.536 191.686 36.536C191.003 36.536 190.449 36.7333 190.022 37.128C189.606 37.512 189.398 38.1147 189.398 38.936V43H186.902Z" fill="#1A1B1F"/>
<path d="M75.724 87L72.448 77.2H73.89L76.9 86.244H76.172L79.294 77.2H80.582L83.634 86.244H82.934L85.986 77.2H87.316L84.04 87H82.57L79.714 78.614H80.092L77.222 87H75.724ZM88.5455 87V79.58H89.8335V81.596L89.7075 81.092C89.9128 80.5787 90.2582 80.1867 90.7435 79.916C91.2288 79.6453 91.8262 79.51 92.5355 79.51V80.812C92.4795 80.8027 92.4235 80.798 92.3675 80.798C92.3208 80.798 92.2742 80.798 92.2275 80.798C91.5088 80.798 90.9395 81.0127 90.5195 81.442C90.0995 81.8713 89.8895 82.492 89.8895 83.304V87H88.5455ZM94.192 87V79.58H95.536V87H94.192ZM94.864 78.152C94.6026 78.152 94.3833 78.068 94.206 77.9C94.038 77.732 93.954 77.5267 93.954 77.284C93.954 77.032 94.038 76.822 94.206 76.654C94.3833 76.486 94.6026 76.402 94.864 76.402C95.1253 76.402 95.34 76.486 95.508 76.654C95.6853 76.8127 95.774 77.0133 95.774 77.256C95.774 77.508 95.69 77.7227 95.522 77.9C95.354 78.068 95.1346 78.152 94.864 78.152ZM100.65 87.084C99.9035 87.084 99.3248 86.8833 98.9141 86.482C98.5035 86.0807 98.2981 85.5067 98.2981 84.76V77.956H99.6421V84.704C99.6421 85.1053 99.7401 85.4133 99.9361 85.628C100.141 85.8427 100.431 85.95 100.804 85.95C101.224 85.95 101.574 85.8333 101.854 85.6L102.274 86.566C102.069 86.7433 101.821 86.874 101.532 86.958C101.252 87.042 100.958 87.084 100.65 87.084ZM97.0381 80.686V79.58H101.77V80.686H97.0381ZM106.957 87.084C106.164 87.084 105.464 86.9207 104.857 86.594C104.26 86.2673 103.793 85.8193 103.457 85.25C103.13 84.6807 102.967 84.0273 102.967 83.29C102.967 82.5527 103.126 81.8993 103.443 81.33C103.77 80.7607 104.213 80.3173 104.773 80C105.342 79.6733 105.982 79.51 106.691 79.51C107.41 79.51 108.044 79.6687 108.595 79.986C109.146 80.3033 109.575 80.7513 109.883 81.33C110.2 81.8993 110.359 82.5667 110.359 83.332C110.359 83.388 110.354 83.4533 110.345 83.528C110.345 83.6027 110.34 83.6727 110.331 83.738H104.017V82.772H109.631L109.085 83.108C109.094 82.632 108.996 82.2073 108.791 81.834C108.586 81.4607 108.301 81.1713 107.937 80.966C107.582 80.7513 107.167 80.644 106.691 80.644C106.224 80.644 105.809 80.7513 105.445 80.966C105.081 81.1713 104.796 81.4653 104.591 81.848C104.386 82.2213 104.283 82.6507 104.283 83.136V83.36C104.283 83.8547 104.395 84.298 104.619 84.69C104.852 85.0727 105.174 85.3713 105.585 85.586C105.996 85.8007 106.467 85.908 106.999 85.908C107.438 85.908 107.834 85.8333 108.189 85.684C108.553 85.5347 108.87 85.3107 109.141 85.012L109.883 85.88C109.547 86.272 109.127 86.5707 108.623 86.776C108.128 86.9813 107.573 87.084 106.957 87.084ZM120.591 87V85.432L120.521 85.138V82.464C120.521 81.8947 120.353 81.456 120.017 81.148C119.69 80.8307 119.196 80.672 118.533 80.672C118.094 80.672 117.665 80.7467 117.245 80.896C116.825 81.036 116.47 81.2273 116.181 81.47L115.621 80.462C116.004 80.154 116.461 79.9207 116.993 79.762C117.534 79.594 118.099 79.51 118.687 79.51C119.704 79.51 120.488 79.7573 121.039 80.252C121.59 80.7467 121.865 81.5027 121.865 82.52V87H120.591ZM118.155 87.084C117.604 87.084 117.119 86.9907 116.699 86.804C116.288 86.6173 115.971 86.3607 115.747 86.034C115.523 85.698 115.411 85.32 115.411 84.9C115.411 84.4987 115.504 84.1347 115.691 83.808C115.887 83.4813 116.2 83.22 116.629 83.024C117.068 82.828 117.656 82.73 118.393 82.73H120.745V83.696H118.449C117.777 83.696 117.324 83.808 117.091 84.032C116.858 84.256 116.741 84.5267 116.741 84.844C116.741 85.208 116.886 85.502 117.175 85.726C117.464 85.9407 117.866 86.048 118.379 86.048C118.883 86.048 119.322 85.936 119.695 85.712C120.078 85.488 120.353 85.1613 120.521 84.732L120.787 85.656C120.61 86.0947 120.297 86.4447 119.849 86.706C119.401 86.958 118.836 87.084 118.155 87.084ZM131.346 87.084C130.59 87.084 129.913 86.9207 129.316 86.594C128.728 86.2673 128.266 85.8193 127.93 85.25C127.594 84.6807 127.426 84.0273 127.426 83.29C127.426 82.5527 127.594 81.8993 127.93 81.33C128.266 80.7607 128.728 80.3173 129.316 80C129.913 79.6733 130.59 79.51 131.346 79.51C132.018 79.51 132.615 79.6453 133.138 79.916C133.67 80.1773 134.081 80.5693 134.37 81.092L133.348 81.75C133.105 81.386 132.807 81.12 132.452 80.952C132.107 80.7747 131.733 80.686 131.332 80.686C130.847 80.686 130.413 80.7933 130.03 81.008C129.647 81.2227 129.344 81.526 129.12 81.918C128.896 82.3007 128.784 82.758 128.784 83.29C128.784 83.822 128.896 84.284 129.12 84.676C129.344 85.068 129.647 85.3713 130.03 85.586C130.413 85.8007 130.847 85.908 131.332 85.908C131.733 85.908 132.107 85.824 132.452 85.656C132.807 85.4787 133.105 85.208 133.348 84.844L134.37 85.488C134.081 86.0013 133.67 86.398 133.138 86.678C132.615 86.9487 132.018 87.084 131.346 87.084ZM139.179 87.084C138.432 87.084 137.769 86.9207 137.191 86.594C136.612 86.2673 136.155 85.8193 135.819 85.25C135.483 84.6713 135.315 84.018 135.315 83.29C135.315 82.5527 135.483 81.8993 135.819 81.33C136.155 80.7607 136.612 80.3173 137.191 80C137.769 79.6733 138.432 79.51 139.179 79.51C139.916 79.51 140.574 79.6733 141.153 80C141.741 80.3173 142.198 80.7607 142.525 81.33C142.861 81.89 143.029 82.5433 143.029 83.29C143.029 84.0273 142.861 84.6807 142.525 85.25C142.198 85.8193 141.741 86.2673 141.153 86.594C140.574 86.9207 139.916 87.084 139.179 87.084ZM139.179 85.908C139.655 85.908 140.079 85.8007 140.453 85.586C140.835 85.3713 141.134 85.068 141.349 84.676C141.563 84.2747 141.671 83.8127 141.671 83.29C141.671 82.758 141.563 82.3007 141.349 81.918C141.134 81.526 140.835 81.2227 140.453 81.008C140.079 80.7933 139.655 80.686 139.179 80.686C138.703 80.686 138.278 80.7933 137.905 81.008C137.531 81.2227 137.233 81.526 137.009 81.918C136.785 82.3007 136.673 82.758 136.673 83.29C136.673 83.8127 136.785 84.2747 137.009 84.676C137.233 85.068 137.531 85.3713 137.905 85.586C138.278 85.8007 138.703 85.908 139.179 85.908ZM154.169 79.51C154.767 79.51 155.294 79.6267 155.751 79.86C156.209 80.0933 156.563 80.448 156.815 80.924C157.077 81.4 157.207 82.002 157.207 82.73V87H155.863V82.884C155.863 82.1653 155.695 81.624 155.359 81.26C155.023 80.896 154.552 80.714 153.945 80.714C153.497 80.714 153.105 80.8073 152.769 80.994C152.433 81.1807 152.172 81.456 151.985 81.82C151.808 82.184 151.719 82.6367 151.719 83.178V87H150.375V82.884C150.375 82.1653 150.207 81.624 149.871 81.26C149.545 80.896 149.073 80.714 148.457 80.714C148.019 80.714 147.631 80.8073 147.295 80.994C146.959 81.1807 146.698 81.456 146.511 81.82C146.325 82.184 146.231 82.6367 146.231 83.178V87H144.887V79.58H146.175V81.554L145.965 81.05C146.199 80.5647 146.558 80.1867 147.043 79.916C147.529 79.6453 148.093 79.51 148.737 79.51C149.447 79.51 150.058 79.6873 150.571 80.042C151.085 80.3873 151.421 80.9147 151.579 81.624L151.033 81.4C151.257 80.8307 151.649 80.3733 152.209 80.028C152.769 79.6827 153.423 79.51 154.169 79.51ZM168.962 79.51C169.56 79.51 170.087 79.6267 170.544 79.86C171.002 80.0933 171.356 80.448 171.608 80.924C171.87 81.4 172 82.002 172 82.73V87H170.656V82.884C170.656 82.1653 170.488 81.624 170.152 81.26C169.816 80.896 169.345 80.714 168.738 80.714C168.29 80.714 167.898 80.8073 167.562 80.994C167.226 81.1807 166.965 81.456 166.778 81.82C166.601 82.184 166.512 82.6367 166.512 83.178V87H165.168V82.884C165.168 82.1653 165 81.624 164.664 81.26C164.338 80.896 163.866 80.714 163.25 80.714C162.812 80.714 162.424 80.8073 162.088 80.994C161.752 81.1807 161.491 81.456 161.304 81.82C161.118 82.184 161.024 82.6367 161.024 83.178V87H159.68V79.58H160.968V81.554L160.758 81.05C160.992 80.5647 161.351 80.1867 161.836 79.916C162.322 79.6453 162.886 79.51 163.53 79.51C164.24 79.51 164.851 79.6873 165.364 80.042C165.878 80.3873 166.214 80.9147 166.372 81.624L165.826 81.4C166.05 80.8307 166.442 80.3733 167.002 80.028C167.562 79.6827 168.216 79.51 168.962 79.51ZM177.777 87.084C176.984 87.084 176.284 86.9207 175.677 86.594C175.08 86.2673 174.613 85.8193 174.277 85.25C173.951 84.6807 173.787 84.0273 173.787 83.29C173.787 82.5527 173.946 81.8993 174.263 81.33C174.59 80.7607 175.033 80.3173 175.593 80C176.163 79.6733 176.802 79.51 177.511 79.51C178.23 79.51 178.865 79.6687 179.415 79.986C179.966 80.3033 180.395 80.7513 180.703 81.33C181.021 81.8993 181.179 82.5667 181.179 83.332C181.179 83.388 181.175 83.4533 181.165 83.528C181.165 83.6027 181.161 83.6727 181.151 83.738H174.837V82.772H180.451L179.905 83.108C179.915 82.632 179.817 82.2073 179.611 81.834C179.406 81.4607 179.121 81.1713 178.757 80.966C178.403 80.7513 177.987 80.644 177.511 80.644C177.045 80.644 176.629 80.7513 176.265 80.966C175.901 81.1713 175.617 81.4653 175.411 81.848C175.206 82.2213 175.103 82.6507 175.103 83.136V83.36C175.103 83.8547 175.215 84.298 175.439 84.69C175.673 85.0727 175.995 85.3713 176.405 85.586C176.816 85.8007 177.287 85.908 177.819 85.908C178.258 85.908 178.655 85.8333 179.009 85.684C179.373 85.5347 179.691 85.3107 179.961 85.012L180.703 85.88C180.367 86.272 179.947 86.5707 179.443 86.776C178.949 86.9813 178.393 87.084 177.777 87.084ZM187.007 79.51C187.614 79.51 188.146 79.6267 188.603 79.86C189.07 80.0933 189.434 80.448 189.695 80.924C189.957 81.4 190.087 82.002 190.087 82.73V87H188.743V82.884C188.743 82.1653 188.566 81.624 188.211 81.26C187.866 80.896 187.376 80.714 186.741 80.714C186.265 80.714 185.85 80.8073 185.495 80.994C185.141 81.1807 184.865 81.456 184.669 81.82C184.483 82.184 184.389 82.6367 184.389 83.178V87H183.045V79.58H184.333V81.582L184.123 81.05C184.366 80.5647 184.739 80.1867 185.243 79.916C185.747 79.6453 186.335 79.51 187.007 79.51ZM195.123 87.084C194.376 87.084 193.797 86.8833 193.387 86.482C192.976 86.0807 192.771 85.5067 192.771 84.76V77.956H194.115V84.704C194.115 85.1053 194.213 85.4133 194.409 85.628C194.614 85.8427 194.903 85.95 195.277 85.95C195.697 85.95 196.047 85.8333 196.327 85.6L196.747 86.566C196.541 86.7433 196.294 86.874 196.005 86.958C195.725 87.042 195.431 87.084 195.123 87.084ZM191.511 80.686V79.58H196.243V80.686H191.511ZM203.853 89.716C203.321 88.8667 202.911 87.8867 202.621 86.776C202.332 85.656 202.187 84.452 202.187 83.164C202.187 81.876 202.332 80.672 202.621 79.552C202.911 78.4227 203.321 77.4427 203.853 76.612H205.127C204.567 77.6013 204.157 78.6373 203.895 79.72C203.634 80.7933 203.503 81.9413 203.503 83.164C203.503 84.3867 203.634 85.5393 203.895 86.622C204.157 87.6953 204.567 88.7267 205.127 89.716H203.853ZM210.026 87.084C209.28 87.084 208.617 86.9207 208.038 86.594C207.46 86.2673 207.002 85.8193 206.666 85.25C206.33 84.6713 206.162 84.018 206.162 83.29C206.162 82.5527 206.33 81.8993 206.666 81.33C207.002 80.7607 207.46 80.3173 208.038 80C208.617 79.6733 209.28 79.51 210.026 79.51C210.764 79.51 211.422 79.6733 212 80C212.588 80.3173 213.046 80.7607 213.372 81.33C213.708 81.89 213.876 82.5433 213.876 83.29C213.876 84.0273 213.708 84.6807 213.372 85.25C213.046 85.8193 212.588 86.2673 212 86.594C211.422 86.9207 210.764 87.084 210.026 87.084ZM210.026 85.908C210.502 85.908 210.927 85.8007 211.3 85.586C211.683 85.3713 211.982 85.068 212.196 84.676C212.411 84.2747 212.518 83.8127 212.518 83.29C212.518 82.758 212.411 82.3007 212.196 81.918C211.982 81.526 211.683 81.2227 211.3 81.008C210.927 80.7933 210.502 80.686 210.026 80.686C209.55 80.686 209.126 80.7933 208.752 81.008C208.379 81.2227 208.08 81.526 207.856 81.918C207.632 82.3007 207.52 82.758 207.52 83.29C207.52 83.8127 207.632 84.2747 207.856 84.676C208.08 85.068 208.379 85.3713 208.752 85.586C209.126 85.8007 209.55 85.908 210.026 85.908ZM219.669 87.084C219.053 87.084 218.488 86.944 217.975 86.664C217.471 86.3747 217.065 85.95 216.757 85.39C216.458 84.83 216.309 84.13 216.309 83.29C216.309 82.45 216.454 81.75 216.743 81.19C217.042 80.63 217.443 80.21 217.947 79.93C218.46 79.65 219.034 79.51 219.669 79.51C220.397 79.51 221.041 79.6687 221.601 79.986C222.161 80.3033 222.604 80.7467 222.931 81.316C223.258 81.876 223.421 82.534 223.421 83.29C223.421 84.046 223.258 84.7087 222.931 85.278C222.604 85.8473 222.161 86.2907 221.601 86.608C221.041 86.9253 220.397 87.084 219.669 87.084ZM215.735 89.716V79.58H217.023V81.582L216.939 83.304L217.079 85.026V89.716H215.735ZM219.557 85.908C220.033 85.908 220.458 85.8007 220.831 85.586C221.214 85.3713 221.512 85.068 221.727 84.676C221.951 84.2747 222.063 83.8127 222.063 83.29C222.063 82.758 221.951 82.3007 221.727 81.918C221.512 81.526 221.214 81.2227 220.831 81.008C220.458 80.7933 220.033 80.686 219.557 80.686C219.09 80.686 218.666 80.7933 218.283 81.008C217.91 81.2227 217.611 81.526 217.387 81.918C217.172 82.3007 217.065 82.758 217.065 83.29C217.065 83.8127 217.172 84.2747 217.387 84.676C217.611 85.068 217.91 85.3713 218.283 85.586C218.666 85.8007 219.09 85.908 219.557 85.908ZM227.826 87.084C227.079 87.084 226.501 86.8833 226.09 86.482C225.679 86.0807 225.474 85.5067 225.474 84.76V77.956H226.818V84.704C226.818 85.1053 226.916 85.4133 227.112 85.628C227.317 85.8427 227.607 85.95 227.98 85.95C228.4 85.95 228.75 85.8333 229.03 85.6L229.45 86.566C229.245 86.7433 228.997 86.874 228.708 86.958C228.428 87.042 228.134 87.084 227.826 87.084ZM224.214 80.686V79.58H228.946V80.686H224.214ZM231.075 87V79.58H232.419V87H231.075ZM231.747 78.152C231.485 78.152 231.266 78.068 231.089 77.9C230.921 77.732 230.837 77.5267 230.837 77.284C230.837 77.032 230.921 76.822 231.089 76.654C231.266 76.486 231.485 76.402 231.747 76.402C232.008 76.402 232.223 76.486 232.391 76.654C232.568 76.8127 232.657 77.0133 232.657 77.256C232.657 77.508 232.573 77.7227 232.405 77.9C232.237 78.068 232.017 78.152 231.747 78.152ZM238.163 87.084C237.416 87.084 236.754 86.9207 236.175 86.594C235.596 86.2673 235.139 85.8193 234.803 85.25C234.467 84.6713 234.299 84.018 234.299 83.29C234.299 82.5527 234.467 81.8993 234.803 81.33C235.139 80.7607 235.596 80.3173 236.175 80C236.754 79.6733 237.416 79.51 238.163 79.51C238.9 79.51 239.558 79.6733 240.137 80C240.725 80.3173 241.182 80.7607 241.509 81.33C241.845 81.89 242.013 82.5433 242.013 83.29C242.013 84.0273 241.845 84.6807 241.509 85.25C241.182 85.8193 240.725 86.2673 240.137 86.594C239.558 86.9207 238.9 87.084 238.163 87.084ZM238.163 85.908C238.639 85.908 239.064 85.8007 239.437 85.586C239.82 85.3713 240.118 85.068 240.333 84.676C240.548 84.2747 240.655 83.8127 240.655 83.29C240.655 82.758 240.548 82.3007 240.333 81.918C240.118 81.526 239.82 81.2227 239.437 81.008C239.064 80.7933 238.639 80.686 238.163 80.686C237.687 80.686 237.262 80.7933 236.889 81.008C236.516 81.2227 236.217 81.526 235.993 81.918C235.769 82.3007 235.657 82.758 235.657 83.29C235.657 83.8127 235.769 84.2747 235.993 84.676C236.217 85.068 236.516 85.3713 236.889 85.586C237.262 85.8007 237.687 85.908 238.163 85.908ZM247.834 79.51C248.44 79.51 248.972 79.6267 249.43 79.86C249.896 80.0933 250.26 80.448 250.522 80.924C250.783 81.4 250.914 82.002 250.914 82.73V87H249.57V82.884C249.57 82.1653 249.392 81.624 249.038 81.26C248.692 80.896 248.202 80.714 247.568 80.714C247.092 80.714 246.676 80.8073 246.322 80.994C245.967 81.1807 245.692 81.456 245.496 81.82C245.309 82.184 245.216 82.6367 245.216 83.178V87H243.872V79.58H245.16V81.582L244.95 81.05C245.192 80.5647 245.566 80.1867 246.07 79.916C246.574 79.6453 247.162 79.51 247.834 79.51ZM258.007 87V85.432L257.937 85.138V82.464C257.937 81.8947 257.769 81.456 257.433 81.148C257.106 80.8307 256.612 80.672 255.949 80.672C255.51 80.672 255.081 80.7467 254.661 80.896C254.241 81.036 253.886 81.2273 253.597 81.47L253.037 80.462C253.42 80.154 253.877 79.9207 254.409 79.762C254.95 79.594 255.515 79.51 256.103 79.51C257.12 79.51 257.904 79.7573 258.455 80.252C259.006 80.7467 259.281 81.5027 259.281 82.52V87H258.007ZM255.571 87.084C255.02 87.084 254.535 86.9907 254.115 86.804C253.704 86.6173 253.387 86.3607 253.163 86.034C252.939 85.698 252.827 85.32 252.827 84.9C252.827 84.4987 252.92 84.1347 253.107 83.808C253.303 83.4813 253.616 83.22 254.045 83.024C254.484 82.828 255.072 82.73 255.809 82.73H258.161V83.696H255.865C255.193 83.696 254.74 83.808 254.507 84.032C254.274 84.256 254.157 84.5267 254.157 84.844C254.157 85.208 254.302 85.502 254.591 85.726C254.88 85.9407 255.282 86.048 255.795 86.048C256.299 86.048 256.738 85.936 257.111 85.712C257.494 85.488 257.769 85.1613 257.937 84.732L258.203 85.656C258.026 86.0947 257.713 86.4447 257.265 86.706C256.817 86.958 256.252 87.084 255.571 87.084ZM261.768 87V76.612H263.112V87H261.768ZM266.126 89.716H264.852C265.422 88.7267 265.837 87.6953 266.098 86.622C266.36 85.5393 266.49 84.3867 266.49 83.164C266.49 81.9413 266.36 80.7933 266.098 79.72C265.837 78.6373 265.422 77.6013 264.852 76.612H266.126C266.677 77.4427 267.092 78.4227 267.372 79.552C267.662 80.672 267.806 81.876 267.806 83.164C267.806 84.452 267.662 85.656 267.372 86.776C267.092 87.8867 266.677 88.8667 266.126 89.716Z" fill="#808080"/>
<path d="M72.746 174.168C71.9433 174.168 71.2247 173.972 70.59 173.58C69.9553 173.179 69.456 172.6 69.092 171.844C68.728 171.088 68.546 170.173 68.546 169.1C68.546 168.027 68.728 167.112 69.092 166.356C69.456 165.6 69.9553 165.026 70.59 164.634C71.2247 164.233 71.9433 164.032 72.746 164.032C73.558 164.032 74.2767 164.233 74.902 164.634C75.5367 165.026 76.036 165.6 76.4 166.356C76.764 167.112 76.946 168.027 76.946 169.1C76.946 170.173 76.764 171.088 76.4 171.844C76.036 172.6 75.5367 173.179 74.902 173.58C74.2767 173.972 73.558 174.168 72.746 174.168ZM72.746 172.25C73.1287 172.25 73.46 172.143 73.74 171.928C74.0293 171.713 74.2533 171.373 74.412 170.906C74.58 170.439 74.664 169.837 74.664 169.1C74.664 168.363 74.58 167.761 74.412 167.294C74.2533 166.827 74.0293 166.487 73.74 166.272C73.46 166.057 73.1287 165.95 72.746 165.95C72.3727 165.95 72.0413 166.057 71.752 166.272C71.472 166.487 71.248 166.827 71.08 167.294C70.9213 167.761 70.842 168.363 70.842 169.1C70.842 169.837 70.9213 170.439 71.08 170.906C71.248 171.373 71.472 171.713 71.752 171.928C72.0413 172.143 72.3727 172.25 72.746 172.25ZM79.5053 174V165.04L80.4853 166.02H77.5453V164.2H81.7733V174H79.5053ZM84.7637 169.086C84.3904 169.086 84.0684 168.96 83.7977 168.708C83.5364 168.447 83.4057 168.115 83.4057 167.714C83.4057 167.313 83.5364 166.991 83.7977 166.748C84.0684 166.496 84.3904 166.37 84.7637 166.37C85.1464 166.37 85.4684 166.496 85.7297 166.748C85.991 166.991 86.1217 167.313 86.1217 167.714C86.1217 168.115 85.991 168.447 85.7297 168.708C85.4684 168.96 85.1464 169.086 84.7637 169.086ZM84.7637 174.112C84.3904 174.112 84.0684 173.986 83.7977 173.734C83.5364 173.473 83.4057 173.141 83.4057 172.74C83.4057 172.339 83.5364 172.017 83.7977 171.774C84.0684 171.522 84.3904 171.396 84.7637 171.396C85.1464 171.396 85.4684 171.522 85.7297 171.774C85.991 172.017 86.1217 172.339 86.1217 172.74C86.1217 173.141 85.991 173.473 85.7297 173.734C85.4684 173.986 85.1464 174.112 84.7637 174.112ZM88.6517 174V165.04L89.6318 166.02H86.6918V164.2H90.9198V174H88.6517ZM94.1342 174V165.04L95.1142 166.02H92.1742V164.2H96.4022V174H94.1342ZM99.3926 169.086C99.0193 169.086 98.6973 168.96 98.4266 168.708C98.1653 168.447 98.0346 168.115 98.0346 167.714C98.0346 167.313 98.1653 166.991 98.4266 166.748C98.6973 166.496 99.0193 166.37 99.3926 166.37C99.7753 166.37 100.097 166.496 100.359 166.748C100.62 166.991 100.751 167.313 100.751 167.714C100.751 168.115 100.62 168.447 100.359 168.708C100.097 168.96 99.7753 169.086 99.3926 169.086ZM99.3926 174.112C99.0193 174.112 98.6973 173.986 98.4266 173.734C98.1653 173.473 98.0346 173.141 98.0346 172.74C98.0346 172.339 98.1653 172.017 98.4266 171.774C98.6973 171.522 99.0193 171.396 99.3926 171.396C99.7753 171.396 100.097 171.522 100.359 171.774C100.62 172.017 100.751 172.339 100.751 172.74C100.751 173.141 100.62 173.473 100.359 173.734C100.097 173.986 99.7753 174.112 99.3926 174.112ZM103.281 174V165.04L104.261 166.02H101.321V164.2H105.549V174H103.281ZM108.763 174V165.04L109.743 166.02H106.803V164.2H111.031V174H108.763Z" fill="#1A1B1F"/>
<rect x="213" y="151" width="90" height="36" rx="18" fill="#FECF8D"/>
<path d="M244 169.833C244 168.507 243.473 167.236 242.535 166.298C241.598 165.36 240.326 164.833 239 164.833C237.674 164.833 236.403 165.36 235.465 166.298C234.527 167.236 234 168.507 234 169.833C234 170.49 234.13 171.14 234.381 171.747C234.632 172.353 235.001 172.904 235.465 173.368C235.929 173.833 236.48 174.201 237.087 174.452C237.693 174.704 238.343 174.833 239 174.833C239.657 174.833 240.307 174.704 240.913 174.452C241.52 174.201 242.071 173.833 242.535 173.368C242.999 172.904 243.368 172.353 243.619 171.747C243.87 171.14 244 170.49 244 169.833ZM245.667 169.833C245.667 170.709 245.494 171.576 245.159 172.385C244.824 173.193 244.333 173.929 243.714 174.548C243.095 175.167 242.36 175.657 241.551 175.992C240.742 176.327 239.876 176.5 239 176.5C238.125 176.5 237.258 176.327 236.449 175.992C235.64 175.657 234.905 175.167 234.286 174.548C233.667 173.929 233.176 173.193 232.841 172.385C232.506 171.576 232.333 170.709 232.333 169.833C232.333 168.065 233.035 166.369 234.286 165.119C235.536 163.869 237.232 163.167 239 163.167C240.768 163.167 242.464 163.869 243.714 165.119C244.965 166.369 245.667 168.065 245.667 169.833Z" fill="#1A1B1F"/>
<path d="M240.494 167.161C240.82 166.835 241.347 166.835 241.673 167.161C241.998 167.486 241.998 168.014 241.673 168.339L239.589 170.422C239.264 170.748 238.736 170.748 238.411 170.422C238.085 170.097 238.085 169.57 238.411 169.244L240.494 167.161Z" fill="#1A1B1F"/>
<path d="M243.411 164.244C243.736 163.919 244.264 163.919 244.589 164.244C244.915 164.57 244.915 165.097 244.589 165.422L243.756 166.256C243.43 166.581 242.903 166.581 242.578 166.256C242.252 165.93 242.252 165.403 242.578 165.077L243.411 164.244Z" fill="#1A1B1F"/>
<path d="M240.667 160.667C241.127 160.667 241.5 161.04 241.5 161.5C241.5 161.96 241.127 162.333 240.667 162.333H237.333C236.873 162.333 236.5 161.96 236.5 161.5C236.5 161.04 236.873 160.667 237.333 160.667H240.667Z" fill="#1A1B1F"/>
<path d="M257.354 174.14C256.589 174.14 255.856 174.033 255.156 173.818C254.456 173.594 253.901 173.309 253.49 172.964L254.12 171.55C254.512 171.858 254.997 172.115 255.576 172.32C256.155 172.525 256.747 172.628 257.354 172.628C257.867 172.628 258.283 172.572 258.6 172.46C258.917 172.348 259.151 172.199 259.3 172.012C259.449 171.816 259.524 171.597 259.524 171.354C259.524 171.055 259.417 170.817 259.202 170.64C258.987 170.453 258.707 170.309 258.362 170.206C258.026 170.094 257.648 169.991 257.228 169.898C256.817 169.805 256.402 169.697 255.982 169.576C255.571 169.445 255.193 169.282 254.848 169.086C254.512 168.881 254.237 168.61 254.022 168.274C253.807 167.938 253.7 167.509 253.7 166.986C253.7 166.454 253.84 165.969 254.12 165.53C254.409 165.082 254.843 164.727 255.422 164.466C256.01 164.195 256.752 164.06 257.648 164.06C258.236 164.06 258.819 164.135 259.398 164.284C259.977 164.433 260.481 164.648 260.91 164.928L260.336 166.342C259.897 166.081 259.445 165.889 258.978 165.768C258.511 165.637 258.063 165.572 257.634 165.572C257.13 165.572 256.719 165.633 256.402 165.754C256.094 165.875 255.865 166.034 255.716 166.23C255.576 166.426 255.506 166.65 255.506 166.902C255.506 167.201 255.609 167.443 255.814 167.63C256.029 167.807 256.304 167.947 256.64 168.05C256.985 168.153 257.368 168.255 257.788 168.358C258.208 168.451 258.623 168.559 259.034 168.68C259.454 168.801 259.832 168.96 260.168 169.156C260.513 169.352 260.789 169.618 260.994 169.954C261.209 170.29 261.316 170.715 261.316 171.228C261.316 171.751 261.171 172.236 260.882 172.684C260.602 173.123 260.168 173.477 259.58 173.748C258.992 174.009 258.25 174.14 257.354 174.14ZM265.767 174.098C264.945 174.098 264.311 173.888 263.863 173.468C263.415 173.039 263.191 172.409 263.191 171.578V164.872H264.941V171.536C264.941 171.891 265.029 172.166 265.207 172.362C265.393 172.558 265.65 172.656 265.977 172.656C266.369 172.656 266.695 172.553 266.957 172.348L267.447 173.594C267.241 173.762 266.989 173.888 266.691 173.972C266.392 174.056 266.084 174.098 265.767 174.098ZM261.959 167.98V166.58H266.943V167.98H261.959ZM272 174.098C271.235 174.098 270.554 173.935 269.956 173.608C269.359 173.272 268.888 172.815 268.542 172.236C268.197 171.657 268.024 170.999 268.024 170.262C268.024 169.515 268.197 168.857 268.542 168.288C268.888 167.709 269.359 167.257 269.956 166.93C270.554 166.603 271.235 166.44 272 166.44C272.775 166.44 273.461 166.603 274.058 166.93C274.665 167.257 275.136 167.705 275.472 168.274C275.818 168.843 275.99 169.506 275.99 170.262C275.99 170.999 275.818 171.657 275.472 172.236C275.136 172.815 274.665 173.272 274.058 173.608C273.461 173.935 272.775 174.098 272 174.098ZM272 172.6C272.43 172.6 272.812 172.507 273.148 172.32C273.484 172.133 273.746 171.863 273.932 171.508C274.128 171.153 274.226 170.738 274.226 170.262C274.226 169.777 274.128 169.361 273.932 169.016C273.746 168.661 273.484 168.391 273.148 168.204C272.812 168.017 272.434 167.924 272.014 167.924C271.585 167.924 271.202 168.017 270.866 168.204C270.54 168.391 270.278 168.661 270.082 169.016C269.886 169.361 269.788 169.777 269.788 170.262C269.788 170.738 269.886 171.153 270.082 171.508C270.278 171.863 270.54 172.133 270.866 172.32C271.202 172.507 271.58 172.6 272 172.6ZM281.808 174.098C281.201 174.098 280.646 173.958 280.142 173.678C279.647 173.398 279.25 172.978 278.952 172.418C278.662 171.849 278.518 171.13 278.518 170.262C278.518 169.385 278.658 168.666 278.938 168.106C279.227 167.546 279.619 167.131 280.114 166.86C280.608 166.58 281.173 166.44 281.808 166.44C282.545 166.44 283.194 166.599 283.754 166.916C284.323 167.233 284.771 167.677 285.098 168.246C285.434 168.815 285.602 169.487 285.602 170.262C285.602 171.037 285.434 171.713 285.098 172.292C284.771 172.861 284.323 173.305 283.754 173.622C283.194 173.939 282.545 174.098 281.808 174.098ZM277.664 176.716V166.524H279.33V168.288L279.274 170.276L279.414 172.264V176.716H277.664ZM281.612 172.6C282.032 172.6 282.405 172.507 282.732 172.32C283.068 172.133 283.334 171.863 283.53 171.508C283.726 171.153 283.824 170.738 283.824 170.262C283.824 169.777 283.726 169.361 283.53 169.016C283.334 168.661 283.068 168.391 282.732 168.204C282.405 168.017 282.032 167.924 281.612 167.924C281.192 167.924 280.814 168.017 280.478 168.204C280.142 168.391 279.876 168.661 279.68 169.016C279.484 169.361 279.386 169.777 279.386 170.262C279.386 170.738 279.484 171.153 279.68 171.508C279.876 171.863 280.142 172.133 280.478 172.32C280.814 172.507 281.192 172.6 281.612 172.6Z" fill="#1A1B1F"/>
<rect x="328" y="116" width="40" height="40" rx="20" fill="#EAEAEA"/>
<path d="M355.293 136.293C355.683 135.902 356.317 135.902 356.707 136.293C357.098 136.683 357.098 137.317 356.707 137.707L349.707 144.707C349.317 145.098 348.683 145.098 348.293 144.707C347.902 144.317 347.902 143.683 348.293 143.293L355.293 136.293Z" fill="#1A1B1F"/>
<path d="M348 138C348 137.47 348.211 136.961 348.586 136.586C348.961 136.211 349.47 136 350 136H355V130C355 129.735 354.895 129.481 354.707 129.293C354.519 129.105 354.265 129 354 129H342C341.735 129 341.481 129.105 341.293 129.293C341.105 129.481 341 129.735 341 130V142C341 142.265 341.105 142.519 341.293 142.707C341.481 142.895 341.735 143 342 143H348V138ZM357 137C357 137.552 356.552 138 356 138H350V144C350 144.552 349.552 145 349 145H342C341.204 145 340.442 144.684 339.879 144.121C339.316 143.558 339 142.796 339 142V130C339 129.204 339.316 128.442 339.879 127.879C340.442 127.316 341.204 127 342 127H354C354.796 127 355.558 127.316 356.121 127.879C356.684 128.442 357 129.204 357 130V137Z" fill="#1A1B1F"/>
<rect x="328" y="164" width="40" height="40" rx="20" fill="#EAEAEA"/>
<path d="M352 186V178C352 177.735 351.895 177.481 351.707 177.293C351.519 177.105 351.265 177 351 177H343C342.735 177 342.481 177.105 342.293 177.293C342.105 177.481 342 177.735 342 178V190C342 190.265 342.105 190.519 342.293 190.707C342.481 190.895 342.735 191 343 191H345.615C346.167 191 346.615 191.448 346.615 192C346.615 192.552 346.167 193 345.615 193H343C342.204 193 341.442 192.684 340.879 192.121C340.316 191.558 340 190.796 340 190V178C340 177.204 340.316 176.442 340.879 175.879C341.442 175.316 342.204 175 343 175H351C351.796 175 352.558 175.316 353.121 175.879C353.684 176.442 354 177.204 354 178V186C354 186.552 353.552 187 353 187C352.448 187 352 186.552 352 186Z" fill="#1A1B1F"/>
<path d="M355.293 188.293C355.683 187.902 356.317 187.902 356.707 188.293C357.098 188.683 357.098 189.317 356.707 189.707L352.707 193.707C352.317 194.098 351.683 194.098 351.293 193.707L349.293 191.707C348.902 191.317 348.902 190.683 349.293 190.293C349.683 189.902 350.317 189.902 350.707 190.293L352 191.586L355.293 188.293Z" fill="#1A1B1F"/>
<path d="M349 179C349.552 179 350 179.448 350 180C350 180.552 349.552 181 349 181H345C344.448 181 344 180.552 344 180C344 179.448 344.448 179 345 179H349Z" fill="#1A1B1F"/>
<path d="M347 183C347.552 183 348 183.448 348 184C348 184.552 347.552 185 347 185H345C344.448 185 344 184.552 344 184C344 183.448 344.448 183 345 183H347Z" fill="#1A1B1F"/>
<rect x="328" y="68" width="40" height="40" rx="20" fill="#EAEAEA"/>
<path d="M339 94V85C339 84.2043 339.316 83.4415 339.879 82.8789C340.442 82.3163 341.204 82 342 82H343C343.552 82 344 82.4477 344 83C344 83.5523 343.552 84 343 84H342C341.735 84 341.481 84.1054 341.293 84.293C341.105 84.4805 341 84.7348 341 85V94L341.005 94.0986C341.028 94.3276 341.129 94.5429 341.293 94.707C341.481 94.8946 341.735 95 342 95H351C351.265 95 351.519 94.8946 351.707 94.707C351.895 94.5195 352 94.2652 352 94V93C352 92.4477 352.448 92 353 92C353.552 92 354 92.4477 354 93V94C354 94.7956 353.684 95.5585 353.121 96.1211C352.558 96.6837 351.796 97 351 97H342C341.204 97 340.442 96.6837 339.879 96.1211C339.316 95.5585 339 94.7956 339 94Z" fill="#1A1B1F"/>
<path d="M356 81.1005C356 80.8087 355.884 80.5285 355.678 80.3221C355.472 80.116 355.192 80 354.9 79.9999C354.609 79.9999 354.328 80.1158 354.122 80.3221L354.121 80.3231L346 88.4149V89.9999H347.585L355.677 81.8788L355.678 81.8778C355.884 81.6716 356 81.3921 356 81.1005ZM358 81.1005C358 81.9218 357.673 82.7088 357.093 83.2899L348.708 91.7059C348.52 91.8941 348.266 91.9999 348 91.9999H345C344.448 91.9999 344 91.5522 344 90.9999V87.9999C344 87.7342 344.106 87.4795 344.294 87.2919L352.709 78.9071C353.29 78.3263 354.079 77.9999 354.9 77.9999C355.722 78 356.511 78.3268 357.092 78.9081C357.673 79.4895 358 80.2783 358 81.1005Z" fill="#1A1B1F"/>
<path d="M351.293 80.293C351.683 79.9024 352.317 79.9024 352.707 80.293L355.707 83.293L355.775 83.3691C356.096 83.7619 356.073 84.3409 355.707 84.707C355.341 85.0731 354.762 85.0957 354.369 84.7754L354.293 84.707L351.293 81.707C350.902 81.3165 350.902 80.6835 351.293 80.293Z" fill="#1A1B1F"/>
<defs>
<clipPath id="clip0_6567_954">
<rect width="24" height="24" fill="white" transform="translate(98 152)"/>
</clipPath>
</defs>
</svg>
