<svg width="384" height="236" viewBox="0 0 384 236" fill="none" xmlns="http://www.w3.org/2000/svg">
<rect x="254" y="62" width="94" height="122" rx="7" fill="white" fill-opacity="0.2"/>
<rect x="254" y="62" width="94" height="122" rx="7" stroke="white" stroke-width="2"/>
<rect x="281" y="77" width="40" height="40" rx="20" fill="white"/>
<rect x="263" y="52" width="97" height="122" rx="8" fill="white"/>
<rect x="291.5" y="68" width="40" height="40" rx="20" fill="#F9BCA9"/>
<g clip-path="url(#clip0_6567_82)">
<path d="M310.5 81C311.052 81 311.5 81.4477 311.5 82C311.5 82.5523 311.052 83 310.5 83H303.5C302.948 83 302.5 82.5523 302.5 82C302.5 81.4477 302.948 81 303.5 81H310.5Z" fill="#1A1B1F"/>
<path d="M310.5 87C311.052 87 311.5 87.4477 311.5 88C311.5 88.5523 311.052 89 310.5 89H303.5C302.948 89 302.5 88.5523 302.5 88C302.5 87.4477 302.948 87 303.5 87H310.5Z" fill="#1A1B1F"/>
<path d="M312.5 93C313.052 93 313.5 93.4477 313.5 94C313.5 94.5523 313.052 95 312.5 95H303.5C302.948 95 302.5 94.5523 302.5 94C302.5 93.4477 302.948 93 303.5 93H312.5Z" fill="#1A1B1F"/>
<path d="M316.869 81.2246C317.262 80.9043 317.841 80.9269 318.207 81.293L321.207 84.293C321.598 84.6835 321.598 85.3165 321.207 85.707C320.817 86.0976 320.183 86.0976 319.793 85.707L317.5 83.4141L315.207 85.707C314.817 86.0976 314.183 86.0976 313.793 85.707C313.402 85.3165 313.402 84.6835 313.793 84.293L316.793 81.293L316.869 81.2246Z" fill="#1A1B1F"/>
<path d="M316.5 94V82C316.5 81.4477 316.948 81 317.5 81C318.052 81 318.5 81.4477 318.5 82V94C318.5 94.5523 318.052 95 317.5 95C316.948 95 316.5 94.5523 316.5 94Z" fill="#1A1B1F"/>
</g>
<path d="M278.711 133.216C277.715 133.216 276.791 133.054 275.939 132.73C275.099 132.406 274.367 131.95 273.743 131.362C273.131 130.774 272.651 130.084 272.303 129.292C271.967 128.5 271.799 127.636 271.799 126.7C271.799 125.764 271.967 124.9 272.303 124.108C272.651 123.316 273.137 122.626 273.761 122.038C274.385 121.45 275.117 120.994 275.957 120.67C276.797 120.346 277.709 120.184 278.693 120.184C279.689 120.184 280.601 120.346 281.429 120.67C282.269 120.994 282.995 121.45 283.607 122.038C284.231 122.626 284.717 123.316 285.065 124.108C285.413 124.888 285.587 125.752 285.587 126.7C285.587 127.636 285.413 128.506 285.065 129.31C284.717 130.102 284.231 130.792 283.607 131.38C282.995 131.956 282.269 132.406 281.429 132.73C280.601 133.054 279.695 133.216 278.711 133.216ZM278.693 130.732C279.257 130.732 279.773 130.636 280.241 130.444C280.721 130.252 281.141 129.976 281.501 129.616C281.861 129.256 282.137 128.83 282.329 128.338C282.533 127.846 282.635 127.3 282.635 126.7C282.635 126.1 282.533 125.554 282.329 125.062C282.137 124.57 281.861 124.144 281.501 123.784C281.153 123.424 280.739 123.148 280.259 122.956C279.779 122.764 279.257 122.668 278.693 122.668C278.129 122.668 277.607 122.764 277.127 122.956C276.659 123.148 276.245 123.424 275.885 123.784C275.525 124.144 275.243 124.57 275.039 125.062C274.847 125.554 274.751 126.1 274.751 126.7C274.751 127.288 274.847 127.834 275.039 128.338C275.243 128.83 275.519 129.256 275.867 129.616C276.227 129.976 276.647 130.252 277.127 130.444C277.607 130.636 278.129 130.732 278.693 130.732ZM290.208 133L286.14 123.316H289.038L292.422 131.65H290.982L294.492 123.316H297.192L293.106 133H290.208ZM302.88 133.144C301.776 133.144 300.804 132.928 299.964 132.496C299.136 132.064 298.494 131.476 298.038 130.732C297.582 129.976 297.354 129.118 297.354 128.158C297.354 127.186 297.576 126.328 298.02 125.584C298.476 124.828 299.094 124.24 299.874 123.82C300.654 123.388 301.536 123.172 302.52 123.172C303.468 123.172 304.32 123.376 305.076 123.784C305.844 124.18 306.45 124.756 306.894 125.512C307.338 126.256 307.56 127.15 307.56 128.194C307.56 128.302 307.554 128.428 307.542 128.572C307.53 128.704 307.518 128.83 307.506 128.95H299.64V127.312H306.03L304.95 127.798C304.95 127.294 304.848 126.856 304.644 126.484C304.44 126.112 304.158 125.824 303.798 125.62C303.438 125.404 303.018 125.296 302.538 125.296C302.058 125.296 301.632 125.404 301.26 125.62C300.9 125.824 300.618 126.118 300.414 126.502C300.21 126.874 300.108 127.318 300.108 127.834V128.266C300.108 128.794 300.222 129.262 300.45 129.67C300.69 130.066 301.02 130.372 301.44 130.588C301.872 130.792 302.376 130.894 302.952 130.894C303.468 130.894 303.918 130.816 304.302 130.66C304.698 130.504 305.058 130.27 305.382 129.958L306.876 131.578C306.432 132.082 305.874 132.472 305.202 132.748C304.53 133.012 303.756 133.144 302.88 133.144ZM309.43 133V123.316H312.112V126.052L311.734 125.26C312.022 124.576 312.484 124.06 313.12 123.712C313.756 123.352 314.53 123.172 315.442 123.172V125.764C315.322 125.752 315.214 125.746 315.118 125.746C315.022 125.734 314.92 125.728 314.812 125.728C314.044 125.728 313.42 125.95 312.94 126.394C312.472 126.826 312.238 127.504 312.238 128.428V133H309.43ZM321.182 133.144C320.27 133.144 319.448 132.94 318.716 132.532C317.984 132.112 317.402 131.53 316.97 130.786C316.55 130.042 316.34 129.166 316.34 128.158C316.34 127.138 316.55 126.256 316.97 125.512C317.402 124.768 317.984 124.192 318.716 123.784C319.448 123.376 320.27 123.172 321.182 123.172C321.998 123.172 322.712 123.352 323.324 123.712C323.936 124.072 324.41 124.618 324.746 125.35C325.082 126.082 325.25 127.018 325.25 128.158C325.25 129.286 325.088 130.222 324.764 130.966C324.44 131.698 323.972 132.244 323.36 132.604C322.76 132.964 322.034 133.144 321.182 133.144ZM321.668 130.84C322.124 130.84 322.538 130.732 322.91 130.516C323.282 130.3 323.576 129.994 323.792 129.598C324.02 129.19 324.134 128.71 324.134 128.158C324.134 127.594 324.02 127.114 323.792 126.718C323.576 126.322 323.282 126.016 322.91 125.8C322.538 125.584 322.124 125.476 321.668 125.476C321.2 125.476 320.78 125.584 320.408 125.8C320.036 126.016 319.736 126.322 319.508 126.718C319.292 127.114 319.184 127.594 319.184 128.158C319.184 128.71 319.292 129.19 319.508 129.598C319.736 129.994 320.036 130.3 320.408 130.516C320.78 130.732 321.2 130.84 321.668 130.84ZM324.206 133V131.02L324.26 128.14L324.08 125.278V119.644H326.888V133H324.206ZM333.572 133.144C332.768 133.144 332.048 132.988 331.412 132.676C330.788 132.364 330.302 131.89 329.954 131.254C329.606 130.606 329.432 129.784 329.432 128.788V123.316H332.24V128.374C332.24 129.178 332.408 129.772 332.744 130.156C333.092 130.528 333.578 130.714 334.202 130.714C334.634 130.714 335.018 130.624 335.354 130.444C335.69 130.252 335.954 129.964 336.146 129.58C336.338 129.184 336.434 128.692 336.434 128.104V123.316H339.242V133H336.578V130.336L337.064 131.11C336.74 131.782 336.26 132.292 335.624 132.64C335 132.976 334.316 133.144 333.572 133.144ZM346.65 133.144C345.546 133.144 344.574 132.928 343.734 132.496C342.906 132.064 342.264 131.476 341.808 130.732C341.352 129.976 341.124 129.118 341.124 128.158C341.124 127.186 341.346 126.328 341.79 125.584C342.246 124.828 342.864 124.24 343.644 123.82C344.424 123.388 345.306 123.172 346.29 123.172C347.238 123.172 348.09 123.376 348.846 123.784C349.614 124.18 350.22 124.756 350.664 125.512C351.108 126.256 351.33 127.15 351.33 128.194C351.33 128.302 351.324 128.428 351.312 128.572C351.3 128.704 351.288 128.83 351.276 128.95H343.41V127.312H349.8L348.72 127.798C348.72 127.294 348.618 126.856 348.414 126.484C348.21 126.112 347.928 125.824 347.568 125.62C347.208 125.404 346.788 125.296 346.308 125.296C345.828 125.296 345.402 125.404 345.03 125.62C344.67 125.824 344.388 126.118 344.184 126.502C343.98 126.874 343.878 127.318 343.878 127.834V128.266C343.878 128.794 343.992 129.262 344.22 129.67C344.46 130.066 344.79 130.372 345.21 130.588C345.642 130.792 346.146 130.894 346.722 130.894C347.238 130.894 347.688 130.816 348.072 130.66C348.468 130.504 348.828 130.27 349.152 129.958L350.646 131.578C350.202 132.082 349.644 132.472 348.972 132.748C348.3 133.012 347.526 133.144 346.65 133.144ZM280.133 153V142.44L280.821 143.192H277.605V141.8H281.717V153H280.133ZM289.375 153V141.8H290.975V153H289.375ZM298.632 144.44C299.326 144.44 299.934 144.573 300.456 144.84C300.99 145.107 301.406 145.512 301.704 146.056C302.003 146.6 302.152 147.288 302.152 148.12V153H300.616V148.296C300.616 147.475 300.414 146.856 300.008 146.44C299.614 146.024 299.054 145.816 298.328 145.816C297.784 145.816 297.31 145.923 296.904 146.136C296.499 146.349 296.184 146.664 295.96 147.08C295.747 147.496 295.64 148.013 295.64 148.632V153H294.104V144.52H295.576V146.808L295.336 146.2C295.614 145.645 296.04 145.213 296.616 144.904C297.192 144.595 297.864 144.44 298.632 144.44ZM307.063 153L303.351 144.52H304.951L308.247 152.2H307.479L310.839 144.52H312.343L308.631 153H307.063ZM317.174 153.096C316.321 153.096 315.563 152.909 314.902 152.536C314.241 152.163 313.718 151.651 313.334 151C312.95 150.339 312.758 149.592 312.758 148.76C312.758 147.917 312.95 147.171 313.334 146.52C313.718 145.869 314.241 145.363 314.902 145C315.563 144.627 316.321 144.44 317.174 144.44C318.017 144.44 318.769 144.627 319.43 145C320.102 145.363 320.625 145.869 320.998 146.52C321.382 147.16 321.574 147.907 321.574 148.76C321.574 149.603 321.382 150.349 320.998 151C320.625 151.651 320.102 152.163 319.43 152.536C318.769 152.909 318.017 153.096 317.174 153.096ZM317.174 151.752C317.718 151.752 318.203 151.629 318.63 151.384C319.067 151.139 319.409 150.792 319.654 150.344C319.899 149.885 320.022 149.357 320.022 148.76C320.022 148.152 319.899 147.629 319.654 147.192C319.409 146.744 319.067 146.397 318.63 146.152C318.203 145.907 317.718 145.784 317.174 145.784C316.63 145.784 316.145 145.907 315.718 146.152C315.291 146.397 314.95 146.744 314.694 147.192C314.438 147.629 314.31 148.152 314.31 148.76C314.31 149.357 314.438 149.885 314.694 150.344C314.95 150.792 315.291 151.139 315.718 151.384C316.145 151.629 316.63 151.752 317.174 151.752ZM323.698 153V144.52H325.234V153H323.698ZM324.466 142.888C324.168 142.888 323.917 142.792 323.714 142.6C323.522 142.408 323.426 142.173 323.426 141.896C323.426 141.608 323.522 141.368 323.714 141.176C323.917 140.984 324.168 140.888 324.466 140.888C324.765 140.888 325.01 140.984 325.202 141.176C325.405 141.357 325.506 141.587 325.506 141.864C325.506 142.152 325.41 142.397 325.218 142.6C325.026 142.792 324.776 142.888 324.466 142.888ZM331.863 153.096C330.999 153.096 330.226 152.909 329.543 152.536C328.871 152.163 328.343 151.651 327.959 151C327.575 150.349 327.383 149.603 327.383 148.76C327.383 147.917 327.575 147.171 327.959 146.52C328.343 145.869 328.871 145.363 329.543 145C330.226 144.627 330.999 144.44 331.863 144.44C332.631 144.44 333.314 144.595 333.911 144.904C334.519 145.203 334.988 145.651 335.319 146.248L334.151 147C333.874 146.584 333.532 146.28 333.127 146.088C332.732 145.885 332.306 145.784 331.847 145.784C331.292 145.784 330.796 145.907 330.359 146.152C329.922 146.397 329.575 146.744 329.319 147.192C329.063 147.629 328.935 148.152 328.935 148.76C328.935 149.368 329.063 149.896 329.319 150.344C329.575 150.792 329.922 151.139 330.359 151.384C330.796 151.629 331.292 151.752 331.847 151.752C332.306 151.752 332.732 151.656 333.127 151.464C333.532 151.261 333.874 150.952 334.151 150.536L335.319 151.272C334.988 151.859 334.519 152.312 333.911 152.632C333.314 152.941 332.631 153.096 331.863 153.096ZM340.959 153.096C340.052 153.096 339.252 152.909 338.559 152.536C337.876 152.163 337.343 151.651 336.959 151C336.585 150.349 336.399 149.603 336.399 148.76C336.399 147.917 336.58 147.171 336.943 146.52C337.316 145.869 337.823 145.363 338.463 145C339.113 144.627 339.844 144.44 340.655 144.44C341.476 144.44 342.201 144.621 342.831 144.984C343.46 145.347 343.951 145.859 344.303 146.52C344.665 147.171 344.847 147.933 344.847 148.808C344.847 148.872 344.841 148.947 344.831 149.032C344.831 149.117 344.825 149.197 344.815 149.272H337.599V148.168H344.015L343.391 148.552C343.401 148.008 343.289 147.523 343.055 147.096C342.82 146.669 342.495 146.339 342.079 146.104C341.673 145.859 341.199 145.736 340.655 145.736C340.121 145.736 339.647 145.859 339.231 146.104C338.815 146.339 338.489 146.675 338.255 147.112C338.02 147.539 337.903 148.029 337.903 148.584V148.84C337.903 149.405 338.031 149.912 338.287 150.36C338.553 150.797 338.921 151.139 339.391 151.384C339.86 151.629 340.399 151.752 341.007 151.752C341.508 151.752 341.961 151.667 342.367 151.496C342.783 151.325 343.145 151.069 343.455 150.728L344.303 151.72C343.919 152.168 343.439 152.509 342.863 152.744C342.297 152.979 341.663 153.096 340.959 153.096Z" fill="#1A1B1F"/>
<rect x="143" y="62" width="85" height="122" rx="7" fill="white" fill-opacity="0.2"/>
<rect x="143" y="62" width="85" height="122" rx="7" stroke="white" stroke-width="2"/>
<rect x="165.5" y="77" width="40" height="40" rx="20" fill="white"/>
<rect x="152" y="52" width="88" height="122" rx="8" fill="white"/>
<rect x="176" y="68" width="40" height="40" rx="20" fill="#D7E2C0"/>
<g clip-path="url(#clip1_6567_82)">
<path d="M205 80C205.552 80 206 80.4477 206 81C206 81.5523 205.552 82 205 82H197C196.448 82 196 81.5523 196 81C196 80.4477 196.448 80 197 80H205Z" fill="#1A1B1F"/>
<path d="M202 84C202.552 84 203 84.4477 203 85C203 85.5523 202.552 86 202 86H197C196.448 86 196 85.5523 196 85C196 84.4477 196.448 84 197 84H202Z" fill="#1A1B1F"/>
<path d="M205 90C205.552 90 206 90.4477 206 91C206 91.5523 205.552 92 205 92H197C196.448 92 196 91.5523 196 91C196 90.4477 196.448 90 197 90H205Z" fill="#1A1B1F"/>
<path d="M202 94C202.552 94 203 94.4477 203 95C203 95.5523 202.552 96 202 96H197C196.448 96 196 95.5523 196 95C196 94.4477 196.448 94 197 94H202Z" fill="#1A1B1F"/>
<path d="M188 81V85H192V81H188ZM194 85C194 85.5304 193.789 86.039 193.414 86.4141C193.039 86.7891 192.53 87 192 87H188C187.47 87 186.961 86.7891 186.586 86.4141C186.211 86.039 186 85.5304 186 85V81C186 80.4696 186.211 79.961 186.586 79.5859C186.961 79.2109 187.47 79 188 79H192C192.53 79 193.039 79.2109 193.414 79.5859C193.789 79.961 194 80.4696 194 81V85Z" fill="#1A1B1F"/>
<path d="M188 91V95H192V91H188ZM194 95C194 95.5304 193.789 96.039 193.414 96.4141C193.039 96.7891 192.53 97 192 97H188C187.47 97 186.961 96.7891 186.586 96.4141C186.211 96.039 186 95.5304 186 95V91C186 90.4696 186.211 89.961 186.586 89.5859C186.961 89.2109 187.47 89 188 89H192C192.53 89 193.039 89.2109 193.414 89.5859C193.789 89.961 194 90.4696 194 91V95Z" fill="#1A1B1F"/>
</g>
<path d="M176.541 133V120.4H181.995C183.123 120.4 184.095 120.586 184.911 120.958C185.727 121.318 186.357 121.84 186.801 122.524C187.245 123.208 187.467 124.024 187.467 124.972C187.467 125.908 187.245 126.718 186.801 127.402C186.357 128.086 185.727 128.614 184.911 128.986C184.095 129.346 183.123 129.526 181.995 129.526H178.161L179.457 128.212V133H176.541ZM179.457 128.536L178.161 127.15H181.833C182.733 127.15 183.405 126.958 183.849 126.574C184.293 126.19 184.515 125.656 184.515 124.972C184.515 124.276 184.293 123.736 183.849 123.352C183.405 122.968 182.733 122.776 181.833 122.776H178.161L179.457 121.39V128.536ZM195.203 133V131.11L195.023 130.696V127.312C195.023 126.712 194.837 126.244 194.465 125.908C194.105 125.572 193.547 125.404 192.791 125.404C192.275 125.404 191.765 125.488 191.261 125.656C190.769 125.812 190.349 126.028 190.001 126.304L188.993 124.342C189.521 123.97 190.157 123.682 190.901 123.478C191.645 123.274 192.401 123.172 193.169 123.172C194.645 123.172 195.791 123.52 196.607 124.216C197.423 124.912 197.831 125.998 197.831 127.474V133H195.203ZM192.251 133.144C191.495 133.144 190.847 133.018 190.307 132.766C189.767 132.502 189.353 132.148 189.065 131.704C188.777 131.26 188.633 130.762 188.633 130.21C188.633 129.634 188.771 129.13 189.047 128.698C189.335 128.266 189.785 127.93 190.397 127.69C191.009 127.438 191.807 127.312 192.791 127.312H195.365V128.95H193.097C192.437 128.95 191.981 129.058 191.729 129.274C191.489 129.49 191.369 129.76 191.369 130.084C191.369 130.444 191.507 130.732 191.783 130.948C192.071 131.152 192.461 131.254 192.953 131.254C193.421 131.254 193.841 131.146 194.213 130.93C194.585 130.702 194.855 130.372 195.023 129.94L195.455 131.236C195.251 131.86 194.879 132.334 194.339 132.658C193.799 132.982 193.103 133.144 192.251 133.144ZM200.372 133V123.316H203.18V133H200.372ZM201.776 121.966C201.26 121.966 200.84 121.816 200.516 121.516C200.192 121.216 200.03 120.844 200.03 120.4C200.03 119.956 200.192 119.584 200.516 119.284C200.84 118.984 201.26 118.834 201.776 118.834C202.292 118.834 202.712 118.978 203.036 119.266C203.36 119.542 203.522 119.902 203.522 120.346C203.522 120.814 203.36 121.204 203.036 121.516C202.724 121.816 202.304 121.966 201.776 121.966ZM209.944 133.144C209.032 133.144 208.21 132.94 207.478 132.532C206.746 132.112 206.164 131.53 205.732 130.786C205.312 130.042 205.102 129.166 205.102 128.158C205.102 127.138 205.312 126.256 205.732 125.512C206.164 124.768 206.746 124.192 207.478 123.784C208.21 123.376 209.032 123.172 209.944 123.172C210.76 123.172 211.474 123.352 212.086 123.712C212.698 124.072 213.172 124.618 213.508 125.35C213.844 126.082 214.012 127.018 214.012 128.158C214.012 129.286 213.85 130.222 213.526 130.966C213.202 131.698 212.734 132.244 212.122 132.604C211.522 132.964 210.796 133.144 209.944 133.144ZM210.43 130.84C210.886 130.84 211.3 130.732 211.672 130.516C212.044 130.3 212.338 129.994 212.554 129.598C212.782 129.19 212.896 128.71 212.896 128.158C212.896 127.594 212.782 127.114 212.554 126.718C212.338 126.322 212.044 126.016 211.672 125.8C211.3 125.584 210.886 125.476 210.43 125.476C209.962 125.476 209.542 125.584 209.17 125.8C208.798 126.016 208.498 126.322 208.27 126.718C208.054 127.114 207.946 127.594 207.946 128.158C207.946 128.71 208.054 129.19 208.27 129.598C208.498 129.994 208.798 130.3 209.17 130.516C209.542 130.732 209.962 130.84 210.43 130.84ZM212.968 133V131.02L213.022 128.14L212.842 125.278V119.644H215.65V133H212.968ZM164.728 153.128C163.938 153.128 163.17 153.005 162.424 152.76C161.688 152.515 161.085 152.184 160.616 151.768L161.352 150.504C161.725 150.856 162.21 151.144 162.808 151.368C163.405 151.592 164.04 151.704 164.712 151.704C165.565 151.704 166.221 151.523 166.68 151.16C167.138 150.797 167.368 150.312 167.368 149.704C167.368 149.288 167.266 148.925 167.064 148.616C166.861 148.307 166.509 148.072 166.008 147.912C165.517 147.741 164.84 147.656 163.976 147.656H161.432L162.024 141.8H168.344V143.192H162.616L163.448 142.408L162.984 147.032L162.152 146.264H164.312C165.432 146.264 166.333 146.408 167.016 146.696C167.698 146.984 168.194 147.384 168.504 147.896C168.813 148.397 168.968 148.979 168.968 149.64C168.968 150.28 168.813 150.867 168.504 151.4C168.194 151.923 167.725 152.344 167.096 152.664C166.477 152.973 165.688 153.128 164.728 153.128ZM175.508 153V141.8H177.108V153H175.508ZM184.765 144.44C185.459 144.44 186.067 144.573 186.589 144.84C187.123 145.107 187.539 145.512 187.837 146.056C188.136 146.6 188.285 147.288 188.285 148.12V153H186.749V148.296C186.749 147.475 186.547 146.856 186.141 146.44C185.747 146.024 185.187 145.816 184.461 145.816C183.917 145.816 183.443 145.923 183.037 146.136C182.632 146.349 182.317 146.664 182.093 147.08C181.88 147.496 181.773 148.013 181.773 148.632V153H180.237V144.52H181.709V146.808L181.469 146.2C181.747 145.645 182.173 145.213 182.749 144.904C183.325 144.595 183.997 144.44 184.765 144.44ZM193.196 153L189.484 144.52H191.084L194.38 152.2H193.612L196.972 144.52H198.476L194.764 153H193.196ZM203.307 153.096C202.453 153.096 201.696 152.909 201.035 152.536C200.373 152.163 199.851 151.651 199.467 151C199.083 150.339 198.891 149.592 198.891 148.76C198.891 147.917 199.083 147.171 199.467 146.52C199.851 145.869 200.373 145.363 201.035 145C201.696 144.627 202.453 144.44 203.307 144.44C204.149 144.44 204.901 144.627 205.563 145C206.235 145.363 206.757 145.869 207.131 146.52C207.515 147.16 207.707 147.907 207.707 148.76C207.707 149.603 207.515 150.349 207.131 151C206.757 151.651 206.235 152.163 205.563 152.536C204.901 152.909 204.149 153.096 203.307 153.096ZM203.307 151.752C203.851 151.752 204.336 151.629 204.763 151.384C205.2 151.139 205.541 150.792 205.787 150.344C206.032 149.885 206.155 149.357 206.155 148.76C206.155 148.152 206.032 147.629 205.787 147.192C205.541 146.744 205.2 146.397 204.763 146.152C204.336 145.907 203.851 145.784 203.307 145.784C202.763 145.784 202.277 145.907 201.851 146.152C201.424 146.397 201.083 146.744 200.827 147.192C200.571 147.629 200.443 148.152 200.443 148.76C200.443 149.357 200.571 149.885 200.827 150.344C201.083 150.792 201.424 151.139 201.851 151.384C202.277 151.629 202.763 151.752 203.307 151.752ZM209.831 153V144.52H211.367V153H209.831ZM210.599 142.888C210.3 142.888 210.05 142.792 209.847 142.6C209.655 142.408 209.559 142.173 209.559 141.896C209.559 141.608 209.655 141.368 209.847 141.176C210.05 140.984 210.3 140.888 210.599 140.888C210.898 140.888 211.143 140.984 211.335 141.176C211.538 141.357 211.639 141.587 211.639 141.864C211.639 142.152 211.543 142.397 211.351 142.6C211.159 142.792 210.908 142.888 210.599 142.888ZM217.996 153.096C217.132 153.096 216.358 152.909 215.676 152.536C215.004 152.163 214.476 151.651 214.092 151C213.708 150.349 213.516 149.603 213.516 148.76C213.516 147.917 213.708 147.171 214.092 146.52C214.476 145.869 215.004 145.363 215.676 145C216.358 144.627 217.132 144.44 217.996 144.44C218.764 144.44 219.446 144.595 220.044 144.904C220.652 145.203 221.121 145.651 221.452 146.248L220.284 147C220.006 146.584 219.665 146.28 219.26 146.088C218.865 145.885 218.438 145.784 217.98 145.784C217.425 145.784 216.929 145.907 216.492 146.152C216.054 146.397 215.708 146.744 215.452 147.192C215.196 147.629 215.068 148.152 215.068 148.76C215.068 149.368 215.196 149.896 215.452 150.344C215.708 150.792 216.054 151.139 216.492 151.384C216.929 151.629 217.425 151.752 217.98 151.752C218.438 151.752 218.865 151.656 219.26 151.464C219.665 151.261 220.006 150.952 220.284 150.536L221.452 151.272C221.121 151.859 220.652 152.312 220.044 152.632C219.446 152.941 218.764 153.096 217.996 153.096ZM227.091 153.096C226.185 153.096 225.385 152.909 224.691 152.536C224.009 152.163 223.475 151.651 223.091 151C222.718 150.349 222.531 149.603 222.531 148.76C222.531 147.917 222.713 147.171 223.075 146.52C223.449 145.869 223.955 145.363 224.595 145C225.246 144.627 225.977 144.44 226.787 144.44C227.609 144.44 228.334 144.621 228.963 144.984C229.593 145.347 230.083 145.859 230.435 146.52C230.798 147.171 230.979 147.933 230.979 148.808C230.979 148.872 230.974 148.947 230.963 149.032C230.963 149.117 230.958 149.197 230.947 149.272H223.731V148.168H230.147L229.523 148.552C229.534 148.008 229.422 147.523 229.187 147.096C228.953 146.669 228.627 146.339 228.211 146.104C227.806 145.859 227.331 145.736 226.787 145.736C226.254 145.736 225.779 145.859 225.363 146.104C224.947 146.339 224.622 146.675 224.387 147.112C224.153 147.539 224.035 148.029 224.035 148.584V148.84C224.035 149.405 224.163 149.912 224.419 150.36C224.686 150.797 225.054 151.139 225.523 151.384C225.993 151.629 226.531 151.752 227.139 151.752C227.641 151.752 228.094 151.667 228.499 151.496C228.915 151.325 229.278 151.069 229.587 150.728L230.435 151.72C230.051 152.168 229.571 152.509 228.995 152.744C228.43 152.979 227.795 153.096 227.091 153.096Z" fill="#1A1B1F"/>
<rect x="24" y="62" width="94" height="122" rx="7" fill="white" fill-opacity="0.2"/>
<rect x="24" y="62" width="94" height="122" rx="7" stroke="white" stroke-width="2"/>
<rect x="51" y="77" width="40" height="40" rx="20" fill="white"/>
<rect x="33" y="51" width="96" height="124" rx="8" fill="white"/>
<rect x="61" y="67" width="40" height="40" rx="20" fill="#FCD39A"/>
<path d="M87 80C87 79.7348 86.8946 79.4805 86.707 79.293C86.5195 79.1054 86.2652 79 86 79H76C75.7348 79 75.4805 79.1054 75.293 79.293C75.1054 79.4805 75 79.7348 75 80V94.1309L76.4453 93.168L76.5215 93.1221C76.9075 92.9114 77.3911 92.977 77.707 93.293L79 94.5859L80.293 93.293L80.3691 93.2246C80.7619 92.9043 81.3409 92.9269 81.707 93.293L83 94.5859L84.293 93.293L84.3584 93.2334C84.6956 92.9508 85.1828 92.9201 85.5547 93.168L87 94.1309V80ZM89 96C89 96.3688 88.7968 96.7078 88.4717 96.8818C88.1466 97.0557 87.7521 97.0366 87.4453 96.832L85.127 95.2861L83.707 96.707C83.3165 97.0976 82.6835 97.0976 82.293 96.707L81 95.4141L79.707 96.707C79.3165 97.0976 78.6835 97.0976 78.293 96.707L76.8721 95.2861L74.5547 96.832C74.2479 97.0366 73.8534 97.0557 73.5283 96.8818C73.2032 96.7078 73 96.3688 73 96V80C73 79.2044 73.3163 78.4415 73.8789 77.8789C74.4415 77.3163 75.2044 77 76 77H86C86.7956 77 87.5585 77.3163 88.1211 77.8789C88.6837 78.4415 89 79.2044 89 80V96Z" fill="#1A1B1F"/>
<path d="M83 87.9998C83 87.7347 82.8945 87.4803 82.707 87.2928C82.5195 87.1053 82.2652 86.9998 82 86.9998H80C79.2043 86.9998 78.4415 86.6835 77.8789 86.1209C77.3163 85.5583 77 84.7955 77 83.9998C77 83.2042 77.3163 82.4413 77.8789 81.8787C78.4415 81.3162 79.2044 80.9998 80 80.9998H82C82.5323 80.9879 83.0586 81.118 83.5244 81.3768C83.9999 81.641 84.3943 82.0296 84.666 82.5008C84.9417 82.9792 84.7779 83.5901 84.2998 83.8661C83.8214 84.1418 83.2095 83.9781 82.9336 83.4998C82.843 83.3427 82.7113 83.2129 82.5527 83.1248C82.3942 83.0368 82.2144 82.9937 82.0332 82.9998H80C79.7348 82.9998 79.4805 83.1053 79.293 83.2928C79.1055 83.4803 79 83.7347 79 83.9998C79 84.265 79.1055 84.5193 79.293 84.7069C79.4805 84.8944 79.7348 84.9998 80 84.9998H82C82.7956 84.9998 83.5585 85.3162 84.1211 85.8787C84.6837 86.4413 85 87.2042 85 87.9998C85 88.7955 84.6837 89.5583 84.1211 90.1209C83.5585 90.6835 82.7957 90.9998 82 90.9998H79.8301C79.3562 90.9836 78.8917 90.8551 78.4756 90.6239C78.0001 90.3597 77.6057 89.971 77.334 89.4998C77.0582 89.0215 77.2219 88.4095 77.7002 88.1336C78.1787 87.8578 78.7906 88.0223 79.0664 88.5008C79.157 88.6578 79.2888 88.7868 79.4473 88.8748C79.6058 88.9629 79.7855 89.0069 79.9668 89.0008C79.9779 89.0005 79.9889 88.9998 80 88.9998H82C82.2652 88.9998 82.5195 88.8944 82.707 88.7069C82.8945 88.5193 83 88.265 83 87.9998Z" fill="#1A1B1F"/>
<path d="M80 91V80.9998C80 80.4476 80.4477 80 81 80C81.5523 80 82 80.4476 82 80.9998V90.9998C82 91.5521 81.5523 92 81 92C80.4477 92 80 91.5523 80 91Z" fill="#1A1B1F"/>
<path d="M42.5653 132V119.4H48.0193C49.1473 119.4 50.1193 119.586 50.9353 119.958C51.7513 120.318 52.3813 120.84 52.8253 121.524C53.2693 122.208 53.4913 123.024 53.4913 123.972C53.4913 124.908 53.2693 125.718 52.8253 126.402C52.3813 127.086 51.7513 127.614 50.9353 127.986C50.1193 128.346 49.1473 128.526 48.0193 128.526H44.1853L45.4813 127.212V132H42.5653ZM45.4813 127.536L44.1853 126.15H47.8573C48.7573 126.15 49.4293 125.958 49.8733 125.574C50.3173 125.19 50.5393 124.656 50.5393 123.972C50.5393 123.276 50.3173 122.736 49.8733 122.352C49.4293 121.968 48.7573 121.776 47.8573 121.776H44.1853L45.4813 120.39V127.536ZM60.1635 132.144C59.0595 132.144 58.0875 131.928 57.2475 131.496C56.4195 131.064 55.7775 130.476 55.3215 129.732C54.8655 128.976 54.6375 128.118 54.6375 127.158C54.6375 126.186 54.8595 125.328 55.3035 124.584C55.7595 123.828 56.3775 123.24 57.1575 122.82C57.9375 122.388 58.8195 122.172 59.8035 122.172C60.7515 122.172 61.6035 122.376 62.3595 122.784C63.1275 123.18 63.7335 123.756 64.1775 124.512C64.6215 125.256 64.8435 126.15 64.8435 127.194C64.8435 127.302 64.8375 127.428 64.8255 127.572C64.8135 127.704 64.8015 127.83 64.7895 127.95H56.9235V126.312H63.3135L62.2335 126.798C62.2335 126.294 62.1315 125.856 61.9275 125.484C61.7235 125.112 61.4415 124.824 61.0815 124.62C60.7215 124.404 60.3015 124.296 59.8215 124.296C59.3415 124.296 58.9155 124.404 58.5435 124.62C58.1835 124.824 57.9015 125.118 57.6975 125.502C57.4935 125.874 57.3915 126.318 57.3915 126.834V127.266C57.3915 127.794 57.5055 128.262 57.7335 128.67C57.9735 129.066 58.3035 129.372 58.7235 129.588C59.1555 129.792 59.6595 129.894 60.2355 129.894C60.7515 129.894 61.2015 129.816 61.5855 129.66C61.9815 129.504 62.3415 129.27 62.6655 128.958L64.1595 130.578C63.7155 131.082 63.1575 131.472 62.4855 131.748C61.8135 132.012 61.0395 132.144 60.1635 132.144ZM72.599 122.172C73.367 122.172 74.051 122.328 74.651 122.64C75.263 122.94 75.743 123.408 76.091 124.044C76.439 124.668 76.613 125.472 76.613 126.456V132H73.805V126.888C73.805 126.108 73.631 125.532 73.283 125.16C72.947 124.788 72.467 124.602 71.843 124.602C71.399 124.602 70.997 124.698 70.637 124.89C70.289 125.07 70.013 125.352 69.809 125.736C69.617 126.12 69.521 126.612 69.521 127.212V132H66.713V122.316H69.395V124.998L68.891 124.188C69.239 123.54 69.737 123.042 70.385 122.694C71.033 122.346 71.771 122.172 72.599 122.172ZM83.3866 132.144C82.4746 132.144 81.6526 131.94 80.9206 131.532C80.1886 131.112 79.6066 130.53 79.1746 129.786C78.7546 129.042 78.5446 128.166 78.5446 127.158C78.5446 126.138 78.7546 125.256 79.1746 124.512C79.6066 123.768 80.1886 123.192 80.9206 122.784C81.6526 122.376 82.4746 122.172 83.3866 122.172C84.2026 122.172 84.9166 122.352 85.5286 122.712C86.1406 123.072 86.6146 123.618 86.9506 124.35C87.2866 125.082 87.4546 126.018 87.4546 127.158C87.4546 128.286 87.2926 129.222 86.9686 129.966C86.6446 130.698 86.1766 131.244 85.5646 131.604C84.9646 131.964 84.2386 132.144 83.3866 132.144ZM83.8726 129.84C84.3286 129.84 84.7426 129.732 85.1146 129.516C85.4866 129.3 85.7806 128.994 85.9966 128.598C86.2246 128.19 86.3386 127.71 86.3386 127.158C86.3386 126.594 86.2246 126.114 85.9966 125.718C85.7806 125.322 85.4866 125.016 85.1146 124.8C84.7426 124.584 84.3286 124.476 83.8726 124.476C83.4046 124.476 82.9846 124.584 82.6126 124.8C82.2406 125.016 81.9406 125.322 81.7126 125.718C81.4966 126.114 81.3886 126.594 81.3886 127.158C81.3886 127.71 81.4966 128.19 81.7126 128.598C81.9406 128.994 82.2406 129.3 82.6126 129.516C82.9846 129.732 83.4046 129.84 83.8726 129.84ZM86.4106 132V130.02L86.4646 127.14L86.2846 124.278V118.644H89.0926V132H86.4106ZM91.6915 132V122.316H94.4995V132H91.6915ZM93.0955 120.966C92.5795 120.966 92.1595 120.816 91.8355 120.516C91.5115 120.216 91.3495 119.844 91.3495 119.4C91.3495 118.956 91.5115 118.584 91.8355 118.284C92.1595 117.984 92.5795 117.834 93.0955 117.834C93.6115 117.834 94.0315 117.978 94.3555 118.266C94.6795 118.542 94.8415 118.902 94.8415 119.346C94.8415 119.814 94.6795 120.204 94.3555 120.516C94.0435 120.816 93.6235 120.966 93.0955 120.966ZM102.992 122.172C103.76 122.172 104.444 122.328 105.044 122.64C105.656 122.94 106.136 123.408 106.484 124.044C106.832 124.668 107.006 125.472 107.006 126.456V132H104.198V126.888C104.198 126.108 104.024 125.532 103.676 125.16C103.34 124.788 102.86 124.602 102.236 124.602C101.792 124.602 101.39 124.698 101.03 124.89C100.682 125.07 100.406 125.352 100.202 125.736C100.01 126.12 99.9136 126.612 99.9136 127.212V132H97.1056V122.316H99.7876V124.998L99.2836 124.188C99.6316 123.54 100.13 123.042 100.778 122.694C101.426 122.346 102.164 122.172 102.992 122.172ZM114.175 135.636C113.263 135.636 112.381 135.522 111.529 135.294C110.689 135.078 109.987 134.748 109.423 134.304L110.539 132.288C110.947 132.624 111.463 132.888 112.087 133.08C112.723 133.284 113.347 133.386 113.959 133.386C114.955 133.386 115.675 133.164 116.119 132.72C116.575 132.276 116.803 131.616 116.803 130.74V129.282L116.983 126.852L116.947 124.404V122.316H119.611V130.38C119.611 132.18 119.143 133.506 118.207 134.358C117.271 135.21 115.927 135.636 114.175 135.636ZM113.743 131.532C112.843 131.532 112.027 131.34 111.295 130.956C110.575 130.56 109.993 130.014 109.549 129.318C109.117 128.61 108.901 127.788 108.901 126.852C108.901 125.904 109.117 125.082 109.549 124.386C109.993 123.678 110.575 123.132 111.295 122.748C112.027 122.364 112.843 122.172 113.743 122.172C114.559 122.172 115.279 122.34 115.903 122.676C116.527 123 117.013 123.51 117.361 124.206C117.709 124.89 117.883 125.772 117.883 126.852C117.883 127.92 117.709 128.802 117.361 129.498C117.013 130.182 116.527 130.692 115.903 131.028C115.279 131.364 114.559 131.532 113.743 131.532ZM114.301 129.228C114.793 129.228 115.231 129.132 115.615 128.94C115.999 128.736 116.299 128.454 116.515 128.094C116.731 127.734 116.839 127.32 116.839 126.852C116.839 126.372 116.731 125.958 116.515 125.61C116.299 125.25 115.999 124.974 115.615 124.782C115.231 124.578 114.793 124.476 114.301 124.476C113.809 124.476 113.371 124.578 112.987 124.782C112.603 124.974 112.297 125.25 112.069 125.61C111.853 125.958 111.745 126.372 111.745 126.852C111.745 127.32 111.853 127.734 112.069 128.094C112.297 128.454 112.603 128.736 112.987 128.94C113.371 129.132 113.809 129.228 114.301 129.228ZM45.7116 154V142.12L46.4856 142.966H42.8676V141.4H47.4936V154H45.7116ZM56.1097 154V141.4H57.9097V154H56.1097ZM66.524 144.37C67.304 144.37 67.988 144.52 68.576 144.82C69.176 145.12 69.644 145.576 69.98 146.188C70.316 146.8 70.484 147.574 70.484 148.51V154H68.756V148.708C68.756 147.784 68.528 147.088 68.072 146.62C67.628 146.152 66.998 145.918 66.182 145.918C65.57 145.918 65.036 146.038 64.58 146.278C64.124 146.518 63.77 146.872 63.518 147.34C63.278 147.808 63.158 148.39 63.158 149.086V154H61.43V144.46H63.086V147.034L62.816 146.35C63.128 145.726 63.608 145.24 64.256 144.892C64.904 144.544 65.66 144.37 66.524 144.37ZM76.0082 154L71.8322 144.46H73.6322L77.3402 153.1H76.4762L80.2562 144.46H81.9482L77.7722 154H76.0082ZM87.3832 154.108C86.4232 154.108 85.5712 153.898 84.8272 153.478C84.0832 153.058 83.4952 152.482 83.0632 151.75C82.6312 151.006 82.4152 150.166 82.4152 149.23C82.4152 148.282 82.6312 147.442 83.0632 146.71C83.4952 145.978 84.0832 145.408 84.8272 145C85.5712 144.58 86.4232 144.37 87.3832 144.37C88.3312 144.37 89.1772 144.58 89.9212 145C90.6772 145.408 91.2652 145.978 91.6852 146.71C92.1172 147.43 92.3332 148.27 92.3332 149.23C92.3332 150.178 92.1172 151.018 91.6852 151.75C91.2652 152.482 90.6772 153.058 89.9212 153.478C89.1772 153.898 88.3312 154.108 87.3832 154.108ZM87.3832 152.596C87.9952 152.596 88.5412 152.458 89.0212 152.182C89.5132 151.906 89.8972 151.516 90.1732 151.012C90.4492 150.496 90.5872 149.902 90.5872 149.23C90.5872 148.546 90.4492 147.958 90.1732 147.466C89.8972 146.962 89.5132 146.572 89.0212 146.296C88.5412 146.02 87.9952 145.882 87.3832 145.882C86.7712 145.882 86.2252 146.02 85.7452 146.296C85.2652 146.572 84.8812 146.962 84.5932 147.466C84.3052 147.958 84.1612 148.546 84.1612 149.23C84.1612 149.902 84.3052 150.496 84.5932 151.012C84.8812 151.516 85.2652 151.906 85.7452 152.182C86.2252 152.458 86.7712 152.596 87.3832 152.596ZM94.723 154V144.46H96.451V154H94.723ZM95.587 142.624C95.251 142.624 94.969 142.516 94.741 142.3C94.525 142.084 94.417 141.82 94.417 141.508C94.417 141.184 94.525 140.914 94.741 140.698C94.969 140.482 95.251 140.374 95.587 140.374C95.923 140.374 96.199 140.482 96.415 140.698C96.643 140.902 96.757 141.16 96.757 141.472C96.757 141.796 96.649 142.072 96.433 142.3C96.217 142.516 95.935 142.624 95.587 142.624ZM103.908 154.108C102.936 154.108 102.066 153.898 101.298 153.478C100.542 153.058 99.9483 152.482 99.5163 151.75C99.0843 151.018 98.8683 150.178 98.8683 149.23C98.8683 148.282 99.0843 147.442 99.5163 146.71C99.9483 145.978 100.542 145.408 101.298 145C102.066 144.58 102.936 144.37 103.908 144.37C104.772 144.37 105.54 144.544 106.212 144.892C106.896 145.228 107.424 145.732 107.796 146.404L106.482 147.25C106.17 146.782 105.786 146.44 105.33 146.224C104.886 145.996 104.406 145.882 103.89 145.882C103.266 145.882 102.708 146.02 102.216 146.296C101.724 146.572 101.334 146.962 101.046 147.466C100.758 147.958 100.614 148.546 100.614 149.23C100.614 149.914 100.758 150.508 101.046 151.012C101.334 151.516 101.724 151.906 102.216 152.182C102.708 152.458 103.266 152.596 103.89 152.596C104.406 152.596 104.886 152.488 105.33 152.272C105.786 152.044 106.17 151.696 106.482 151.228L107.796 152.056C107.424 152.716 106.896 153.226 106.212 153.586C105.54 153.934 104.772 154.108 103.908 154.108ZM114.141 154.108C113.121 154.108 112.221 153.898 111.441 153.478C110.673 153.058 110.073 152.482 109.641 151.75C109.221 151.018 109.011 150.178 109.011 149.23C109.011 148.282 109.215 147.442 109.623 146.71C110.043 145.978 110.613 145.408 111.333 145C112.065 144.58 112.887 144.37 113.799 144.37C114.723 144.37 115.539 144.574 116.247 144.982C116.955 145.39 117.507 145.966 117.903 146.71C118.311 147.442 118.515 148.3 118.515 149.284C118.515 149.356 118.509 149.44 118.497 149.536C118.497 149.632 118.491 149.722 118.479 149.806H110.361V148.564H117.579L116.877 148.996C116.889 148.384 116.763 147.838 116.499 147.358C116.235 146.878 115.869 146.506 115.401 146.242C114.945 145.966 114.411 145.828 113.799 145.828C113.199 145.828 112.665 145.966 112.197 146.242C111.729 146.506 111.363 146.884 111.099 147.376C110.835 147.856 110.703 148.408 110.703 149.032V149.32C110.703 149.956 110.847 150.526 111.135 151.03C111.435 151.522 111.849 151.906 112.377 152.182C112.905 152.458 113.511 152.596 114.195 152.596C114.759 152.596 115.269 152.5 115.725 152.308C116.193 152.116 116.601 151.828 116.949 151.444L117.903 152.56C117.471 153.064 116.931 153.448 116.283 153.712C115.647 153.976 114.933 154.108 114.141 154.108Z" fill="#1A1B1F"/>
<defs>
<clipPath id="clip0_6567_82">
<rect width="24" height="24" fill="white" transform="translate(299.5 76)"/>
</clipPath>
<clipPath id="clip1_6567_82">
<rect width="24" height="24" fill="white" transform="translate(184 76)"/>
</clipPath>
</defs>
</svg>
