<svg width="384" height="236" viewBox="0 0 384 236" fill="none" xmlns="http://www.w3.org/2000/svg">
<g clip-path="url(#clip0_6496_17068)">
<rect x="102.5" y="39.4994" width="256" height="328" rx="14.5" fill="white" fill-opacity="0.2" stroke="white" stroke-width="3"/>
<rect x="18.5" y="120.499" width="322" height="252" rx="14.5" fill="white" fill-opacity="0.2" stroke="white" stroke-width="3"/>
<g filter="url(#filter0_d_6496_17068)">
<rect x="28" y="86.9994" width="253" height="402" rx="16" fill="white" shape-rendering="crispEdges"/>
<rect x="44" y="102.999" width="32" height="32" rx="16" fill="#A7BAD3"/>
<path d="M64.1667 125.666C64.1667 125.445 64.0787 125.233 63.9225 125.077C63.7662 124.921 63.5544 124.833 63.3334 124.833C62.8732 124.833 62.5001 124.46 62.5001 123.999C62.5001 123.539 62.8732 123.166 63.3334 123.166C63.5544 123.166 63.7662 123.078 63.9225 122.922C64.0787 122.765 64.1667 122.554 64.1667 122.333C64.1667 121.872 64.5398 121.499 65.0001 121.499C65.4603 121.499 65.8334 121.872 65.8334 122.333C65.8334 122.554 65.9214 122.765 66.0777 122.922C66.234 123.078 66.4457 123.166 66.6667 123.166C67.127 123.166 67.5001 123.539 67.5001 123.999C67.5001 124.46 67.127 124.833 66.6667 124.833C66.4457 124.833 66.234 124.921 66.0777 125.077C65.9214 125.233 65.8334 125.445 65.8334 125.666C65.8334 126.126 65.4603 126.499 65.0001 126.499C64.5398 126.499 64.1667 126.126 64.1667 125.666ZM56.6667 123.999C56.6667 122.894 56.2279 121.834 55.4465 121.053C54.6651 120.272 53.6051 119.833 52.5001 119.833C52.0398 119.833 51.6667 119.46 51.6667 118.999C51.6667 118.539 52.0398 118.166 52.5001 118.166C53.6051 118.166 54.6651 117.727 55.4465 116.946C56.2279 116.164 56.6667 115.104 56.6667 113.999C56.6667 113.539 57.0398 113.166 57.5001 113.166C57.9603 113.166 58.3334 113.539 58.3334 113.999C58.3334 115.104 58.7723 116.164 59.5537 116.946C60.3351 117.727 61.395 118.166 62.5001 118.166C62.9603 118.166 63.3334 118.539 63.3334 118.999C63.3334 119.46 62.9603 119.833 62.5001 119.833C61.395 119.833 60.3351 120.272 59.5537 121.053C58.7723 121.834 58.3334 122.894 58.3334 123.999C58.3334 124.46 57.9603 124.833 57.5001 124.833C57.0398 124.833 56.6667 124.46 56.6667 123.999ZM57.5001 117.003C57.257 117.408 56.964 117.784 56.6246 118.124C56.2852 118.463 55.9082 118.756 55.5036 118.999C55.9082 119.242 56.2852 119.535 56.6246 119.875C56.9639 120.214 57.2571 120.591 57.5001 120.995C57.7431 120.591 58.0363 120.214 58.3756 119.875C58.7148 119.536 59.0915 119.242 59.496 118.999C59.0915 118.756 58.7148 118.463 58.3756 118.124C58.0362 117.784 57.7432 117.408 57.5001 117.003ZM64.1667 115.666C64.1667 115.445 64.0787 115.233 63.9225 115.077C63.7857 114.94 63.6066 114.856 63.4159 114.837L63.3334 114.833L63.2485 114.828C62.8281 114.786 62.5001 114.431 62.5001 113.999C62.5001 113.539 62.8732 113.166 63.3334 113.166L63.4159 113.162C63.6066 113.143 63.7857 113.058 63.9225 112.922C64.0787 112.765 64.1667 112.554 64.1667 112.333C64.1667 111.872 64.5398 111.499 65.0001 111.499C65.4603 111.499 65.8334 111.872 65.8334 112.333C65.8334 112.554 65.9214 112.765 66.0777 112.922C66.2144 113.058 66.3936 113.143 66.5843 113.162L66.6667 113.166C67.127 113.166 67.5001 113.539 67.5001 113.999C67.5001 114.46 67.127 114.833 66.6667 114.833C66.4457 114.833 66.234 114.921 66.0777 115.077C65.9214 115.233 65.8334 115.445 65.8334 115.666C65.8334 116.126 65.4603 116.499 65.0001 116.499C64.5398 116.499 64.1667 116.126 64.1667 115.666Z" fill="#1A1B1F"/>
<path d="M47.648 158.999V149.911H44.064V147.799H53.824V149.911H50.24V158.999H47.648ZM58.2636 159.127C57.3463 159.127 56.5303 158.935 55.8156 158.551C55.1116 158.167 54.5516 157.645 54.1356 156.983C53.7303 156.311 53.5276 155.549 53.5276 154.695C53.5276 153.831 53.7303 153.069 54.1356 152.407C54.5516 151.735 55.1116 151.213 55.8156 150.839C56.5303 150.455 57.3463 150.263 58.2636 150.263C59.1703 150.263 59.981 150.455 60.6956 150.839C61.4103 151.213 61.9703 151.73 62.3756 152.391C62.781 153.053 62.9836 153.821 62.9836 154.695C62.9836 155.549 62.781 156.311 62.3756 156.983C61.9703 157.645 61.4103 158.167 60.6956 158.551C59.981 158.935 59.1703 159.127 58.2636 159.127ZM58.2636 157.079C58.6796 157.079 59.053 156.983 59.3836 156.791C59.7143 156.599 59.9756 156.327 60.1676 155.975C60.3596 155.613 60.4556 155.186 60.4556 154.695C60.4556 154.194 60.3596 153.767 60.1676 153.415C59.9756 153.063 59.7143 152.791 59.3836 152.599C59.053 152.407 58.6796 152.311 58.2636 152.311C57.8476 152.311 57.4743 152.407 57.1436 152.599C56.813 152.791 56.5463 153.063 56.3436 153.415C56.1516 153.767 56.0556 154.194 56.0556 154.695C56.0556 155.186 56.1516 155.613 56.3436 155.975C56.5463 156.327 56.813 156.599 57.1436 156.791C57.4743 156.983 57.8476 157.079 58.2636 157.079ZM69.3593 158.999V147.799H74.4473C75.6633 147.799 76.7353 148.034 77.6633 148.503C78.5913 148.962 79.3166 149.607 79.8393 150.439C80.3619 151.271 80.6233 152.258 80.6233 153.399C80.6233 154.53 80.3619 155.517 79.8393 156.359C79.3166 157.191 78.5913 157.842 77.6633 158.311C76.7353 158.77 75.6633 158.999 74.4473 158.999H69.3593ZM71.9513 156.871H74.3193C75.0659 156.871 75.7113 156.733 76.2552 156.455C76.8099 156.167 77.2366 155.762 77.5353 155.239C77.8446 154.717 77.9993 154.103 77.9993 153.399C77.9993 152.685 77.8446 152.071 77.5353 151.559C77.2366 151.037 76.8099 150.637 76.2552 150.359C75.7113 150.071 75.0659 149.927 74.3193 149.927H71.9513V156.871ZM86.498 159.127C85.5807 159.127 84.7647 158.935 84.05 158.551C83.346 158.167 82.786 157.645 82.37 156.983C81.9647 156.311 81.762 155.549 81.762 154.695C81.762 153.831 81.9647 153.069 82.37 152.407C82.786 151.735 83.346 151.213 84.05 150.839C84.7647 150.455 85.5807 150.263 86.498 150.263C87.4047 150.263 88.2153 150.455 88.93 150.839C89.6447 151.213 90.2047 151.73 90.61 152.391C91.0153 153.053 91.218 153.821 91.218 154.695C91.218 155.549 91.0153 156.311 90.61 156.983C90.2047 157.645 89.6447 158.167 88.93 158.551C88.2153 158.935 87.4047 159.127 86.498 159.127ZM86.498 157.079C86.914 157.079 87.2873 156.983 87.618 156.791C87.9487 156.599 88.21 156.327 88.402 155.975C88.594 155.613 88.69 155.186 88.69 154.695C88.69 154.194 88.594 153.767 88.402 153.415C88.21 153.063 87.9487 152.791 87.618 152.599C87.2873 152.407 86.914 152.311 86.498 152.311C86.082 152.311 85.7087 152.407 85.378 152.599C85.0473 152.791 84.7807 153.063 84.578 153.415C84.386 153.767 84.29 154.194 84.29 154.695C84.29 155.186 84.386 155.613 84.578 155.975C84.7807 156.327 85.0473 156.599 85.378 156.791C85.7087 156.983 86.082 157.079 86.498 157.079Z" fill="#1A1B1F"/>
<g filter="url(#filter1_d_6496_17068)">
<rect x="44" y="174.999" width="221" height="143" rx="16" fill="#EAEAEA" shape-rendering="crispEdges"/>
<path d="M62.114 204.999L66.062 196.067L66.65 197.047H61.372L62.38 195.983V198.643H60.364V195.199H68.218V196.669L64.578 204.999H62.114ZM70.8764 204.999V196.039L71.8564 197.019H68.9164V195.199H73.1444V204.999H70.8764ZM79.0468 205.167C78.2441 205.167 77.5254 204.971 76.8908 204.579C76.2561 204.178 75.7568 203.599 75.3928 202.843C75.0288 202.087 74.8468 201.173 74.8468 200.099C74.8468 199.026 75.0288 198.111 75.3928 197.355C75.7568 196.599 76.2561 196.025 76.8908 195.633C77.5254 195.232 78.2441 195.031 79.0468 195.031C79.8588 195.031 80.5774 195.232 81.2028 195.633C81.8374 196.025 82.3368 196.599 82.7008 197.355C83.0648 198.111 83.2468 199.026 83.2468 200.099C83.2468 201.173 83.0648 202.087 82.7008 202.843C82.3368 203.599 81.8374 204.178 81.2028 204.579C80.5774 204.971 79.8588 205.167 79.0468 205.167ZM79.0468 203.249C79.4294 203.249 79.7608 203.142 80.0408 202.927C80.3301 202.713 80.5541 202.372 80.7128 201.905C80.8808 201.439 80.9648 200.837 80.9648 200.099C80.9648 199.362 80.8808 198.76 80.7128 198.293C80.5541 197.827 80.3301 197.486 80.0408 197.271C79.7608 197.057 79.4294 196.949 79.0468 196.949C78.6734 196.949 78.3421 197.057 78.0528 197.271C77.7728 197.486 77.5488 197.827 77.3808 198.293C77.2221 198.76 77.1428 199.362 77.1428 200.099C77.1428 200.837 77.2221 201.439 77.3808 201.905C77.5488 202.372 77.7728 202.713 78.0528 202.927C78.3421 203.142 78.6734 203.249 79.0468 203.249ZM89.0325 204.999V195.199H92.8545C93.7132 195.199 94.4458 195.335 95.0525 195.605C95.6592 195.876 96.1258 196.268 96.4525 196.781C96.7792 197.295 96.9425 197.906 96.9425 198.615C96.9425 199.325 96.7792 199.936 96.4525 200.449C96.1258 200.953 95.6592 201.341 95.0525 201.611C94.4458 201.882 93.7132 202.017 92.8545 202.017H89.8025L90.4325 201.373V204.999H89.0325ZM95.5845 204.999L93.0925 201.443H94.5905L97.1105 204.999H95.5845ZM90.4325 201.513L89.8025 200.827H92.8125C93.7085 200.827 94.3852 200.636 94.8425 200.253C95.3092 199.861 95.5425 199.315 95.5425 198.615C95.5425 197.915 95.3092 197.374 94.8425 196.991C94.3852 196.609 93.7085 196.417 92.8125 196.417H89.8025L90.4325 195.717V201.513ZM102.312 205.083C101.519 205.083 100.819 204.92 100.212 204.593C99.615 204.267 99.1484 203.819 98.8124 203.249C98.4857 202.68 98.3224 202.027 98.3224 201.289C98.3224 200.552 98.481 199.899 98.7984 199.329C99.125 198.76 99.5684 198.317 100.128 197.999C100.698 197.673 101.337 197.509 102.046 197.509C102.765 197.509 103.4 197.668 103.95 197.985C104.501 198.303 104.93 198.751 105.238 199.329C105.556 199.899 105.714 200.566 105.714 201.331C105.714 201.387 105.71 201.453 105.7 201.527C105.7 201.602 105.696 201.672 105.686 201.737H99.3724V200.771H104.986L104.44 201.107C104.45 200.631 104.352 200.207 104.146 199.833C103.941 199.46 103.656 199.171 103.292 198.965C102.938 198.751 102.522 198.643 102.046 198.643C101.58 198.643 101.164 198.751 100.8 198.965C100.436 199.171 100.152 199.465 99.9464 199.847C99.741 200.221 99.6384 200.65 99.6384 201.135V201.359C99.6384 201.854 99.7504 202.297 99.9744 202.689C100.208 203.072 100.53 203.371 100.94 203.585C101.351 203.8 101.822 203.907 102.354 203.907C102.793 203.907 103.19 203.833 103.544 203.683C103.908 203.534 104.226 203.31 104.496 203.011L105.238 203.879C104.902 204.271 104.482 204.57 103.978 204.775C103.484 204.981 102.928 205.083 102.312 205.083ZM109.012 204.999L106.254 197.579H107.528L109.978 204.299H109.376L111.924 197.579H113.058L115.55 204.299H114.962L117.468 197.579H118.672L115.9 204.999H114.612L112.274 198.867H112.666L110.3 204.999H109.012ZM120.036 204.999V197.579H121.324V199.595L121.198 199.091C121.403 198.578 121.748 198.186 122.234 197.915C122.719 197.645 123.316 197.509 124.026 197.509V198.811C123.97 198.802 123.914 198.797 123.858 198.797C123.811 198.797 123.764 198.797 123.718 198.797C122.999 198.797 122.43 199.012 122.01 199.441C121.59 199.871 121.38 200.491 121.38 201.303V204.999H120.036ZM125.682 204.999V197.579H127.026V204.999H125.682ZM126.354 196.151C126.093 196.151 125.874 196.067 125.696 195.899C125.528 195.731 125.444 195.526 125.444 195.283C125.444 195.031 125.528 194.821 125.696 194.653C125.874 194.485 126.093 194.401 126.354 194.401C126.616 194.401 126.83 194.485 126.998 194.653C127.176 194.812 127.264 195.013 127.264 195.255C127.264 195.507 127.18 195.722 127.012 195.899C126.844 196.067 126.625 196.151 126.354 196.151ZM132.14 205.083C131.394 205.083 130.815 204.883 130.404 204.481C129.994 204.08 129.788 203.506 129.788 202.759V195.955H131.132V202.703C131.132 203.105 131.23 203.413 131.426 203.627C131.632 203.842 131.921 203.949 132.294 203.949C132.714 203.949 133.064 203.833 133.344 203.599L133.764 204.565C133.559 204.743 133.312 204.873 133.022 204.957C132.742 205.041 132.448 205.083 132.14 205.083ZM128.528 198.685V197.579H133.26V198.685H128.528ZM138.447 205.083C137.654 205.083 136.954 204.92 136.347 204.593C135.75 204.267 135.283 203.819 134.947 203.249C134.62 202.68 134.457 202.027 134.457 201.289C134.457 200.552 134.616 199.899 134.933 199.329C135.26 198.76 135.703 198.317 136.263 197.999C136.832 197.673 137.472 197.509 138.181 197.509C138.9 197.509 139.534 197.668 140.085 197.985C140.636 198.303 141.065 198.751 141.373 199.329C141.69 199.899 141.849 200.566 141.849 201.331C141.849 201.387 141.844 201.453 141.835 201.527C141.835 201.602 141.83 201.672 141.821 201.737H135.507V200.771H141.121L140.575 201.107C140.584 200.631 140.486 200.207 140.281 199.833C140.076 199.46 139.791 199.171 139.427 198.965C139.072 198.751 138.657 198.643 138.181 198.643C137.714 198.643 137.299 198.751 136.935 198.965C136.571 199.171 136.286 199.465 136.081 199.847C135.876 200.221 135.773 200.65 135.773 201.135V201.359C135.773 201.854 135.885 202.297 136.109 202.689C136.342 203.072 136.664 203.371 137.075 203.585C137.486 203.8 137.957 203.907 138.489 203.907C138.928 203.907 139.324 203.833 139.679 203.683C140.043 203.534 140.36 203.31 140.631 203.011L141.373 203.879C141.037 204.271 140.617 204.57 140.113 204.775C139.618 204.981 139.063 205.083 138.447 205.083ZM152.053 205.111C151.307 205.111 150.616 204.99 149.981 204.747C149.356 204.495 148.81 204.145 148.343 203.697C147.886 203.24 147.527 202.708 147.265 202.101C147.004 201.495 146.873 200.827 146.873 200.099C146.873 199.371 147.004 198.704 147.265 198.097C147.527 197.491 147.891 196.963 148.357 196.515C148.824 196.058 149.37 195.708 149.995 195.465C150.63 195.213 151.321 195.087 152.067 195.087C152.823 195.087 153.519 195.218 154.153 195.479C154.797 195.731 155.343 196.109 155.791 196.613L154.881 197.495C154.508 197.103 154.088 196.814 153.621 196.627C153.155 196.431 152.655 196.333 152.123 196.333C151.573 196.333 151.059 196.427 150.583 196.613C150.117 196.8 149.711 197.061 149.365 197.397C149.02 197.733 148.749 198.135 148.553 198.601C148.367 199.059 148.273 199.558 148.273 200.099C148.273 200.641 148.367 201.145 148.553 201.611C148.749 202.069 149.02 202.465 149.365 202.801C149.711 203.137 150.117 203.399 150.583 203.585C151.059 203.772 151.573 203.865 152.123 203.865C152.655 203.865 153.155 203.772 153.621 203.585C154.088 203.389 154.508 203.091 154.881 202.689L155.791 203.571C155.343 204.075 154.797 204.458 154.153 204.719C153.519 204.981 152.819 205.111 152.053 205.111ZM157.592 204.999V194.611H158.936V204.999H157.592ZM161.503 204.999V197.579H162.847V204.999H161.503ZM162.175 196.151C161.913 196.151 161.694 196.067 161.517 195.899C161.349 195.731 161.265 195.526 161.265 195.283C161.265 195.031 161.349 194.821 161.517 194.653C161.694 194.485 161.913 194.401 162.175 194.401C162.436 194.401 162.651 194.485 162.819 194.653C162.996 194.812 163.085 195.013 163.085 195.255C163.085 195.507 163.001 195.722 162.833 195.899C162.665 196.067 162.445 196.151 162.175 196.151ZM168.717 205.083C167.923 205.083 167.223 204.92 166.617 204.593C166.019 204.267 165.553 203.819 165.217 203.249C164.89 202.68 164.727 202.027 164.727 201.289C164.727 200.552 164.885 199.899 165.203 199.329C165.529 198.76 165.973 198.317 166.533 197.999C167.102 197.673 167.741 197.509 168.451 197.509C169.169 197.509 169.804 197.668 170.355 197.985C170.905 198.303 171.335 198.751 171.643 199.329C171.96 199.899 172.119 200.566 172.119 201.331C172.119 201.387 172.114 201.453 172.105 201.527C172.105 201.602 172.1 201.672 172.091 201.737H165.777V200.771H171.391L170.845 201.107C170.854 200.631 170.756 200.207 170.551 199.833C170.345 199.46 170.061 199.171 169.697 198.965C169.342 198.751 168.927 198.643 168.451 198.643C167.984 198.643 167.569 198.751 167.205 198.965C166.841 199.171 166.556 199.465 166.351 199.847C166.145 200.221 166.043 200.65 166.043 201.135V201.359C166.043 201.854 166.155 202.297 166.379 202.689C166.612 203.072 166.934 203.371 167.345 203.585C167.755 203.8 168.227 203.907 168.759 203.907C169.197 203.907 169.594 203.833 169.949 203.683C170.313 203.534 170.63 203.31 170.901 203.011L171.643 203.879C171.307 204.271 170.887 204.57 170.383 204.775C169.888 204.981 169.333 205.083 168.717 205.083ZM177.947 197.509C178.554 197.509 179.086 197.626 179.543 197.859C180.01 198.093 180.374 198.447 180.635 198.923C180.896 199.399 181.027 200.001 181.027 200.729V204.999H179.683V200.883C179.683 200.165 179.506 199.623 179.151 199.259C178.806 198.895 178.316 198.713 177.681 198.713C177.205 198.713 176.79 198.807 176.435 198.993C176.08 199.18 175.805 199.455 175.609 199.819C175.422 200.183 175.329 200.636 175.329 201.177V204.999H173.985V197.579H175.273V199.581L175.063 199.049C175.306 198.564 175.679 198.186 176.183 197.915C176.687 197.645 177.275 197.509 177.947 197.509ZM186.062 205.083C185.316 205.083 184.737 204.883 184.326 204.481C183.916 204.08 183.71 203.506 183.71 202.759V195.955H185.054V202.703C185.054 203.105 185.152 203.413 185.348 203.627C185.554 203.842 185.843 203.949 186.216 203.949C186.636 203.949 186.986 203.833 187.266 203.599L187.686 204.565C187.481 204.743 187.234 204.873 186.944 204.957C186.664 205.041 186.37 205.083 186.062 205.083ZM182.45 198.685V197.579H187.182V198.685H182.45ZM61.47 220.999V211.199H65.6C66.6453 211.199 67.5647 211.405 68.358 211.815C69.1607 212.226 69.7813 212.8 70.22 213.537C70.668 214.275 70.892 215.129 70.892 216.099C70.892 217.07 70.668 217.924 70.22 218.661C69.7813 219.399 69.1607 219.973 68.358 220.383C67.5647 220.794 66.6453 220.999 65.6 220.999H61.47ZM62.87 219.781H65.516C66.328 219.781 67.028 219.627 67.616 219.319C68.2133 219.011 68.6753 218.582 69.002 218.031C69.3287 217.471 69.492 216.827 69.492 216.099C69.492 215.362 69.3287 214.718 69.002 214.167C68.6753 213.617 68.2133 213.187 67.616 212.879C67.028 212.571 66.328 212.417 65.516 212.417H62.87V219.781ZM76.0184 221.083C75.2717 221.083 74.6091 220.92 74.0304 220.593C73.4517 220.267 72.9944 219.819 72.6584 219.249C72.3224 218.671 72.1544 218.017 72.1544 217.289C72.1544 216.552 72.3224 215.899 72.6584 215.329C72.9944 214.76 73.4517 214.317 74.0304 213.999C74.6091 213.673 75.2717 213.509 76.0184 213.509C76.7557 213.509 77.4137 213.673 77.9924 213.999C78.5804 214.317 79.0377 214.76 79.3644 215.329C79.7004 215.889 79.8684 216.543 79.8684 217.289C79.8684 218.027 79.7004 218.68 79.3644 219.249C79.0377 219.819 78.5804 220.267 77.9924 220.593C77.4137 220.92 76.7557 221.083 76.0184 221.083ZM76.0184 219.907C76.4944 219.907 76.9191 219.8 77.2924 219.585C77.6751 219.371 77.9737 219.067 78.1884 218.675C78.4031 218.274 78.5104 217.812 78.5104 217.289C78.5104 216.757 78.4031 216.3 78.1884 215.917C77.9737 215.525 77.6751 215.222 77.2924 215.007C76.9191 214.793 76.4944 214.685 76.0184 214.685C75.5424 214.685 75.1177 214.793 74.7444 215.007C74.3711 215.222 74.0724 215.525 73.8484 215.917C73.6244 216.3 73.5124 216.757 73.5124 217.289C73.5124 217.812 73.6244 218.274 73.8484 218.675C74.0724 219.067 74.3711 219.371 74.7444 219.585C75.1177 219.8 75.5424 219.907 76.0184 219.907ZM84.9611 221.083C84.2051 221.083 83.5285 220.92 82.9311 220.593C82.3431 220.267 81.8811 219.819 81.5451 219.249C81.2091 218.68 81.0411 218.027 81.0411 217.289C81.0411 216.552 81.2091 215.899 81.5451 215.329C81.8811 214.76 82.3431 214.317 82.9311 213.999C83.5285 213.673 84.2051 213.509 84.9611 213.509C85.6331 213.509 86.2305 213.645 86.7531 213.915C87.2851 214.177 87.6958 214.569 87.9851 215.091L86.9631 215.749C86.7205 215.385 86.4218 215.119 86.0671 214.951C85.7218 214.774 85.3485 214.685 84.9471 214.685C84.4618 214.685 84.0278 214.793 83.6451 215.007C83.2625 215.222 82.9591 215.525 82.7351 215.917C82.5111 216.3 82.3991 216.757 82.3991 217.289C82.3991 217.821 82.5111 218.283 82.7351 218.675C82.9591 219.067 83.2625 219.371 83.6451 219.585C84.0278 219.8 84.4618 219.907 84.9471 219.907C85.3485 219.907 85.7218 219.823 86.0671 219.655C86.4218 219.478 86.7205 219.207 86.9631 218.843L87.9851 219.487C87.6958 220.001 87.2851 220.397 86.7531 220.677C86.2305 220.948 85.6331 221.083 84.9611 221.083ZM92.8472 221.083C92.2125 221.083 91.6525 220.967 91.1672 220.733C90.6912 220.5 90.3178 220.145 90.0472 219.669C89.7858 219.184 89.6552 218.577 89.6552 217.849V213.579H90.9992V217.695C90.9992 218.423 91.1718 218.969 91.5172 219.333C91.8718 219.697 92.3665 219.879 93.0012 219.879C93.4678 219.879 93.8738 219.786 94.2192 219.599C94.5645 219.403 94.8305 219.123 95.0172 218.759C95.2038 218.386 95.2972 217.938 95.2972 217.415V213.579H96.6412V220.999H95.3672V218.997L95.5772 219.529C95.3345 220.024 94.9705 220.407 94.4852 220.677C93.9998 220.948 93.4538 221.083 92.8472 221.083ZM108.482 213.509C109.079 213.509 109.606 213.626 110.064 213.859C110.521 214.093 110.876 214.447 111.128 214.923C111.389 215.399 111.52 216.001 111.52 216.729V220.999H110.176V216.883C110.176 216.165 110.008 215.623 109.672 215.259C109.336 214.895 108.864 214.713 108.258 214.713C107.81 214.713 107.418 214.807 107.082 214.993C106.746 215.18 106.484 215.455 106.298 215.819C106.12 216.183 106.032 216.636 106.032 217.177V220.999H104.688V216.883C104.688 216.165 104.52 215.623 104.184 215.259C103.857 214.895 103.386 214.713 102.77 214.713C102.331 214.713 101.944 214.807 101.608 214.993C101.272 215.18 101.01 215.455 100.824 215.819C100.637 216.183 100.544 216.636 100.544 217.177V220.999H99.1998V213.579H100.488V215.553L100.278 215.049C100.511 214.564 100.87 214.186 101.356 213.915C101.841 213.645 102.406 213.509 103.05 213.509C103.759 213.509 104.37 213.687 104.884 214.041C105.397 214.387 105.733 214.914 105.892 215.623L105.346 215.399C105.57 214.83 105.962 214.373 106.522 214.027C107.082 213.682 107.735 213.509 108.482 213.509ZM117.297 221.083C116.503 221.083 115.803 220.92 115.197 220.593C114.599 220.267 114.133 219.819 113.797 219.249C113.47 218.68 113.307 218.027 113.307 217.289C113.307 216.552 113.465 215.899 113.783 215.329C114.109 214.76 114.553 214.317 115.113 213.999C115.682 213.673 116.321 213.509 117.031 213.509C117.749 213.509 118.384 213.668 118.935 213.985C119.485 214.303 119.915 214.751 120.223 215.329C120.54 215.899 120.699 216.566 120.699 217.331C120.699 217.387 120.694 217.453 120.685 217.527C120.685 217.602 120.68 217.672 120.671 217.737H114.357V216.771H119.971L119.425 217.107C119.434 216.631 119.336 216.207 119.131 215.833C118.925 215.46 118.641 215.171 118.277 214.965C117.922 214.751 117.507 214.643 117.031 214.643C116.564 214.643 116.149 214.751 115.785 214.965C115.421 215.171 115.136 215.465 114.931 215.847C114.725 216.221 114.623 216.65 114.623 217.135V217.359C114.623 217.854 114.735 218.297 114.959 218.689C115.192 219.072 115.514 219.371 115.925 219.585C116.335 219.8 116.807 219.907 117.339 219.907C117.777 219.907 118.174 219.833 118.529 219.683C118.893 219.534 119.21 219.31 119.481 219.011L120.223 219.879C119.887 220.271 119.467 220.57 118.963 220.775C118.468 220.981 117.913 221.083 117.297 221.083ZM126.527 213.509C127.134 213.509 127.666 213.626 128.123 213.859C128.59 214.093 128.954 214.447 129.215 214.923C129.476 215.399 129.607 216.001 129.607 216.729V220.999H128.263V216.883C128.263 216.165 128.086 215.623 127.731 215.259C127.386 214.895 126.896 214.713 126.261 214.713C125.785 214.713 125.37 214.807 125.015 214.993C124.66 215.18 124.385 215.455 124.189 215.819C124.002 216.183 123.909 216.636 123.909 217.177V220.999H122.565V213.579H123.853V215.581L123.643 215.049C123.886 214.564 124.259 214.186 124.763 213.915C125.267 213.645 125.855 213.509 126.527 213.509ZM134.642 221.083C133.896 221.083 133.317 220.883 132.906 220.481C132.496 220.08 132.29 219.506 132.29 218.759V211.955H133.634V218.703C133.634 219.105 133.732 219.413 133.928 219.627C134.134 219.842 134.423 219.949 134.796 219.949C135.216 219.949 135.566 219.833 135.846 219.599L136.266 220.565C136.061 220.743 135.814 220.873 135.524 220.957C135.244 221.041 134.95 221.083 134.642 221.083ZM131.03 214.685V213.579H135.762V214.685H131.03Z" fill="#1A1B1F"/>
<g clip-path="url(#clip1_6496_17068)">
<path d="M238.167 200.999C238.167 201.22 238.255 201.432 238.411 201.589C238.567 201.745 238.779 201.833 239 201.833C239.221 201.833 239.433 201.745 239.589 201.589C239.746 201.432 239.833 201.22 239.833 200.999C239.833 200.778 239.746 200.566 239.589 200.41C239.433 200.254 239.221 200.166 239 200.166C238.779 200.166 238.567 200.254 238.411 200.41C238.255 200.566 238.167 200.778 238.167 200.999Z" stroke="#1A1B1F" stroke-width="2" stroke-linecap="round" stroke-linejoin="round"/>
<path d="M238.167 206.833C238.167 207.054 238.255 207.266 238.411 207.422C238.567 207.578 238.779 207.666 239 207.666C239.221 207.666 239.433 207.578 239.589 207.422C239.746 207.266 239.833 207.054 239.833 206.833C239.833 206.612 239.746 206.4 239.589 206.243C239.433 206.087 239.221 205.999 239 205.999C238.779 205.999 238.567 206.087 238.411 206.243C238.255 206.4 238.167 206.612 238.167 206.833Z" stroke="#1A1B1F" stroke-width="2" stroke-linecap="round" stroke-linejoin="round"/>
<path d="M238.167 195.166C238.167 195.387 238.255 195.599 238.411 195.755C238.567 195.912 238.779 195.999 239 195.999C239.221 195.999 239.433 195.912 239.589 195.755C239.746 195.599 239.833 195.387 239.833 195.166C239.833 194.945 239.746 194.733 239.589 194.577C239.433 194.421 239.221 194.333 239 194.333C238.779 194.333 238.567 194.421 238.411 194.577C238.255 194.733 238.167 194.945 238.167 195.166Z" stroke="#1A1B1F" stroke-width="2" stroke-linecap="round" stroke-linejoin="round"/>
</g>
</g>
</g>
<path d="M328 48.6154C335.333 33.4487 358.6 4.41536 393 9.61536" stroke="white" stroke-width="4" stroke-dasharray="7 7"/>
<g filter="url(#filter2_d_6496_17068)">
<rect x="112" y="8.99939" width="253" height="466.242" rx="16" fill="white" shape-rendering="crispEdges"/>
<rect x="128" y="24.9994" width="32" height="32" rx="16" fill="#FCD39A"/>
<path d="M136.5 45.9994V38.4994C136.5 37.8364 136.764 37.2007 137.232 36.7319C137.701 36.263 138.337 35.9994 139 35.9994H139.833C140.294 35.9994 140.667 36.3725 140.667 36.8328C140.667 37.293 140.294 37.6661 139.833 37.6661H139C138.779 37.6661 138.567 37.754 138.411 37.9102C138.255 38.0665 138.167 38.2784 138.167 38.4994V45.9994L138.171 46.0816C138.19 46.2725 138.274 46.4518 138.411 46.5886C138.567 46.7449 138.779 46.8328 139 46.8328H146.5C146.721 46.8328 146.933 46.7449 147.089 46.5886C147.245 46.4324 147.333 46.2205 147.333 45.9994V45.1661C147.333 44.7059 147.706 44.3328 148.167 44.3328C148.627 44.3328 149 44.7059 149 45.1661V45.9994C149 46.6625 148.736 47.2982 148.268 47.767C147.799 48.2359 147.163 48.4994 146.5 48.4994H139C138.337 48.4994 137.701 48.2359 137.232 47.767C136.764 47.2982 136.5 46.6625 136.5 45.9994Z" fill="#1A1B1F"/>
<path d="M150.667 35.2498C150.667 35.0067 150.57 34.7732 150.398 34.6012C150.226 34.4294 149.993 34.3328 149.75 34.3327C149.507 34.3327 149.274 34.4293 149.102 34.6012L149.101 34.6021L142.333 41.3452V42.666H143.654L150.397 35.8984L150.398 35.8976C150.57 35.7258 150.667 35.4928 150.667 35.2498ZM152.333 35.2498C152.333 35.9343 152.061 36.5901 151.577 37.0744L144.59 44.0877C144.434 44.2445 144.221 44.3327 144 44.3327H141.5C141.04 44.3327 140.667 43.9596 140.667 43.4993V40.9993C140.667 40.7779 140.755 40.5657 140.912 40.4093L147.924 33.422C148.409 32.938 149.066 32.666 149.75 32.666C150.435 32.6661 151.092 32.9385 151.576 33.4229C152.061 33.9073 152.333 34.5647 152.333 35.2498Z" fill="#1A1B1F"/>
<path d="M146.744 34.5769C147.07 34.2515 147.597 34.2515 147.923 34.5769L150.423 37.0769L150.479 37.1404C150.746 37.4677 150.728 37.9502 150.423 38.2553C150.117 38.5604 149.635 38.5792 149.308 38.3123L149.244 38.2553L146.744 35.7553C146.419 35.4299 146.419 34.9023 146.744 34.5769Z" fill="#1A1B1F"/>
<path d="M129.328 80.9994V69.7994H131.92V80.9994H129.328ZM139.634 72.2634C140.317 72.2634 140.925 72.4021 141.458 72.6794C142.002 72.9461 142.429 73.3621 142.738 73.9274C143.047 74.4821 143.202 75.1967 143.202 76.0714V80.9994H140.706V76.4554C140.706 75.7621 140.551 75.2501 140.242 74.9194C139.943 74.5887 139.517 74.4234 138.962 74.4234C138.567 74.4234 138.21 74.5087 137.89 74.6794C137.581 74.8394 137.335 75.0901 137.154 75.4314C136.983 75.7727 136.898 76.2101 136.898 76.7434V80.9994H134.402V72.3914H136.786V74.7754L136.338 74.0554C136.647 73.4794 137.09 73.0367 137.666 72.7274C138.242 72.4181 138.898 72.2634 139.634 72.2634ZM150.172 80.9994V69.7994H155.02C156.022 69.7994 156.886 69.9647 157.612 70.2954C158.337 70.6154 158.897 71.0794 159.292 71.6874C159.686 72.2954 159.884 73.0207 159.884 73.8634C159.884 74.6954 159.686 75.4154 159.292 76.0234C158.897 76.6314 158.337 77.1007 157.612 77.4314C156.886 77.7514 156.022 77.9114 155.02 77.9114H151.612L152.764 76.7434V80.9994H150.172ZM152.764 77.0314L151.612 75.7994H154.876C155.676 75.7994 156.273 75.6287 156.668 75.2874C157.062 74.9461 157.26 74.4714 157.26 73.8634C157.26 73.2447 157.062 72.7647 156.668 72.4234C156.273 72.0821 155.676 71.9114 154.876 71.9114H151.612L152.764 70.6794V77.0314ZM161.543 80.9994V72.3914H163.927V74.8234L163.591 74.1194C163.847 73.5114 164.257 73.0527 164.823 72.7434C165.388 72.4234 166.076 72.2634 166.887 72.2634V74.5674C166.78 74.5567 166.684 74.5514 166.599 74.5514C166.513 74.5407 166.423 74.5354 166.327 74.5354C165.644 74.5354 165.089 74.7327 164.663 75.1274C164.247 75.5114 164.039 76.1141 164.039 76.9354V80.9994H161.543ZM172.404 81.1274C171.487 81.1274 170.671 80.9354 169.956 80.5514C169.252 80.1674 168.692 79.6447 168.276 78.9834C167.871 78.3114 167.668 77.5487 167.668 76.6954C167.668 75.8314 167.871 75.0687 168.276 74.4074C168.692 73.7354 169.252 73.2127 169.956 72.8394C170.671 72.4554 171.487 72.2634 172.404 72.2634C173.311 72.2634 174.122 72.4554 174.836 72.8394C175.551 73.2127 176.111 73.7301 176.516 74.3914C176.922 75.0527 177.124 75.8207 177.124 76.6954C177.124 77.5487 176.922 78.3114 176.516 78.9834C176.111 79.6447 175.551 80.1674 174.836 80.5514C174.122 80.9354 173.311 81.1274 172.404 81.1274ZM172.404 79.0794C172.82 79.0794 173.194 78.9834 173.524 78.7914C173.855 78.5994 174.116 78.3274 174.308 77.9754C174.5 77.6127 174.596 77.1861 174.596 76.6954C174.596 76.1941 174.5 75.7674 174.308 75.4154C174.116 75.0634 173.855 74.7914 173.524 74.5994C173.194 74.4074 172.82 74.3114 172.404 74.3114C171.988 74.3114 171.615 74.4074 171.284 74.5994C170.954 74.7914 170.687 75.0634 170.484 75.4154C170.292 75.7674 170.196 76.1941 170.196 76.6954C170.196 77.1861 170.292 77.6127 170.484 77.9754C170.687 78.3274 170.954 78.5994 171.284 78.7914C171.615 78.9834 171.988 79.0794 172.404 79.0794ZM182.841 84.2314C182.03 84.2314 181.246 84.1301 180.489 83.9274C179.742 83.7354 179.118 83.4421 178.617 83.0474L179.609 81.2554C179.971 81.5541 180.43 81.7887 180.985 81.9594C181.55 82.1407 182.105 82.2314 182.649 82.2314C183.534 82.2314 184.174 82.0341 184.569 81.6394C184.974 81.2447 185.177 80.6581 185.177 79.8794V78.5834L185.337 76.4234L185.305 74.2474V72.3914H187.673V79.5594C187.673 81.1594 187.257 82.3381 186.425 83.0954C185.593 83.8527 184.398 84.2314 182.841 84.2314ZM182.457 80.5834C181.657 80.5834 180.931 80.4127 180.281 80.0714C179.641 79.7194 179.123 79.2341 178.729 78.6154C178.345 77.9861 178.153 77.2554 178.153 76.4234C178.153 75.5807 178.345 74.8501 178.729 74.2314C179.123 73.6021 179.641 73.1167 180.281 72.7754C180.931 72.4341 181.657 72.2634 182.457 72.2634C183.182 72.2634 183.822 72.4127 184.377 72.7114C184.931 72.9994 185.363 73.4527 185.673 74.0714C185.982 74.6794 186.137 75.4634 186.137 76.4234C186.137 77.3727 185.982 78.1567 185.673 78.7754C185.363 79.3834 184.931 79.8367 184.377 80.1354C183.822 80.4341 183.182 80.5834 182.457 80.5834ZM182.953 78.5354C183.39 78.5354 183.779 78.4501 184.121 78.2794C184.462 78.0981 184.729 77.8474 184.921 77.5274C185.113 77.2074 185.209 76.8394 185.209 76.4234C185.209 75.9967 185.113 75.6287 184.921 75.3194C184.729 74.9994 184.462 74.7541 184.121 74.5834C183.779 74.4021 183.39 74.3114 182.953 74.3114C182.515 74.3114 182.126 74.4021 181.785 74.5834C181.443 74.7541 181.171 74.9994 180.969 75.3194C180.777 75.6287 180.681 75.9967 180.681 76.4234C180.681 76.8394 180.777 77.2074 180.969 77.5274C181.171 77.8474 181.443 78.0981 181.785 78.2794C182.126 78.4501 182.515 78.5354 182.953 78.5354ZM189.996 80.9994V72.3914H192.38V74.8234L192.044 74.1194C192.3 73.5114 192.71 73.0527 193.276 72.7434C193.841 72.4234 194.529 72.2634 195.34 72.2634V74.5674C195.233 74.5567 195.137 74.5514 195.052 74.5514C194.966 74.5407 194.876 74.5354 194.78 74.5354C194.097 74.5354 193.542 74.7327 193.116 75.1274C192.7 75.5114 192.492 76.1141 192.492 76.9354V80.9994H189.996ZM201.033 81.1274C200.052 81.1274 199.188 80.9354 198.441 80.5514C197.705 80.1674 197.135 79.6447 196.729 78.9834C196.324 78.3114 196.121 77.5487 196.121 76.6954C196.121 75.8314 196.319 75.0687 196.713 74.4074C197.119 73.7354 197.668 73.2127 198.361 72.8394C199.055 72.4554 199.839 72.2634 200.713 72.2634C201.556 72.2634 202.313 72.4447 202.985 72.8074C203.668 73.1594 204.207 73.6714 204.601 74.3434C204.996 75.0047 205.193 75.7994 205.193 76.7274C205.193 76.8234 205.188 76.9354 205.177 77.0634C205.167 77.1807 205.156 77.2927 205.145 77.3994H198.153V75.9434H203.833L202.873 76.3754C202.873 75.9274 202.783 75.5381 202.601 75.2074C202.42 74.8767 202.169 74.6207 201.849 74.4394C201.529 74.2474 201.156 74.1514 200.729 74.1514C200.303 74.1514 199.924 74.2474 199.593 74.4394C199.273 74.6207 199.023 74.8821 198.841 75.2234C198.66 75.5541 198.569 75.9487 198.569 76.4074V76.7914C198.569 77.2607 198.671 77.6767 198.873 78.0394C199.087 78.3914 199.38 78.6634 199.753 78.8554C200.137 79.0367 200.585 79.1274 201.097 79.1274C201.556 79.1274 201.956 79.0581 202.297 78.9194C202.649 78.7807 202.969 78.5727 203.257 78.2954L204.585 79.7354C204.191 80.1834 203.695 80.5301 203.097 80.7754C202.5 81.0101 201.812 81.1274 201.033 81.1274ZM209.751 81.1274C209.015 81.1274 208.306 81.0421 207.623 80.8714C206.951 80.6901 206.418 80.4661 206.023 80.1994L206.855 78.4074C207.25 78.6527 207.714 78.8554 208.247 79.0154C208.791 79.1647 209.324 79.2394 209.847 79.2394C210.423 79.2394 210.828 79.1701 211.063 79.0314C211.308 78.8927 211.431 78.7007 211.431 78.4554C211.431 78.2527 211.335 78.1034 211.143 78.0074C210.962 77.9007 210.716 77.8207 210.407 77.7674C210.098 77.7141 209.756 77.6607 209.383 77.6074C209.02 77.5541 208.652 77.4847 208.279 77.3994C207.906 77.3034 207.564 77.1647 207.255 76.9834C206.946 76.8021 206.695 76.5567 206.503 76.2474C206.322 75.9381 206.231 75.5381 206.231 75.0474C206.231 74.5034 206.386 74.0234 206.695 73.6074C207.015 73.1914 207.474 72.8661 208.071 72.6314C208.668 72.3861 209.383 72.2634 210.215 72.2634C210.802 72.2634 211.399 72.3274 212.007 72.4554C212.615 72.5834 213.122 72.7701 213.527 73.0154L212.695 74.7914C212.279 74.5461 211.858 74.3807 211.431 74.2954C211.015 74.1994 210.61 74.1514 210.215 74.1514C209.66 74.1514 209.255 74.2261 208.999 74.3754C208.743 74.5247 208.615 74.7167 208.615 74.9514C208.615 75.1647 208.706 75.3247 208.887 75.4314C209.079 75.5381 209.33 75.6234 209.639 75.6874C209.948 75.7514 210.284 75.8101 210.647 75.8634C211.02 75.9061 211.394 75.9754 211.767 76.0714C212.14 76.1674 212.476 76.3061 212.775 76.4874C213.084 76.6581 213.335 76.8981 213.527 77.2074C213.719 77.5061 213.815 77.9007 213.815 78.3914C213.815 78.9247 213.655 79.3994 213.335 79.8154C213.015 80.2207 212.551 80.5407 211.943 80.7754C211.346 81.0101 210.615 81.1274 209.751 81.1274ZM218.251 81.1274C217.515 81.1274 216.806 81.0421 216.123 80.8714C215.451 80.6901 214.918 80.4661 214.523 80.1994L215.355 78.4074C215.75 78.6527 216.214 78.8554 216.747 79.0154C217.291 79.1647 217.824 79.2394 218.347 79.2394C218.923 79.2394 219.328 79.1701 219.563 79.0314C219.808 78.8927 219.931 78.7007 219.931 78.4554C219.931 78.2527 219.835 78.1034 219.643 78.0074C219.462 77.9007 219.216 77.8207 218.907 77.7674C218.598 77.7141 218.256 77.6607 217.883 77.6074C217.52 77.5541 217.152 77.4847 216.779 77.3994C216.406 77.3034 216.064 77.1647 215.755 76.9834C215.446 76.8021 215.195 76.5567 215.003 76.2474C214.822 75.9381 214.731 75.5381 214.731 75.0474C214.731 74.5034 214.886 74.0234 215.195 73.6074C215.515 73.1914 215.974 72.8661 216.571 72.6314C217.168 72.3861 217.883 72.2634 218.715 72.2634C219.302 72.2634 219.899 72.3274 220.507 72.4554C221.115 72.5834 221.622 72.7701 222.027 73.0154L221.195 74.7914C220.779 74.5461 220.358 74.3807 219.931 74.2954C219.515 74.1994 219.11 74.1514 218.715 74.1514C218.16 74.1514 217.755 74.2261 217.499 74.3754C217.243 74.5247 217.115 74.7167 217.115 74.9514C217.115 75.1647 217.206 75.3247 217.387 75.4314C217.579 75.5381 217.83 75.6234 218.139 75.6874C218.448 75.7514 218.784 75.8101 219.147 75.8634C219.52 75.9061 219.894 75.9754 220.267 76.0714C220.64 76.1674 220.976 76.3061 221.275 76.4874C221.584 76.6581 221.835 76.8981 222.027 77.2074C222.219 77.5061 222.315 77.9007 222.315 78.3914C222.315 78.9247 222.155 79.3994 221.835 79.8154C221.515 80.2207 221.051 80.5407 220.443 80.7754C219.846 81.0101 219.115 81.1274 218.251 81.1274Z" fill="#1A1B1F"/>
<path d="M133.722 116.611C132.69 117.15 131.661 117.746 130.637 118.404L128.781 115.514C129.89 114.801 131.008 114.153 132.133 113.566L133.722 116.611ZM147.241 112.585C144.923 112.81 142.599 113.251 140.285 113.941L139.304 110.649C141.839 109.893 144.38 109.411 146.909 109.166L147.241 112.585ZM195.053 128.772C196 129.499 200.5 133.999 201 135.999L197 135.999C197 134.999 193.5 131.499 192.705 131.28L195.053 128.772ZM161.425 113.684C159.101 113.129 156.739 112.737 154.357 112.543L154.635 109.119C157.207 109.328 159.743 109.751 162.223 110.343L161.425 113.684ZM183.065 119.496C185.275 120.908 187.349 122.38 189.261 123.857L187.161 126.575C185.326 125.158 183.335 123.745 181.216 122.391L183.065 119.496ZM169.527 112.61C171.927 113.523 174.252 114.572 176.482 115.713L174.917 118.771C172.789 117.682 170.578 116.685 168.305 115.82L169.527 112.61Z" fill="white"/>
<g filter="url(#filter3_d_6496_17068)">
<rect x="128" y="161.242" width="221" height="143" rx="16" fill="#EAEAEA" shape-rendering="crispEdges"/>
<path d="M146.114 191.242L150.062 182.31L150.65 183.29H145.372L146.38 182.226V184.886H144.364V181.442H152.218V182.912L148.578 191.242H146.114ZM157.154 191.41C156.352 191.41 155.633 191.214 154.998 190.822C154.364 190.42 153.864 189.842 153.5 189.086C153.136 188.33 152.954 187.415 152.954 186.342C152.954 185.268 153.136 184.354 153.5 183.598C153.864 182.842 154.364 182.268 154.998 181.876C155.633 181.474 156.352 181.274 157.154 181.274C157.966 181.274 158.685 181.474 159.31 181.876C159.945 182.268 160.444 182.842 160.808 183.598C161.172 184.354 161.354 185.268 161.354 186.342C161.354 187.415 161.172 188.33 160.808 189.086C160.444 189.842 159.945 190.42 159.31 190.822C158.685 191.214 157.966 191.41 157.154 191.41ZM157.154 189.492C157.537 189.492 157.868 189.384 158.148 189.17C158.438 188.955 158.662 188.614 158.82 188.148C158.988 187.681 159.072 187.079 159.072 186.342C159.072 185.604 158.988 185.002 158.82 184.536C158.662 184.069 158.438 183.728 158.148 183.514C157.868 183.299 157.537 183.192 157.154 183.192C156.781 183.192 156.45 183.299 156.16 183.514C155.88 183.728 155.656 184.069 155.488 184.536C155.33 185.002 155.25 185.604 155.25 186.342C155.25 187.079 155.33 187.681 155.488 188.148C155.656 188.614 155.88 188.955 156.16 189.17C156.45 189.384 156.781 189.492 157.154 189.492ZM163.983 191.242L167.931 182.31L168.519 183.29H163.241L164.249 182.226V184.886H162.233V181.442H170.087V182.912L166.447 191.242H163.983ZM175.781 191.242V181.442H179.603C180.461 181.442 181.194 181.577 181.801 181.848C182.407 182.118 182.874 182.51 183.201 183.024C183.527 183.537 183.691 184.148 183.691 184.858C183.691 185.567 183.527 186.178 183.201 186.692C182.874 187.196 182.407 187.588 181.801 187.868C181.194 188.138 180.461 188.274 179.603 188.274H176.551L177.181 187.616V191.242H175.781ZM177.181 187.756L176.551 187.056H179.561C180.457 187.056 181.133 186.864 181.591 186.482C182.057 186.099 182.291 185.558 182.291 184.858C182.291 184.158 182.057 183.616 181.591 183.234C181.133 182.851 180.457 182.66 179.561 182.66H176.551L177.181 181.96V187.756ZM185.415 191.242V183.822H186.703V185.838L186.577 185.334C186.782 184.82 187.127 184.428 187.613 184.158C188.098 183.887 188.695 183.752 189.405 183.752V185.054C189.349 185.044 189.293 185.04 189.237 185.04C189.19 185.04 189.143 185.04 189.097 185.04C188.378 185.04 187.809 185.254 187.389 185.684C186.969 186.113 186.759 186.734 186.759 187.546V191.242H185.415ZM194.297 191.326C193.503 191.326 192.803 191.162 192.197 190.836C191.599 190.509 191.133 190.061 190.797 189.492C190.47 188.922 190.307 188.269 190.307 187.532C190.307 186.794 190.465 186.141 190.783 185.572C191.109 185.002 191.553 184.559 192.113 184.242C192.682 183.915 193.321 183.752 194.031 183.752C194.749 183.752 195.384 183.91 195.935 184.228C196.485 184.545 196.915 184.993 197.223 185.572C197.54 186.141 197.699 186.808 197.699 187.574C197.699 187.63 197.694 187.695 197.685 187.77C197.685 187.844 197.68 187.914 197.671 187.98H191.357V187.014H196.971L196.425 187.35C196.434 186.874 196.336 186.449 196.131 186.076C195.925 185.702 195.641 185.413 195.277 185.208C194.922 184.993 194.507 184.886 194.031 184.886C193.564 184.886 193.149 184.993 192.785 185.208C192.421 185.413 192.136 185.707 191.931 186.09C191.725 186.463 191.623 186.892 191.623 187.378V187.602C191.623 188.096 191.735 188.54 191.959 188.932C192.192 189.314 192.514 189.613 192.925 189.828C193.335 190.042 193.807 190.15 194.339 190.15C194.777 190.15 195.174 190.075 195.529 189.926C195.893 189.776 196.21 189.552 196.481 189.254L197.223 190.122C196.887 190.514 196.467 190.812 195.963 191.018C195.468 191.223 194.913 191.326 194.297 191.326ZM201.693 191.326C201.077 191.326 200.489 191.242 199.929 191.074C199.378 190.906 198.944 190.7 198.627 190.458L199.187 189.394C199.504 189.608 199.896 189.79 200.363 189.94C200.83 190.089 201.306 190.164 201.791 190.164C202.416 190.164 202.864 190.075 203.135 189.898C203.415 189.72 203.555 189.473 203.555 189.156C203.555 188.922 203.471 188.74 203.303 188.61C203.135 188.479 202.911 188.381 202.631 188.316C202.36 188.25 202.057 188.194 201.721 188.148C201.385 188.092 201.049 188.026 200.713 187.952C200.377 187.868 200.069 187.756 199.789 187.616C199.509 187.466 199.285 187.266 199.117 187.014C198.949 186.752 198.865 186.407 198.865 185.978C198.865 185.53 198.991 185.138 199.243 184.802C199.495 184.466 199.85 184.209 200.307 184.032C200.774 183.845 201.324 183.752 201.959 183.752C202.444 183.752 202.934 183.812 203.429 183.934C203.933 184.046 204.344 184.209 204.661 184.424L204.087 185.488C203.751 185.264 203.401 185.11 203.037 185.026C202.673 184.942 202.309 184.9 201.945 184.9C201.357 184.9 200.918 184.998 200.629 185.194C200.34 185.38 200.195 185.623 200.195 185.922C200.195 186.174 200.279 186.37 200.447 186.51C200.624 186.64 200.848 186.743 201.119 186.818C201.399 186.892 201.707 186.958 202.043 187.014C202.379 187.06 202.715 187.126 203.051 187.21C203.387 187.284 203.69 187.392 203.961 187.532C204.241 187.672 204.465 187.868 204.633 188.12C204.81 188.372 204.899 188.708 204.899 189.128C204.899 189.576 204.768 189.963 204.507 190.29C204.246 190.616 203.877 190.873 203.401 191.06C202.925 191.237 202.356 191.326 201.693 191.326ZM209.883 191.326C209.089 191.326 208.389 191.162 207.783 190.836C207.185 190.509 206.719 190.061 206.383 189.492C206.056 188.922 205.893 188.269 205.893 187.532C205.893 186.794 206.051 186.141 206.369 185.572C206.695 185.002 207.139 184.559 207.699 184.242C208.268 183.915 208.907 183.752 209.617 183.752C210.335 183.752 210.97 183.91 211.521 184.228C212.071 184.545 212.501 184.993 212.809 185.572C213.126 186.141 213.285 186.808 213.285 187.574C213.285 187.63 213.28 187.695 213.271 187.77C213.271 187.844 213.266 187.914 213.257 187.98H206.943V187.014H212.557L212.011 187.35C212.02 186.874 211.922 186.449 211.717 186.076C211.511 185.702 211.227 185.413 210.863 185.208C210.508 184.993 210.093 184.886 209.617 184.886C209.15 184.886 208.735 184.993 208.371 185.208C208.007 185.413 207.722 185.707 207.517 186.09C207.311 186.463 207.209 186.892 207.209 187.378V187.602C207.209 188.096 207.321 188.54 207.545 188.932C207.778 189.314 208.1 189.613 208.511 189.828C208.921 190.042 209.393 190.15 209.925 190.15C210.363 190.15 210.76 190.075 211.115 189.926C211.479 189.776 211.796 189.552 212.067 189.254L212.809 190.122C212.473 190.514 212.053 190.812 211.549 191.018C211.054 191.223 210.499 191.326 209.883 191.326ZM219.113 183.752C219.72 183.752 220.252 183.868 220.709 184.102C221.176 184.335 221.54 184.69 221.801 185.166C222.062 185.642 222.193 186.244 222.193 186.972V191.242H220.849V187.126C220.849 186.407 220.672 185.866 220.317 185.502C219.972 185.138 219.482 184.956 218.847 184.956C218.371 184.956 217.956 185.049 217.601 185.236C217.246 185.422 216.971 185.698 216.775 186.062C216.588 186.426 216.495 186.878 216.495 187.42V191.242H215.151V183.822H216.439V185.824L216.229 185.292C216.472 184.806 216.845 184.428 217.349 184.158C217.853 183.887 218.441 183.752 219.113 183.752ZM227.228 191.326C226.482 191.326 225.903 191.125 225.492 190.724C225.082 190.322 224.876 189.748 224.876 189.002V182.198H226.22V188.946C226.22 189.347 226.318 189.655 226.514 189.87C226.72 190.084 227.009 190.192 227.382 190.192C227.802 190.192 228.152 190.075 228.432 189.842L228.852 190.808C228.647 190.985 228.4 191.116 228.11 191.2C227.83 191.284 227.536 191.326 227.228 191.326ZM223.616 184.928V183.822H228.348V184.928H223.616ZM235.083 191.242V189.674L235.013 189.38V186.706C235.013 186.136 234.845 185.698 234.509 185.39C234.182 185.072 233.688 184.914 233.025 184.914C232.586 184.914 232.157 184.988 231.737 185.138C231.317 185.278 230.962 185.469 230.673 185.712L230.113 184.704C230.496 184.396 230.953 184.162 231.485 184.004C232.026 183.836 232.591 183.752 233.179 183.752C234.196 183.752 234.98 183.999 235.531 184.494C236.082 184.988 236.357 185.744 236.357 186.762V191.242H235.083ZM232.647 191.326C232.096 191.326 231.611 191.232 231.191 191.046C230.78 190.859 230.463 190.602 230.239 190.276C230.015 189.94 229.903 189.562 229.903 189.142C229.903 188.74 229.996 188.376 230.183 188.05C230.379 187.723 230.692 187.462 231.121 187.266C231.56 187.07 232.148 186.972 232.885 186.972H235.237V187.938H232.941C232.269 187.938 231.816 188.05 231.583 188.274C231.35 188.498 231.233 188.768 231.233 189.086C231.233 189.45 231.378 189.744 231.667 189.968C231.956 190.182 232.358 190.29 232.871 190.29C233.375 190.29 233.814 190.178 234.187 189.954C234.57 189.73 234.845 189.403 235.013 188.974L235.279 189.898C235.102 190.336 234.789 190.686 234.341 190.948C233.893 191.2 233.328 191.326 232.647 191.326ZM241.392 191.326C240.646 191.326 240.067 191.125 239.656 190.724C239.246 190.322 239.04 189.748 239.04 189.002V182.198H240.384V188.946C240.384 189.347 240.482 189.655 240.678 189.87C240.884 190.084 241.173 190.192 241.546 190.192C241.966 190.192 242.316 190.075 242.596 189.842L243.016 190.808C242.811 190.985 242.564 191.116 242.274 191.2C241.994 191.284 241.7 191.326 241.392 191.326ZM237.78 184.928V183.822H242.512V184.928H237.78ZM244.641 191.242V183.822H245.985V191.242H244.641ZM245.313 182.394C245.052 182.394 244.833 182.31 244.655 182.142C244.487 181.974 244.403 181.768 244.403 181.526C244.403 181.274 244.487 181.064 244.655 180.896C244.833 180.728 245.052 180.644 245.313 180.644C245.575 180.644 245.789 180.728 245.957 180.896C246.135 181.054 246.223 181.255 246.223 181.498C246.223 181.75 246.139 181.964 245.971 182.142C245.803 182.31 245.584 182.394 245.313 182.394ZM251.729 191.326C250.983 191.326 250.32 191.162 249.741 190.836C249.163 190.509 248.705 190.061 248.369 189.492C248.033 188.913 247.865 188.26 247.865 187.532C247.865 186.794 248.033 186.141 248.369 185.572C248.705 185.002 249.163 184.559 249.741 184.242C250.32 183.915 250.983 183.752 251.729 183.752C252.467 183.752 253.125 183.915 253.703 184.242C254.291 184.559 254.749 185.002 255.075 185.572C255.411 186.132 255.579 186.785 255.579 187.532C255.579 188.269 255.411 188.922 255.075 189.492C254.749 190.061 254.291 190.509 253.703 190.836C253.125 191.162 252.467 191.326 251.729 191.326ZM251.729 190.15C252.205 190.15 252.63 190.042 253.003 189.828C253.386 189.613 253.685 189.31 253.899 188.918C254.114 188.516 254.221 188.054 254.221 187.532C254.221 187 254.114 186.542 253.899 186.16C253.685 185.768 253.386 185.464 253.003 185.25C252.63 185.035 252.205 184.928 251.729 184.928C251.253 184.928 250.829 185.035 250.455 185.25C250.082 185.464 249.783 185.768 249.559 186.16C249.335 186.542 249.223 187 249.223 187.532C249.223 188.054 249.335 188.516 249.559 188.918C249.783 189.31 250.082 189.613 250.455 189.828C250.829 190.042 251.253 190.15 251.729 190.15ZM261.4 183.752C262.007 183.752 262.539 183.868 262.996 184.102C263.463 184.335 263.827 184.69 264.088 185.166C264.349 185.642 264.48 186.244 264.48 186.972V191.242H263.136V187.126C263.136 186.407 262.959 185.866 262.604 185.502C262.259 185.138 261.769 184.956 261.134 184.956C260.658 184.956 260.243 185.049 259.888 185.236C259.533 185.422 259.258 185.698 259.062 186.062C258.875 186.426 258.782 186.878 258.782 187.42V191.242H257.438V183.822H258.726V185.824L258.516 185.292C258.759 184.806 259.132 184.428 259.636 184.158C260.14 183.887 260.728 183.752 261.4 183.752ZM149.208 207.326C148.592 207.326 148.027 207.186 147.514 206.906C147.01 206.616 146.604 206.192 146.296 205.632C145.997 205.072 145.848 204.372 145.848 203.532C145.848 202.692 145.993 201.992 146.282 201.432C146.581 200.872 146.982 200.452 147.486 200.172C147.999 199.892 148.573 199.752 149.208 199.752C149.936 199.752 150.58 199.91 151.14 200.228C151.7 200.545 152.143 200.988 152.47 201.558C152.797 202.118 152.96 202.776 152.96 203.532C152.96 204.288 152.797 204.95 152.47 205.52C152.143 206.089 151.7 206.532 151.14 206.85C150.58 207.167 149.936 207.326 149.208 207.326ZM145.274 209.958V199.822H146.562V201.824L146.478 203.546L146.618 205.268V209.958H145.274ZM149.096 206.15C149.572 206.15 149.997 206.042 150.37 205.828C150.753 205.613 151.051 205.31 151.266 204.918C151.49 204.516 151.602 204.054 151.602 203.532C151.602 203 151.49 202.542 151.266 202.16C151.051 201.768 150.753 201.464 150.37 201.25C149.997 201.035 149.572 200.928 149.096 200.928C148.629 200.928 148.205 201.035 147.822 201.25C147.449 201.464 147.15 201.768 146.926 202.16C146.711 202.542 146.604 203 146.604 203.532C146.604 204.054 146.711 204.516 146.926 204.918C147.15 205.31 147.449 205.613 147.822 205.828C148.205 206.042 148.629 206.15 149.096 206.15ZM154.817 207.242V199.822H156.105V201.838L155.979 201.334C156.184 200.82 156.53 200.428 157.015 200.158C157.5 199.887 158.098 199.752 158.807 199.752V201.054C158.751 201.044 158.695 201.04 158.639 201.04C158.592 201.04 158.546 201.04 158.499 201.04C157.78 201.04 157.211 201.254 156.791 201.684C156.371 202.113 156.161 202.734 156.161 203.546V207.242H154.817ZM163.573 207.326C162.826 207.326 162.164 207.162 161.585 206.836C161.006 206.509 160.549 206.061 160.213 205.492C159.877 204.913 159.709 204.26 159.709 203.532C159.709 202.794 159.877 202.141 160.213 201.572C160.549 201.002 161.006 200.559 161.585 200.242C162.164 199.915 162.826 199.752 163.573 199.752C164.31 199.752 164.968 199.915 165.547 200.242C166.135 200.559 166.592 201.002 166.919 201.572C167.255 202.132 167.423 202.785 167.423 203.532C167.423 204.269 167.255 204.922 166.919 205.492C166.592 206.061 166.135 206.509 165.547 206.836C164.968 207.162 164.31 207.326 163.573 207.326ZM163.573 206.15C164.049 206.15 164.474 206.042 164.847 205.828C165.23 205.613 165.528 205.31 165.743 204.918C165.958 204.516 166.065 204.054 166.065 203.532C166.065 203 165.958 202.542 165.743 202.16C165.528 201.768 165.23 201.464 164.847 201.25C164.474 201.035 164.049 200.928 163.573 200.928C163.097 200.928 162.672 201.035 162.299 201.25C161.926 201.464 161.627 201.768 161.403 202.16C161.179 202.542 161.067 203 161.067 203.532C161.067 204.054 161.179 204.516 161.403 204.918C161.627 205.31 161.926 205.613 162.299 205.828C162.672 206.042 163.097 206.15 163.573 206.15ZM173.216 207.326C172.6 207.326 172.035 207.186 171.522 206.906C171.018 206.616 170.612 206.192 170.304 205.632C170.005 205.072 169.856 204.372 169.856 203.532C169.856 202.692 170 201.992 170.29 201.432C170.588 200.872 170.99 200.452 171.494 200.172C172.007 199.892 172.581 199.752 173.216 199.752C173.944 199.752 174.588 199.91 175.148 200.228C175.708 200.545 176.151 200.988 176.478 201.558C176.804 202.118 176.968 202.776 176.968 203.532C176.968 204.288 176.804 204.95 176.478 205.52C176.151 206.089 175.708 206.532 175.148 206.85C174.588 207.167 173.944 207.326 173.216 207.326ZM169.282 209.958V199.822H170.57V201.824L170.486 203.546L170.626 205.268V209.958H169.282ZM173.104 206.15C173.58 206.15 174.004 206.042 174.378 205.828C174.76 205.613 175.059 205.31 175.274 204.918C175.498 204.516 175.61 204.054 175.61 203.532C175.61 203 175.498 202.542 175.274 202.16C175.059 201.768 174.76 201.464 174.378 201.25C174.004 201.035 173.58 200.928 173.104 200.928C172.637 200.928 172.212 201.035 171.83 201.25C171.456 201.464 171.158 201.768 170.934 202.16C170.719 202.542 170.612 203 170.612 203.532C170.612 204.054 170.719 204.516 170.934 204.918C171.158 205.31 171.456 205.613 171.83 205.828C172.212 206.042 172.637 206.15 173.104 206.15ZM182.003 207.326C181.256 207.326 180.593 207.162 180.015 206.836C179.436 206.509 178.979 206.061 178.643 205.492C178.307 204.913 178.139 204.26 178.139 203.532C178.139 202.794 178.307 202.141 178.643 201.572C178.979 201.002 179.436 200.559 180.015 200.242C180.593 199.915 181.256 199.752 182.003 199.752C182.74 199.752 183.398 199.915 183.977 200.242C184.565 200.559 185.022 201.002 185.349 201.572C185.685 202.132 185.853 202.785 185.853 203.532C185.853 204.269 185.685 204.922 185.349 205.492C185.022 206.061 184.565 206.509 183.977 206.836C183.398 207.162 182.74 207.326 182.003 207.326ZM182.003 206.15C182.479 206.15 182.903 206.042 183.277 205.828C183.659 205.613 183.958 205.31 184.173 204.918C184.387 204.516 184.495 204.054 184.495 203.532C184.495 203 184.387 202.542 184.173 202.16C183.958 201.768 183.659 201.464 183.277 201.25C182.903 201.035 182.479 200.928 182.003 200.928C181.527 200.928 181.102 201.035 180.729 201.25C180.355 201.464 180.057 201.768 179.833 202.16C179.609 202.542 179.497 203 179.497 203.532C179.497 204.054 179.609 204.516 179.833 204.918C180.057 205.31 180.355 205.613 180.729 205.828C181.102 206.042 181.527 206.15 182.003 206.15ZM189.84 207.326C189.224 207.326 188.636 207.242 188.076 207.074C187.525 206.906 187.091 206.7 186.774 206.458L187.334 205.394C187.651 205.608 188.043 205.79 188.51 205.94C188.976 206.089 189.452 206.164 189.938 206.164C190.563 206.164 191.011 206.075 191.282 205.898C191.562 205.72 191.702 205.473 191.702 205.156C191.702 204.922 191.618 204.74 191.45 204.61C191.282 204.479 191.058 204.381 190.778 204.316C190.507 204.25 190.204 204.194 189.868 204.148C189.532 204.092 189.196 204.026 188.86 203.952C188.524 203.868 188.216 203.756 187.936 203.616C187.656 203.466 187.432 203.266 187.264 203.014C187.096 202.752 187.012 202.407 187.012 201.978C187.012 201.53 187.138 201.138 187.39 200.802C187.642 200.466 187.996 200.209 188.454 200.032C188.92 199.845 189.471 199.752 190.106 199.752C190.591 199.752 191.081 199.812 191.576 199.934C192.08 200.046 192.49 200.209 192.808 200.424L192.234 201.488C191.898 201.264 191.548 201.11 191.184 201.026C190.82 200.942 190.456 200.9 190.092 200.9C189.504 200.9 189.065 200.998 188.776 201.194C188.486 201.38 188.342 201.623 188.342 201.922C188.342 202.174 188.426 202.37 188.594 202.51C188.771 202.64 188.995 202.743 189.266 202.818C189.546 202.892 189.854 202.958 190.19 203.014C190.526 203.06 190.862 203.126 191.198 203.21C191.534 203.284 191.837 203.392 192.108 203.532C192.388 203.672 192.612 203.868 192.78 204.12C192.957 204.372 193.046 204.708 193.046 205.128C193.046 205.576 192.915 205.963 192.654 206.29C192.392 206.616 192.024 206.873 191.548 207.06C191.072 207.237 190.502 207.326 189.84 207.326ZM199.331 207.242V205.674L199.261 205.38V202.706C199.261 202.136 199.093 201.698 198.757 201.39C198.431 201.072 197.936 200.914 197.273 200.914C196.835 200.914 196.405 200.988 195.985 201.138C195.565 201.278 195.211 201.469 194.921 201.712L194.361 200.704C194.744 200.396 195.201 200.162 195.733 200.004C196.275 199.836 196.839 199.752 197.427 199.752C198.445 199.752 199.229 199.999 199.779 200.494C200.33 200.988 200.605 201.744 200.605 202.762V207.242H199.331ZM196.895 207.326C196.345 207.326 195.859 207.232 195.439 207.046C195.029 206.859 194.711 206.602 194.487 206.276C194.263 205.94 194.151 205.562 194.151 205.142C194.151 204.74 194.245 204.376 194.431 204.05C194.627 203.723 194.94 203.462 195.369 203.266C195.808 203.07 196.396 202.972 197.133 202.972H199.485V203.938H197.189C196.517 203.938 196.065 204.05 195.831 204.274C195.598 204.498 195.481 204.768 195.481 205.086C195.481 205.45 195.626 205.744 195.915 205.968C196.205 206.182 196.606 206.29 197.119 206.29C197.623 206.29 198.062 206.178 198.435 205.954C198.818 205.73 199.093 205.403 199.261 204.974L199.527 205.898C199.35 206.336 199.037 206.686 198.589 206.948C198.141 207.2 197.577 207.326 196.895 207.326ZM203.092 207.242V196.854H204.436V207.242H203.092Z" fill="#1A1B1F"/>
<g clip-path="url(#clip2_6496_17068)">
<path d="M322.167 187.242C322.167 187.463 322.255 187.675 322.411 187.831C322.567 187.987 322.779 188.075 323 188.075C323.221 188.075 323.433 187.987 323.589 187.831C323.746 187.675 323.833 187.463 323.833 187.242C323.833 187.021 323.746 186.809 323.589 186.653C323.433 186.496 323.221 186.408 323 186.408C322.779 186.408 322.567 186.496 322.411 186.653C322.255 186.809 322.167 187.021 322.167 187.242Z" stroke="#1A1B1F" stroke-width="2" stroke-linecap="round" stroke-linejoin="round"/>
<path d="M322.167 193.075C322.167 193.296 322.255 193.508 322.411 193.664C322.567 193.821 322.779 193.908 323 193.908C323.221 193.908 323.433 193.821 323.589 193.664C323.746 193.508 323.833 193.296 323.833 193.075C323.833 192.854 323.746 192.642 323.589 192.486C323.433 192.33 323.221 192.242 323 192.242C322.779 192.242 322.567 192.33 322.411 192.486C322.255 192.642 322.167 192.854 322.167 193.075Z" stroke="#1A1B1F" stroke-width="2" stroke-linecap="round" stroke-linejoin="round"/>
<path d="M322.167 181.409C322.167 181.63 322.255 181.842 322.411 181.998C322.567 182.154 322.779 182.242 323 182.242C323.221 182.242 323.433 182.154 323.589 181.998C323.746 181.842 323.833 181.63 323.833 181.409C323.833 181.188 323.746 180.976 323.589 180.819C323.433 180.663 323.221 180.575 323 180.575C322.779 180.575 322.567 180.663 322.411 180.819C322.255 180.976 322.167 181.188 322.167 181.409Z" stroke="#1A1B1F" stroke-width="2" stroke-linecap="round" stroke-linejoin="round"/>
</g>
<rect x="144" y="222.242" width="69" height="24" rx="12" fill="#D8D8D8"/>
<path d="M153.47 239.242V229.442H154.618L161.1 237.492H160.498V229.442H161.898V239.242H160.75L154.268 231.192H154.87V239.242H153.47ZM167.813 239.326C167.067 239.326 166.404 239.162 165.825 238.836C165.247 238.509 164.789 238.061 164.453 237.492C164.117 236.913 163.949 236.26 163.949 235.532C163.949 234.794 164.117 234.141 164.453 233.572C164.789 233.002 165.247 232.559 165.825 232.242C166.404 231.915 167.067 231.752 167.813 231.752C168.551 231.752 169.209 231.915 169.787 232.242C170.375 232.559 170.833 233.002 171.159 233.572C171.495 234.132 171.663 234.785 171.663 235.532C171.663 236.269 171.495 236.922 171.159 237.492C170.833 238.061 170.375 238.509 169.787 238.836C169.209 239.162 168.551 239.326 167.813 239.326ZM167.813 238.15C168.289 238.15 168.714 238.042 169.087 237.828C169.47 237.613 169.769 237.31 169.983 236.918C170.198 236.516 170.305 236.054 170.305 235.532C170.305 235 170.198 234.542 169.983 234.16C169.769 233.768 169.47 233.464 169.087 233.25C168.714 233.035 168.289 232.928 167.813 232.928C167.337 232.928 166.913 233.035 166.539 233.25C166.166 233.464 165.867 233.768 165.643 234.16C165.419 234.542 165.307 235 165.307 235.532C165.307 236.054 165.419 236.516 165.643 236.918C165.867 237.31 166.166 237.613 166.539 237.828C166.913 238.042 167.337 238.15 167.813 238.15ZM173.522 239.242V231.822H174.81V233.838L174.684 233.334C174.889 232.82 175.235 232.428 175.72 232.158C176.205 231.887 176.803 231.752 177.512 231.752V233.054C177.456 233.044 177.4 233.04 177.344 233.04C177.297 233.04 177.251 233.04 177.204 233.04C176.485 233.04 175.916 233.254 175.496 233.684C175.076 234.113 174.866 234.734 174.866 235.546V239.242H173.522ZM188.451 231.752C189.048 231.752 189.575 231.868 190.033 232.102C190.49 232.335 190.845 232.69 191.097 233.166C191.358 233.642 191.489 234.244 191.489 234.972V239.242H190.145V235.126C190.145 234.407 189.977 233.866 189.641 233.502C189.305 233.138 188.833 232.956 188.227 232.956C187.779 232.956 187.387 233.049 187.051 233.236C186.715 233.422 186.453 233.698 186.267 234.062C186.089 234.426 186.001 234.878 186.001 235.42V239.242H184.657V235.126C184.657 234.407 184.489 233.866 184.153 233.502C183.826 233.138 183.355 232.956 182.739 232.956C182.3 232.956 181.913 233.049 181.577 233.236C181.241 233.422 180.979 233.698 180.793 234.062C180.606 234.426 180.513 234.878 180.513 235.42V239.242H179.169V231.822H180.457V233.796L180.247 233.292C180.48 232.806 180.839 232.428 181.325 232.158C181.81 231.887 182.375 231.752 183.019 231.752C183.728 231.752 184.339 231.929 184.853 232.284C185.366 232.629 185.702 233.156 185.861 233.866L185.315 233.642C185.539 233.072 185.931 232.615 186.491 232.27C187.051 231.924 187.704 231.752 188.451 231.752ZM198.568 239.242V237.674L198.498 237.38V234.706C198.498 234.136 198.33 233.698 197.994 233.39C197.667 233.072 197.172 232.914 196.51 232.914C196.071 232.914 195.642 232.988 195.222 233.138C194.802 233.278 194.447 233.469 194.158 233.712L193.598 232.704C193.98 232.396 194.438 232.162 194.97 232.004C195.511 231.836 196.076 231.752 196.664 231.752C197.681 231.752 198.465 231.999 199.016 232.494C199.566 232.988 199.842 233.744 199.842 234.762V239.242H198.568ZM196.132 239.326C195.581 239.326 195.096 239.232 194.676 239.046C194.265 238.859 193.948 238.602 193.724 238.276C193.5 237.94 193.388 237.562 193.388 237.142C193.388 236.74 193.481 236.376 193.668 236.05C193.864 235.723 194.176 235.462 194.606 235.266C195.044 235.07 195.632 234.972 196.37 234.972H198.722V235.938H196.426C195.754 235.938 195.301 236.05 195.068 236.274C194.834 236.498 194.718 236.768 194.718 237.086C194.718 237.45 194.862 237.744 195.152 237.968C195.441 238.182 195.842 238.29 196.356 238.29C196.86 238.29 197.298 238.178 197.672 237.954C198.054 237.73 198.33 237.403 198.498 236.974L198.764 237.898C198.586 238.336 198.274 238.686 197.826 238.948C197.378 239.2 196.813 239.326 196.132 239.326ZM202.329 239.242V228.854H203.673V239.242H202.329Z" fill="#1A1B1F"/>
</g>
</g>
<path d="M-10.2777 190.622C-11.3098 190.084 -12.3387 189.487 -13.3628 188.829L-15.2194 191.72C-14.1096 192.432 -12.9916 193.081 -11.8673 193.668L-10.2777 190.622ZM3.24058 194.649C0.92279 194.424 -1.40068 193.983 -3.71504 193.293L-4.69607 196.585C-2.16141 197.34 0.380041 197.822 2.90913 198.067L3.24058 194.649ZM51.0526 178.462C52 177.734 56.5 173.234 57 171.234L53 171.234C53 172.234 49.5 175.734 48.7054 175.953L51.0526 178.462ZM17.4247 193.549C15.1007 194.105 12.7388 194.497 10.3566 194.69L10.6347 198.114C13.2071 197.905 15.7433 197.483 18.2232 196.89L17.4247 193.549ZM39.0654 187.737C41.2749 186.326 43.3491 184.854 45.2613 183.377L43.1614 180.658C41.3258 182.076 39.335 183.489 37.2159 184.843L39.0654 187.737ZM25.5269 194.624C27.9271 193.71 30.2521 192.661 32.4815 191.521L30.917 188.463C28.7889 189.552 26.5779 190.548 24.3047 191.413L25.5269 194.624Z" fill="white"/>
</g>
<defs>
<filter id="filter0_d_6496_17068" x="22" y="84.9994" width="269" height="418" filterUnits="userSpaceOnUse" color-interpolation-filters="sRGB">
<feFlood flood-opacity="0" result="BackgroundImageFix"/>
<feColorMatrix in="SourceAlpha" type="matrix" values="0 0 0 0 0 0 0 0 0 0 0 0 0 0 0 0 0 0 127 0" result="hardAlpha"/>
<feOffset dx="2" dy="6"/>
<feGaussianBlur stdDeviation="4"/>
<feComposite in2="hardAlpha" operator="out"/>
<feColorMatrix type="matrix" values="0 0 0 0 0 0 0 0 0 0 0 0 0 0 0 0 0 0 0.25 0"/>
<feBlend mode="normal" in2="BackgroundImageFix" result="effect1_dropShadow_6496_17068"/>
<feBlend mode="normal" in="SourceGraphic" in2="effect1_dropShadow_6496_17068" result="shape"/>
</filter>
<filter id="filter1_d_6496_17068" x="40" y="174.999" width="229" height="151" filterUnits="userSpaceOnUse" color-interpolation-filters="sRGB">
<feFlood flood-opacity="0" result="BackgroundImageFix"/>
<feColorMatrix in="SourceAlpha" type="matrix" values="0 0 0 0 0 0 0 0 0 0 0 0 0 0 0 0 0 0 127 0" result="hardAlpha"/>
<feOffset dy="4"/>
<feGaussianBlur stdDeviation="2"/>
<feComposite in2="hardAlpha" operator="out"/>
<feColorMatrix type="matrix" values="0 0 0 0 0 0 0 0 0 0 0 0 0 0 0 0 0 0 0.25 0"/>
<feBlend mode="normal" in2="BackgroundImageFix" result="effect1_dropShadow_6496_17068"/>
<feBlend mode="normal" in="SourceGraphic" in2="effect1_dropShadow_6496_17068" result="shape"/>
</filter>
<filter id="filter2_d_6496_17068" x="106" y="6.99939" width="269" height="482.242" filterUnits="userSpaceOnUse" color-interpolation-filters="sRGB">
<feFlood flood-opacity="0" result="BackgroundImageFix"/>
<feColorMatrix in="SourceAlpha" type="matrix" values="0 0 0 0 0 0 0 0 0 0 0 0 0 0 0 0 0 0 127 0" result="hardAlpha"/>
<feOffset dx="2" dy="6"/>
<feGaussianBlur stdDeviation="4"/>
<feComposite in2="hardAlpha" operator="out"/>
<feColorMatrix type="matrix" values="0 0 0 0 0 0 0 0 0 0 0 0 0 0 0 0 0 0 0.25 0"/>
<feBlend mode="normal" in2="BackgroundImageFix" result="effect1_dropShadow_6496_17068"/>
<feBlend mode="normal" in="SourceGraphic" in2="effect1_dropShadow_6496_17068" result="shape"/>
</filter>
<filter id="filter3_d_6496_17068" x="124" y="161.242" width="229" height="151" filterUnits="userSpaceOnUse" color-interpolation-filters="sRGB">
<feFlood flood-opacity="0" result="BackgroundImageFix"/>
<feColorMatrix in="SourceAlpha" type="matrix" values="0 0 0 0 0 0 0 0 0 0 0 0 0 0 0 0 0 0 127 0" result="hardAlpha"/>
<feOffset dy="4"/>
<feGaussianBlur stdDeviation="2"/>
<feComposite in2="hardAlpha" operator="out"/>
<feColorMatrix type="matrix" values="0 0 0 0 0 0 0 0 0 0 0 0 0 0 0 0 0 0 0.25 0"/>
<feBlend mode="normal" in2="BackgroundImageFix" result="effect1_dropShadow_6496_17068"/>
<feBlend mode="normal" in="SourceGraphic" in2="effect1_dropShadow_6496_17068" result="shape"/>
</filter>
<clipPath id="clip0_6496_17068">
<rect width="384" height="236" fill="white" transform="translate(0 -0.000610352)"/>
</clipPath>
<clipPath id="clip1_6496_17068">
<rect width="20" height="20" fill="white" transform="translate(229 190.999)"/>
</clipPath>
<clipPath id="clip2_6496_17068">
<rect width="20" height="20" fill="white" transform="translate(313 177.242)"/>
</clipPath>
</defs>
</svg>
