<svg width="384" height="236" viewBox="0 0 384 236" fill="none" xmlns="http://www.w3.org/2000/svg">
<g clip-path="url(#clip0_6496_17409)">
<path d="M-2 11.4991C14.6423 14.1143 49.1792 27.9517 54.1884 62.38" stroke="white" stroke-width="4" stroke-dasharray="7 7"/>
<path d="M318.5 190C325.833 205.167 349.1 234.2 383.5 229" stroke="white" stroke-width="4" stroke-dasharray="7 7"/>
<rect x="39.5" y="38.4994" width="275" height="280" rx="14.5" fill="white" fill-opacity="0.2" stroke="white" stroke-width="3"/>
<g filter="url(#filter0_d_6496_17409)">
<path d="M48 30.9994C48 19.9537 56.9543 10.9994 68 10.9994H307C318.046 10.9994 327 19.9537 327 30.9994V282.999C327 294.045 318.046 302.999 307 302.999H68C56.9543 302.999 48 294.045 48 282.999V30.9994Z" fill="white" shape-rendering="crispEdges"/>
<path d="M91.26 47.9994H94.5V61.9994H91.26V47.9994ZM84.9 61.9994H81.66V47.9994H84.9V61.9994ZM91.5 56.2594H84.66V53.5194H91.5V56.2594ZM102.932 62.1594C101.706 62.1594 100.626 61.9194 99.6923 61.4394C98.7723 60.9594 98.059 60.3061 97.5523 59.4794C97.0457 58.6394 96.7923 57.6861 96.7923 56.6194C96.7923 55.5394 97.039 54.5861 97.5323 53.7594C98.039 52.9194 98.7257 52.2661 99.5923 51.7994C100.459 51.3194 101.439 51.0794 102.532 51.0794C103.586 51.0794 104.532 51.3061 105.372 51.7594C106.226 52.1994 106.899 52.8394 107.392 53.6794C107.886 54.5061 108.132 55.4994 108.132 56.6594C108.132 56.7794 108.126 56.9194 108.112 57.0794C108.099 57.2261 108.086 57.3661 108.072 57.4994H99.3323V55.6794H106.432L105.232 56.2194C105.232 55.6594 105.119 55.1727 104.892 54.7594C104.666 54.3461 104.352 54.0261 103.952 53.7994C103.552 53.5594 103.086 53.4394 102.552 53.4394C102.019 53.4394 101.546 53.5594 101.132 53.7994C100.732 54.0261 100.419 54.3527 100.192 54.7794C99.9657 55.1927 99.8523 55.6861 99.8523 56.2594V56.7394C99.8523 57.3261 99.979 57.8461 100.232 58.2994C100.499 58.7394 100.866 59.0794 101.332 59.3194C101.812 59.5461 102.372 59.6594 103.012 59.6594C103.586 59.6594 104.086 59.5727 104.512 59.3994C104.952 59.2261 105.352 58.9661 105.712 58.6194L107.372 60.4194C106.879 60.9794 106.259 61.4127 105.512 61.7194C104.766 62.0127 103.906 62.1594 102.932 62.1594ZM110.21 61.9994V47.1594H113.33V61.9994H110.21ZM116.225 61.9994V47.1594H119.345V61.9994H116.225ZM127.361 62.1594C126.214 62.1594 125.194 61.9194 124.301 61.4394C123.421 60.9594 122.721 60.3061 122.201 59.4794C121.694 58.6394 121.441 57.6861 121.441 56.6194C121.441 55.5394 121.694 54.5861 122.201 53.7594C122.721 52.9194 123.421 52.2661 124.301 51.7994C125.194 51.3194 126.214 51.0794 127.361 51.0794C128.494 51.0794 129.507 51.3194 130.401 51.7994C131.294 52.2661 131.994 52.9127 132.501 53.7394C133.007 54.5661 133.261 55.5261 133.261 56.6194C133.261 57.6861 133.007 58.6394 132.501 59.4794C131.994 60.3061 131.294 60.9594 130.401 61.4394C129.507 61.9194 128.494 62.1594 127.361 62.1594ZM127.361 59.5994C127.881 59.5994 128.347 59.4794 128.761 59.2394C129.174 58.9994 129.501 58.6594 129.741 58.2194C129.981 57.7661 130.101 57.2327 130.101 56.6194C130.101 55.9927 129.981 55.4594 129.741 55.0194C129.501 54.5794 129.174 54.2394 128.761 53.9994C128.347 53.7594 127.881 53.6394 127.361 53.6394C126.841 53.6394 126.374 53.7594 125.961 53.9994C125.547 54.2394 125.214 54.5794 124.961 55.0194C124.721 55.4594 124.601 55.9927 124.601 56.6194C124.601 57.2327 124.721 57.7661 124.961 58.2194C125.214 58.6594 125.547 58.9994 125.961 59.2394C126.374 59.4794 126.841 59.5994 127.361 59.5994ZM141.23 61.9994V47.9994H144.47V61.9994H141.23ZM147.573 61.9994V51.2394H150.553V54.2794L150.133 53.3994C150.453 52.6394 150.966 52.0661 151.673 51.6794C152.379 51.2794 153.239 51.0794 154.253 51.0794V53.9594C154.119 53.9461 153.999 53.9394 153.893 53.9394C153.786 53.9261 153.673 53.9194 153.553 53.9194C152.699 53.9194 152.006 54.1661 151.473 54.6594C150.953 55.1394 150.693 55.8927 150.693 56.9194V61.9994H147.573ZM156.128 61.9994V51.2394H159.248V61.9994H156.128ZM157.688 49.7394C157.114 49.7394 156.648 49.5727 156.288 49.2394C155.928 48.9061 155.748 48.4927 155.748 47.9994C155.748 47.5061 155.928 47.0927 156.288 46.7594C156.648 46.4261 157.114 46.2594 157.688 46.2594C158.261 46.2594 158.728 46.4194 159.088 46.7394C159.448 47.0461 159.628 47.4461 159.628 47.9394C159.628 48.4594 159.448 48.8927 159.088 49.2394C158.741 49.5727 158.274 49.7394 157.688 49.7394ZM165.763 62.1594C164.843 62.1594 163.956 62.0527 163.103 61.8394C162.263 61.6127 161.596 61.3327 161.103 60.9994L162.143 58.7594C162.636 59.0661 163.216 59.3194 163.883 59.5194C164.563 59.7061 165.23 59.7994 165.883 59.7994C166.603 59.7994 167.11 59.7127 167.403 59.5394C167.71 59.3661 167.863 59.1261 167.863 58.8194C167.863 58.5661 167.743 58.3794 167.503 58.2594C167.276 58.1261 166.97 58.0261 166.583 57.9594C166.196 57.8927 165.77 57.8261 165.303 57.7594C164.85 57.6927 164.39 57.6061 163.923 57.4994C163.456 57.3794 163.03 57.2061 162.643 56.9794C162.256 56.7527 161.943 56.4461 161.703 56.0594C161.476 55.6727 161.363 55.1727 161.363 54.5594C161.363 53.8794 161.556 53.2794 161.943 52.7594C162.343 52.2394 162.916 51.8327 163.663 51.5394C164.41 51.2327 165.303 51.0794 166.343 51.0794C167.076 51.0794 167.823 51.1594 168.583 51.3194C169.343 51.4794 169.976 51.7127 170.483 52.0194L169.443 54.2394C168.923 53.9327 168.396 53.7261 167.863 53.6194C167.343 53.4994 166.836 53.4394 166.343 53.4394C165.65 53.4394 165.143 53.5327 164.823 53.7194C164.503 53.9061 164.343 54.1461 164.343 54.4394C164.343 54.7061 164.456 54.9061 164.683 55.0394C164.923 55.1727 165.236 55.2794 165.623 55.3594C166.01 55.4394 166.43 55.5127 166.883 55.5794C167.35 55.6327 167.816 55.7194 168.283 55.8394C168.75 55.9594 169.17 56.1327 169.543 56.3594C169.93 56.5727 170.243 56.8727 170.483 57.2594C170.723 57.6327 170.843 58.1261 170.843 58.7394C170.843 59.4061 170.643 59.9994 170.243 60.5194C169.843 61.0261 169.263 61.4261 168.503 61.7194C167.756 62.0127 166.843 62.1594 165.763 62.1594ZM172.988 57.1394L172.368 47.9994H176.088L175.468 57.1394H172.988ZM174.228 62.1594C173.668 62.1594 173.208 61.9794 172.848 61.6194C172.488 61.2594 172.308 60.8327 172.308 60.3394C172.308 59.8327 172.488 59.4127 172.848 59.0794C173.208 58.7327 173.668 58.5594 174.228 58.5594C174.801 58.5594 175.261 58.7327 175.608 59.0794C175.968 59.4127 176.148 59.8327 176.148 60.3394C176.148 60.8327 175.968 61.2594 175.608 61.6194C175.261 61.9794 174.801 62.1594 174.228 62.1594ZM182.773 63.3994H202.773V43.3994H182.773V63.3994ZM85.02 85.9994L80.44 71.9994H83.8L87.78 84.3994H86.1L90.26 71.9994H93.26L97.26 84.3994H95.64L99.72 71.9994H102.82L98.24 85.9994H94.76L91.22 75.1194H92.14L88.5 85.9994H85.02ZM108.948 86.1594C107.721 86.1594 106.641 85.9194 105.708 85.4394C104.788 84.9594 104.075 84.3061 103.568 83.4794C103.061 82.6394 102.808 81.6861 102.808 80.6194C102.808 79.5394 103.055 78.5861 103.548 77.7594C104.055 76.9194 104.741 76.2661 105.608 75.7994C106.475 75.3194 107.455 75.0794 108.548 75.0794C109.601 75.0794 110.548 75.3061 111.388 75.7594C112.241 76.1994 112.915 76.8394 113.408 77.6794C113.901 78.5061 114.148 79.4994 114.148 80.6594C114.148 80.7794 114.141 80.9194 114.128 81.0794C114.115 81.2261 114.101 81.3661 114.088 81.4994H105.348V79.6794H112.448L111.248 80.2194C111.248 79.6594 111.135 79.1727 110.908 78.7594C110.681 78.3461 110.368 78.0261 109.968 77.7994C109.568 77.5594 109.101 77.4394 108.568 77.4394C108.035 77.4394 107.561 77.5594 107.148 77.7994C106.748 78.0261 106.435 78.3527 106.208 78.7794C105.981 79.1927 105.868 79.6861 105.868 80.2594V80.7394C105.868 81.3261 105.995 81.8461 106.248 82.2994C106.515 82.7394 106.881 83.0794 107.348 83.3194C107.828 83.5461 108.388 83.6594 109.028 83.6594C109.601 83.6594 110.101 83.5727 110.528 83.3994C110.968 83.2261 111.368 82.9661 111.728 82.6194L113.388 84.4194C112.895 84.9794 112.275 85.4127 111.528 85.7194C110.781 86.0127 109.921 86.1594 108.948 86.1594ZM116.225 85.9994V71.1594H119.345V85.9994H116.225ZM127.441 86.1594C126.281 86.1594 125.247 85.9261 124.341 85.4594C123.434 84.9794 122.721 84.3194 122.201 83.4794C121.694 82.6394 121.441 81.6861 121.441 80.6194C121.441 79.5394 121.694 78.5861 122.201 77.7594C122.721 76.9194 123.434 76.2661 124.341 75.7994C125.247 75.3194 126.281 75.0794 127.441 75.0794C128.574 75.0794 129.561 75.3194 130.401 75.7994C131.241 76.2661 131.861 76.9394 132.261 77.8194L129.841 79.1194C129.561 78.6127 129.207 78.2394 128.781 77.9994C128.367 77.7594 127.914 77.6394 127.421 77.6394C126.887 77.6394 126.407 77.7594 125.981 77.9994C125.554 78.2394 125.214 78.5794 124.961 79.0194C124.721 79.4594 124.601 79.9927 124.601 80.6194C124.601 81.2461 124.721 81.7794 124.961 82.2194C125.214 82.6594 125.554 82.9994 125.981 83.2394C126.407 83.4794 126.887 83.5994 127.421 83.5994C127.914 83.5994 128.367 83.4861 128.781 83.2594C129.207 83.0194 129.561 82.6394 129.841 82.1194L132.261 83.4394C131.861 84.3061 131.241 84.9794 130.401 85.4594C129.561 85.9261 128.574 86.1594 127.441 86.1594ZM139.04 86.1594C137.894 86.1594 136.874 85.9194 135.98 85.4394C135.1 84.9594 134.4 84.3061 133.88 83.4794C133.374 82.6394 133.12 81.6861 133.12 80.6194C133.12 79.5394 133.374 78.5861 133.88 77.7594C134.4 76.9194 135.1 76.2661 135.98 75.7994C136.874 75.3194 137.894 75.0794 139.04 75.0794C140.174 75.0794 141.187 75.3194 142.08 75.7994C142.974 76.2661 143.674 76.9127 144.18 77.7394C144.687 78.5661 144.94 79.5261 144.94 80.6194C144.94 81.6861 144.687 82.6394 144.18 83.4794C143.674 84.3061 142.974 84.9594 142.08 85.4394C141.187 85.9194 140.174 86.1594 139.04 86.1594ZM139.04 83.5994C139.56 83.5994 140.027 83.4794 140.44 83.2394C140.854 82.9994 141.18 82.6594 141.42 82.2194C141.66 81.7661 141.78 81.2327 141.78 80.6194C141.78 79.9927 141.66 79.4594 141.42 79.0194C141.18 78.5794 140.854 78.2394 140.44 77.9994C140.027 77.7594 139.56 77.6394 139.04 77.6394C138.52 77.6394 138.054 77.7594 137.64 77.9994C137.227 78.2394 136.894 78.5794 136.64 79.0194C136.4 79.4594 136.28 79.9927 136.28 80.6194C136.28 81.2327 136.4 81.7661 136.64 82.2194C136.894 82.6594 137.227 82.9994 137.64 83.2394C138.054 83.4794 138.52 83.5994 139.04 83.5994ZM160.806 75.0794C161.659 75.0794 162.413 75.2527 163.066 75.5994C163.733 75.9327 164.253 76.4527 164.626 77.1594C165.013 77.8527 165.206 78.7461 165.206 79.8394V85.9994H162.086V80.3194C162.086 79.4527 161.906 78.8127 161.546 78.3994C161.186 77.9861 160.679 77.7794 160.026 77.7794C159.573 77.7794 159.166 77.8861 158.806 78.0994C158.446 78.2994 158.166 78.6061 157.966 79.0194C157.766 79.4327 157.666 79.9594 157.666 80.5994V85.9994H154.546V80.3194C154.546 79.4527 154.366 78.8127 154.006 78.3994C153.659 77.9861 153.159 77.7794 152.506 77.7794C152.053 77.7794 151.646 77.8861 151.286 78.0994C150.926 78.2994 150.646 78.6061 150.446 79.0194C150.246 79.4327 150.146 79.9594 150.146 80.5994V85.9994H147.026V75.2394H150.006V78.1794L149.446 77.3194C149.819 76.5861 150.346 76.0327 151.026 75.6594C151.719 75.2727 152.506 75.0794 153.386 75.0794C154.373 75.0794 155.233 75.3327 155.966 75.8394C156.713 76.3327 157.206 77.0927 157.446 78.1194L156.346 77.8194C156.706 76.9794 157.279 76.3127 158.066 75.8194C158.866 75.3261 159.779 75.0794 160.806 75.0794ZM173.421 86.1594C172.194 86.1594 171.114 85.9194 170.181 85.4394C169.261 84.9594 168.547 84.3061 168.041 83.4794C167.534 82.6394 167.281 81.6861 167.281 80.6194C167.281 79.5394 167.527 78.5861 168.021 77.7594C168.527 76.9194 169.214 76.2661 170.081 75.7994C170.947 75.3194 171.927 75.0794 173.021 75.0794C174.074 75.0794 175.021 75.3061 175.861 75.7594C176.714 76.1994 177.387 76.8394 177.881 77.6794C178.374 78.5061 178.621 79.4994 178.621 80.6594C178.621 80.7794 178.614 80.9194 178.601 81.0794C178.587 81.2261 178.574 81.3661 178.561 81.4994H169.821V79.6794H176.921L175.721 80.2194C175.721 79.6594 175.607 79.1727 175.381 78.7594C175.154 78.3461 174.841 78.0261 174.441 77.7994C174.041 77.5594 173.574 77.4394 173.041 77.4394C172.507 77.4394 172.034 77.5594 171.621 77.7994C171.221 78.0261 170.907 78.3527 170.681 78.7794C170.454 79.1927 170.341 79.6861 170.341 80.2594V80.7394C170.341 81.3261 170.467 81.8461 170.721 82.2994C170.987 82.7394 171.354 83.0794 171.821 83.3194C172.301 83.5461 172.861 83.6594 173.501 83.6594C174.074 83.6594 174.574 83.5727 175.001 83.3994C175.441 83.2261 175.841 82.9661 176.201 82.6194L177.861 84.4194C177.367 84.9794 176.747 85.4127 176.001 85.7194C175.254 86.0127 174.394 86.1594 173.421 86.1594ZM193.382 86.2394C192.275 86.2394 191.249 86.0594 190.302 85.6994C189.369 85.3394 188.555 84.8327 187.862 84.1794C187.182 83.5261 186.649 82.7594 186.262 81.8794C185.889 80.9994 185.702 80.0394 185.702 78.9994C185.702 77.9594 185.889 76.9994 186.262 76.1194C186.649 75.2394 187.189 74.4727 187.882 73.8194C188.575 73.1661 189.389 72.6594 190.322 72.2994C191.255 71.9394 192.269 71.7594 193.362 71.7594C194.469 71.7594 195.482 71.9394 196.402 72.2994C197.335 72.6594 198.142 73.1661 198.822 73.8194C199.515 74.4727 200.055 75.2394 200.442 76.1194C200.829 76.9861 201.022 77.9461 201.022 78.9994C201.022 80.0394 200.829 81.0061 200.442 81.8994C200.055 82.7794 199.515 83.5461 198.822 84.1994C198.142 84.8394 197.335 85.3394 196.402 85.6994C195.482 86.0594 194.475 86.2394 193.382 86.2394ZM193.362 83.4794C193.989 83.4794 194.562 83.3727 195.082 83.1594C195.615 82.9461 196.082 82.6394 196.482 82.2394C196.882 81.8394 197.189 81.3661 197.402 80.8194C197.629 80.2727 197.742 79.6661 197.742 78.9994C197.742 78.3327 197.629 77.7261 197.402 77.1794C197.189 76.6327 196.882 76.1594 196.482 75.7594C196.095 75.3594 195.635 75.0527 195.102 74.8394C194.569 74.6261 193.989 74.5194 193.362 74.5194C192.735 74.5194 192.155 74.6261 191.622 74.8394C191.102 75.0527 190.642 75.3594 190.242 75.7594C189.842 76.1594 189.529 76.6327 189.302 77.1794C189.089 77.7261 188.982 78.3327 188.982 78.9994C188.982 79.6527 189.089 80.2594 189.302 80.8194C189.529 81.3661 189.835 81.8394 190.222 82.2394C190.622 82.6394 191.089 82.9461 191.622 83.1594C192.155 83.3727 192.735 83.4794 193.362 83.4794ZM209.777 75.0794C210.63 75.0794 211.39 75.2527 212.057 75.5994C212.737 75.9327 213.27 76.4527 213.657 77.1594C214.044 77.8527 214.237 78.7461 214.237 79.8394V85.9994H211.117V80.3194C211.117 79.4527 210.924 78.8127 210.537 78.3994C210.164 77.9861 209.63 77.7794 208.937 77.7794C208.444 77.7794 207.997 77.8861 207.597 78.0994C207.21 78.2994 206.904 78.6127 206.677 79.0394C206.464 79.4661 206.357 80.0127 206.357 80.6794V85.9994H203.237V75.2394H206.217V78.2194L205.657 77.3194C206.044 76.5994 206.597 76.0461 207.317 75.6594C208.037 75.2727 208.857 75.0794 209.777 75.0794ZM223.425 86.1594C222.478 86.1594 221.665 85.9594 220.985 85.5594C220.305 85.1594 219.785 84.5527 219.425 83.7394C219.065 82.9127 218.885 81.8727 218.885 80.6194C218.885 79.3527 219.072 78.3127 219.445 77.4994C219.832 76.6861 220.365 76.0794 221.045 75.6794C221.725 75.2794 222.518 75.0794 223.425 75.0794C224.438 75.0794 225.345 75.3061 226.145 75.7594C226.958 76.2127 227.598 76.8527 228.065 77.6794C228.545 78.5061 228.785 79.4861 228.785 80.6194C228.785 81.7394 228.545 82.7127 228.065 83.5394C227.598 84.3661 226.958 85.0127 226.145 85.4794C225.345 85.9327 224.438 86.1594 223.425 86.1594ZM217.065 85.9994V71.1594H220.185V77.4194L219.985 80.5994L220.045 83.7994V85.9994H217.065ZM222.885 83.5994C223.405 83.5994 223.865 83.4794 224.265 83.2394C224.678 82.9994 225.005 82.6594 225.245 82.2194C225.498 81.7661 225.625 81.2327 225.625 80.6194C225.625 79.9927 225.498 79.4594 225.245 79.0194C225.005 78.5794 224.678 78.2394 224.265 77.9994C223.865 77.7594 223.405 77.6394 222.885 77.6394C222.365 77.6394 221.898 77.7594 221.485 77.9994C221.072 78.2394 220.745 78.5794 220.505 79.0194C220.265 79.4594 220.145 79.9927 220.145 80.6194C220.145 81.2327 220.265 81.7661 220.505 82.2194C220.745 82.6594 221.072 82.9994 221.485 83.2394C221.898 83.4794 222.365 83.5994 222.885 83.5994ZM235.994 86.1594C234.847 86.1594 233.827 85.9194 232.934 85.4394C232.054 84.9594 231.354 84.3061 230.834 83.4794C230.327 82.6394 230.074 81.6861 230.074 80.6194C230.074 79.5394 230.327 78.5861 230.834 77.7594C231.354 76.9194 232.054 76.2661 232.934 75.7994C233.827 75.3194 234.847 75.0794 235.994 75.0794C237.127 75.0794 238.14 75.3194 239.034 75.7994C239.927 76.2661 240.627 76.9127 241.134 77.7394C241.64 78.5661 241.894 79.5261 241.894 80.6194C241.894 81.6861 241.64 82.6394 241.134 83.4794C240.627 84.3061 239.927 84.9594 239.034 85.4394C238.14 85.9194 237.127 86.1594 235.994 86.1594ZM235.994 83.5994C236.514 83.5994 236.98 83.4794 237.394 83.2394C237.807 82.9994 238.134 82.6594 238.374 82.2194C238.614 81.7661 238.734 81.2327 238.734 80.6194C238.734 79.9927 238.614 79.4594 238.374 79.0194C238.134 78.5794 237.807 78.2394 237.394 77.9994C236.98 77.7594 236.514 77.6394 235.994 77.6394C235.474 77.6394 235.007 77.7594 234.594 77.9994C234.18 78.2394 233.847 78.5794 233.594 79.0194C233.354 79.4594 233.234 79.9927 233.234 80.6194C233.234 81.2327 233.354 81.7661 233.594 82.2194C233.847 82.6594 234.18 82.9994 234.594 83.2394C235.007 83.4794 235.474 83.5994 235.994 83.5994ZM250.403 85.9994V83.8994L250.203 83.4394V79.6794C250.203 79.0127 249.997 78.4927 249.583 78.1194C249.183 77.7461 248.563 77.5594 247.723 77.5594C247.15 77.5594 246.583 77.6527 246.023 77.8394C245.477 78.0127 245.01 78.2527 244.623 78.5594L243.503 76.3794C244.09 75.9661 244.797 75.6461 245.623 75.4194C246.45 75.1927 247.29 75.0794 248.143 75.0794C249.783 75.0794 251.057 75.4661 251.963 76.2394C252.87 77.0127 253.323 78.2194 253.323 79.8594V85.9994H250.403ZM247.123 86.1594C246.283 86.1594 245.563 86.0194 244.963 85.7394C244.363 85.4461 243.903 85.0527 243.583 84.5594C243.263 84.0661 243.103 83.5127 243.103 82.8994C243.103 82.2594 243.257 81.6994 243.563 81.2194C243.883 80.7394 244.383 80.3661 245.063 80.0994C245.743 79.8194 246.63 79.6794 247.723 79.6794H250.583V81.4994H248.063C247.33 81.4994 246.823 81.6194 246.543 81.8594C246.277 82.0994 246.143 82.3994 246.143 82.7594C246.143 83.1594 246.297 83.4794 246.603 83.7194C246.923 83.9461 247.357 84.0594 247.903 84.0594C248.423 84.0594 248.89 83.9394 249.303 83.6994C249.717 83.4461 250.017 83.0794 250.203 82.5994L250.683 84.0394C250.457 84.7327 250.043 85.2594 249.443 85.6194C248.843 85.9794 248.07 86.1594 247.123 86.1594ZM256.147 85.9994V75.2394H259.127V78.2794L258.707 77.3994C259.027 76.6394 259.54 76.0661 260.247 75.6794C260.954 75.2794 261.814 75.0794 262.827 75.0794V77.9594C262.694 77.9461 262.574 77.9394 262.467 77.9394C262.36 77.9261 262.247 77.9194 262.127 77.9194C261.274 77.9194 260.58 78.1661 260.047 78.6594C259.527 79.1394 259.267 79.8927 259.267 80.9194V85.9994H256.147ZM269.224 86.1594C268.211 86.1594 267.297 85.9327 266.484 85.4794C265.671 85.0127 265.024 84.3661 264.544 83.5394C264.077 82.7127 263.844 81.7394 263.844 80.6194C263.844 79.4861 264.077 78.5061 264.544 77.6794C265.024 76.8527 265.671 76.2127 266.484 75.7594C267.297 75.3061 268.211 75.0794 269.224 75.0794C270.131 75.0794 270.924 75.2794 271.604 75.6794C272.284 76.0794 272.811 76.6861 273.184 77.4994C273.557 78.3127 273.744 79.3527 273.744 80.6194C273.744 81.8727 273.564 82.9127 273.204 83.7394C272.844 84.5527 272.324 85.1594 271.644 85.5594C270.977 85.9594 270.171 86.1594 269.224 86.1594ZM269.764 83.5994C270.271 83.5994 270.731 83.4794 271.144 83.2394C271.557 82.9994 271.884 82.6594 272.124 82.2194C272.377 81.7661 272.504 81.2327 272.504 80.6194C272.504 79.9927 272.377 79.4594 272.124 79.0194C271.884 78.5794 271.557 78.2394 271.144 77.9994C270.731 77.7594 270.271 77.6394 269.764 77.6394C269.244 77.6394 268.777 77.7594 268.364 77.9994C267.951 78.2394 267.617 78.5794 267.364 79.0194C267.124 79.4594 267.004 79.9927 267.004 80.6194C267.004 81.2327 267.124 81.7661 267.364 82.2194C267.617 82.6594 267.951 82.9994 268.364 83.2394C268.777 83.4794 269.244 83.5994 269.764 83.5994ZM272.584 85.9994V83.7994L272.644 80.5994L272.444 77.4194V71.1594H275.564V85.9994H272.584ZM278.672 81.1394L278.052 71.9994H281.772L281.152 81.1394H278.672ZM279.912 86.1594C279.352 86.1594 278.892 85.9794 278.532 85.6194C278.172 85.2594 277.992 84.8327 277.992 84.3394C277.992 83.8327 278.172 83.4127 278.532 83.0794C278.892 82.7327 279.352 82.5594 279.912 82.5594C280.485 82.5594 280.945 82.7327 281.292 83.0794C281.652 83.4127 281.832 83.8327 281.832 84.3394C281.832 84.8327 281.652 85.2594 281.292 85.6194C280.945 85.9794 280.485 86.1594 279.912 86.1594Z" fill="#1A1B1F"/>
<path d="M81.68 110.999V99.7994H83.28V109.607H89.344V110.999H81.68ZM94.6226 111.095C93.716 111.095 92.916 110.909 92.2226 110.535C91.54 110.162 91.0066 109.65 90.6226 108.999C90.2493 108.349 90.0626 107.602 90.0626 106.759C90.0626 105.917 90.244 105.17 90.6066 104.519C90.98 103.869 91.4866 103.362 92.1266 102.999C92.7773 102.626 93.508 102.439 94.3186 102.439C95.14 102.439 95.8653 102.621 96.4946 102.983C97.124 103.346 97.6146 103.858 97.9666 104.519C98.3293 105.17 98.5106 105.933 98.5106 106.807C98.5106 106.871 98.5053 106.946 98.4946 107.031C98.4946 107.117 98.4893 107.197 98.4786 107.271H91.2626V106.167H97.6786L97.0546 106.551C97.0653 106.007 96.9533 105.522 96.7186 105.095C96.484 104.669 96.1586 104.338 95.7426 104.103C95.3373 103.858 94.8626 103.735 94.3186 103.735C93.7853 103.735 93.3106 103.858 92.8946 104.103C92.4786 104.338 92.1533 104.674 91.9186 105.111C91.684 105.538 91.5666 106.029 91.5666 106.583V106.839C91.5666 107.405 91.6946 107.911 91.9506 108.359C92.2173 108.797 92.5853 109.138 93.0546 109.383C93.524 109.629 94.0626 109.751 94.6706 109.751C95.172 109.751 95.6253 109.666 96.0306 109.495C96.4466 109.325 96.8093 109.069 97.1186 108.727L97.9666 109.719C97.5826 110.167 97.1026 110.509 96.5266 110.743C95.9613 110.978 95.3266 111.095 94.6226 111.095ZM103.556 111.095C102.702 111.095 102.041 110.866 101.572 110.407C101.102 109.949 100.868 109.293 100.868 108.439V100.663H102.404V108.375C102.404 108.834 102.516 109.186 102.74 109.431C102.974 109.677 103.305 109.799 103.732 109.799C104.212 109.799 104.612 109.666 104.932 109.399L105.412 110.503C105.177 110.706 104.894 110.855 104.564 110.951C104.244 111.047 103.908 111.095 103.556 111.095ZM99.4275 103.783V102.519H104.836V103.783H99.4275ZM106.917 104.119L106.821 99.7994H108.164L108.053 104.119H106.917ZM113.06 111.095C112.356 111.095 111.684 110.999 111.044 110.807C110.415 110.615 109.919 110.381 109.556 110.103L110.196 108.887C110.559 109.133 111.007 109.341 111.54 109.511C112.073 109.682 112.617 109.767 113.172 109.767C113.887 109.767 114.399 109.666 114.708 109.463C115.028 109.261 115.188 108.978 115.188 108.615C115.188 108.349 115.092 108.141 114.9 107.991C114.708 107.842 114.452 107.73 114.132 107.655C113.823 107.581 113.476 107.517 113.092 107.463C112.708 107.399 112.324 107.325 111.94 107.239C111.556 107.143 111.204 107.015 110.884 106.855C110.564 106.685 110.308 106.455 110.116 106.167C109.924 105.869 109.828 105.474 109.828 104.983C109.828 104.471 109.972 104.023 110.26 103.639C110.548 103.255 110.953 102.962 111.476 102.759C112.009 102.546 112.639 102.439 113.364 102.439C113.919 102.439 114.479 102.509 115.044 102.647C115.62 102.775 116.089 102.962 116.452 103.207L115.796 104.423C115.412 104.167 115.012 103.991 114.596 103.895C114.18 103.799 113.764 103.751 113.348 103.751C112.676 103.751 112.175 103.863 111.844 104.087C111.513 104.301 111.348 104.578 111.348 104.919C111.348 105.207 111.444 105.431 111.636 105.591C111.839 105.741 112.095 105.858 112.404 105.943C112.724 106.029 113.076 106.103 113.46 106.167C113.844 106.221 114.228 106.295 114.612 106.391C114.996 106.477 115.343 106.599 115.652 106.759C115.972 106.919 116.228 107.143 116.42 107.431C116.623 107.719 116.724 108.103 116.724 108.583C116.724 109.095 116.575 109.538 116.276 109.911C115.977 110.285 115.556 110.578 115.012 110.791C114.468 110.994 113.817 111.095 113.06 111.095ZM126.652 114.199C125.874 114.199 125.116 114.087 124.38 113.863C123.655 113.65 123.063 113.341 122.604 112.935L123.34 111.751C123.735 112.093 124.22 112.359 124.796 112.551C125.372 112.754 125.975 112.855 126.604 112.855C127.607 112.855 128.343 112.621 128.812 112.151C129.282 111.682 129.516 110.967 129.516 110.007V108.215L129.676 106.535L129.596 104.839V102.519H131.052V109.847C131.052 111.341 130.679 112.439 129.932 113.143C129.186 113.847 128.092 114.199 126.652 114.199ZM126.46 110.647C125.639 110.647 124.903 110.477 124.252 110.135C123.612 109.783 123.1 109.298 122.716 108.679C122.343 108.061 122.156 107.346 122.156 106.535C122.156 105.714 122.343 104.999 122.716 104.391C123.1 103.773 123.612 103.293 124.252 102.951C124.903 102.61 125.639 102.439 126.46 102.439C127.186 102.439 127.847 102.589 128.444 102.887C129.042 103.175 129.516 103.623 129.868 104.231C130.231 104.839 130.412 105.607 130.412 106.535C130.412 107.453 130.231 108.215 129.868 108.823C129.516 109.431 129.042 109.89 128.444 110.199C127.847 110.498 127.186 110.647 126.46 110.647ZM126.636 109.303C127.202 109.303 127.703 109.186 128.14 108.951C128.578 108.717 128.919 108.391 129.164 107.975C129.42 107.559 129.548 107.079 129.548 106.535C129.548 105.991 129.42 105.511 129.164 105.095C128.919 104.679 128.578 104.359 128.14 104.135C127.703 103.901 127.202 103.783 126.636 103.783C126.071 103.783 125.564 103.901 125.116 104.135C124.679 104.359 124.332 104.679 124.076 105.095C123.831 105.511 123.708 105.991 123.708 106.535C123.708 107.079 123.831 107.559 124.076 107.975C124.332 108.391 124.679 108.717 125.116 108.951C125.564 109.186 126.071 109.303 126.636 109.303ZM137.763 111.095C136.857 111.095 136.057 110.909 135.363 110.535C134.681 110.162 134.147 109.65 133.763 108.999C133.39 108.349 133.203 107.602 133.203 106.759C133.203 105.917 133.385 105.17 133.747 104.519C134.121 103.869 134.627 103.362 135.267 102.999C135.918 102.626 136.649 102.439 137.459 102.439C138.281 102.439 139.006 102.621 139.635 102.983C140.265 103.346 140.755 103.858 141.107 104.519C141.47 105.17 141.651 105.933 141.651 106.807C141.651 106.871 141.646 106.946 141.635 107.031C141.635 107.117 141.63 107.197 141.619 107.271H134.403V106.167H140.819L140.195 106.551C140.206 106.007 140.094 105.522 139.859 105.095C139.625 104.669 139.299 104.338 138.883 104.103C138.478 103.858 138.003 103.735 137.459 103.735C136.926 103.735 136.451 103.858 136.035 104.103C135.619 104.338 135.294 104.674 135.059 105.111C134.825 105.538 134.707 106.029 134.707 106.583V106.839C134.707 107.405 134.835 107.911 135.091 108.359C135.358 108.797 135.726 109.138 136.195 109.383C136.665 109.629 137.203 109.751 137.811 109.751C138.313 109.751 138.766 109.666 139.171 109.495C139.587 109.325 139.95 109.069 140.259 108.727L141.107 109.719C140.723 110.167 140.243 110.509 139.667 110.743C139.102 110.978 138.467 111.095 137.763 111.095ZM146.696 111.095C145.843 111.095 145.181 110.866 144.712 110.407C144.243 109.949 144.008 109.293 144.008 108.439V100.663H145.544V108.375C145.544 108.834 145.656 109.186 145.88 109.431C146.115 109.677 146.445 109.799 146.872 109.799C147.352 109.799 147.752 109.666 148.072 109.399L148.552 110.503C148.317 110.706 148.035 110.855 147.704 110.951C147.384 111.047 147.048 111.095 146.696 111.095ZM142.568 103.783V102.519H147.976V103.783H142.568ZM157.138 111.095C156.434 111.095 155.762 110.999 155.122 110.807C154.493 110.615 153.997 110.381 153.634 110.103L154.274 108.887C154.637 109.133 155.085 109.341 155.618 109.511C156.151 109.682 156.695 109.767 157.25 109.767C157.965 109.767 158.477 109.666 158.786 109.463C159.106 109.261 159.266 108.978 159.266 108.615C159.266 108.349 159.17 108.141 158.978 107.991C158.786 107.842 158.53 107.73 158.21 107.655C157.901 107.581 157.554 107.517 157.17 107.463C156.786 107.399 156.402 107.325 156.018 107.239C155.634 107.143 155.282 107.015 154.962 106.855C154.642 106.685 154.386 106.455 154.194 106.167C154.002 105.869 153.906 105.474 153.906 104.983C153.906 104.471 154.05 104.023 154.338 103.639C154.626 103.255 155.031 102.962 155.554 102.759C156.087 102.546 156.717 102.439 157.442 102.439C157.997 102.439 158.557 102.509 159.122 102.647C159.698 102.775 160.167 102.962 160.53 103.207L159.874 104.423C159.49 104.167 159.09 103.991 158.674 103.895C158.258 103.799 157.842 103.751 157.426 103.751C156.754 103.751 156.253 103.863 155.922 104.087C155.591 104.301 155.426 104.578 155.426 104.919C155.426 105.207 155.522 105.431 155.714 105.591C155.917 105.741 156.173 105.858 156.482 105.943C156.802 106.029 157.154 106.103 157.538 106.167C157.922 106.221 158.306 106.295 158.69 106.391C159.074 106.477 159.421 106.599 159.73 106.759C160.05 106.919 160.306 107.143 160.498 107.431C160.701 107.719 160.802 108.103 160.802 108.583C160.802 109.095 160.653 109.538 160.354 109.911C160.055 110.285 159.634 110.578 159.09 110.791C158.546 110.994 157.895 111.095 157.138 111.095ZM165.634 111.095C164.78 111.095 164.119 110.866 163.65 110.407C163.18 109.949 162.946 109.293 162.946 108.439V100.663H164.482V108.375C164.482 108.834 164.594 109.186 164.818 109.431C165.052 109.677 165.383 109.799 165.81 109.799C166.29 109.799 166.69 109.666 167.01 109.399L167.49 110.503C167.255 110.706 166.972 110.855 166.642 110.951C166.322 111.047 165.986 111.095 165.634 111.095ZM161.506 103.783V102.519H166.914V103.783H161.506ZM174.611 110.999V109.207L174.531 108.871V105.815C174.531 105.165 174.339 104.663 173.955 104.311C173.581 103.949 173.016 103.767 172.259 103.767C171.757 103.767 171.267 103.853 170.787 104.023C170.307 104.183 169.901 104.402 169.571 104.679L168.931 103.527C169.368 103.175 169.891 102.909 170.499 102.727C171.117 102.535 171.763 102.439 172.435 102.439C173.597 102.439 174.493 102.722 175.123 103.287C175.752 103.853 176.067 104.717 176.067 105.879V110.999H174.611ZM171.827 111.095C171.197 111.095 170.643 110.989 170.163 110.775C169.693 110.562 169.331 110.269 169.075 109.895C168.819 109.511 168.691 109.079 168.691 108.599C168.691 108.141 168.797 107.725 169.011 107.351C169.235 106.978 169.592 106.679 170.083 106.455C170.584 106.231 171.256 106.119 172.099 106.119H174.787V107.223H172.163C171.395 107.223 170.877 107.351 170.611 107.607C170.344 107.863 170.211 108.173 170.211 108.535C170.211 108.951 170.376 109.287 170.707 109.543C171.037 109.789 171.496 109.911 172.083 109.911C172.659 109.911 173.16 109.783 173.587 109.527C174.024 109.271 174.339 108.898 174.531 108.407L174.835 109.463C174.632 109.965 174.275 110.365 173.763 110.663C173.251 110.951 172.605 111.095 171.827 111.095ZM178.909 110.999V102.519H180.381V104.823L180.237 104.247C180.472 103.661 180.866 103.213 181.421 102.903C181.976 102.594 182.658 102.439 183.469 102.439V103.927C183.405 103.917 183.341 103.911 183.277 103.911C183.224 103.911 183.17 103.911 183.117 103.911C182.296 103.911 181.645 104.157 181.165 104.647C180.685 105.138 180.445 105.847 180.445 106.775V110.999H178.909ZM188.618 111.095C187.765 111.095 187.103 110.866 186.634 110.407C186.165 109.949 185.93 109.293 185.93 108.439V100.663H187.466V108.375C187.466 108.834 187.578 109.186 187.802 109.431C188.037 109.677 188.367 109.799 188.794 109.799C189.274 109.799 189.674 109.666 189.994 109.399L190.474 110.503C190.239 110.706 189.957 110.855 189.626 110.951C189.306 111.047 188.97 111.095 188.618 111.095ZM184.49 103.783V102.519H189.898V103.783H184.49ZM195.826 111.095C194.919 111.095 194.119 110.909 193.426 110.535C192.743 110.162 192.21 109.65 191.826 108.999C191.452 108.349 191.266 107.602 191.266 106.759C191.266 105.917 191.447 105.17 191.81 104.519C192.183 103.869 192.69 103.362 193.33 102.999C193.98 102.626 194.711 102.439 195.522 102.439C196.343 102.439 197.068 102.621 197.698 102.983C198.327 103.346 198.818 103.858 199.17 104.519C199.532 105.17 199.714 105.933 199.714 106.807C199.714 106.871 199.708 106.946 199.698 107.031C199.698 107.117 199.692 107.197 199.682 107.271H192.466V106.167H198.882L198.258 106.551C198.268 106.007 198.156 105.522 197.922 105.095C197.687 104.669 197.362 104.338 196.946 104.103C196.54 103.858 196.066 103.735 195.522 103.735C194.988 103.735 194.514 103.858 194.098 104.103C193.682 104.338 193.356 104.674 193.122 105.111C192.887 105.538 192.77 106.029 192.77 106.583V106.839C192.77 107.405 192.898 107.911 193.154 108.359C193.42 108.797 193.788 109.138 194.258 109.383C194.727 109.629 195.266 109.751 195.874 109.751C196.375 109.751 196.828 109.666 197.234 109.495C197.65 109.325 198.012 109.069 198.322 108.727L199.17 109.719C198.786 110.167 198.306 110.509 197.73 110.743C197.164 110.978 196.53 111.095 195.826 111.095ZM205.351 111.095C204.529 111.095 203.793 110.914 203.143 110.551C202.503 110.189 201.996 109.682 201.623 109.031C201.249 108.381 201.063 107.623 201.063 106.759C201.063 105.895 201.249 105.143 201.623 104.503C201.996 103.853 202.503 103.346 203.143 102.983C203.793 102.621 204.529 102.439 205.351 102.439C206.065 102.439 206.711 102.599 207.287 102.919C207.863 103.239 208.321 103.719 208.663 104.359C209.015 104.999 209.191 105.799 209.191 106.759C209.191 107.719 209.02 108.519 208.679 109.159C208.348 109.799 207.895 110.285 207.319 110.615C206.743 110.935 206.087 111.095 205.351 111.095ZM205.479 109.751C206.012 109.751 206.492 109.629 206.919 109.383C207.356 109.138 207.697 108.791 207.943 108.343C208.199 107.885 208.327 107.357 208.327 106.759C208.327 106.151 208.199 105.629 207.943 105.191C207.697 104.743 207.356 104.397 206.919 104.151C206.492 103.906 206.012 103.783 205.479 103.783C204.935 103.783 204.449 103.906 204.023 104.151C203.596 104.397 203.255 104.743 202.999 105.191C202.743 105.629 202.615 106.151 202.615 106.759C202.615 107.357 202.743 107.885 202.999 108.343C203.255 108.791 203.596 109.138 204.023 109.383C204.449 109.629 204.935 109.751 205.479 109.751ZM208.375 110.999V108.711L208.471 106.743L208.311 104.775V99.1274H209.847V110.999H208.375Z" fill="#1A1B1F"/>
<rect x="80" y="132.999" width="215" height="44" rx="22" fill="#EAEAEA"/>
<path d="M100.944 161.127C100.091 161.127 99.2747 160.999 98.496 160.743C97.7173 160.477 97.104 160.135 96.656 159.719L97.248 158.471C97.6747 158.845 98.2187 159.154 98.88 159.399C99.5413 159.645 100.229 159.767 100.944 159.767C101.595 159.767 102.123 159.693 102.528 159.543C102.933 159.394 103.232 159.191 103.424 158.935C103.616 158.669 103.712 158.37 103.712 158.039C103.712 157.655 103.584 157.346 103.328 157.111C103.083 156.877 102.757 156.69 102.352 156.551C101.957 156.402 101.52 156.274 101.04 156.167C100.56 156.061 100.075 155.938 99.584 155.799C99.104 155.65 98.6613 155.463 98.256 155.239C97.8613 155.015 97.5413 154.717 97.296 154.343C97.0507 153.959 96.928 153.469 96.928 152.871C96.928 152.295 97.0773 151.767 97.376 151.287C97.6853 150.797 98.1547 150.407 98.784 150.119C99.424 149.821 100.235 149.671 101.216 149.671C101.867 149.671 102.512 149.757 103.152 149.927C103.792 150.098 104.347 150.343 104.816 150.663L104.288 151.943C103.808 151.623 103.301 151.394 102.768 151.255C102.235 151.106 101.717 151.031 101.216 151.031C100.587 151.031 100.069 151.111 99.664 151.271C99.2587 151.431 98.96 151.645 98.768 151.911C98.5867 152.178 98.496 152.477 98.496 152.807C98.496 153.202 98.6187 153.517 98.864 153.751C99.12 153.986 99.4453 154.173 99.84 154.311C100.245 154.45 100.688 154.578 101.168 154.695C101.648 154.802 102.128 154.925 102.608 155.063C103.099 155.202 103.541 155.383 103.936 155.607C104.341 155.831 104.667 156.13 104.912 156.503C105.157 156.877 105.28 157.357 105.28 157.943C105.28 158.509 105.125 159.037 104.816 159.527C104.507 160.007 104.027 160.397 103.376 160.695C102.736 160.983 101.925 161.127 100.944 161.127ZM111.922 152.439C112.615 152.439 113.223 152.573 113.746 152.839C114.279 153.106 114.695 153.511 114.994 154.055C115.292 154.599 115.442 155.287 115.442 156.119V160.999H113.906V156.295C113.906 155.474 113.703 154.855 113.298 154.439C112.903 154.023 112.343 153.815 111.618 153.815C111.074 153.815 110.599 153.922 110.194 154.135C109.788 154.349 109.474 154.663 109.25 155.079C109.036 155.495 108.93 156.013 108.93 156.631V160.999H107.394V149.127H108.93V154.807L108.626 154.199C108.903 153.645 109.33 153.213 109.906 152.903C110.482 152.594 111.154 152.439 111.922 152.439ZM121.916 161.095C121.063 161.095 120.305 160.909 119.644 160.535C118.983 160.162 118.46 159.65 118.076 158.999C117.692 158.338 117.5 157.591 117.5 156.759C117.5 155.917 117.692 155.17 118.076 154.519C118.46 153.869 118.983 153.362 119.644 152.999C120.305 152.626 121.063 152.439 121.916 152.439C122.759 152.439 123.511 152.626 124.172 152.999C124.844 153.362 125.367 153.869 125.74 154.519C126.124 155.159 126.316 155.906 126.316 156.759C126.316 157.602 126.124 158.349 125.74 158.999C125.367 159.65 124.844 160.162 124.172 160.535C123.511 160.909 122.759 161.095 121.916 161.095ZM121.916 159.751C122.46 159.751 122.945 159.629 123.372 159.383C123.809 159.138 124.151 158.791 124.396 158.343C124.641 157.885 124.764 157.357 124.764 156.759C124.764 156.151 124.641 155.629 124.396 155.191C124.151 154.743 123.809 154.397 123.372 154.151C122.945 153.906 122.46 153.783 121.916 153.783C121.372 153.783 120.887 153.906 120.46 154.151C120.033 154.397 119.692 154.743 119.436 155.191C119.18 155.629 119.052 156.151 119.052 156.759C119.052 157.357 119.18 157.885 119.436 158.343C119.692 158.791 120.033 159.138 120.46 159.383C120.887 159.629 121.372 159.751 121.916 159.751ZM129.998 160.999L126.846 152.519H128.302L131.102 160.199H130.414L133.326 152.519H134.622L137.47 160.199H136.798L139.662 152.519H141.038L137.87 160.999H136.398L133.726 153.991H134.174L131.47 160.999H129.998ZM157.502 152.439C158.184 152.439 158.787 152.573 159.31 152.839C159.832 153.106 160.238 153.511 160.526 154.055C160.824 154.599 160.974 155.287 160.974 156.119V160.999H159.438V156.295C159.438 155.474 159.246 154.855 158.862 154.439C158.478 154.023 157.939 153.815 157.246 153.815C156.734 153.815 156.286 153.922 155.902 154.135C155.518 154.349 155.219 154.663 155.006 155.079C154.803 155.495 154.702 156.013 154.702 156.631V160.999H153.166V156.295C153.166 155.474 152.974 154.855 152.59 154.439C152.216 154.023 151.678 153.815 150.974 153.815C150.472 153.815 150.03 153.922 149.646 154.135C149.262 154.349 148.963 154.663 148.75 155.079C148.536 155.495 148.43 156.013 148.43 156.631V160.999H146.894V152.519H148.366V154.775L148.126 154.199C148.392 153.645 148.803 153.213 149.358 152.903C149.912 152.594 150.558 152.439 151.294 152.439C152.104 152.439 152.803 152.642 153.39 153.047C153.976 153.442 154.36 154.045 154.542 154.855L153.918 154.599C154.174 153.949 154.622 153.426 155.262 153.031C155.902 152.637 156.648 152.439 157.502 152.439ZM167.576 161.095C166.669 161.095 165.869 160.909 165.176 160.535C164.493 160.162 163.96 159.65 163.576 158.999C163.202 158.349 163.016 157.602 163.016 156.759C163.016 155.917 163.197 155.17 163.56 154.519C163.933 153.869 164.44 153.362 165.08 152.999C165.73 152.626 166.461 152.439 167.272 152.439C168.093 152.439 168.818 152.621 169.448 152.983C170.077 153.346 170.568 153.858 170.92 154.519C171.282 155.17 171.464 155.933 171.464 156.807C171.464 156.871 171.458 156.946 171.448 157.031C171.448 157.117 171.442 157.197 171.432 157.271H164.216V156.167H170.632L170.008 156.551C170.018 156.007 169.906 155.522 169.672 155.095C169.437 154.669 169.112 154.338 168.696 154.103C168.29 153.858 167.816 153.735 167.272 153.735C166.738 153.735 166.264 153.858 165.848 154.103C165.432 154.338 165.106 154.674 164.872 155.111C164.637 155.538 164.52 156.029 164.52 156.583V156.839C164.52 157.405 164.648 157.911 164.904 158.359C165.17 158.797 165.538 159.138 166.008 159.383C166.477 159.629 167.016 159.751 167.624 159.751C168.125 159.751 168.578 159.666 168.984 159.495C169.4 159.325 169.762 159.069 170.072 158.727L170.92 159.719C170.536 160.167 170.056 160.509 169.48 160.743C168.914 160.978 168.28 161.095 167.576 161.095ZM178.118 160.999V149.799H179.718V160.999H178.118ZM187.375 152.439C188.068 152.439 188.676 152.573 189.199 152.839C189.732 153.106 190.148 153.511 190.447 154.055C190.745 154.599 190.895 155.287 190.895 156.119V160.999H189.359V156.295C189.359 155.474 189.156 154.855 188.751 154.439C188.356 154.023 187.796 153.815 187.071 153.815C186.527 153.815 186.052 153.922 185.647 154.135C185.241 154.349 184.927 154.663 184.703 155.079C184.489 155.495 184.383 156.013 184.383 156.631V160.999H182.847V152.519H184.319V154.807L184.079 154.199C184.356 153.645 184.783 153.213 185.359 152.903C185.935 152.594 186.607 152.439 187.375 152.439ZM193.737 160.999V152.519H195.273V160.999H193.737ZM194.505 150.887C194.207 150.887 193.956 150.791 193.753 150.599C193.561 150.407 193.465 150.173 193.465 149.895C193.465 149.607 193.561 149.367 193.753 149.175C193.956 148.983 194.207 148.887 194.505 148.887C194.804 148.887 195.049 148.983 195.241 149.175C195.444 149.357 195.545 149.586 195.545 149.863C195.545 150.151 195.449 150.397 195.257 150.599C195.065 150.791 194.815 150.887 194.505 150.887ZM208.814 152.439C209.497 152.439 210.099 152.573 210.622 152.839C211.145 153.106 211.55 153.511 211.838 154.055C212.137 154.599 212.286 155.287 212.286 156.119V160.999H210.75V156.295C210.75 155.474 210.558 154.855 210.174 154.439C209.79 154.023 209.251 153.815 208.558 153.815C208.046 153.815 207.598 153.922 207.214 154.135C206.83 154.349 206.531 154.663 206.318 155.079C206.115 155.495 206.014 156.013 206.014 156.631V160.999H204.478V156.295C204.478 155.474 204.286 154.855 203.902 154.439C203.529 154.023 202.99 153.815 202.286 153.815C201.785 153.815 201.342 153.922 200.958 154.135C200.574 154.349 200.275 154.663 200.062 155.079C199.849 155.495 199.742 156.013 199.742 156.631V160.999H198.206V152.519H199.678V154.775L199.438 154.199C199.705 153.645 200.115 153.213 200.67 152.903C201.225 152.594 201.87 152.439 202.606 152.439C203.417 152.439 204.115 152.642 204.702 153.047C205.289 153.442 205.673 154.045 205.854 154.855L205.23 154.599C205.486 153.949 205.934 153.426 206.574 153.031C207.214 152.637 207.961 152.439 208.814 152.439ZM219.608 161.095C218.883 161.095 218.227 160.935 217.64 160.615C217.064 160.285 216.606 159.799 216.264 159.159C215.934 158.519 215.768 157.719 215.768 156.759C215.768 155.799 215.939 154.999 216.28 154.359C216.632 153.719 217.096 153.239 217.672 152.919C218.259 152.599 218.904 152.439 219.608 152.439C220.44 152.439 221.176 152.621 221.816 152.983C222.456 153.346 222.963 153.853 223.336 154.503C223.71 155.143 223.896 155.895 223.896 156.759C223.896 157.623 223.71 158.381 223.336 159.031C222.963 159.682 222.456 160.189 221.816 160.551C221.176 160.914 220.44 161.095 219.608 161.095ZM215.112 160.999V149.127H216.648V154.775L216.488 156.743L216.584 158.711V160.999H215.112ZM219.48 159.751C220.024 159.751 220.51 159.629 220.936 159.383C221.374 159.138 221.715 158.791 221.96 158.343C222.216 157.885 222.344 157.357 222.344 156.759C222.344 156.151 222.216 155.629 221.96 155.191C221.715 154.743 221.374 154.397 220.936 154.151C220.51 153.906 220.024 153.783 219.48 153.783C218.947 153.783 218.462 153.906 218.024 154.151C217.598 154.397 217.256 154.743 217 155.191C216.755 155.629 216.632 156.151 216.632 156.759C216.632 157.357 216.755 157.885 217 158.343C217.256 158.791 217.598 159.138 218.024 159.383C218.462 159.629 218.947 159.751 219.48 159.751ZM226.019 160.999V149.127H227.555V160.999H226.019ZM234.263 161.095C233.357 161.095 232.557 160.909 231.863 160.535C231.181 160.162 230.647 159.65 230.263 158.999C229.89 158.349 229.703 157.602 229.703 156.759C229.703 155.917 229.885 155.17 230.247 154.519C230.621 153.869 231.127 153.362 231.767 152.999C232.418 152.626 233.149 152.439 233.959 152.439C234.781 152.439 235.506 152.621 236.135 152.983C236.765 153.346 237.255 153.858 237.607 154.519C237.97 155.17 238.151 155.933 238.151 156.807C238.151 156.871 238.146 156.946 238.135 157.031C238.135 157.117 238.13 157.197 238.119 157.271H230.903V156.167H237.319L236.695 156.551C236.706 156.007 236.594 155.522 236.359 155.095C236.125 154.669 235.799 154.338 235.383 154.103C234.978 153.858 234.503 153.735 233.959 153.735C233.426 153.735 232.951 153.858 232.535 154.103C232.119 154.338 231.794 154.674 231.559 155.111C231.325 155.538 231.207 156.029 231.207 156.583V156.839C231.207 157.405 231.335 157.911 231.591 158.359C231.858 158.797 232.226 159.138 232.695 159.383C233.165 159.629 233.703 159.751 234.311 159.751C234.813 159.751 235.266 159.666 235.671 159.495C236.087 159.325 236.45 159.069 236.759 158.727L237.607 159.719C237.223 160.167 236.743 160.509 236.167 160.743C235.602 160.978 234.967 161.095 234.263 161.095ZM240.364 157.463L240.076 149.799H241.884L241.58 157.463H240.364ZM240.988 161.095C240.689 161.095 240.439 160.994 240.236 160.791C240.033 160.589 239.932 160.349 239.932 160.071C239.932 159.773 240.033 159.527 240.236 159.335C240.439 159.143 240.689 159.047 240.988 159.047C241.287 159.047 241.532 159.143 241.724 159.335C241.916 159.527 242.012 159.773 242.012 160.071C242.012 160.349 241.916 160.589 241.724 160.791C241.532 160.994 241.287 161.095 240.988 161.095Z" fill="#1A1B1F"/>
<rect x="80" y="186.999" width="215" height="44" rx="22" fill="#EAEAEA"/>
<path d="M97.68 214.999V203.799H102.4C103.595 203.799 104.645 204.034 105.552 204.503C106.469 204.973 107.179 205.629 107.68 206.471C108.192 207.314 108.448 208.29 108.448 209.399C108.448 210.509 108.192 211.485 107.68 212.327C107.179 213.17 106.469 213.826 105.552 214.295C104.645 214.765 103.595 214.999 102.4 214.999H97.68ZM99.28 213.607H102.304C103.232 213.607 104.032 213.431 104.704 213.079C105.387 212.727 105.915 212.237 106.288 211.607C106.661 210.967 106.848 210.231 106.848 209.399C106.848 208.557 106.661 207.821 106.288 207.191C105.915 206.562 105.387 206.071 104.704 205.719C104.032 205.367 103.232 205.191 102.304 205.191H99.28V213.607ZM114.307 215.095C113.453 215.095 112.696 214.909 112.035 214.535C111.373 214.162 110.851 213.65 110.467 212.999C110.083 212.338 109.891 211.591 109.891 210.759C109.891 209.917 110.083 209.17 110.467 208.519C110.851 207.869 111.373 207.362 112.035 206.999C112.696 206.626 113.453 206.439 114.307 206.439C115.149 206.439 115.901 206.626 116.563 206.999C117.235 207.362 117.757 207.869 118.131 208.519C118.515 209.159 118.707 209.906 118.707 210.759C118.707 211.602 118.515 212.349 118.131 212.999C117.757 213.65 117.235 214.162 116.563 214.535C115.901 214.909 115.149 215.095 114.307 215.095ZM114.307 213.751C114.851 213.751 115.336 213.629 115.763 213.383C116.2 213.138 116.541 212.791 116.787 212.343C117.032 211.885 117.155 211.357 117.155 210.759C117.155 210.151 117.032 209.629 116.787 209.191C116.541 208.743 116.2 208.397 115.763 208.151C115.336 207.906 114.851 207.783 114.307 207.783C113.763 207.783 113.277 207.906 112.851 208.151C112.424 208.397 112.083 208.743 111.827 209.191C111.571 209.629 111.443 210.151 111.443 210.759C111.443 211.357 111.571 211.885 111.827 212.343C112.083 212.791 112.424 213.138 112.851 213.383C113.277 213.629 113.763 213.751 114.307 213.751ZM124.527 215.095C123.663 215.095 122.89 214.909 122.207 214.535C121.535 214.162 121.007 213.65 120.623 212.999C120.239 212.349 120.047 211.602 120.047 210.759C120.047 209.917 120.239 209.17 120.623 208.519C121.007 207.869 121.535 207.362 122.207 206.999C122.89 206.626 123.663 206.439 124.527 206.439C125.295 206.439 125.978 206.594 126.575 206.903C127.183 207.202 127.652 207.65 127.983 208.247L126.815 208.999C126.538 208.583 126.196 208.279 125.791 208.087C125.396 207.885 124.97 207.783 124.511 207.783C123.956 207.783 123.46 207.906 123.023 208.151C122.586 208.397 122.239 208.743 121.983 209.191C121.727 209.629 121.599 210.151 121.599 210.759C121.599 211.367 121.727 211.895 121.983 212.343C122.239 212.791 122.586 213.138 123.023 213.383C123.46 213.629 123.956 213.751 124.511 213.751C124.97 213.751 125.396 213.655 125.791 213.463C126.196 213.261 126.538 212.951 126.815 212.535L127.983 213.271C127.652 213.858 127.183 214.311 126.575 214.631C125.978 214.941 125.295 215.095 124.527 215.095ZM133.54 215.095C132.814 215.095 132.174 214.962 131.62 214.695C131.076 214.429 130.649 214.023 130.34 213.479C130.041 212.925 129.892 212.231 129.892 211.399V206.519H131.428V211.223C131.428 212.055 131.625 212.679 132.02 213.095C132.425 213.511 132.99 213.719 133.716 213.719C134.249 213.719 134.713 213.613 135.108 213.399C135.502 213.175 135.806 212.855 136.02 212.439C136.233 212.013 136.34 211.501 136.34 210.903V206.519H137.876V214.999H136.42V212.711L136.66 213.319C136.382 213.885 135.966 214.322 135.412 214.631C134.857 214.941 134.233 215.095 133.54 215.095ZM151.408 206.439C152.09 206.439 152.693 206.573 153.216 206.839C153.738 207.106 154.144 207.511 154.432 208.055C154.73 208.599 154.88 209.287 154.88 210.119V214.999H153.344V210.295C153.344 209.474 153.152 208.855 152.768 208.439C152.384 208.023 151.845 207.815 151.152 207.815C150.64 207.815 150.192 207.922 149.808 208.135C149.424 208.349 149.125 208.663 148.912 209.079C148.709 209.495 148.608 210.013 148.608 210.631V214.999H147.072V210.295C147.072 209.474 146.88 208.855 146.496 208.439C146.122 208.023 145.584 207.815 144.88 207.815C144.378 207.815 143.936 207.922 143.552 208.135C143.168 208.349 142.869 208.663 142.656 209.079C142.442 209.495 142.336 210.013 142.336 210.631V214.999H140.8V206.519H142.272V208.775L142.032 208.199C142.298 207.645 142.709 207.213 143.264 206.903C143.818 206.594 144.464 206.439 145.2 206.439C146.01 206.439 146.709 206.642 147.296 207.047C147.882 207.442 148.266 208.045 148.448 208.855L147.824 208.599C148.08 207.949 148.528 207.426 149.168 207.031C149.808 206.637 150.554 206.439 151.408 206.439ZM161.482 215.095C160.575 215.095 159.775 214.909 159.082 214.535C158.399 214.162 157.866 213.65 157.482 212.999C157.109 212.349 156.922 211.602 156.922 210.759C156.922 209.917 157.103 209.17 157.466 208.519C157.839 207.869 158.346 207.362 158.986 206.999C159.637 206.626 160.367 206.439 161.178 206.439C161.999 206.439 162.725 206.621 163.354 206.983C163.983 207.346 164.474 207.858 164.826 208.519C165.189 209.17 165.37 209.933 165.37 210.807C165.37 210.871 165.365 210.946 165.354 211.031C165.354 211.117 165.349 211.197 165.338 211.271H158.122V210.167H164.538L163.914 210.551C163.925 210.007 163.813 209.522 163.578 209.095C163.343 208.669 163.018 208.338 162.602 208.103C162.197 207.858 161.722 207.735 161.178 207.735C160.645 207.735 160.17 207.858 159.754 208.103C159.338 208.338 159.013 208.674 158.778 209.111C158.543 209.538 158.426 210.029 158.426 210.583V210.839C158.426 211.405 158.554 211.911 158.81 212.359C159.077 212.797 159.445 213.138 159.914 213.383C160.383 213.629 160.922 213.751 161.53 213.751C162.031 213.751 162.485 213.666 162.89 213.495C163.306 213.325 163.669 213.069 163.978 212.727L164.826 213.719C164.442 214.167 163.962 214.509 163.386 214.743C162.821 214.978 162.186 215.095 161.482 215.095ZM172.031 206.439C172.724 206.439 173.332 206.573 173.855 206.839C174.388 207.106 174.804 207.511 175.103 208.055C175.402 208.599 175.551 209.287 175.551 210.119V214.999H174.015V210.295C174.015 209.474 173.812 208.855 173.407 208.439C173.012 208.023 172.452 207.815 171.727 207.815C171.183 207.815 170.708 207.922 170.303 208.135C169.898 208.349 169.583 208.663 169.359 209.079C169.146 209.495 169.039 210.013 169.039 210.631V214.999H167.503V206.519H168.975V208.807L168.735 208.199C169.012 207.645 169.439 207.213 170.015 206.903C170.591 206.594 171.263 206.439 172.031 206.439ZM181.306 215.095C180.452 215.095 179.791 214.866 179.322 214.407C178.852 213.949 178.618 213.293 178.618 212.439V204.663H180.154V212.375C180.154 212.834 180.266 213.186 180.49 213.431C180.724 213.677 181.055 213.799 181.482 213.799C181.962 213.799 182.362 213.666 182.682 213.399L183.162 214.503C182.927 214.706 182.644 214.855 182.314 214.951C181.994 215.047 181.658 215.095 181.306 215.095ZM177.178 207.783V206.519H182.586V207.783H177.178ZM190.283 214.999V213.207L190.203 212.871V209.815C190.203 209.165 190.011 208.663 189.627 208.311C189.253 207.949 188.688 207.767 187.931 207.767C187.429 207.767 186.939 207.853 186.459 208.023C185.979 208.183 185.573 208.402 185.243 208.679L184.603 207.527C185.04 207.175 185.563 206.909 186.171 206.727C186.789 206.535 187.435 206.439 188.107 206.439C189.269 206.439 190.165 206.722 190.795 207.287C191.424 207.853 191.739 208.717 191.739 209.879V214.999H190.283ZM187.499 215.095C186.869 215.095 186.315 214.989 185.835 214.775C185.365 214.562 185.003 214.269 184.747 213.895C184.491 213.511 184.363 213.079 184.363 212.599C184.363 212.141 184.469 211.725 184.683 211.351C184.907 210.978 185.264 210.679 185.755 210.455C186.256 210.231 186.928 210.119 187.771 210.119H190.459V211.223H187.835C187.067 211.223 186.549 211.351 186.283 211.607C186.016 211.863 185.883 212.173 185.883 212.535C185.883 212.951 186.048 213.287 186.379 213.543C186.709 213.789 187.168 213.911 187.755 213.911C188.331 213.911 188.832 213.783 189.259 213.527C189.696 213.271 190.011 212.898 190.203 212.407L190.507 213.463C190.304 213.965 189.947 214.365 189.435 214.663C188.923 214.951 188.277 215.095 187.499 215.095ZM197.493 215.095C196.64 215.095 195.978 214.866 195.509 214.407C195.04 213.949 194.805 213.293 194.805 212.439V204.663H196.341V212.375C196.341 212.834 196.453 213.186 196.677 213.431C196.912 213.677 197.242 213.799 197.669 213.799C198.149 213.799 198.549 213.666 198.869 213.399L199.349 214.503C199.114 214.706 198.832 214.855 198.501 214.951C198.181 215.047 197.845 215.095 197.493 215.095ZM193.365 207.783V206.519H198.773V207.783H193.365ZM201.206 214.999V206.519H202.742V214.999H201.206ZM201.974 204.887C201.675 204.887 201.425 204.791 201.222 204.599C201.03 204.407 200.934 204.173 200.934 203.895C200.934 203.607 201.03 203.367 201.222 203.175C201.425 202.983 201.675 202.887 201.974 202.887C202.273 202.887 202.518 202.983 202.71 203.175C202.913 203.357 203.014 203.586 203.014 203.863C203.014 204.151 202.918 204.397 202.726 204.599C202.534 204.791 202.283 204.887 201.974 204.887ZM209.307 215.095C208.453 215.095 207.696 214.909 207.035 214.535C206.373 214.162 205.851 213.65 205.467 212.999C205.083 212.338 204.891 211.591 204.891 210.759C204.891 209.917 205.083 209.17 205.467 208.519C205.851 207.869 206.373 207.362 207.035 206.999C207.696 206.626 208.453 206.439 209.307 206.439C210.149 206.439 210.901 206.626 211.563 206.999C212.235 207.362 212.757 207.869 213.131 208.519C213.515 209.159 213.707 209.906 213.707 210.759C213.707 211.602 213.515 212.349 213.131 212.999C212.757 213.65 212.235 214.162 211.563 214.535C210.901 214.909 210.149 215.095 209.307 215.095ZM209.307 213.751C209.851 213.751 210.336 213.629 210.763 213.383C211.2 213.138 211.541 212.791 211.787 212.343C212.032 211.885 212.155 211.357 212.155 210.759C212.155 210.151 212.032 209.629 211.787 209.191C211.541 208.743 211.2 208.397 210.763 208.151C210.336 207.906 209.851 207.783 209.307 207.783C208.763 207.783 208.277 207.906 207.851 208.151C207.424 208.397 207.083 208.743 206.827 209.191C206.571 209.629 206.443 210.151 206.443 210.759C206.443 211.357 206.571 211.885 206.827 212.343C207.083 212.791 207.424 213.138 207.851 213.383C208.277 213.629 208.763 213.751 209.307 213.751ZM220.359 206.439C221.052 206.439 221.66 206.573 222.183 206.839C222.716 207.106 223.132 207.511 223.431 208.055C223.73 208.599 223.879 209.287 223.879 210.119V214.999H222.343V210.295C222.343 209.474 222.14 208.855 221.735 208.439C221.34 208.023 220.78 207.815 220.055 207.815C219.511 207.815 219.036 207.922 218.631 208.135C218.226 208.349 217.911 208.663 217.687 209.079C217.474 209.495 217.367 210.013 217.367 210.631V214.999H215.831V206.519H217.303V208.807L217.063 208.199C217.34 207.645 217.767 207.213 218.343 206.903C218.919 206.594 219.591 206.439 220.359 206.439Z" fill="#1A1B1F"/>
</g>
</g>
<defs>
<filter id="filter0_d_6496_17409" x="42" y="8.99939" width="295" height="308" filterUnits="userSpaceOnUse" color-interpolation-filters="sRGB">
<feFlood flood-opacity="0" result="BackgroundImageFix"/>
<feColorMatrix in="SourceAlpha" type="matrix" values="0 0 0 0 0 0 0 0 0 0 0 0 0 0 0 0 0 0 127 0" result="hardAlpha"/>
<feOffset dx="2" dy="6"/>
<feGaussianBlur stdDeviation="4"/>
<feComposite in2="hardAlpha" operator="out"/>
<feColorMatrix type="matrix" values="0 0 0 0 0 0 0 0 0 0 0 0 0 0 0 0 0 0 0.25 0"/>
<feBlend mode="normal" in2="BackgroundImageFix" result="effect1_dropShadow_6496_17409"/>
<feBlend mode="normal" in="SourceGraphic" in2="effect1_dropShadow_6496_17409" result="shape"/>
</filter>
<clipPath id="clip0_6496_17409">
<rect width="384" height="236" fill="white" transform="translate(0 -0.000610352)"/>
</clipPath>
</defs>
</svg>
