<svg width="384" height="269" viewBox="0 0 384 269" fill="none" xmlns="http://www.w3.org/2000/svg">
<g clip-path="url(#clip0_6586_3403)">
<g filter="url(#filter0_d_6586_3403)">
<rect x="6.5" y="153.999" width="108" height="34" rx="17" fill="white"/>
<path d="M21.692 175.999V168.047H18.556V166.199H27.096V168.047H23.96V175.999H21.692ZM31.1347 176.111C30.276 176.111 29.52 175.943 28.8667 175.607C28.2227 175.271 27.7233 174.814 27.3687 174.235C27.014 173.647 26.8367 172.98 26.8367 172.233C26.8367 171.477 27.0093 170.81 27.3547 170.231C27.7093 169.643 28.19 169.186 28.7967 168.859C29.4033 168.523 30.0893 168.355 30.8547 168.355C31.592 168.355 32.2547 168.514 32.8427 168.831C33.44 169.139 33.9113 169.587 34.2567 170.175C34.602 170.754 34.7747 171.449 34.7747 172.261C34.7747 172.345 34.77 172.443 34.7607 172.555C34.7513 172.658 34.742 172.756 34.7327 172.849H28.6147V171.575H33.5847L32.7447 171.953C32.7447 171.561 32.6653 171.221 32.5067 170.931C32.348 170.642 32.1287 170.418 31.8487 170.259C31.5687 170.091 31.242 170.007 30.8687 170.007C30.4953 170.007 30.164 170.091 29.8747 170.259C29.5947 170.418 29.3753 170.647 29.2167 170.945C29.058 171.235 28.9787 171.58 28.9787 171.981V172.317C28.9787 172.728 29.0673 173.092 29.2447 173.409C29.4313 173.717 29.688 173.955 30.0147 174.123C30.3507 174.282 30.7427 174.361 31.1907 174.361C31.592 174.361 31.942 174.301 32.2407 174.179C32.5487 174.058 32.8287 173.876 33.0807 173.633L34.2427 174.893C33.8973 175.285 33.4633 175.589 32.9407 175.803C32.418 176.009 31.816 176.111 31.1347 176.111ZM40.6436 175.999V174.529L40.5036 174.207V171.575C40.5036 171.109 40.359 170.745 40.0696 170.483C39.7896 170.222 39.3556 170.091 38.7676 170.091C38.3663 170.091 37.9696 170.157 37.5776 170.287C37.195 170.409 36.8683 170.577 36.5976 170.791L35.8136 169.265C36.2243 168.976 36.719 168.752 37.2976 168.593C37.8763 168.435 38.4643 168.355 39.0616 168.355C40.2096 168.355 41.101 168.626 41.7356 169.167C42.3703 169.709 42.6876 170.553 42.6876 171.701V175.999H40.6436ZM38.3476 176.111C37.7596 176.111 37.2556 176.013 36.8356 175.817C36.4156 175.612 36.0936 175.337 35.8696 174.991C35.6456 174.646 35.5336 174.259 35.5336 173.829C35.5336 173.381 35.641 172.989 35.8556 172.653C36.0796 172.317 36.4296 172.056 36.9056 171.869C37.3816 171.673 38.0023 171.575 38.7676 171.575H40.7696V172.849H39.0056C38.4923 172.849 38.1376 172.933 37.9416 173.101C37.755 173.269 37.6616 173.479 37.6616 173.731C37.6616 174.011 37.769 174.235 37.9836 174.403C38.2076 174.562 38.511 174.641 38.8936 174.641C39.2576 174.641 39.5843 174.557 39.8736 174.389C40.163 174.212 40.373 173.955 40.5036 173.619L40.8396 174.627C40.681 175.113 40.3916 175.481 39.9716 175.733C39.5516 175.985 39.0103 176.111 38.3476 176.111ZM54.3103 168.355C54.9076 168.355 55.4349 168.477 55.8923 168.719C56.3589 168.953 56.7229 169.317 56.9843 169.811C57.2549 170.297 57.3903 170.922 57.3903 171.687V175.999H55.2063V172.023C55.2063 171.417 55.0803 170.969 54.8283 170.679C54.5763 170.39 54.2216 170.245 53.7643 170.245C53.4469 170.245 53.1623 170.32 52.9103 170.469C52.6583 170.609 52.4623 170.824 52.3223 171.113C52.1823 171.403 52.1123 171.771 52.1123 172.219V175.999H49.9283V172.023C49.9283 171.417 49.8023 170.969 49.5503 170.679C49.3076 170.39 48.9576 170.245 48.5003 170.245C48.1829 170.245 47.8983 170.32 47.6463 170.469C47.3943 170.609 47.1983 170.824 47.0583 171.113C46.9183 171.403 46.8483 171.771 46.8483 172.219V175.999H44.6643V168.467H46.7503V170.525L46.3583 169.923C46.6196 169.41 46.9883 169.023 47.4643 168.761C47.9496 168.491 48.5003 168.355 49.1163 168.355C49.8069 168.355 50.4089 168.533 50.9223 168.887C51.4449 169.233 51.7903 169.765 51.9583 170.483L51.1883 170.273C51.4403 169.685 51.8416 169.219 52.3923 168.873C52.9523 168.528 53.5916 168.355 54.3103 168.355ZM65.8187 175.999L62.6127 166.199H64.9647L67.7507 174.879H66.5747L69.4867 166.199H71.5867L74.3867 174.879H73.2527L76.1087 166.199H78.2787L75.0727 175.999H72.6367L70.1587 168.383H70.8027L68.2547 175.999H65.8187ZM82.4143 176.111C81.6116 176.111 80.8976 175.943 80.2723 175.607C79.6563 175.271 79.1663 174.814 78.8023 174.235C78.4476 173.647 78.2703 172.98 78.2703 172.233C78.2703 171.477 78.4476 170.81 78.8023 170.231C79.1663 169.643 79.6563 169.186 80.2723 168.859C80.8976 168.523 81.6116 168.355 82.4143 168.355C83.2076 168.355 83.9169 168.523 84.5423 168.859C85.1676 169.186 85.6576 169.639 86.0123 170.217C86.3669 170.796 86.5443 171.468 86.5443 172.233C86.5443 172.98 86.3669 173.647 86.0123 174.235C85.6576 174.814 85.1676 175.271 84.5423 175.607C83.9169 175.943 83.2076 176.111 82.4143 176.111ZM82.4143 174.319C82.7783 174.319 83.1049 174.235 83.3943 174.067C83.6836 173.899 83.9123 173.661 84.0803 173.353C84.2483 173.036 84.3323 172.663 84.3323 172.233C84.3323 171.795 84.2483 171.421 84.0803 171.113C83.9123 170.805 83.6836 170.567 83.3943 170.399C83.1049 170.231 82.7783 170.147 82.4143 170.147C82.0503 170.147 81.7236 170.231 81.4343 170.399C81.1449 170.567 80.9116 170.805 80.7343 171.113C80.5663 171.421 80.4823 171.795 80.4823 172.233C80.4823 172.663 80.5663 173.036 80.7343 173.353C80.9116 173.661 81.1449 173.899 81.4343 174.067C81.7236 174.235 82.0503 174.319 82.4143 174.319ZM88.0041 175.999V168.467H90.0901V170.595L89.7961 169.979C90.0201 169.447 90.3794 169.046 90.8741 168.775C91.3688 168.495 91.9708 168.355 92.6801 168.355V170.371C92.5868 170.362 92.5028 170.357 92.4281 170.357C92.3534 170.348 92.2741 170.343 92.1901 170.343C91.5928 170.343 91.1074 170.516 90.7341 170.861C90.3701 171.197 90.1881 171.725 90.1881 172.443V175.999H88.0041ZM95.7847 174.459L95.8407 171.799L99.3547 168.467H101.959L98.5847 171.897L97.4507 172.821L95.7847 174.459ZM93.9787 175.999V165.611H96.1627V175.999H93.9787ZM99.5927 175.999L97.0447 172.835L98.4167 171.141L102.239 175.999H99.5927Z" fill="#1A1B1F"/>
<rect x="124.5" y="153.999" width="114" height="34" rx="17" fill="white"/>
<path d="M136.374 175.999L140.742 166.199H142.982L147.364 175.999H144.984L141.4 167.347H142.296L138.698 175.999H136.374ZM138.558 173.899L139.16 172.177H144.2L144.816 173.899H138.558ZM151.392 176.111C150.683 176.111 150.044 175.953 149.474 175.635C148.905 175.309 148.452 174.856 148.116 174.277C147.79 173.699 147.626 173.017 147.626 172.233C147.626 171.44 147.79 170.754 148.116 170.175C148.452 169.597 148.905 169.149 149.474 168.831C150.044 168.514 150.683 168.355 151.392 168.355C152.027 168.355 152.582 168.495 153.058 168.775C153.534 169.055 153.903 169.48 154.164 170.049C154.426 170.619 154.556 171.347 154.556 172.233C154.556 173.111 154.43 173.839 154.178 174.417C153.926 174.987 153.562 175.411 153.086 175.691C152.62 175.971 152.055 176.111 151.392 176.111ZM151.77 174.319C152.125 174.319 152.447 174.235 152.736 174.067C153.026 173.899 153.254 173.661 153.422 173.353C153.6 173.036 153.688 172.663 153.688 172.233C153.688 171.795 153.6 171.421 153.422 171.113C153.254 170.805 153.026 170.567 152.736 170.399C152.447 170.231 152.125 170.147 151.77 170.147C151.406 170.147 151.08 170.231 150.79 170.399C150.501 170.567 150.268 170.805 150.09 171.113C149.922 171.421 149.838 171.795 149.838 172.233C149.838 172.663 149.922 173.036 150.09 173.353C150.268 173.661 150.501 173.899 150.79 174.067C151.08 174.235 151.406 174.319 151.77 174.319ZM153.744 175.999V174.459L153.786 172.219L153.646 169.993V165.611H155.83V175.999H153.744ZM162.472 175.999V174.529L162.332 174.207V171.575C162.332 171.109 162.187 170.745 161.898 170.483C161.618 170.222 161.184 170.091 160.596 170.091C160.194 170.091 159.798 170.157 159.406 170.287C159.023 170.409 158.696 170.577 158.426 170.791L157.642 169.265C158.052 168.976 158.547 168.752 159.126 168.593C159.704 168.435 160.292 168.355 160.89 168.355C162.038 168.355 162.929 168.626 163.564 169.167C164.198 169.709 164.516 170.553 164.516 171.701V175.999H162.472ZM160.176 176.111C159.588 176.111 159.084 176.013 158.664 175.817C158.244 175.612 157.922 175.337 157.698 174.991C157.474 174.646 157.362 174.259 157.362 173.829C157.362 173.381 157.469 172.989 157.684 172.653C157.908 172.317 158.258 172.056 158.734 171.869C159.21 171.673 159.83 171.575 160.596 171.575H162.598V172.849H160.834C160.32 172.849 159.966 172.933 159.77 173.101C159.583 173.269 159.49 173.479 159.49 173.731C159.49 174.011 159.597 174.235 159.812 174.403C160.036 174.562 160.339 174.641 160.722 174.641C161.086 174.641 161.412 174.557 161.702 174.389C161.991 174.212 162.201 173.955 162.332 173.619L162.668 174.627C162.509 175.113 162.22 175.481 161.8 175.733C161.38 175.985 160.838 176.111 160.176 176.111ZM170.944 176.111C170.31 176.111 169.754 175.971 169.278 175.691C168.802 175.411 168.429 174.987 168.158 174.417C167.897 173.839 167.766 173.111 167.766 172.233C167.766 171.347 167.892 170.619 168.144 170.049C168.396 169.48 168.76 169.055 169.236 168.775C169.712 168.495 170.282 168.355 170.944 168.355C171.654 168.355 172.288 168.519 172.848 168.845C173.418 169.163 173.866 169.611 174.192 170.189C174.528 170.768 174.696 171.449 174.696 172.233C174.696 173.027 174.528 173.713 174.192 174.291C173.866 174.87 173.418 175.318 172.848 175.635C172.288 175.953 171.654 176.111 170.944 176.111ZM166.492 178.715V168.467H168.578V170.007L168.536 172.247L168.676 174.473V178.715H166.492ZM170.566 174.319C170.93 174.319 171.252 174.235 171.532 174.067C171.822 173.899 172.05 173.661 172.218 173.353C172.396 173.036 172.484 172.663 172.484 172.233C172.484 171.795 172.396 171.421 172.218 171.113C172.05 170.805 171.822 170.567 171.532 170.399C171.252 170.231 170.93 170.147 170.566 170.147C170.202 170.147 169.876 170.231 169.586 170.399C169.297 170.567 169.068 170.805 168.9 171.113C168.732 171.421 168.648 171.795 168.648 172.233C168.648 172.663 168.732 173.036 168.9 173.353C169.068 173.661 169.297 173.899 169.586 174.067C169.876 174.235 170.202 174.319 170.566 174.319ZM179.238 176.111C178.352 176.111 177.661 175.887 177.166 175.439C176.672 174.982 176.424 174.305 176.424 173.409V166.801H178.608V173.381C178.608 173.699 178.692 173.946 178.86 174.123C179.028 174.291 179.257 174.375 179.546 174.375C179.892 174.375 180.186 174.282 180.428 174.095L181.016 175.635C180.792 175.794 180.522 175.915 180.204 175.999C179.896 176.074 179.574 176.111 179.238 176.111ZM175.262 170.315V168.635H180.484V170.315H175.262ZM186.862 175.999V174.529L186.722 174.207V171.575C186.722 171.109 186.578 170.745 186.288 170.483C186.008 170.222 185.574 170.091 184.986 170.091C184.585 170.091 184.188 170.157 183.796 170.287C183.414 170.409 183.087 170.577 182.816 170.791L182.032 169.265C182.443 168.976 182.938 168.752 183.516 168.593C184.095 168.435 184.683 168.355 185.28 168.355C186.428 168.355 187.32 168.626 187.954 169.167C188.589 169.709 188.906 170.553 188.906 171.701V175.999H186.862ZM184.566 176.111C183.978 176.111 183.474 176.013 183.054 175.817C182.634 175.612 182.312 175.337 182.088 174.991C181.864 174.646 181.752 174.259 181.752 173.829C181.752 173.381 181.86 172.989 182.074 172.653C182.298 172.317 182.648 172.056 183.124 171.869C183.6 171.673 184.221 171.575 184.986 171.575H186.988V172.849H185.224C184.711 172.849 184.356 172.933 184.16 173.101C183.974 173.269 183.88 173.479 183.88 173.731C183.88 174.011 183.988 174.235 184.202 174.403C184.426 174.562 184.73 174.641 185.112 174.641C185.476 174.641 185.803 174.557 186.092 174.389C186.382 174.212 186.592 173.955 186.722 173.619L187.058 174.627C186.9 175.113 186.61 175.481 186.19 175.733C185.77 175.985 185.229 176.111 184.566 176.111ZM195.335 176.111C194.672 176.111 194.103 175.971 193.627 175.691C193.151 175.411 192.787 174.987 192.535 174.417C192.283 173.839 192.157 173.111 192.157 172.233C192.157 171.347 192.288 170.619 192.549 170.049C192.82 169.48 193.193 169.055 193.669 168.775C194.145 168.495 194.7 168.355 195.335 168.355C196.044 168.355 196.679 168.514 197.239 168.831C197.808 169.149 198.256 169.597 198.583 170.175C198.919 170.754 199.087 171.44 199.087 172.233C199.087 173.017 198.919 173.699 198.583 174.277C198.256 174.856 197.808 175.309 197.239 175.635C196.679 175.953 196.044 176.111 195.335 176.111ZM190.883 175.999V165.611H193.067V169.993L192.927 172.219L192.969 174.459V175.999H190.883ZM194.957 174.319C195.321 174.319 195.643 174.235 195.923 174.067C196.212 173.899 196.441 173.661 196.609 173.353C196.786 173.036 196.875 172.663 196.875 172.233C196.875 171.795 196.786 171.421 196.609 171.113C196.441 170.805 196.212 170.567 195.923 170.399C195.643 170.231 195.321 170.147 194.957 170.147C194.593 170.147 194.266 170.231 193.977 170.399C193.688 170.567 193.459 170.805 193.291 171.113C193.123 171.421 193.039 171.795 193.039 172.233C193.039 172.663 193.123 173.036 193.291 173.353C193.459 173.661 193.688 173.899 193.977 174.067C194.266 174.235 194.593 174.319 194.957 174.319ZM200.549 175.999V168.467H202.733V175.999H200.549ZM201.641 167.417C201.24 167.417 200.913 167.301 200.661 167.067C200.409 166.834 200.283 166.545 200.283 166.199C200.283 165.854 200.409 165.565 200.661 165.331C200.913 165.098 201.24 164.981 201.641 164.981C202.042 164.981 202.369 165.093 202.621 165.317C202.873 165.532 202.999 165.812 202.999 166.157C202.999 166.521 202.873 166.825 202.621 167.067C202.378 167.301 202.052 167.417 201.641 167.417ZM204.76 175.999V165.611H206.944V175.999H204.76ZM208.971 175.999V168.467H211.155V175.999H208.971ZM210.063 167.417C209.662 167.417 209.335 167.301 209.083 167.067C208.831 166.834 208.705 166.545 208.705 166.199C208.705 165.854 208.831 165.565 209.083 165.331C209.335 165.098 209.662 164.981 210.063 164.981C210.464 164.981 210.791 165.093 211.043 165.317C211.295 165.532 211.421 165.812 211.421 166.157C211.421 166.521 211.295 166.825 211.043 167.067C210.8 167.301 210.474 167.417 210.063 167.417ZM216.262 176.111C215.375 176.111 214.684 175.887 214.19 175.439C213.695 174.982 213.448 174.305 213.448 173.409V166.801H215.632V173.381C215.632 173.699 215.716 173.946 215.884 174.123C216.052 174.291 216.28 174.375 216.57 174.375C216.915 174.375 217.209 174.282 217.452 174.095L218.04 175.635C217.816 175.794 217.545 175.915 217.228 175.999C216.92 176.074 216.598 176.111 216.262 176.111ZM212.286 170.315V168.635H217.508V170.315H212.286ZM220.081 178.827C219.689 178.827 219.302 178.767 218.919 178.645C218.536 178.524 218.224 178.356 217.981 178.141L218.779 176.587C218.947 176.737 219.138 176.853 219.353 176.937C219.577 177.021 219.796 177.063 220.011 177.063C220.319 177.063 220.562 176.989 220.739 176.839C220.926 176.699 221.094 176.461 221.243 176.125L221.635 175.201L221.803 174.963L224.505 168.467H226.605L223.203 176.461C222.96 177.068 222.68 177.544 222.363 177.889C222.055 178.235 221.71 178.477 221.327 178.617C220.954 178.757 220.538 178.827 220.081 178.827ZM221.369 176.293L218.009 168.467H220.263L222.867 174.767L221.369 176.293Z" fill="#1A1B1F"/>
<rect x="248.5" y="153.999" width="130" height="34" rx="17" fill="white"/>
<path d="M263.762 170.609H268.466V172.429H263.762V170.609ZM263.93 175.999H261.662V166.199H269.068V168.019H263.93V175.999ZM270.449 175.999V165.611H272.633V175.999H270.449ZM277.838 176.111C277.213 176.111 276.653 175.99 276.158 175.747C275.673 175.505 275.295 175.136 275.024 174.641C274.754 174.137 274.618 173.498 274.618 172.723V168.467H276.802V172.401C276.802 173.027 276.933 173.489 277.194 173.787C277.465 174.077 277.843 174.221 278.328 174.221C278.664 174.221 278.963 174.151 279.224 174.011C279.486 173.862 279.691 173.638 279.84 173.339C279.99 173.031 280.064 172.649 280.064 172.191V168.467H282.248V175.999H280.176V173.927L280.554 174.529C280.302 175.052 279.929 175.449 279.434 175.719C278.949 175.981 278.417 176.111 277.838 176.111ZM288.01 176.111C287.151 176.111 286.395 175.943 285.742 175.607C285.098 175.271 284.598 174.814 284.244 174.235C283.889 173.647 283.712 172.98 283.712 172.233C283.712 171.477 283.884 170.81 284.23 170.231C284.584 169.643 285.065 169.186 285.672 168.859C286.278 168.523 286.964 168.355 287.73 168.355C288.467 168.355 289.13 168.514 289.718 168.831C290.315 169.139 290.786 169.587 291.132 170.175C291.477 170.754 291.65 171.449 291.65 172.261C291.65 172.345 291.645 172.443 291.636 172.555C291.626 172.658 291.617 172.756 291.608 172.849H285.49V171.575H290.46L289.62 171.953C289.62 171.561 289.54 171.221 289.382 170.931C289.223 170.642 289.004 170.418 288.724 170.259C288.444 170.091 288.117 170.007 287.744 170.007C287.37 170.007 287.039 170.091 286.75 170.259C286.47 170.418 286.25 170.647 286.092 170.945C285.933 171.235 285.854 171.58 285.854 171.981V172.317C285.854 172.728 285.942 173.092 286.12 173.409C286.306 173.717 286.563 173.955 286.89 174.123C287.226 174.282 287.618 174.361 288.066 174.361C288.467 174.361 288.817 174.301 289.116 174.179C289.424 174.058 289.704 173.876 289.956 173.633L291.118 174.893C290.772 175.285 290.338 175.589 289.816 175.803C289.293 176.009 288.691 176.111 288.01 176.111ZM297.682 168.355C298.279 168.355 298.811 168.477 299.278 168.719C299.754 168.953 300.127 169.317 300.398 169.811C300.668 170.297 300.804 170.922 300.804 171.687V175.999H298.62V172.023C298.62 171.417 298.484 170.969 298.214 170.679C297.952 170.39 297.579 170.245 297.094 170.245C296.748 170.245 296.436 170.32 296.156 170.469C295.885 170.609 295.67 170.829 295.512 171.127C295.362 171.426 295.288 171.809 295.288 172.275V175.999H293.104V168.467H295.19V170.553L294.798 169.923C295.068 169.419 295.456 169.032 295.96 168.761C296.464 168.491 297.038 168.355 297.682 168.355ZM305.863 176.111C304.977 176.111 304.286 175.887 303.791 175.439C303.297 174.982 303.049 174.305 303.049 173.409V166.801H305.233V173.381C305.233 173.699 305.317 173.946 305.485 174.123C305.653 174.291 305.882 174.375 306.171 174.375C306.517 174.375 306.811 174.282 307.053 174.095L307.641 175.635C307.417 175.794 307.147 175.915 306.829 175.999C306.521 176.074 306.199 176.111 305.863 176.111ZM301.887 170.315V168.635H307.109V170.315H301.887ZM315.072 170.147H319.79V171.911H315.072V170.147ZM315.24 174.179H320.574V175.999H312.986V166.199H320.392V168.019H315.24V174.179ZM326.803 168.355C327.4 168.355 327.932 168.477 328.399 168.719C328.875 168.953 329.248 169.317 329.519 169.811C329.789 170.297 329.925 170.922 329.925 171.687V175.999H327.741V172.023C327.741 171.417 327.605 170.969 327.335 170.679C327.073 170.39 326.7 170.245 326.215 170.245C325.869 170.245 325.557 170.32 325.277 170.469C325.006 170.609 324.791 170.829 324.633 171.127C324.483 171.426 324.409 171.809 324.409 172.275V175.999H322.225V168.467H324.311V170.553L323.919 169.923C324.189 169.419 324.577 169.032 325.081 168.761C325.585 168.491 326.159 168.355 326.803 168.355ZM335.501 178.827C334.792 178.827 334.106 178.739 333.443 178.561C332.79 178.393 332.244 178.137 331.805 177.791L332.673 176.223C332.991 176.485 333.392 176.69 333.877 176.839C334.372 176.998 334.857 177.077 335.333 177.077C336.108 177.077 336.668 176.905 337.013 176.559C337.368 176.214 337.545 175.701 337.545 175.019V173.885L337.685 171.995L337.657 170.091V168.467H339.729V174.739C339.729 176.139 339.365 177.171 338.637 177.833C337.909 178.496 336.864 178.827 335.501 178.827ZM335.165 175.635C334.465 175.635 333.831 175.486 333.261 175.187C332.701 174.879 332.249 174.455 331.903 173.913C331.567 173.363 331.399 172.723 331.399 171.995C331.399 171.258 331.567 170.619 331.903 170.077C332.249 169.527 332.701 169.102 333.261 168.803C333.831 168.505 334.465 168.355 335.165 168.355C335.8 168.355 336.36 168.486 336.845 168.747C337.331 168.999 337.709 169.396 337.979 169.937C338.25 170.469 338.385 171.155 338.385 171.995C338.385 172.826 338.25 173.512 337.979 174.053C337.709 174.585 337.331 174.982 336.845 175.243C336.36 175.505 335.8 175.635 335.165 175.635ZM335.599 173.843C335.982 173.843 336.323 173.769 336.621 173.619C336.92 173.461 337.153 173.241 337.321 172.961C337.489 172.681 337.573 172.359 337.573 171.995C337.573 171.622 337.489 171.3 337.321 171.029C337.153 170.749 336.92 170.535 336.621 170.385C336.323 170.227 335.982 170.147 335.599 170.147C335.217 170.147 334.876 170.227 334.577 170.385C334.279 170.535 334.041 170.749 333.863 171.029C333.695 171.3 333.611 171.622 333.611 171.995C333.611 172.359 333.695 172.681 333.863 172.961C334.041 173.241 334.279 173.461 334.577 173.619C334.876 173.769 335.217 173.843 335.599 173.843ZM341.762 175.999V165.611H343.946V175.999H341.762ZM345.973 175.999V168.467H348.157V175.999H345.973ZM347.065 167.417C346.664 167.417 346.337 167.301 346.085 167.067C345.833 166.834 345.707 166.545 345.707 166.199C345.707 165.854 345.833 165.565 346.085 165.331C346.337 165.098 346.664 164.981 347.065 164.981C347.466 164.981 347.793 165.093 348.045 165.317C348.297 165.532 348.423 165.812 348.423 166.157C348.423 166.521 348.297 166.825 348.045 167.067C347.802 167.301 347.476 167.417 347.065 167.417ZM352.718 176.111C352.074 176.111 351.453 176.037 350.856 175.887C350.268 175.729 349.801 175.533 349.456 175.299L350.184 173.731C350.529 173.946 350.935 174.123 351.402 174.263C351.878 174.394 352.344 174.459 352.802 174.459C353.306 174.459 353.66 174.399 353.866 174.277C354.08 174.156 354.188 173.988 354.188 173.773C354.188 173.596 354.104 173.465 353.936 173.381C353.777 173.288 353.562 173.218 353.292 173.171C353.021 173.125 352.722 173.078 352.396 173.031C352.078 172.985 351.756 172.924 351.43 172.849C351.103 172.765 350.804 172.644 350.534 172.485C350.263 172.327 350.044 172.112 349.876 171.841C349.717 171.571 349.638 171.221 349.638 170.791C349.638 170.315 349.773 169.895 350.044 169.531C350.324 169.167 350.725 168.883 351.248 168.677C351.77 168.463 352.396 168.355 353.124 168.355C353.637 168.355 354.16 168.411 354.692 168.523C355.224 168.635 355.667 168.799 356.022 169.013L355.294 170.567C354.93 170.353 354.561 170.208 354.188 170.133C353.824 170.049 353.469 170.007 353.124 170.007C352.638 170.007 352.284 170.073 352.06 170.203C351.836 170.334 351.724 170.502 351.724 170.707C351.724 170.894 351.803 171.034 351.962 171.127C352.13 171.221 352.349 171.295 352.62 171.351C352.89 171.407 353.184 171.459 353.502 171.505C353.828 171.543 354.155 171.603 354.482 171.687C354.808 171.771 355.102 171.893 355.364 172.051C355.634 172.201 355.854 172.411 356.022 172.681C356.19 172.943 356.274 173.288 356.274 173.717C356.274 174.184 356.134 174.599 355.854 174.963C355.574 175.318 355.168 175.598 354.636 175.803C354.113 176.009 353.474 176.111 352.718 176.111ZM362.199 168.355C362.797 168.355 363.329 168.477 363.795 168.719C364.271 168.953 364.645 169.317 364.915 169.811C365.186 170.297 365.321 170.922 365.321 171.687V175.999H363.137V172.023C363.137 171.417 363.002 170.969 362.731 170.679C362.47 170.39 362.097 170.245 361.611 170.245C361.266 170.245 360.953 170.32 360.673 170.469C360.403 170.609 360.188 170.829 360.029 171.127C359.88 171.426 359.805 171.809 359.805 172.275V175.999H357.621V165.611H359.805V170.553L359.315 169.923C359.586 169.419 359.973 169.032 360.477 168.761C360.981 168.491 361.555 168.355 362.199 168.355Z" fill="#1A1B1F"/>
<rect x="16.5" y="197.999" width="145" height="34" rx="17" fill="white"/>
<path d="M29.662 219.999V210.199H33.904C34.7813 210.199 35.5373 210.344 36.172 210.633C36.8067 210.913 37.2967 211.319 37.642 211.851C37.9873 212.383 38.16 213.018 38.16 213.755C38.16 214.483 37.9873 215.113 37.642 215.645C37.2967 216.177 36.8067 216.588 36.172 216.877C35.5373 217.157 34.7813 217.297 33.904 217.297H30.922L31.93 216.275V219.999H29.662ZM31.93 216.527L30.922 215.449H33.778C34.478 215.449 35.0007 215.3 35.346 215.001C35.6913 214.703 35.864 214.287 35.864 213.755C35.864 213.214 35.6913 212.794 35.346 212.495C35.0007 212.197 34.478 212.047 33.778 212.047H30.922L31.93 210.969V216.527ZM39.6252 219.999V212.467H41.7112V214.595L41.4172 213.979C41.6412 213.447 42.0005 213.046 42.4952 212.775C42.9899 212.495 43.5919 212.355 44.3012 212.355V214.371C44.2079 214.362 44.1239 214.357 44.0492 214.357C43.9745 214.348 43.8952 214.343 43.8112 214.343C43.2139 214.343 42.7285 214.516 42.3552 214.861C41.9912 215.197 41.8092 215.725 41.8092 216.443V219.999H39.6252ZM49.1154 220.111C48.3128 220.111 47.5988 219.943 46.9734 219.607C46.3574 219.271 45.8674 218.814 45.5034 218.235C45.1488 217.647 44.9714 216.98 44.9714 216.233C44.9714 215.477 45.1488 214.81 45.5034 214.231C45.8674 213.643 46.3574 213.186 46.9734 212.859C47.5988 212.523 48.3128 212.355 49.1154 212.355C49.9088 212.355 50.6181 212.523 51.2434 212.859C51.8688 213.186 52.3588 213.639 52.7134 214.217C53.0681 214.796 53.2454 215.468 53.2454 216.233C53.2454 216.98 53.0681 217.647 52.7134 218.235C52.3588 218.814 51.8688 219.271 51.2434 219.607C50.6181 219.943 49.9088 220.111 49.1154 220.111ZM49.1154 218.319C49.4794 218.319 49.8061 218.235 50.0954 218.067C50.3848 217.899 50.6134 217.661 50.7814 217.353C50.9494 217.036 51.0334 216.663 51.0334 216.233C51.0334 215.795 50.9494 215.421 50.7814 215.113C50.6134 214.805 50.3848 214.567 50.0954 214.399C49.8061 214.231 49.4794 214.147 49.1154 214.147C48.7514 214.147 48.4248 214.231 48.1354 214.399C47.8461 214.567 47.6128 214.805 47.4354 215.113C47.2674 215.421 47.1834 215.795 47.1834 216.233C47.1834 216.663 47.2674 217.036 47.4354 217.353C47.6128 217.661 47.8461 217.899 48.1354 218.067C48.4248 218.235 48.7514 218.319 49.1154 218.319ZM59.1573 220.111C58.4946 220.111 57.9253 219.971 57.4493 219.691C56.9733 219.411 56.6093 218.987 56.3573 218.417C56.1053 217.839 55.9793 217.111 55.9793 216.233C55.9793 215.347 56.1099 214.619 56.3713 214.049C56.6419 213.48 57.0153 213.055 57.4913 212.775C57.9673 212.495 58.5226 212.355 59.1573 212.355C59.8666 212.355 60.5013 212.514 61.0613 212.831C61.6306 213.149 62.0786 213.597 62.4053 214.175C62.7413 214.754 62.9093 215.44 62.9093 216.233C62.9093 217.017 62.7413 217.699 62.4053 218.277C62.0786 218.856 61.6306 219.309 61.0613 219.635C60.5013 219.953 59.8666 220.111 59.1573 220.111ZM54.7053 219.999V209.611H56.8893V213.993L56.7493 216.219L56.7913 218.459V219.999H54.7053ZM58.7793 218.319C59.1433 218.319 59.4653 218.235 59.7453 218.067C60.0346 217.899 60.2633 217.661 60.4313 217.353C60.6086 217.036 60.6973 216.663 60.6973 216.233C60.6973 215.795 60.6086 215.421 60.4313 215.113C60.2633 214.805 60.0346 214.567 59.7453 214.399C59.4653 214.231 59.1433 214.147 58.7793 214.147C58.4153 214.147 58.0886 214.231 57.7993 214.399C57.5099 214.567 57.2813 214.805 57.1133 215.113C56.9453 215.421 56.8613 215.795 56.8613 216.233C56.8613 216.663 56.9453 217.036 57.1133 217.353C57.2813 217.661 57.5099 217.899 57.7993 218.067C58.0886 218.235 58.4153 218.319 58.7793 218.319ZM64.3713 219.999V209.611H66.5553V219.999H64.3713ZM72.3202 220.111C71.4616 220.111 70.7056 219.943 70.0522 219.607C69.4082 219.271 68.9089 218.814 68.5542 218.235C68.1996 217.647 68.0222 216.98 68.0222 216.233C68.0222 215.477 68.1949 214.81 68.5402 214.231C68.8949 213.643 69.3756 213.186 69.9822 212.859C70.5889 212.523 71.2749 212.355 72.0402 212.355C72.7776 212.355 73.4402 212.514 74.0282 212.831C74.6256 213.139 75.0969 213.587 75.4422 214.175C75.7876 214.754 75.9602 215.449 75.9602 216.261C75.9602 216.345 75.9556 216.443 75.9462 216.555C75.9369 216.658 75.9276 216.756 75.9182 216.849H69.8002V215.575H74.7702L73.9302 215.953C73.9302 215.561 73.8509 215.221 73.6922 214.931C73.5336 214.642 73.3142 214.418 73.0342 214.259C72.7542 214.091 72.4276 214.007 72.0542 214.007C71.6809 214.007 71.3496 214.091 71.0602 214.259C70.7802 214.418 70.5609 214.647 70.4022 214.945C70.2436 215.235 70.1642 215.58 70.1642 215.981V216.317C70.1642 216.728 70.2529 217.092 70.4302 217.409C70.6169 217.717 70.8736 217.955 71.2002 218.123C71.5362 218.282 71.9282 218.361 72.3762 218.361C72.7776 218.361 73.1276 218.301 73.4262 218.179C73.7342 218.058 74.0142 217.876 74.2662 217.633L75.4282 218.893C75.0829 219.285 74.6489 219.589 74.1262 219.803C73.6036 220.009 73.0016 220.111 72.3202 220.111ZM87.0603 212.355C87.6576 212.355 88.1849 212.477 88.6423 212.719C89.1089 212.953 89.4729 213.317 89.7343 213.811C90.0049 214.297 90.1403 214.922 90.1403 215.687V219.999H87.9563V216.023C87.9563 215.417 87.8303 214.969 87.5783 214.679C87.3263 214.39 86.9716 214.245 86.5143 214.245C86.1969 214.245 85.9123 214.32 85.6603 214.469C85.4083 214.609 85.2123 214.824 85.0723 215.113C84.9323 215.403 84.8623 215.771 84.8623 216.219V219.999H82.6783V216.023C82.6783 215.417 82.5523 214.969 82.3003 214.679C82.0576 214.39 81.7076 214.245 81.2503 214.245C80.9329 214.245 80.6483 214.32 80.3963 214.469C80.1443 214.609 79.9483 214.824 79.8083 215.113C79.6683 215.403 79.5983 215.771 79.5983 216.219V219.999H77.4143V212.467H79.5003V214.525L79.1083 213.923C79.3696 213.41 79.7383 213.023 80.2143 212.761C80.6996 212.491 81.2503 212.355 81.8663 212.355C82.5569 212.355 83.1589 212.533 83.6723 212.887C84.1949 213.233 84.5403 213.765 84.7083 214.483L83.9383 214.273C84.1903 213.685 84.5916 213.219 85.1423 212.873C85.7023 212.528 86.3416 212.355 87.0603 212.355ZM99.4367 220.167C98.6527 220.167 97.9014 220.065 97.1827 219.859C96.464 219.645 95.8854 219.369 95.4467 219.033L96.2167 217.325C96.6367 217.624 97.1314 217.871 97.7007 218.067C98.2794 218.254 98.8627 218.347 99.4507 218.347C99.8987 218.347 100.258 218.305 100.529 218.221C100.809 218.128 101.014 218.002 101.145 217.843C101.275 217.685 101.341 217.503 101.341 217.297C101.341 217.036 101.238 216.831 101.033 216.681C100.827 216.523 100.557 216.397 100.221 216.303C99.8847 216.201 99.5114 216.107 99.1007 216.023C98.6994 215.93 98.2934 215.818 97.8827 215.687C97.4814 215.557 97.1127 215.389 96.7767 215.183C96.4407 214.978 96.1654 214.707 95.9507 214.371C95.7454 214.035 95.6427 213.606 95.6427 213.083C95.6427 212.523 95.792 212.015 96.0907 211.557C96.3987 211.091 96.856 210.722 97.4627 210.451C98.0787 210.171 98.8487 210.031 99.7727 210.031C100.389 210.031 100.995 210.106 101.593 210.255C102.19 210.395 102.717 210.61 103.175 210.899L102.475 212.621C102.017 212.36 101.56 212.169 101.103 212.047C100.645 211.917 100.197 211.851 99.7587 211.851C99.32 211.851 98.9607 211.903 98.6807 212.005C98.4007 212.108 98.2 212.243 98.0787 212.411C97.9574 212.57 97.8967 212.757 97.8967 212.971C97.8967 213.223 97.9994 213.429 98.2047 213.587C98.41 213.737 98.6807 213.858 99.0167 213.951C99.3527 214.045 99.7214 214.138 100.123 214.231C100.533 214.325 100.939 214.432 101.341 214.553C101.751 214.675 102.125 214.838 102.461 215.043C102.797 215.249 103.067 215.519 103.273 215.855C103.487 216.191 103.595 216.616 103.595 217.129C103.595 217.68 103.441 218.184 103.133 218.641C102.825 219.099 102.363 219.467 101.747 219.747C101.14 220.027 100.37 220.167 99.4367 220.167ZM108.574 220.111C107.772 220.111 107.058 219.943 106.432 219.607C105.816 219.271 105.326 218.814 104.962 218.235C104.608 217.647 104.43 216.98 104.43 216.233C104.43 215.477 104.608 214.81 104.962 214.231C105.326 213.643 105.816 213.186 106.432 212.859C107.058 212.523 107.772 212.355 108.574 212.355C109.368 212.355 110.077 212.523 110.702 212.859C111.328 213.186 111.818 213.639 112.172 214.217C112.527 214.796 112.704 215.468 112.704 216.233C112.704 216.98 112.527 217.647 112.172 218.235C111.818 218.814 111.328 219.271 110.702 219.607C110.077 219.943 109.368 220.111 108.574 220.111ZM108.574 218.319C108.938 218.319 109.265 218.235 109.554 218.067C109.844 217.899 110.072 217.661 110.24 217.353C110.408 217.036 110.492 216.663 110.492 216.233C110.492 215.795 110.408 215.421 110.24 215.113C110.072 214.805 109.844 214.567 109.554 214.399C109.265 214.231 108.938 214.147 108.574 214.147C108.21 214.147 107.884 214.231 107.594 214.399C107.305 214.567 107.072 214.805 106.894 215.113C106.726 215.421 106.642 215.795 106.642 216.233C106.642 216.663 106.726 217.036 106.894 217.353C107.072 217.661 107.305 217.899 107.594 218.067C107.884 218.235 108.21 218.319 108.574 218.319ZM114.164 219.999V209.611H116.348V219.999H114.164ZM120.419 219.999L117.255 212.467H119.509L122.141 218.949H121.021L123.751 212.467H125.851L122.673 219.999H120.419ZM126.742 219.999V212.467H128.926V219.999H126.742ZM127.834 211.417C127.433 211.417 127.106 211.301 126.854 211.067C126.602 210.834 126.476 210.545 126.476 210.199C126.476 209.854 126.602 209.565 126.854 209.331C127.106 209.098 127.433 208.981 127.834 208.981C128.236 208.981 128.562 209.093 128.814 209.317C129.066 209.532 129.192 209.812 129.192 210.157C129.192 210.521 129.066 210.825 128.814 211.067C128.572 211.301 128.245 211.417 127.834 211.417ZM135.531 212.355C136.129 212.355 136.661 212.477 137.127 212.719C137.603 212.953 137.977 213.317 138.247 213.811C138.518 214.297 138.653 214.922 138.653 215.687V219.999H136.469V216.023C136.469 215.417 136.334 214.969 136.063 214.679C135.802 214.39 135.429 214.245 134.943 214.245C134.598 214.245 134.285 214.32 134.005 214.469C133.735 214.609 133.52 214.829 133.361 215.127C133.212 215.426 133.137 215.809 133.137 216.275V219.999H130.953V212.467H133.039V214.553L132.647 213.923C132.918 213.419 133.305 213.032 133.809 212.761C134.313 212.491 134.887 212.355 135.531 212.355ZM144.23 222.827C143.52 222.827 142.834 222.739 142.172 222.561C141.518 222.393 140.972 222.137 140.534 221.791L141.402 220.223C141.719 220.485 142.12 220.69 142.606 220.839C143.1 220.998 143.586 221.077 144.062 221.077C144.836 221.077 145.396 220.905 145.742 220.559C146.096 220.214 146.274 219.701 146.274 219.019V217.885L146.414 215.995L146.386 214.091V212.467H148.458V218.739C148.458 220.139 148.094 221.171 147.366 221.833C146.638 222.496 145.592 222.827 144.23 222.827ZM143.894 219.635C143.194 219.635 142.559 219.486 141.99 219.187C141.43 218.879 140.977 218.455 140.632 217.913C140.296 217.363 140.128 216.723 140.128 215.995C140.128 215.258 140.296 214.619 140.632 214.077C140.977 213.527 141.43 213.102 141.99 212.803C142.559 212.505 143.194 212.355 143.894 212.355C144.528 212.355 145.088 212.486 145.574 212.747C146.059 212.999 146.437 213.396 146.708 213.937C146.978 214.469 147.114 215.155 147.114 215.995C147.114 216.826 146.978 217.512 146.708 218.053C146.437 218.585 146.059 218.982 145.574 219.243C145.088 219.505 144.528 219.635 143.894 219.635ZM144.328 217.843C144.71 217.843 145.051 217.769 145.35 217.619C145.648 217.461 145.882 217.241 146.05 216.961C146.218 216.681 146.302 216.359 146.302 215.995C146.302 215.622 146.218 215.3 146.05 215.029C145.882 214.749 145.648 214.535 145.35 214.385C145.051 214.227 144.71 214.147 144.328 214.147C143.945 214.147 143.604 214.227 143.306 214.385C143.007 214.535 142.769 214.749 142.592 215.029C142.424 215.3 142.34 215.622 142.34 215.995C142.34 216.359 142.424 216.681 142.592 216.961C142.769 217.241 143.007 217.461 143.306 217.619C143.604 217.769 143.945 217.843 144.328 217.843Z" fill="#1A1B1F"/>
<rect x="171.5" y="197.999" width="197" height="34" rx="17" fill="white"/>
<path d="M186.748 214.147H191.466V215.911H186.748V214.147ZM186.916 218.179H192.25V219.999H184.662V210.199H192.068V212.019H186.916V218.179ZM194.167 219.999V212.299C194.167 211.45 194.419 210.773 194.923 210.269C195.427 209.756 196.145 209.499 197.079 209.499C197.396 209.499 197.699 209.532 197.989 209.597C198.287 209.663 198.539 209.765 198.745 209.905L198.171 211.487C198.049 211.403 197.914 211.338 197.765 211.291C197.615 211.245 197.457 211.221 197.289 211.221C196.971 211.221 196.724 211.315 196.547 211.501C196.379 211.679 196.295 211.949 196.295 212.313V213.013L196.351 213.951V219.999H194.167ZM193.005 214.315V212.635H198.227V214.315H193.005ZM199.69 219.999V212.299C199.69 211.45 199.942 210.773 200.446 210.269C200.95 209.756 201.669 209.499 202.602 209.499C202.919 209.499 203.223 209.532 203.512 209.597C203.811 209.663 204.063 209.765 204.268 209.905L203.694 211.487C203.573 211.403 203.437 211.338 203.288 211.291C203.139 211.245 202.98 211.221 202.812 211.221C202.495 211.221 202.247 211.315 202.07 211.501C201.902 211.679 201.818 211.949 201.818 212.313V213.013L201.874 213.951V219.999H199.69ZM198.528 214.315V212.635H203.75V214.315H198.528ZM208.48 220.111C207.622 220.111 206.866 219.943 206.212 219.607C205.568 219.271 205.069 218.814 204.714 218.235C204.36 217.647 204.182 216.98 204.182 216.233C204.182 215.477 204.355 214.81 204.7 214.231C205.055 213.643 205.536 213.186 206.142 212.859C206.749 212.523 207.435 212.355 208.2 212.355C208.938 212.355 209.6 212.514 210.188 212.831C210.786 213.139 211.257 213.587 211.602 214.175C211.948 214.754 212.12 215.449 212.12 216.261C212.12 216.345 212.116 216.443 212.106 216.555C212.097 216.658 212.088 216.756 212.078 216.849H205.96V215.575H210.93L210.09 215.953C210.09 215.561 210.011 215.221 209.852 214.931C209.694 214.642 209.474 214.418 209.194 214.259C208.914 214.091 208.588 214.007 208.214 214.007C207.841 214.007 207.51 214.091 207.22 214.259C206.94 214.418 206.721 214.647 206.562 214.945C206.404 215.235 206.324 215.58 206.324 215.981V216.317C206.324 216.728 206.413 217.092 206.59 217.409C206.777 217.717 207.034 217.955 207.36 218.123C207.696 218.282 208.088 218.361 208.536 218.361C208.938 218.361 209.288 218.301 209.586 218.179C209.894 218.058 210.174 217.876 210.426 217.633L211.588 218.893C211.243 219.285 210.809 219.589 210.286 219.803C209.764 220.009 209.162 220.111 208.48 220.111ZM217.214 220.111C216.402 220.111 215.679 219.948 215.044 219.621C214.41 219.285 213.91 218.823 213.546 218.235C213.192 217.647 213.014 216.98 213.014 216.233C213.014 215.477 213.192 214.81 213.546 214.231C213.91 213.643 214.41 213.186 215.044 212.859C215.679 212.523 216.402 212.355 217.214 212.355C218.008 212.355 218.698 212.523 219.286 212.859C219.874 213.186 220.308 213.657 220.588 214.273L218.894 215.183C218.698 214.829 218.451 214.567 218.152 214.399C217.863 214.231 217.546 214.147 217.2 214.147C216.827 214.147 216.491 214.231 216.192 214.399C215.894 214.567 215.656 214.805 215.478 215.113C215.31 215.421 215.226 215.795 215.226 216.233C215.226 216.672 215.31 217.045 215.478 217.353C215.656 217.661 215.894 217.899 216.192 218.067C216.491 218.235 216.827 218.319 217.2 218.319C217.546 218.319 217.863 218.24 218.152 218.081C218.451 217.913 218.698 217.647 218.894 217.283L220.588 218.207C220.308 218.814 219.874 219.285 219.286 219.621C218.698 219.948 218.008 220.111 217.214 220.111ZM225.035 220.111C224.149 220.111 223.458 219.887 222.963 219.439C222.469 218.982 222.221 218.305 222.221 217.409V210.801H224.405V217.381C224.405 217.699 224.489 217.946 224.657 218.123C224.825 218.291 225.054 218.375 225.343 218.375C225.689 218.375 225.983 218.282 226.225 218.095L226.813 219.635C226.589 219.794 226.319 219.915 226.001 219.999C225.693 220.074 225.371 220.111 225.035 220.111ZM221.059 214.315V212.635H226.281V214.315H221.059ZM228.039 219.999V212.467H230.223V219.999H228.039ZM229.131 211.417C228.73 211.417 228.403 211.301 228.151 211.067C227.899 210.834 227.773 210.545 227.773 210.199C227.773 209.854 227.899 209.565 228.151 209.331C228.403 209.098 228.73 208.981 229.131 208.981C229.533 208.981 229.859 209.093 230.111 209.317C230.363 209.532 230.489 209.812 230.489 210.157C230.489 210.521 230.363 210.825 230.111 211.067C229.869 211.301 229.542 211.417 229.131 211.417ZM234.294 219.999L231.13 212.467H233.384L236.016 218.949H234.896L237.626 212.467H239.726L236.548 219.999H234.294ZM244.15 220.111C243.292 220.111 242.536 219.943 241.882 219.607C241.238 219.271 240.739 218.814 240.384 218.235C240.03 217.647 239.852 216.98 239.852 216.233C239.852 215.477 240.025 214.81 240.37 214.231C240.725 213.643 241.206 213.186 241.812 212.859C242.419 212.523 243.105 212.355 243.87 212.355C244.608 212.355 245.27 212.514 245.858 212.831C246.456 213.139 246.927 213.587 247.272 214.175C247.618 214.754 247.79 215.449 247.79 216.261C247.79 216.345 247.786 216.443 247.776 216.555C247.767 216.658 247.758 216.756 247.748 216.849H241.63V215.575H246.6L245.76 215.953C245.76 215.561 245.681 215.221 245.522 214.931C245.364 214.642 245.144 214.418 244.864 214.259C244.584 214.091 244.258 214.007 243.884 214.007C243.511 214.007 243.18 214.091 242.89 214.259C242.61 214.418 242.391 214.647 242.232 214.945C242.074 215.235 241.994 215.58 241.994 215.981V216.317C241.994 216.728 242.083 217.092 242.26 217.409C242.447 217.717 242.704 217.955 243.03 218.123C243.366 218.282 243.758 218.361 244.206 218.361C244.608 218.361 244.958 218.301 245.256 218.179C245.564 218.058 245.844 217.876 246.096 217.633L247.258 218.893C246.913 219.285 246.479 219.589 245.956 219.803C245.434 220.009 244.832 220.111 244.15 220.111ZM258.053 220.167C257.297 220.167 256.593 220.046 255.939 219.803C255.295 219.551 254.735 219.197 254.259 218.739C253.783 218.282 253.41 217.745 253.139 217.129C252.878 216.513 252.747 215.837 252.747 215.099C252.747 214.362 252.878 213.685 253.139 213.069C253.41 212.453 253.783 211.917 254.259 211.459C254.745 211.002 255.309 210.652 255.953 210.409C256.597 210.157 257.302 210.031 258.067 210.031C258.917 210.031 259.682 210.181 260.363 210.479C261.054 210.769 261.633 211.198 262.099 211.767L260.643 213.111C260.307 212.729 259.934 212.444 259.523 212.257C259.113 212.061 258.665 211.963 258.179 211.963C257.722 211.963 257.302 212.038 256.919 212.187C256.537 212.337 256.205 212.551 255.925 212.831C255.645 213.111 255.426 213.443 255.267 213.825C255.118 214.208 255.043 214.633 255.043 215.099C255.043 215.566 255.118 215.991 255.267 216.373C255.426 216.756 255.645 217.087 255.925 217.367C256.205 217.647 256.537 217.862 256.919 218.011C257.302 218.161 257.722 218.235 258.179 218.235C258.665 218.235 259.113 218.142 259.523 217.955C259.934 217.759 260.307 217.465 260.643 217.073L262.099 218.417C261.633 218.987 261.054 219.421 260.363 219.719C259.682 220.018 258.912 220.167 258.053 220.167ZM266.801 220.111C265.998 220.111 265.284 219.943 264.659 219.607C264.043 219.271 263.553 218.814 263.189 218.235C262.834 217.647 262.657 216.98 262.657 216.233C262.657 215.477 262.834 214.81 263.189 214.231C263.553 213.643 264.043 213.186 264.659 212.859C265.284 212.523 265.998 212.355 266.801 212.355C267.594 212.355 268.304 212.523 268.929 212.859C269.554 213.186 270.044 213.639 270.399 214.217C270.754 214.796 270.931 215.468 270.931 216.233C270.931 216.98 270.754 217.647 270.399 218.235C270.044 218.814 269.554 219.271 268.929 219.607C268.304 219.943 267.594 220.111 266.801 220.111ZM266.801 218.319C267.165 218.319 267.492 218.235 267.781 218.067C268.07 217.899 268.299 217.661 268.467 217.353C268.635 217.036 268.719 216.663 268.719 216.233C268.719 215.795 268.635 215.421 268.467 215.113C268.299 214.805 268.07 214.567 267.781 214.399C267.492 214.231 267.165 214.147 266.801 214.147C266.437 214.147 266.11 214.231 265.821 214.399C265.532 214.567 265.298 214.805 265.121 215.113C264.953 215.421 264.869 215.795 264.869 216.233C264.869 216.663 264.953 217.036 265.121 217.353C265.298 217.661 265.532 217.899 265.821 218.067C266.11 218.235 266.437 218.319 266.801 218.319ZM282.037 212.355C282.634 212.355 283.161 212.477 283.619 212.719C284.085 212.953 284.449 213.317 284.711 213.811C284.981 214.297 285.117 214.922 285.117 215.687V219.999H282.933V216.023C282.933 215.417 282.807 214.969 282.555 214.679C282.303 214.39 281.948 214.245 281.491 214.245C281.173 214.245 280.889 214.32 280.637 214.469C280.385 214.609 280.189 214.824 280.049 215.113C279.909 215.403 279.839 215.771 279.839 216.219V219.999H277.655V216.023C277.655 215.417 277.529 214.969 277.277 214.679C277.034 214.39 276.684 214.245 276.227 214.245C275.909 214.245 275.625 214.32 275.373 214.469C275.121 214.609 274.925 214.824 274.785 215.113C274.645 215.403 274.575 215.771 274.575 216.219V219.999H272.391V212.467H274.477V214.525L274.085 213.923C274.346 213.41 274.715 213.023 275.191 212.761C275.676 212.491 276.227 212.355 276.843 212.355C277.533 212.355 278.135 212.533 278.649 212.887C279.171 213.233 279.517 213.765 279.685 214.483L278.915 214.273C279.167 213.685 279.568 213.219 280.119 212.873C280.679 212.528 281.318 212.355 282.037 212.355ZM290.252 220.111C289.627 220.111 289.067 219.99 288.572 219.747C288.087 219.505 287.709 219.136 287.438 218.641C287.168 218.137 287.032 217.498 287.032 216.723V212.467H289.216V216.401C289.216 217.027 289.347 217.489 289.608 217.787C289.879 218.077 290.257 218.221 290.742 218.221C291.078 218.221 291.377 218.151 291.638 218.011C291.9 217.862 292.105 217.638 292.254 217.339C292.404 217.031 292.478 216.649 292.478 216.191V212.467H294.662V219.999H292.59V217.927L292.968 218.529C292.716 219.052 292.343 219.449 291.848 219.719C291.363 219.981 290.831 220.111 290.252 220.111ZM301.264 212.355C301.861 212.355 302.393 212.477 302.86 212.719C303.336 212.953 303.709 213.317 303.98 213.811C304.25 214.297 304.386 214.922 304.386 215.687V219.999H302.202V216.023C302.202 215.417 302.066 214.969 301.796 214.679C301.534 214.39 301.161 214.245 300.676 214.245C300.33 214.245 300.018 214.32 299.738 214.469C299.467 214.609 299.252 214.829 299.094 215.127C298.944 215.426 298.87 215.809 298.87 216.275V219.999H296.686V212.467H298.772V214.553L298.38 213.923C298.65 213.419 299.038 213.032 299.542 212.761C300.046 212.491 300.62 212.355 301.264 212.355ZM306.365 219.999V212.467H308.549V219.999H306.365ZM307.457 211.417C307.056 211.417 306.729 211.301 306.477 211.067C306.225 210.834 306.099 210.545 306.099 210.199C306.099 209.854 306.225 209.565 306.477 209.331C306.729 209.098 307.056 208.981 307.457 208.981C307.859 208.981 308.185 209.093 308.437 209.317C308.689 209.532 308.815 209.812 308.815 210.157C308.815 210.521 308.689 210.825 308.437 211.067C308.195 211.301 307.868 211.417 307.457 211.417ZM314.216 220.111C313.404 220.111 312.681 219.948 312.046 219.621C311.412 219.285 310.912 218.823 310.548 218.235C310.194 217.647 310.016 216.98 310.016 216.233C310.016 215.477 310.194 214.81 310.548 214.231C310.912 213.643 311.412 213.186 312.046 212.859C312.681 212.523 313.404 212.355 314.216 212.355C315.01 212.355 315.7 212.523 316.288 212.859C316.876 213.186 317.31 213.657 317.59 214.273L315.896 215.183C315.7 214.829 315.453 214.567 315.154 214.399C314.865 214.231 314.548 214.147 314.202 214.147C313.829 214.147 313.493 214.231 313.194 214.399C312.896 214.567 312.658 214.805 312.48 215.113C312.312 215.421 312.228 215.795 312.228 216.233C312.228 216.672 312.312 217.045 312.48 217.353C312.658 217.661 312.896 217.899 313.194 218.067C313.493 218.235 313.829 218.319 314.202 218.319C314.548 218.319 314.865 218.24 315.154 218.081C315.453 217.913 315.7 217.647 315.896 217.283L317.59 218.207C317.31 218.814 316.876 219.285 316.288 219.621C315.7 219.948 315.01 220.111 314.216 220.111ZM323.468 219.999V218.529L323.328 218.207V215.575C323.328 215.109 323.183 214.745 322.894 214.483C322.614 214.222 322.18 214.091 321.592 214.091C321.191 214.091 320.794 214.157 320.402 214.287C320.019 214.409 319.693 214.577 319.422 214.791L318.638 213.265C319.049 212.976 319.543 212.752 320.122 212.593C320.701 212.435 321.289 212.355 321.886 212.355C323.034 212.355 323.925 212.626 324.56 213.167C325.195 213.709 325.512 214.553 325.512 215.701V219.999H323.468ZM321.172 220.111C320.584 220.111 320.08 220.013 319.66 219.817C319.24 219.612 318.918 219.337 318.694 218.991C318.47 218.646 318.358 218.259 318.358 217.829C318.358 217.381 318.465 216.989 318.68 216.653C318.904 216.317 319.254 216.056 319.73 215.869C320.206 215.673 320.827 215.575 321.592 215.575H323.594V216.849H321.83C321.317 216.849 320.962 216.933 320.766 217.101C320.579 217.269 320.486 217.479 320.486 217.731C320.486 218.011 320.593 218.235 320.808 218.403C321.032 218.562 321.335 218.641 321.718 218.641C322.082 218.641 322.409 218.557 322.698 218.389C322.987 218.212 323.197 217.955 323.328 217.619L323.664 218.627C323.505 219.113 323.216 219.481 322.796 219.733C322.376 219.985 321.835 220.111 321.172 220.111ZM330.568 220.111C329.682 220.111 328.991 219.887 328.496 219.439C328.002 218.982 327.754 218.305 327.754 217.409V210.801H329.938V217.381C329.938 217.699 330.022 217.946 330.19 218.123C330.358 218.291 330.587 218.375 330.876 218.375C331.222 218.375 331.516 218.282 331.758 218.095L332.346 219.635C332.122 219.794 331.852 219.915 331.534 219.999C331.226 220.074 330.904 220.111 330.568 220.111ZM326.592 214.315V212.635H331.814V214.315H326.592ZM333.572 219.999V212.467H335.756V219.999H333.572ZM334.664 211.417C334.263 211.417 333.936 211.301 333.684 211.067C333.432 210.834 333.306 210.545 333.306 210.199C333.306 209.854 333.432 209.565 333.684 209.331C333.936 209.098 334.263 208.981 334.664 208.981C335.066 208.981 335.392 209.093 335.644 209.317C335.896 209.532 336.022 209.812 336.022 210.157C336.022 210.521 335.896 210.825 335.644 211.067C335.402 211.301 335.075 211.417 334.664 211.417ZM341.367 220.111C340.565 220.111 339.851 219.943 339.225 219.607C338.609 219.271 338.119 218.814 337.755 218.235C337.401 217.647 337.223 216.98 337.223 216.233C337.223 215.477 337.401 214.81 337.755 214.231C338.119 213.643 338.609 213.186 339.225 212.859C339.851 212.523 340.565 212.355 341.367 212.355C342.161 212.355 342.87 212.523 343.495 212.859C344.121 213.186 344.611 213.639 344.965 214.217C345.32 214.796 345.497 215.468 345.497 216.233C345.497 216.98 345.32 217.647 344.965 218.235C344.611 218.814 344.121 219.271 343.495 219.607C342.87 219.943 342.161 220.111 341.367 220.111ZM341.367 218.319C341.731 218.319 342.058 218.235 342.347 218.067C342.637 217.899 342.865 217.661 343.033 217.353C343.201 217.036 343.285 216.663 343.285 216.233C343.285 215.795 343.201 215.421 343.033 215.113C342.865 214.805 342.637 214.567 342.347 214.399C342.058 214.231 341.731 214.147 341.367 214.147C341.003 214.147 340.677 214.231 340.387 214.399C340.098 214.567 339.865 214.805 339.687 215.113C339.519 215.421 339.435 215.795 339.435 216.233C339.435 216.663 339.519 217.036 339.687 217.353C339.865 217.661 340.098 217.899 340.387 218.067C340.677 218.235 341.003 218.319 341.367 218.319ZM351.535 212.355C352.133 212.355 352.665 212.477 353.131 212.719C353.607 212.953 353.981 213.317 354.251 213.811C354.522 214.297 354.657 214.922 354.657 215.687V219.999H352.473V216.023C352.473 215.417 352.338 214.969 352.067 214.679C351.806 214.39 351.433 214.245 350.947 214.245C350.602 214.245 350.289 214.32 350.009 214.469C349.739 214.609 349.524 214.829 349.365 215.127C349.216 215.426 349.141 215.809 349.141 216.275V219.999H346.957V212.467H349.043V214.553L348.651 213.923C348.922 213.419 349.309 213.032 349.813 212.761C350.317 212.491 350.891 212.355 351.535 212.355Z" fill="#1A1B1F"/>
</g>
<g filter="url(#filter1_d_6586_3403)">
<rect x="43" y="53.9994" width="280" height="72" rx="36" fill="white" shape-rendering="crispEdges"/>
<rect x="59" y="69.9994" width="40" height="40" rx="20" fill="#FCD39A"/>
<g clip-path="url(#clip1_6586_3403)">
<path d="M79 83.9994V80.9994" stroke="#1A1B1F" stroke-width="3" stroke-linecap="round" stroke-linejoin="round"/>
<path d="M83.25 85.751L85.4 83.601" stroke="#1A1B1F" stroke-width="3" stroke-linecap="round" stroke-linejoin="round"/>
<path d="M85 89.9994H88" stroke="#1A1B1F" stroke-width="3" stroke-linecap="round" stroke-linejoin="round"/>
<path d="M83.25 94.2494L85.4 96.3994" stroke="#1A1B1F" stroke-width="3" stroke-linecap="round" stroke-linejoin="round"/>
<path d="M79 95.9994V98.9994" stroke="#1A1B1F" stroke-width="3" stroke-linecap="round" stroke-linejoin="round"/>
<path d="M74.7496 94.2494L72.5996 96.3994" stroke="#1A1B1F" stroke-width="3" stroke-linecap="round" stroke-linejoin="round"/>
<path d="M73 89.9994H70" stroke="#1A1B1F" stroke-width="3" stroke-linecap="round" stroke-linejoin="round"/>
<path d="M74.7496 85.751L72.5996 83.601" stroke="#1A1B1F" stroke-width="3" stroke-linecap="round" stroke-linejoin="round"/>
</g>
<path d="M108.494 95.9994V83.3994H110.906L116.27 92.2914H114.992L120.266 83.3994H122.66L122.696 95.9994H119.96L119.942 87.5934H120.446L116.234 94.6674H114.92L110.618 87.5934H111.23V95.9994H108.494ZM131.427 95.9994V94.1094L131.247 93.6954V90.3114C131.247 89.7114 131.061 89.2434 130.689 88.9074C130.329 88.5714 129.771 88.4034 129.015 88.4034C128.499 88.4034 127.989 88.4874 127.485 88.6554C126.993 88.8114 126.573 89.0274 126.225 89.3034L125.217 87.3414C125.745 86.9694 126.381 86.6814 127.125 86.4774C127.869 86.2734 128.625 86.1714 129.393 86.1714C130.869 86.1714 132.015 86.5194 132.831 87.2154C133.647 87.9114 134.055 88.9974 134.055 90.4734V95.9994H131.427ZM128.475 96.1434C127.719 96.1434 127.071 96.0174 126.531 95.7654C125.991 95.5014 125.577 95.1474 125.289 94.7034C125.001 94.2594 124.857 93.7614 124.857 93.2094C124.857 92.6334 124.995 92.1294 125.271 91.6974C125.559 91.2654 126.009 90.9294 126.621 90.6894C127.233 90.4374 128.031 90.3114 129.015 90.3114H131.589V91.9494H129.321C128.661 91.9494 128.205 92.0574 127.953 92.2734C127.713 92.4894 127.593 92.7594 127.593 93.0834C127.593 93.4434 127.731 93.7314 128.007 93.9474C128.295 94.1514 128.685 94.2534 129.177 94.2534C129.645 94.2534 130.065 94.1454 130.437 93.9294C130.809 93.7014 131.079 93.3714 131.247 92.9394L131.679 94.2354C131.475 94.8594 131.103 95.3334 130.563 95.6574C130.023 95.9814 129.327 96.1434 128.475 96.1434ZM140.557 96.1434C139.417 96.1434 138.529 95.8554 137.893 95.2794C137.257 94.6914 136.939 93.8214 136.939 92.6694V84.1734H139.747V92.6334C139.747 93.0414 139.855 93.3594 140.071 93.5874C140.287 93.8034 140.581 93.9114 140.953 93.9114C141.397 93.9114 141.775 93.7914 142.087 93.5514L142.843 95.5314C142.555 95.7354 142.207 95.8914 141.799 95.9994C141.403 96.0954 140.989 96.1434 140.557 96.1434ZM135.445 88.6914V86.5314H142.159V88.6914H135.445ZM148.8 96.1434C147.756 96.1434 146.826 95.9334 146.01 95.5134C145.194 95.0814 144.552 94.4874 144.084 93.7314C143.628 92.9754 143.4 92.1174 143.4 91.1574C143.4 90.1854 143.628 89.3274 144.084 88.5834C144.552 87.8274 145.194 87.2394 146.01 86.8194C146.826 86.3874 147.756 86.1714 148.8 86.1714C149.82 86.1714 150.708 86.3874 151.464 86.8194C152.22 87.2394 152.778 87.8454 153.138 88.6374L150.96 89.8074C150.708 89.3514 150.39 89.0154 150.006 88.7994C149.634 88.5834 149.226 88.4754 148.782 88.4754C148.302 88.4754 147.87 88.5834 147.486 88.7994C147.102 89.0154 146.796 89.3214 146.568 89.7174C146.352 90.1134 146.244 90.5934 146.244 91.1574C146.244 91.7214 146.352 92.2014 146.568 92.5974C146.796 92.9934 147.102 93.2994 147.486 93.5154C147.87 93.7314 148.302 93.8394 148.782 93.8394C149.226 93.8394 149.634 93.7374 150.006 93.5334C150.39 93.3174 150.708 92.9754 150.96 92.5074L153.138 93.6954C152.778 94.4754 152.22 95.0814 151.464 95.5134C150.708 95.9334 149.82 96.1434 148.8 96.1434ZM160.588 86.1714C161.356 86.1714 162.04 86.3274 162.64 86.6394C163.252 86.9394 163.732 87.4074 164.08 88.0434C164.428 88.6674 164.602 89.4714 164.602 90.4554V95.9994H161.794V90.8874C161.794 90.1074 161.62 89.5314 161.272 89.1594C160.936 88.7874 160.456 88.6014 159.832 88.6014C159.388 88.6014 158.986 88.6974 158.626 88.8894C158.278 89.0694 158.002 89.3514 157.798 89.7354C157.606 90.1194 157.51 90.6114 157.51 91.2114V95.9994H154.702V82.6434H157.51V88.9974L156.88 88.1874C157.228 87.5394 157.726 87.0414 158.374 86.6934C159.022 86.3454 159.76 86.1714 160.588 86.1714ZM167.148 95.9994V86.3154H169.956V95.9994H167.148ZM168.552 84.9654C168.036 84.9654 167.616 84.8154 167.292 84.5154C166.968 84.2154 166.806 83.8434 166.806 83.3994C166.806 82.9554 166.968 82.5834 167.292 82.2834C167.616 81.9834 168.036 81.8334 168.552 81.8334C169.068 81.8334 169.488 81.9774 169.812 82.2654C170.136 82.5414 170.298 82.9014 170.298 83.3454C170.298 83.8134 170.136 84.2034 169.812 84.5154C169.5 84.8154 169.08 84.9654 168.552 84.9654ZM178.448 86.1714C179.216 86.1714 179.9 86.3274 180.5 86.6394C181.112 86.9394 181.592 87.4074 181.94 88.0434C182.288 88.6674 182.462 89.4714 182.462 90.4554V95.9994H179.654V90.8874C179.654 90.1074 179.48 89.5314 179.132 89.1594C178.796 88.7874 178.316 88.6014 177.692 88.6014C177.248 88.6014 176.846 88.6974 176.486 88.8894C176.138 89.0694 175.862 89.3514 175.658 89.7354C175.466 90.1194 175.37 90.6114 175.37 91.2114V95.9994H172.562V86.3154H175.244V88.9974L174.74 88.1874C175.088 87.5394 175.586 87.0414 176.234 86.6934C176.882 86.3454 177.62 86.1714 178.448 86.1714ZM189.631 99.6354C188.719 99.6354 187.837 99.5214 186.985 99.2934C186.145 99.0774 185.443 98.7474 184.879 98.3034L185.995 96.2874C186.403 96.6234 186.919 96.8874 187.543 97.0794C188.179 97.2834 188.803 97.3854 189.415 97.3854C190.411 97.3854 191.131 97.1634 191.575 96.7194C192.031 96.2754 192.259 95.6154 192.259 94.7394V93.2814L192.439 90.8514L192.403 88.4034V86.3154H195.067V94.3794C195.067 96.1794 194.599 97.5054 193.663 98.3574C192.727 99.2094 191.383 99.6354 189.631 99.6354ZM189.199 95.5314C188.299 95.5314 187.483 95.3394 186.751 94.9554C186.031 94.5594 185.449 94.0134 185.005 93.3174C184.573 92.6094 184.357 91.7874 184.357 90.8514C184.357 89.9034 184.573 89.0814 185.005 88.3854C185.449 87.6774 186.031 87.1314 186.751 86.7474C187.483 86.3634 188.299 86.1714 189.199 86.1714C190.015 86.1714 190.735 86.3394 191.359 86.6754C191.983 86.9994 192.469 87.5094 192.817 88.2054C193.165 88.8894 193.339 89.7714 193.339 90.8514C193.339 91.9194 193.165 92.8014 192.817 93.4974C192.469 94.1814 191.983 94.6914 191.359 95.0274C190.735 95.3634 190.015 95.5314 189.199 95.5314ZM189.757 93.2274C190.249 93.2274 190.687 93.1314 191.071 92.9394C191.455 92.7354 191.755 92.4534 191.971 92.0934C192.187 91.7334 192.295 91.3194 192.295 90.8514C192.295 90.3714 192.187 89.9574 191.971 89.6094C191.755 89.2494 191.455 88.9734 191.071 88.7814C190.687 88.5774 190.249 88.4754 189.757 88.4754C189.265 88.4754 188.827 88.5774 188.443 88.7814C188.059 88.9734 187.753 89.2494 187.525 89.6094C187.309 89.9574 187.201 90.3714 187.201 90.8514C187.201 91.3194 187.309 91.7334 187.525 92.0934C187.753 92.4534 188.059 92.7354 188.443 92.9394C188.827 93.1314 189.265 93.2274 189.757 93.2274ZM202.778 95.9994V86.3154H205.586V95.9994H202.778ZM204.182 84.9654C203.666 84.9654 203.246 84.8154 202.922 84.5154C202.598 84.2154 202.436 83.8434 202.436 83.3994C202.436 82.9554 202.598 82.5834 202.922 82.2834C203.246 81.9834 203.666 81.8334 204.182 81.8334C204.698 81.8334 205.118 81.9774 205.442 82.2654C205.766 82.5414 205.928 82.9014 205.928 83.3454C205.928 83.8134 205.766 84.2034 205.442 84.5154C205.13 84.8154 204.71 84.9654 204.182 84.9654ZM214.078 86.1714C214.846 86.1714 215.53 86.3274 216.13 86.6394C216.742 86.9394 217.222 87.4074 217.57 88.0434C217.918 88.6674 218.092 89.4714 218.092 90.4554V95.9994H215.284V90.8874C215.284 90.1074 215.11 89.5314 214.762 89.1594C214.426 88.7874 213.946 88.6014 213.322 88.6014C212.878 88.6014 212.476 88.6974 212.116 88.8894C211.768 89.0694 211.492 89.3514 211.288 89.7354C211.096 90.1194 211 90.6114 211 91.2114V95.9994H208.192V86.3154H210.874V88.9974L210.37 88.1874C210.718 87.5394 211.216 87.0414 211.864 86.6934C212.512 86.3454 213.25 86.1714 214.078 86.1714ZM231.459 96.1434C230.643 96.1434 229.929 95.9634 229.317 95.6034C228.705 95.2434 228.225 94.6974 227.877 93.9654C227.541 93.2214 227.373 92.2854 227.373 91.1574C227.373 90.0174 227.535 89.0814 227.859 88.3494C228.183 87.6174 228.651 87.0714 229.263 86.7114C229.875 86.3514 230.607 86.1714 231.459 86.1714C232.371 86.1714 233.187 86.3814 233.907 86.8014C234.639 87.2094 235.215 87.7854 235.635 88.5294C236.067 89.2734 236.283 90.1494 236.283 91.1574C236.283 92.1774 236.067 93.0594 235.635 93.8034C235.215 94.5474 234.639 95.1234 233.907 95.5314C233.187 95.9394 232.371 96.1434 231.459 96.1434ZM225.735 99.4914V86.3154H228.417V88.2954L228.363 91.1754L228.543 94.0374V99.4914H225.735ZM230.973 93.8394C231.441 93.8394 231.855 93.7314 232.215 93.5154C232.587 93.2994 232.881 92.9934 233.097 92.5974C233.325 92.1894 233.439 91.7094 233.439 91.1574C233.439 90.5934 233.325 90.1134 233.097 89.7174C232.881 89.3214 232.587 89.0154 232.215 88.7994C231.855 88.5834 231.441 88.4754 230.973 88.4754C230.505 88.4754 230.085 88.5834 229.713 88.7994C229.341 89.0154 229.047 89.3214 228.831 89.7174C228.615 90.1134 228.507 90.5934 228.507 91.1574C228.507 91.7094 228.615 92.1894 228.831 92.5974C229.047 92.9934 229.341 93.2994 229.713 93.5154C230.085 93.7314 230.505 93.8394 230.973 93.8394ZM238.163 95.9994V86.3154H240.845V89.0514L240.467 88.2594C240.755 87.5754 241.217 87.0594 241.853 86.7114C242.489 86.3514 243.263 86.1714 244.175 86.1714V88.7634C244.055 88.7514 243.947 88.7454 243.851 88.7454C243.755 88.7334 243.653 88.7274 243.545 88.7274C242.777 88.7274 242.153 88.9494 241.673 89.3934C241.205 89.8254 240.971 90.5034 240.971 91.4274V95.9994H238.163ZM250.383 96.1434C249.351 96.1434 248.433 95.9274 247.629 95.4954C246.837 95.0634 246.207 94.4754 245.739 93.7314C245.283 92.9754 245.055 92.1174 245.055 91.1574C245.055 90.1854 245.283 89.3274 245.739 88.5834C246.207 87.8274 246.837 87.2394 247.629 86.8194C248.433 86.3874 249.351 86.1714 250.383 86.1714C251.403 86.1714 252.315 86.3874 253.119 86.8194C253.923 87.2394 254.553 87.8214 255.009 88.5654C255.465 89.3094 255.693 90.1734 255.693 91.1574C255.693 92.1174 255.465 92.9754 255.009 93.7314C254.553 94.4754 253.923 95.0634 253.119 95.4954C252.315 95.9274 251.403 96.1434 250.383 96.1434ZM250.383 93.8394C250.851 93.8394 251.271 93.7314 251.643 93.5154C252.015 93.2994 252.309 92.9934 252.525 92.5974C252.741 92.1894 252.849 91.7094 252.849 91.1574C252.849 90.5934 252.741 90.1134 252.525 89.7174C252.309 89.3214 252.015 89.0154 251.643 88.7994C251.271 88.5834 250.851 88.4754 250.383 88.4754C249.915 88.4754 249.495 88.5834 249.123 88.7994C248.751 89.0154 248.451 89.3214 248.223 89.7174C248.007 90.1134 247.899 90.5934 247.899 91.1574C247.899 91.7094 248.007 92.1894 248.223 92.5974C248.451 92.9934 248.751 93.2994 249.123 93.5154C249.495 93.7314 249.915 93.8394 250.383 93.8394ZM262.123 99.6354C261.211 99.6354 260.329 99.5214 259.477 99.2934C258.637 99.0774 257.935 98.7474 257.371 98.3034L258.487 96.2874C258.895 96.6234 259.411 96.8874 260.035 97.0794C260.671 97.2834 261.295 97.3854 261.907 97.3854C262.903 97.3854 263.623 97.1634 264.067 96.7194C264.523 96.2754 264.751 95.6154 264.751 94.7394V93.2814L264.931 90.8514L264.895 88.4034V86.3154H267.559V94.3794C267.559 96.1794 267.091 97.5054 266.155 98.3574C265.219 99.2094 263.875 99.6354 262.123 99.6354ZM261.691 95.5314C260.791 95.5314 259.975 95.3394 259.243 94.9554C258.523 94.5594 257.941 94.0134 257.497 93.3174C257.065 92.6094 256.849 91.7874 256.849 90.8514C256.849 89.9034 257.065 89.0814 257.497 88.3854C257.941 87.6774 258.523 87.1314 259.243 86.7474C259.975 86.3634 260.791 86.1714 261.691 86.1714C262.507 86.1714 263.227 86.3394 263.851 86.6754C264.475 86.9994 264.961 87.5094 265.309 88.2054C265.657 88.8894 265.831 89.7714 265.831 90.8514C265.831 91.9194 265.657 92.8014 265.309 93.4974C264.961 94.1814 264.475 94.6914 263.851 95.0274C263.227 95.3634 262.507 95.5314 261.691 95.5314ZM262.249 93.2274C262.741 93.2274 263.179 93.1314 263.563 92.9394C263.947 92.7354 264.247 92.4534 264.463 92.0934C264.679 91.7334 264.787 91.3194 264.787 90.8514C264.787 90.3714 264.679 89.9574 264.463 89.6094C264.247 89.2494 263.947 88.9734 263.563 88.7814C263.179 88.5774 262.741 88.4754 262.249 88.4754C261.757 88.4754 261.319 88.5774 260.935 88.7814C260.551 88.9734 260.245 89.2494 260.017 89.6094C259.801 89.9574 259.693 90.3714 259.693 90.8514C259.693 91.3194 259.801 91.7334 260.017 92.0934C260.245 92.4534 260.551 92.7354 260.935 92.9394C261.319 93.1314 261.757 93.2274 262.249 93.2274ZM270.173 95.9994V86.3154H272.855V89.0514L272.477 88.2594C272.765 87.5754 273.227 87.0594 273.863 86.7114C274.499 86.3514 275.273 86.1714 276.185 86.1714V88.7634C276.065 88.7514 275.957 88.7454 275.861 88.7454C275.765 88.7334 275.663 88.7274 275.555 88.7274C274.787 88.7274 274.163 88.9494 273.683 89.3934C273.215 89.8254 272.981 90.5034 272.981 91.4274V95.9994H270.173ZM282.59 96.1434C281.486 96.1434 280.514 95.9274 279.674 95.4954C278.846 95.0634 278.204 94.4754 277.748 93.7314C277.292 92.9754 277.064 92.1174 277.064 91.1574C277.064 90.1854 277.286 89.3274 277.73 88.5834C278.186 87.8274 278.804 87.2394 279.584 86.8194C280.364 86.3874 281.246 86.1714 282.23 86.1714C283.178 86.1714 284.03 86.3754 284.786 86.7834C285.554 87.1794 286.16 87.7554 286.604 88.5114C287.048 89.2554 287.27 90.1494 287.27 91.1934C287.27 91.3014 287.264 91.4274 287.252 91.5714C287.24 91.7034 287.228 91.8294 287.216 91.9494H279.35V90.3114H285.74L284.66 90.7974C284.66 90.2934 284.558 89.8554 284.354 89.4834C284.15 89.1114 283.868 88.8234 283.508 88.6194C283.148 88.4034 282.728 88.2954 282.248 88.2954C281.768 88.2954 281.342 88.4034 280.97 88.6194C280.61 88.8234 280.328 89.1174 280.124 89.5014C279.92 89.8734 279.818 90.3174 279.818 90.8334V91.2654C279.818 91.7934 279.932 92.2614 280.16 92.6694C280.4 93.0654 280.73 93.3714 281.15 93.5874C281.582 93.7914 282.086 93.8934 282.662 93.8934C283.178 93.8934 283.628 93.8154 284.012 93.6594C284.408 93.5034 284.768 93.2694 285.092 92.9574L286.586 94.5774C286.142 95.0814 285.584 95.4714 284.912 95.7474C284.24 96.0114 283.466 96.1434 282.59 96.1434ZM292.398 96.1434C291.57 96.1434 290.772 96.0474 290.004 95.8554C289.248 95.6514 288.648 95.3994 288.204 95.0994L289.14 93.0834C289.584 93.3594 290.106 93.5874 290.706 93.7674C291.318 93.9354 291.918 94.0194 292.506 94.0194C293.154 94.0194 293.61 93.9414 293.874 93.7854C294.15 93.6294 294.288 93.4134 294.288 93.1374C294.288 92.9094 294.18 92.7414 293.964 92.6334C293.76 92.5134 293.484 92.4234 293.136 92.3634C292.788 92.3034 292.404 92.2434 291.984 92.1834C291.576 92.1234 291.162 92.0454 290.742 91.9494C290.322 91.8414 289.938 91.6854 289.59 91.4814C289.242 91.2774 288.96 91.0014 288.744 90.6534C288.54 90.3054 288.438 89.8554 288.438 89.3034C288.438 88.6914 288.612 88.1514 288.96 87.6834C289.32 87.2154 289.836 86.8494 290.508 86.5854C291.18 86.3094 291.984 86.1714 292.92 86.1714C293.58 86.1714 294.252 86.2434 294.936 86.3874C295.62 86.5314 296.19 86.7414 296.646 87.0174L295.71 89.0154C295.242 88.7394 294.768 88.5534 294.288 88.4574C293.82 88.3494 293.364 88.2954 292.92 88.2954C292.296 88.2954 291.84 88.3794 291.552 88.5474C291.264 88.7154 291.12 88.9314 291.12 89.1954C291.12 89.4354 291.222 89.6154 291.426 89.7354C291.642 89.8554 291.924 89.9514 292.272 90.0234C292.62 90.0954 292.998 90.1614 293.406 90.2214C293.826 90.2694 294.246 90.3474 294.666 90.4554C295.086 90.5634 295.464 90.7194 295.8 90.9234C296.148 91.1154 296.43 91.3854 296.646 91.7334C296.862 92.0694 296.97 92.5134 296.97 93.0654C296.97 93.6654 296.79 94.1994 296.43 94.6674C296.07 95.1234 295.548 95.4834 294.864 95.7474C294.192 96.0114 293.37 96.1434 292.398 96.1434ZM301.96 96.1434C301.132 96.1434 300.334 96.0474 299.566 95.8554C298.81 95.6514 298.21 95.3994 297.766 95.0994L298.702 93.0834C299.146 93.3594 299.668 93.5874 300.268 93.7674C300.88 93.9354 301.48 94.0194 302.068 94.0194C302.716 94.0194 303.172 93.9414 303.436 93.7854C303.712 93.6294 303.85 93.4134 303.85 93.1374C303.85 92.9094 303.742 92.7414 303.526 92.6334C303.322 92.5134 303.046 92.4234 302.698 92.3634C302.35 92.3034 301.966 92.2434 301.546 92.1834C301.138 92.1234 300.724 92.0454 300.304 91.9494C299.884 91.8414 299.5 91.6854 299.152 91.4814C298.804 91.2774 298.522 91.0014 298.306 90.6534C298.102 90.3054 298 89.8554 298 89.3034C298 88.6914 298.174 88.1514 298.522 87.6834C298.882 87.2154 299.398 86.8494 300.07 86.5854C300.742 86.3094 301.546 86.1714 302.482 86.1714C303.142 86.1714 303.814 86.2434 304.498 86.3874C305.182 86.5314 305.752 86.7414 306.208 87.0174L305.272 89.0154C304.804 88.7394 304.33 88.5534 303.85 88.4574C303.382 88.3494 302.926 88.2954 302.482 88.2954C301.858 88.2954 301.402 88.3794 301.114 88.5474C300.826 88.7154 300.682 88.9314 300.682 89.1954C300.682 89.4354 300.784 89.6154 300.988 89.7354C301.204 89.8554 301.486 89.9514 301.834 90.0234C302.182 90.0954 302.56 90.1614 302.968 90.2214C303.388 90.2694 303.808 90.3474 304.228 90.4554C304.648 90.5634 305.026 90.7194 305.362 90.9234C305.71 91.1154 305.992 91.3854 306.208 91.7334C306.424 92.0694 306.532 92.5134 306.532 93.0654C306.532 93.6654 306.352 94.1994 305.992 94.6674C305.632 95.1234 305.11 95.4834 304.426 95.7474C303.754 96.0114 302.932 96.1434 301.96 96.1434Z" fill="#1A1B1F"/>
</g>
</g>
<path d="M2 262C11.5 261.574 32.5 244.5 33.5 228M107.5 201C119.5 205 156.5 186.5 159 176M170.054 167.801C174.224 164.632 177.061 161.619 180.641 158.757C185.892 154.559 189.799 150.12 193.173 145.624C198.777 138.158 204.368 128.174 209.292 119.457M243.5 56C255.5 42.5 281.464 26.8281 299 22.5" stroke="white" stroke-width="4" stroke-dasharray="7 7"/>
<path d="M301.669 33.8464L320.445 11.9948L291.8 12.2991L301.12 21.0575L301.669 33.8464Z" fill="white"/>
<defs>
<filter id="filter0_d_6586_3403" x="-4" y="151.999" width="397" height="116" filterUnits="userSpaceOnUse" color-interpolation-filters="sRGB">
<feFlood flood-opacity="0" result="BackgroundImageFix"/>
<feColorMatrix in="SourceAlpha" type="matrix" values="0 0 0 0 0 0 0 0 0 0 0 0 0 0 0 0 0 0 127 0" result="hardAlpha"/>
<feOffset dx="2" dy="6"/>
<feGaussianBlur stdDeviation="4"/>
<feComposite in2="hardAlpha" operator="out"/>
<feColorMatrix type="matrix" values="0 0 0 0 0 0 0 0 0 0 0 0 0 0 0 0 0 0 0.15 0"/>
<feBlend mode="normal" in2="BackgroundImageFix" result="effect1_dropShadow_6586_3403"/>
<feBlend mode="normal" in="SourceGraphic" in2="effect1_dropShadow_6586_3403" result="shape"/>
</filter>
<filter id="filter1_d_6586_3403" x="37" y="51.9994" width="296" height="88" filterUnits="userSpaceOnUse" color-interpolation-filters="sRGB">
<feFlood flood-opacity="0" result="BackgroundImageFix"/>
<feColorMatrix in="SourceAlpha" type="matrix" values="0 0 0 0 0 0 0 0 0 0 0 0 0 0 0 0 0 0 127 0" result="hardAlpha"/>
<feOffset dx="2" dy="6"/>
<feGaussianBlur stdDeviation="4"/>
<feComposite in2="hardAlpha" operator="out"/>
<feColorMatrix type="matrix" values="0 0 0 0 0 0 0 0 0 0 0 0 0 0 0 0 0 0 0.15 0"/>
<feBlend mode="normal" in2="BackgroundImageFix" result="effect1_dropShadow_6586_3403"/>
<feBlend mode="normal" in="SourceGraphic" in2="effect1_dropShadow_6586_3403" result="shape"/>
</filter>
<clipPath id="clip0_6586_3403">
<rect width="384" height="236" fill="white" transform="translate(0 32.9994)"/>
</clipPath>
<clipPath id="clip1_6586_3403">
<rect width="24" height="24" fill="white" transform="translate(67 77.9994)"/>
</clipPath>
</defs>
</svg>
